%TF.GenerationSoftware,KiCad,Pcbnew,9.0.3*%
%TF.CreationDate,2025-08-23T13:52:50+10:00*%
%TF.ProjectId,soundrocket,736f756e-6472-46f6-936b-65742e6b6963,rev?*%
%TF.SameCoordinates,Original*%
%TF.FileFunction,Legend,Top*%
%TF.FilePolarity,Positive*%
%FSLAX46Y46*%
G04 Gerber Fmt 4.6, Leading zero omitted, Abs format (unit mm)*
G04 Created by KiCad (PCBNEW 9.0.3) date 2025-08-23 13:52:50*
%MOMM*%
%LPD*%
G01*
G04 APERTURE LIST*
%ADD10C,0.160000*%
%ADD11C,0.150000*%
%ADD12C,0.120000*%
%ADD13C,0.152400*%
%ADD14C,0.127000*%
%ADD15C,0.100000*%
%ADD16C,0.200000*%
G04 APERTURE END LIST*
D10*
X195583643Y-71483680D02*
X195659834Y-71521775D01*
X195659834Y-71521775D02*
X195812215Y-71521775D01*
X195812215Y-71521775D02*
X195888405Y-71483680D01*
X195888405Y-71483680D02*
X195926501Y-71407489D01*
X195926501Y-71407489D02*
X195926501Y-71369394D01*
X195926501Y-71369394D02*
X195888405Y-71293203D01*
X195888405Y-71293203D02*
X195812215Y-71255108D01*
X195812215Y-71255108D02*
X195697929Y-71255108D01*
X195697929Y-71255108D02*
X195621739Y-71217013D01*
X195621739Y-71217013D02*
X195583643Y-71140822D01*
X195583643Y-71140822D02*
X195583643Y-71102727D01*
X195583643Y-71102727D02*
X195621739Y-71026537D01*
X195621739Y-71026537D02*
X195697929Y-70988441D01*
X195697929Y-70988441D02*
X195812215Y-70988441D01*
X195812215Y-70988441D02*
X195888405Y-71026537D01*
X196269358Y-71521775D02*
X196269358Y-70988441D01*
X196269358Y-71140822D02*
X196307453Y-71064632D01*
X196307453Y-71064632D02*
X196345548Y-71026537D01*
X196345548Y-71026537D02*
X196421739Y-70988441D01*
X196421739Y-70988441D02*
X196497929Y-70988441D01*
X196764596Y-71217013D02*
X197374120Y-71217013D01*
X197755072Y-70988441D02*
X197755072Y-71788441D01*
X197755072Y-71026537D02*
X197831262Y-70988441D01*
X197831262Y-70988441D02*
X197983643Y-70988441D01*
X197983643Y-70988441D02*
X198059834Y-71026537D01*
X198059834Y-71026537D02*
X198097929Y-71064632D01*
X198097929Y-71064632D02*
X198136024Y-71140822D01*
X198136024Y-71140822D02*
X198136024Y-71369394D01*
X198136024Y-71369394D02*
X198097929Y-71445584D01*
X198097929Y-71445584D02*
X198059834Y-71483680D01*
X198059834Y-71483680D02*
X197983643Y-71521775D01*
X197983643Y-71521775D02*
X197831262Y-71521775D01*
X197831262Y-71521775D02*
X197755072Y-71483680D01*
X198478882Y-71521775D02*
X198478882Y-70988441D01*
X198478882Y-71140822D02*
X198516977Y-71064632D01*
X198516977Y-71064632D02*
X198555072Y-71026537D01*
X198555072Y-71026537D02*
X198631263Y-70988441D01*
X198631263Y-70988441D02*
X198707453Y-70988441D01*
X199088405Y-71521775D02*
X199012215Y-71483680D01*
X199012215Y-71483680D02*
X198974120Y-71445584D01*
X198974120Y-71445584D02*
X198936024Y-71369394D01*
X198936024Y-71369394D02*
X198936024Y-71140822D01*
X198936024Y-71140822D02*
X198974120Y-71064632D01*
X198974120Y-71064632D02*
X199012215Y-71026537D01*
X199012215Y-71026537D02*
X199088405Y-70988441D01*
X199088405Y-70988441D02*
X199202691Y-70988441D01*
X199202691Y-70988441D02*
X199278882Y-71026537D01*
X199278882Y-71026537D02*
X199316977Y-71064632D01*
X199316977Y-71064632D02*
X199355072Y-71140822D01*
X199355072Y-71140822D02*
X199355072Y-71369394D01*
X199355072Y-71369394D02*
X199316977Y-71445584D01*
X199316977Y-71445584D02*
X199278882Y-71483680D01*
X199278882Y-71483680D02*
X199202691Y-71521775D01*
X199202691Y-71521775D02*
X199088405Y-71521775D01*
X199583644Y-70988441D02*
X199888406Y-70988441D01*
X199697930Y-70721775D02*
X199697930Y-71407489D01*
X199697930Y-71407489D02*
X199736025Y-71483680D01*
X199736025Y-71483680D02*
X199812215Y-71521775D01*
X199812215Y-71521775D02*
X199888406Y-71521775D01*
X200269358Y-71521775D02*
X200193168Y-71483680D01*
X200193168Y-71483680D02*
X200155073Y-71445584D01*
X200155073Y-71445584D02*
X200116977Y-71369394D01*
X200116977Y-71369394D02*
X200116977Y-71140822D01*
X200116977Y-71140822D02*
X200155073Y-71064632D01*
X200155073Y-71064632D02*
X200193168Y-71026537D01*
X200193168Y-71026537D02*
X200269358Y-70988441D01*
X200269358Y-70988441D02*
X200383644Y-70988441D01*
X200383644Y-70988441D02*
X200459835Y-71026537D01*
X200459835Y-71026537D02*
X200497930Y-71064632D01*
X200497930Y-71064632D02*
X200536025Y-71140822D01*
X200536025Y-71140822D02*
X200536025Y-71369394D01*
X200536025Y-71369394D02*
X200497930Y-71445584D01*
X200497930Y-71445584D02*
X200459835Y-71483680D01*
X200459835Y-71483680D02*
X200383644Y-71521775D01*
X200383644Y-71521775D02*
X200269358Y-71521775D01*
X200878883Y-71217013D02*
X201488407Y-71217013D01*
X201869359Y-71521775D02*
X201869359Y-70988441D01*
X201869359Y-71140822D02*
X201907454Y-71064632D01*
X201907454Y-71064632D02*
X201945549Y-71026537D01*
X201945549Y-71026537D02*
X202021740Y-70988441D01*
X202021740Y-70988441D02*
X202097930Y-70988441D01*
X202669359Y-71483680D02*
X202593168Y-71521775D01*
X202593168Y-71521775D02*
X202440787Y-71521775D01*
X202440787Y-71521775D02*
X202364597Y-71483680D01*
X202364597Y-71483680D02*
X202326501Y-71407489D01*
X202326501Y-71407489D02*
X202326501Y-71102727D01*
X202326501Y-71102727D02*
X202364597Y-71026537D01*
X202364597Y-71026537D02*
X202440787Y-70988441D01*
X202440787Y-70988441D02*
X202593168Y-70988441D01*
X202593168Y-70988441D02*
X202669359Y-71026537D01*
X202669359Y-71026537D02*
X202707454Y-71102727D01*
X202707454Y-71102727D02*
X202707454Y-71178918D01*
X202707454Y-71178918D02*
X202326501Y-71255108D01*
X202974120Y-70988441D02*
X203164596Y-71521775D01*
X203164596Y-71521775D02*
X203355073Y-70988441D01*
X203621739Y-70797965D02*
X203659835Y-70759870D01*
X203659835Y-70759870D02*
X203736025Y-70721775D01*
X203736025Y-70721775D02*
X203926501Y-70721775D01*
X203926501Y-70721775D02*
X204002692Y-70759870D01*
X204002692Y-70759870D02*
X204040787Y-70797965D01*
X204040787Y-70797965D02*
X204078882Y-70874156D01*
X204078882Y-70874156D02*
X204078882Y-70950346D01*
X204078882Y-70950346D02*
X204040787Y-71064632D01*
X204040787Y-71064632D02*
X203583644Y-71521775D01*
X203583644Y-71521775D02*
X204078882Y-71521775D01*
D11*
X186121922Y-38239819D02*
X186693350Y-38239819D01*
X186407636Y-39239819D02*
X186407636Y-38239819D01*
X186931446Y-38239819D02*
X187598112Y-39239819D01*
X187598112Y-38239819D02*
X186931446Y-39239819D01*
X187979065Y-38858866D02*
X188740970Y-38858866D01*
X188360017Y-39239819D02*
X188360017Y-38477914D01*
D10*
X191303739Y-73045775D02*
X191303739Y-72245775D01*
X191303739Y-72245775D02*
X191494215Y-72245775D01*
X191494215Y-72245775D02*
X191608501Y-72283870D01*
X191608501Y-72283870D02*
X191684691Y-72360060D01*
X191684691Y-72360060D02*
X191722786Y-72436251D01*
X191722786Y-72436251D02*
X191760882Y-72588632D01*
X191760882Y-72588632D02*
X191760882Y-72702918D01*
X191760882Y-72702918D02*
X191722786Y-72855299D01*
X191722786Y-72855299D02*
X191684691Y-72931489D01*
X191684691Y-72931489D02*
X191608501Y-73007680D01*
X191608501Y-73007680D02*
X191494215Y-73045775D01*
X191494215Y-73045775D02*
X191303739Y-73045775D01*
X192408501Y-73007680D02*
X192332310Y-73045775D01*
X192332310Y-73045775D02*
X192179929Y-73045775D01*
X192179929Y-73045775D02*
X192103739Y-73007680D01*
X192103739Y-73007680D02*
X192065643Y-72931489D01*
X192065643Y-72931489D02*
X192065643Y-72626727D01*
X192065643Y-72626727D02*
X192103739Y-72550537D01*
X192103739Y-72550537D02*
X192179929Y-72512441D01*
X192179929Y-72512441D02*
X192332310Y-72512441D01*
X192332310Y-72512441D02*
X192408501Y-72550537D01*
X192408501Y-72550537D02*
X192446596Y-72626727D01*
X192446596Y-72626727D02*
X192446596Y-72702918D01*
X192446596Y-72702918D02*
X192065643Y-72779108D01*
X192751357Y-73007680D02*
X192827548Y-73045775D01*
X192827548Y-73045775D02*
X192979929Y-73045775D01*
X192979929Y-73045775D02*
X193056119Y-73007680D01*
X193056119Y-73007680D02*
X193094215Y-72931489D01*
X193094215Y-72931489D02*
X193094215Y-72893394D01*
X193094215Y-72893394D02*
X193056119Y-72817203D01*
X193056119Y-72817203D02*
X192979929Y-72779108D01*
X192979929Y-72779108D02*
X192865643Y-72779108D01*
X192865643Y-72779108D02*
X192789453Y-72741013D01*
X192789453Y-72741013D02*
X192751357Y-72664822D01*
X192751357Y-72664822D02*
X192751357Y-72626727D01*
X192751357Y-72626727D02*
X192789453Y-72550537D01*
X192789453Y-72550537D02*
X192865643Y-72512441D01*
X192865643Y-72512441D02*
X192979929Y-72512441D01*
X192979929Y-72512441D02*
X193056119Y-72550537D01*
X193437072Y-73045775D02*
X193437072Y-72512441D01*
X193437072Y-72245775D02*
X193398976Y-72283870D01*
X193398976Y-72283870D02*
X193437072Y-72321965D01*
X193437072Y-72321965D02*
X193475167Y-72283870D01*
X193475167Y-72283870D02*
X193437072Y-72245775D01*
X193437072Y-72245775D02*
X193437072Y-72321965D01*
X194160881Y-72512441D02*
X194160881Y-73160060D01*
X194160881Y-73160060D02*
X194122786Y-73236251D01*
X194122786Y-73236251D02*
X194084690Y-73274346D01*
X194084690Y-73274346D02*
X194008500Y-73312441D01*
X194008500Y-73312441D02*
X193894214Y-73312441D01*
X193894214Y-73312441D02*
X193818024Y-73274346D01*
X194160881Y-73007680D02*
X194084690Y-73045775D01*
X194084690Y-73045775D02*
X193932309Y-73045775D01*
X193932309Y-73045775D02*
X193856119Y-73007680D01*
X193856119Y-73007680D02*
X193818024Y-72969584D01*
X193818024Y-72969584D02*
X193779928Y-72893394D01*
X193779928Y-72893394D02*
X193779928Y-72664822D01*
X193779928Y-72664822D02*
X193818024Y-72588632D01*
X193818024Y-72588632D02*
X193856119Y-72550537D01*
X193856119Y-72550537D02*
X193932309Y-72512441D01*
X193932309Y-72512441D02*
X194084690Y-72512441D01*
X194084690Y-72512441D02*
X194160881Y-72550537D01*
X194541834Y-72512441D02*
X194541834Y-73045775D01*
X194541834Y-72588632D02*
X194579929Y-72550537D01*
X194579929Y-72550537D02*
X194656119Y-72512441D01*
X194656119Y-72512441D02*
X194770405Y-72512441D01*
X194770405Y-72512441D02*
X194846596Y-72550537D01*
X194846596Y-72550537D02*
X194884691Y-72626727D01*
X194884691Y-72626727D02*
X194884691Y-73045775D01*
X195570406Y-73007680D02*
X195494215Y-73045775D01*
X195494215Y-73045775D02*
X195341834Y-73045775D01*
X195341834Y-73045775D02*
X195265644Y-73007680D01*
X195265644Y-73007680D02*
X195227548Y-72931489D01*
X195227548Y-72931489D02*
X195227548Y-72626727D01*
X195227548Y-72626727D02*
X195265644Y-72550537D01*
X195265644Y-72550537D02*
X195341834Y-72512441D01*
X195341834Y-72512441D02*
X195494215Y-72512441D01*
X195494215Y-72512441D02*
X195570406Y-72550537D01*
X195570406Y-72550537D02*
X195608501Y-72626727D01*
X195608501Y-72626727D02*
X195608501Y-72702918D01*
X195608501Y-72702918D02*
X195227548Y-72779108D01*
X196294215Y-73045775D02*
X196294215Y-72245775D01*
X196294215Y-73007680D02*
X196218024Y-73045775D01*
X196218024Y-73045775D02*
X196065643Y-73045775D01*
X196065643Y-73045775D02*
X195989453Y-73007680D01*
X195989453Y-73007680D02*
X195951358Y-72969584D01*
X195951358Y-72969584D02*
X195913262Y-72893394D01*
X195913262Y-72893394D02*
X195913262Y-72664822D01*
X195913262Y-72664822D02*
X195951358Y-72588632D01*
X195951358Y-72588632D02*
X195989453Y-72550537D01*
X195989453Y-72550537D02*
X196065643Y-72512441D01*
X196065643Y-72512441D02*
X196218024Y-72512441D01*
X196218024Y-72512441D02*
X196294215Y-72550537D01*
X197284692Y-73045775D02*
X197284692Y-72245775D01*
X197284692Y-72550537D02*
X197360882Y-72512441D01*
X197360882Y-72512441D02*
X197513263Y-72512441D01*
X197513263Y-72512441D02*
X197589454Y-72550537D01*
X197589454Y-72550537D02*
X197627549Y-72588632D01*
X197627549Y-72588632D02*
X197665644Y-72664822D01*
X197665644Y-72664822D02*
X197665644Y-72893394D01*
X197665644Y-72893394D02*
X197627549Y-72969584D01*
X197627549Y-72969584D02*
X197589454Y-73007680D01*
X197589454Y-73007680D02*
X197513263Y-73045775D01*
X197513263Y-73045775D02*
X197360882Y-73045775D01*
X197360882Y-73045775D02*
X197284692Y-73007680D01*
X197932311Y-72512441D02*
X198122787Y-73045775D01*
X198313264Y-72512441D02*
X198122787Y-73045775D01*
X198122787Y-73045775D02*
X198046597Y-73236251D01*
X198046597Y-73236251D02*
X198008502Y-73274346D01*
X198008502Y-73274346D02*
X197932311Y-73312441D01*
X199227550Y-73045775D02*
X199227550Y-72245775D01*
X199227550Y-72245775D02*
X199418026Y-72245775D01*
X199418026Y-72245775D02*
X199532312Y-72283870D01*
X199532312Y-72283870D02*
X199608502Y-72360060D01*
X199608502Y-72360060D02*
X199646597Y-72436251D01*
X199646597Y-72436251D02*
X199684693Y-72588632D01*
X199684693Y-72588632D02*
X199684693Y-72702918D01*
X199684693Y-72702918D02*
X199646597Y-72855299D01*
X199646597Y-72855299D02*
X199608502Y-72931489D01*
X199608502Y-72931489D02*
X199532312Y-73007680D01*
X199532312Y-73007680D02*
X199418026Y-73045775D01*
X199418026Y-73045775D02*
X199227550Y-73045775D01*
X200370407Y-73045775D02*
X200370407Y-72626727D01*
X200370407Y-72626727D02*
X200332312Y-72550537D01*
X200332312Y-72550537D02*
X200256121Y-72512441D01*
X200256121Y-72512441D02*
X200103740Y-72512441D01*
X200103740Y-72512441D02*
X200027550Y-72550537D01*
X200370407Y-73007680D02*
X200294216Y-73045775D01*
X200294216Y-73045775D02*
X200103740Y-73045775D01*
X200103740Y-73045775D02*
X200027550Y-73007680D01*
X200027550Y-73007680D02*
X199989454Y-72931489D01*
X199989454Y-72931489D02*
X199989454Y-72855299D01*
X199989454Y-72855299D02*
X200027550Y-72779108D01*
X200027550Y-72779108D02*
X200103740Y-72741013D01*
X200103740Y-72741013D02*
X200294216Y-72741013D01*
X200294216Y-72741013D02*
X200370407Y-72702918D01*
X200751360Y-72512441D02*
X200751360Y-73045775D01*
X200751360Y-72588632D02*
X200789455Y-72550537D01*
X200789455Y-72550537D02*
X200865645Y-72512441D01*
X200865645Y-72512441D02*
X200979931Y-72512441D01*
X200979931Y-72512441D02*
X201056122Y-72550537D01*
X201056122Y-72550537D02*
X201094217Y-72626727D01*
X201094217Y-72626727D02*
X201094217Y-73045775D01*
X201475170Y-73045775D02*
X201475170Y-72512441D01*
X201475170Y-72245775D02*
X201437074Y-72283870D01*
X201437074Y-72283870D02*
X201475170Y-72321965D01*
X201475170Y-72321965D02*
X201513265Y-72283870D01*
X201513265Y-72283870D02*
X201475170Y-72245775D01*
X201475170Y-72245775D02*
X201475170Y-72321965D01*
X202160884Y-73007680D02*
X202084693Y-73045775D01*
X202084693Y-73045775D02*
X201932312Y-73045775D01*
X201932312Y-73045775D02*
X201856122Y-73007680D01*
X201856122Y-73007680D02*
X201818026Y-72931489D01*
X201818026Y-72931489D02*
X201818026Y-72626727D01*
X201818026Y-72626727D02*
X201856122Y-72550537D01*
X201856122Y-72550537D02*
X201932312Y-72512441D01*
X201932312Y-72512441D02*
X202084693Y-72512441D01*
X202084693Y-72512441D02*
X202160884Y-72550537D01*
X202160884Y-72550537D02*
X202198979Y-72626727D01*
X202198979Y-72626727D02*
X202198979Y-72702918D01*
X202198979Y-72702918D02*
X201818026Y-72779108D01*
X202656121Y-73045775D02*
X202579931Y-73007680D01*
X202579931Y-73007680D02*
X202541836Y-72931489D01*
X202541836Y-72931489D02*
X202541836Y-72245775D01*
X203532312Y-72817203D02*
X203913265Y-72817203D01*
X203456122Y-73045775D02*
X203722789Y-72245775D01*
X203722789Y-72245775D02*
X203989455Y-73045775D01*
D11*
X193741922Y-38239819D02*
X194313350Y-38239819D01*
X194027636Y-39239819D02*
X194027636Y-38239819D01*
X194551446Y-38239819D02*
X195218112Y-39239819D01*
X195218112Y-38239819D02*
X194551446Y-39239819D01*
X195599065Y-38858866D02*
X196360970Y-38858866D01*
X190674666Y-29237819D02*
X190674666Y-29952104D01*
X190674666Y-29952104D02*
X190627047Y-30094961D01*
X190627047Y-30094961D02*
X190531809Y-30190200D01*
X190531809Y-30190200D02*
X190388952Y-30237819D01*
X190388952Y-30237819D02*
X190293714Y-30237819D01*
X191674666Y-30237819D02*
X191103238Y-30237819D01*
X191388952Y-30237819D02*
X191388952Y-29237819D01*
X191388952Y-29237819D02*
X191293714Y-29380676D01*
X191293714Y-29380676D02*
X191198476Y-29475914D01*
X191198476Y-29475914D02*
X191103238Y-29523533D01*
X178324095Y-71828819D02*
X178324095Y-70828819D01*
X178324095Y-70828819D02*
X178705047Y-70828819D01*
X178705047Y-70828819D02*
X178800285Y-70876438D01*
X178800285Y-70876438D02*
X178847904Y-70924057D01*
X178847904Y-70924057D02*
X178895523Y-71019295D01*
X178895523Y-71019295D02*
X178895523Y-71162152D01*
X178895523Y-71162152D02*
X178847904Y-71257390D01*
X178847904Y-71257390D02*
X178800285Y-71305009D01*
X178800285Y-71305009D02*
X178705047Y-71352628D01*
X178705047Y-71352628D02*
X178324095Y-71352628D01*
X179324095Y-70828819D02*
X179324095Y-71638342D01*
X179324095Y-71638342D02*
X179371714Y-71733580D01*
X179371714Y-71733580D02*
X179419333Y-71781200D01*
X179419333Y-71781200D02*
X179514571Y-71828819D01*
X179514571Y-71828819D02*
X179705047Y-71828819D01*
X179705047Y-71828819D02*
X179800285Y-71781200D01*
X179800285Y-71781200D02*
X179847904Y-71733580D01*
X179847904Y-71733580D02*
X179895523Y-71638342D01*
X179895523Y-71638342D02*
X179895523Y-70828819D01*
X180943142Y-71828819D02*
X180609809Y-71352628D01*
X180371714Y-71828819D02*
X180371714Y-70828819D01*
X180371714Y-70828819D02*
X180752666Y-70828819D01*
X180752666Y-70828819D02*
X180847904Y-70876438D01*
X180847904Y-70876438D02*
X180895523Y-70924057D01*
X180895523Y-70924057D02*
X180943142Y-71019295D01*
X180943142Y-71019295D02*
X180943142Y-71162152D01*
X180943142Y-71162152D02*
X180895523Y-71257390D01*
X180895523Y-71257390D02*
X180847904Y-71305009D01*
X180847904Y-71305009D02*
X180752666Y-71352628D01*
X180752666Y-71352628D02*
X180371714Y-71352628D01*
X181895523Y-71828819D02*
X181324095Y-71828819D01*
X181609809Y-71828819D02*
X181609809Y-70828819D01*
X181609809Y-70828819D02*
X181514571Y-70971676D01*
X181514571Y-70971676D02*
X181419333Y-71066914D01*
X181419333Y-71066914D02*
X181324095Y-71114533D01*
X178324095Y-67764819D02*
X178324095Y-66764819D01*
X178324095Y-66764819D02*
X178705047Y-66764819D01*
X178705047Y-66764819D02*
X178800285Y-66812438D01*
X178800285Y-66812438D02*
X178847904Y-66860057D01*
X178847904Y-66860057D02*
X178895523Y-66955295D01*
X178895523Y-66955295D02*
X178895523Y-67098152D01*
X178895523Y-67098152D02*
X178847904Y-67193390D01*
X178847904Y-67193390D02*
X178800285Y-67241009D01*
X178800285Y-67241009D02*
X178705047Y-67288628D01*
X178705047Y-67288628D02*
X178324095Y-67288628D01*
X179324095Y-66764819D02*
X179324095Y-67574342D01*
X179324095Y-67574342D02*
X179371714Y-67669580D01*
X179371714Y-67669580D02*
X179419333Y-67717200D01*
X179419333Y-67717200D02*
X179514571Y-67764819D01*
X179514571Y-67764819D02*
X179705047Y-67764819D01*
X179705047Y-67764819D02*
X179800285Y-67717200D01*
X179800285Y-67717200D02*
X179847904Y-67669580D01*
X179847904Y-67669580D02*
X179895523Y-67574342D01*
X179895523Y-67574342D02*
X179895523Y-66764819D01*
X180943142Y-67764819D02*
X180609809Y-67288628D01*
X180371714Y-67764819D02*
X180371714Y-66764819D01*
X180371714Y-66764819D02*
X180752666Y-66764819D01*
X180752666Y-66764819D02*
X180847904Y-66812438D01*
X180847904Y-66812438D02*
X180895523Y-66860057D01*
X180895523Y-66860057D02*
X180943142Y-66955295D01*
X180943142Y-66955295D02*
X180943142Y-67098152D01*
X180943142Y-67098152D02*
X180895523Y-67193390D01*
X180895523Y-67193390D02*
X180847904Y-67241009D01*
X180847904Y-67241009D02*
X180752666Y-67288628D01*
X180752666Y-67288628D02*
X180371714Y-67288628D01*
X181324095Y-66860057D02*
X181371714Y-66812438D01*
X181371714Y-66812438D02*
X181466952Y-66764819D01*
X181466952Y-66764819D02*
X181705047Y-66764819D01*
X181705047Y-66764819D02*
X181800285Y-66812438D01*
X181800285Y-66812438D02*
X181847904Y-66860057D01*
X181847904Y-66860057D02*
X181895523Y-66955295D01*
X181895523Y-66955295D02*
X181895523Y-67050533D01*
X181895523Y-67050533D02*
X181847904Y-67193390D01*
X181847904Y-67193390D02*
X181276476Y-67764819D01*
X181276476Y-67764819D02*
X181895523Y-67764819D01*
X121973180Y-64024095D02*
X122973180Y-64024095D01*
X122973180Y-64024095D02*
X122973180Y-64405047D01*
X122973180Y-64405047D02*
X122925561Y-64500285D01*
X122925561Y-64500285D02*
X122877942Y-64547904D01*
X122877942Y-64547904D02*
X122782704Y-64595523D01*
X122782704Y-64595523D02*
X122639847Y-64595523D01*
X122639847Y-64595523D02*
X122544609Y-64547904D01*
X122544609Y-64547904D02*
X122496990Y-64500285D01*
X122496990Y-64500285D02*
X122449371Y-64405047D01*
X122449371Y-64405047D02*
X122449371Y-64024095D01*
X122973180Y-65024095D02*
X122163657Y-65024095D01*
X122163657Y-65024095D02*
X122068419Y-65071714D01*
X122068419Y-65071714D02*
X122020800Y-65119333D01*
X122020800Y-65119333D02*
X121973180Y-65214571D01*
X121973180Y-65214571D02*
X121973180Y-65405047D01*
X121973180Y-65405047D02*
X122020800Y-65500285D01*
X122020800Y-65500285D02*
X122068419Y-65547904D01*
X122068419Y-65547904D02*
X122163657Y-65595523D01*
X122163657Y-65595523D02*
X122973180Y-65595523D01*
X121973180Y-66643142D02*
X122449371Y-66309809D01*
X121973180Y-66071714D02*
X122973180Y-66071714D01*
X122973180Y-66071714D02*
X122973180Y-66452666D01*
X122973180Y-66452666D02*
X122925561Y-66547904D01*
X122925561Y-66547904D02*
X122877942Y-66595523D01*
X122877942Y-66595523D02*
X122782704Y-66643142D01*
X122782704Y-66643142D02*
X122639847Y-66643142D01*
X122639847Y-66643142D02*
X122544609Y-66595523D01*
X122544609Y-66595523D02*
X122496990Y-66547904D01*
X122496990Y-66547904D02*
X122449371Y-66452666D01*
X122449371Y-66452666D02*
X122449371Y-66071714D01*
X122973180Y-67547904D02*
X122973180Y-67071714D01*
X122973180Y-67071714D02*
X122496990Y-67024095D01*
X122496990Y-67024095D02*
X122544609Y-67071714D01*
X122544609Y-67071714D02*
X122592228Y-67166952D01*
X122592228Y-67166952D02*
X122592228Y-67405047D01*
X122592228Y-67405047D02*
X122544609Y-67500285D01*
X122544609Y-67500285D02*
X122496990Y-67547904D01*
X122496990Y-67547904D02*
X122401752Y-67595523D01*
X122401752Y-67595523D02*
X122163657Y-67595523D01*
X122163657Y-67595523D02*
X122068419Y-67547904D01*
X122068419Y-67547904D02*
X122020800Y-67500285D01*
X122020800Y-67500285D02*
X121973180Y-67405047D01*
X121973180Y-67405047D02*
X121973180Y-67166952D01*
X121973180Y-67166952D02*
X122020800Y-67071714D01*
X122020800Y-67071714D02*
X122068419Y-67024095D01*
X139345200Y-64579332D02*
X139392819Y-64436475D01*
X139392819Y-64436475D02*
X139392819Y-64198380D01*
X139392819Y-64198380D02*
X139345200Y-64103142D01*
X139345200Y-64103142D02*
X139297580Y-64055523D01*
X139297580Y-64055523D02*
X139202342Y-64007904D01*
X139202342Y-64007904D02*
X139107104Y-64007904D01*
X139107104Y-64007904D02*
X139011866Y-64055523D01*
X139011866Y-64055523D02*
X138964247Y-64103142D01*
X138964247Y-64103142D02*
X138916628Y-64198380D01*
X138916628Y-64198380D02*
X138869009Y-64388856D01*
X138869009Y-64388856D02*
X138821390Y-64484094D01*
X138821390Y-64484094D02*
X138773771Y-64531713D01*
X138773771Y-64531713D02*
X138678533Y-64579332D01*
X138678533Y-64579332D02*
X138583295Y-64579332D01*
X138583295Y-64579332D02*
X138488057Y-64531713D01*
X138488057Y-64531713D02*
X138440438Y-64484094D01*
X138440438Y-64484094D02*
X138392819Y-64388856D01*
X138392819Y-64388856D02*
X138392819Y-64150761D01*
X138392819Y-64150761D02*
X138440438Y-64007904D01*
X138392819Y-63674570D02*
X139392819Y-63436475D01*
X139392819Y-63436475D02*
X138678533Y-63245999D01*
X138678533Y-63245999D02*
X139392819Y-63055523D01*
X139392819Y-63055523D02*
X138392819Y-62817428D01*
X139392819Y-61912666D02*
X139392819Y-62484094D01*
X139392819Y-62198380D02*
X138392819Y-62198380D01*
X138392819Y-62198380D02*
X138535676Y-62293618D01*
X138535676Y-62293618D02*
X138630914Y-62388856D01*
X138630914Y-62388856D02*
X138678533Y-62484094D01*
X157861667Y-71273200D02*
X158004524Y-71320819D01*
X158004524Y-71320819D02*
X158242619Y-71320819D01*
X158242619Y-71320819D02*
X158337857Y-71273200D01*
X158337857Y-71273200D02*
X158385476Y-71225580D01*
X158385476Y-71225580D02*
X158433095Y-71130342D01*
X158433095Y-71130342D02*
X158433095Y-71035104D01*
X158433095Y-71035104D02*
X158385476Y-70939866D01*
X158385476Y-70939866D02*
X158337857Y-70892247D01*
X158337857Y-70892247D02*
X158242619Y-70844628D01*
X158242619Y-70844628D02*
X158052143Y-70797009D01*
X158052143Y-70797009D02*
X157956905Y-70749390D01*
X157956905Y-70749390D02*
X157909286Y-70701771D01*
X157909286Y-70701771D02*
X157861667Y-70606533D01*
X157861667Y-70606533D02*
X157861667Y-70511295D01*
X157861667Y-70511295D02*
X157909286Y-70416057D01*
X157909286Y-70416057D02*
X157956905Y-70368438D01*
X157956905Y-70368438D02*
X158052143Y-70320819D01*
X158052143Y-70320819D02*
X158290238Y-70320819D01*
X158290238Y-70320819D02*
X158433095Y-70368438D01*
X158766429Y-70320819D02*
X159004524Y-71320819D01*
X159004524Y-71320819D02*
X159195000Y-70606533D01*
X159195000Y-70606533D02*
X159385476Y-71320819D01*
X159385476Y-71320819D02*
X159623572Y-70320819D01*
X159956905Y-70416057D02*
X160004524Y-70368438D01*
X160004524Y-70368438D02*
X160099762Y-70320819D01*
X160099762Y-70320819D02*
X160337857Y-70320819D01*
X160337857Y-70320819D02*
X160433095Y-70368438D01*
X160433095Y-70368438D02*
X160480714Y-70416057D01*
X160480714Y-70416057D02*
X160528333Y-70511295D01*
X160528333Y-70511295D02*
X160528333Y-70606533D01*
X160528333Y-70606533D02*
X160480714Y-70749390D01*
X160480714Y-70749390D02*
X159909286Y-71320819D01*
X159909286Y-71320819D02*
X160528333Y-71320819D01*
X140863333Y-55853323D02*
X140832857Y-55883800D01*
X140832857Y-55883800D02*
X140741428Y-55914276D01*
X140741428Y-55914276D02*
X140680476Y-55914276D01*
X140680476Y-55914276D02*
X140589047Y-55883800D01*
X140589047Y-55883800D02*
X140528095Y-55822847D01*
X140528095Y-55822847D02*
X140497618Y-55761895D01*
X140497618Y-55761895D02*
X140467142Y-55639990D01*
X140467142Y-55639990D02*
X140467142Y-55548561D01*
X140467142Y-55548561D02*
X140497618Y-55426657D01*
X140497618Y-55426657D02*
X140528095Y-55365704D01*
X140528095Y-55365704D02*
X140589047Y-55304752D01*
X140589047Y-55304752D02*
X140680476Y-55274276D01*
X140680476Y-55274276D02*
X140741428Y-55274276D01*
X140741428Y-55274276D02*
X140832857Y-55304752D01*
X140832857Y-55304752D02*
X140863333Y-55335228D01*
X141411904Y-55487609D02*
X141411904Y-55914276D01*
X141259523Y-55243800D02*
X141107142Y-55700942D01*
X141107142Y-55700942D02*
X141503333Y-55700942D01*
X161506819Y-40639904D02*
X162316342Y-40639904D01*
X162316342Y-40639904D02*
X162411580Y-40592285D01*
X162411580Y-40592285D02*
X162459200Y-40544666D01*
X162459200Y-40544666D02*
X162506819Y-40449428D01*
X162506819Y-40449428D02*
X162506819Y-40258952D01*
X162506819Y-40258952D02*
X162459200Y-40163714D01*
X162459200Y-40163714D02*
X162411580Y-40116095D01*
X162411580Y-40116095D02*
X162316342Y-40068476D01*
X162316342Y-40068476D02*
X161506819Y-40068476D01*
X162506819Y-39068476D02*
X162506819Y-39639904D01*
X162506819Y-39354190D02*
X161506819Y-39354190D01*
X161506819Y-39354190D02*
X161649676Y-39449428D01*
X161649676Y-39449428D02*
X161744914Y-39544666D01*
X161744914Y-39544666D02*
X161792533Y-39639904D01*
X144080033Y-42961333D02*
X143380033Y-42961333D01*
X143380033Y-42961333D02*
X143880033Y-42728000D01*
X143880033Y-42728000D02*
X143380033Y-42494666D01*
X143380033Y-42494666D02*
X144080033Y-42494666D01*
X144080033Y-42161333D02*
X143380033Y-42161333D01*
X144080033Y-41828000D02*
X143380033Y-41828000D01*
X143380033Y-41828000D02*
X143880033Y-41594667D01*
X143880033Y-41594667D02*
X143380033Y-41361333D01*
X143380033Y-41361333D02*
X144080033Y-41361333D01*
X143380033Y-41094667D02*
X144080033Y-40628000D01*
X143380033Y-40628000D02*
X144080033Y-41094667D01*
X144080033Y-39961333D02*
X143746700Y-40194666D01*
X144080033Y-40361333D02*
X143380033Y-40361333D01*
X143380033Y-40361333D02*
X143380033Y-40094666D01*
X143380033Y-40094666D02*
X143413366Y-40028000D01*
X143413366Y-40028000D02*
X143446700Y-39994666D01*
X143446700Y-39994666D02*
X143513366Y-39961333D01*
X143513366Y-39961333D02*
X143613366Y-39961333D01*
X143613366Y-39961333D02*
X143680033Y-39994666D01*
X143680033Y-39994666D02*
X143713366Y-40028000D01*
X143713366Y-40028000D02*
X143746700Y-40094666D01*
X143746700Y-40094666D02*
X143746700Y-40361333D01*
X143380033Y-39761333D02*
X143380033Y-39361333D01*
X144080033Y-39561333D02*
X143380033Y-39561333D01*
X144080033Y-38761333D02*
X144080033Y-39161333D01*
X144080033Y-38961333D02*
X143380033Y-38961333D01*
X143380033Y-38961333D02*
X143480033Y-39028000D01*
X143480033Y-39028000D02*
X143546700Y-39094667D01*
X143546700Y-39094667D02*
X143580033Y-39161333D01*
X143380033Y-38328000D02*
X143380033Y-38261333D01*
X143380033Y-38261333D02*
X143413366Y-38194666D01*
X143413366Y-38194666D02*
X143446700Y-38161333D01*
X143446700Y-38161333D02*
X143513366Y-38128000D01*
X143513366Y-38128000D02*
X143646700Y-38094666D01*
X143646700Y-38094666D02*
X143813366Y-38094666D01*
X143813366Y-38094666D02*
X143946700Y-38128000D01*
X143946700Y-38128000D02*
X144013366Y-38161333D01*
X144013366Y-38161333D02*
X144046700Y-38194666D01*
X144046700Y-38194666D02*
X144080033Y-38261333D01*
X144080033Y-38261333D02*
X144080033Y-38328000D01*
X144080033Y-38328000D02*
X144046700Y-38394666D01*
X144046700Y-38394666D02*
X144013366Y-38428000D01*
X144013366Y-38428000D02*
X143946700Y-38461333D01*
X143946700Y-38461333D02*
X143813366Y-38494666D01*
X143813366Y-38494666D02*
X143646700Y-38494666D01*
X143646700Y-38494666D02*
X143513366Y-38461333D01*
X143513366Y-38461333D02*
X143446700Y-38428000D01*
X143446700Y-38428000D02*
X143413366Y-38394666D01*
X143413366Y-38394666D02*
X143380033Y-38328000D01*
X143380033Y-37494666D02*
X143380033Y-37627999D01*
X143380033Y-37627999D02*
X143413366Y-37694666D01*
X143413366Y-37694666D02*
X143446700Y-37727999D01*
X143446700Y-37727999D02*
X143546700Y-37794666D01*
X143546700Y-37794666D02*
X143680033Y-37827999D01*
X143680033Y-37827999D02*
X143946700Y-37827999D01*
X143946700Y-37827999D02*
X144013366Y-37794666D01*
X144013366Y-37794666D02*
X144046700Y-37761333D01*
X144046700Y-37761333D02*
X144080033Y-37694666D01*
X144080033Y-37694666D02*
X144080033Y-37561333D01*
X144080033Y-37561333D02*
X144046700Y-37494666D01*
X144046700Y-37494666D02*
X144013366Y-37461333D01*
X144013366Y-37461333D02*
X143946700Y-37427999D01*
X143946700Y-37427999D02*
X143780033Y-37427999D01*
X143780033Y-37427999D02*
X143713366Y-37461333D01*
X143713366Y-37461333D02*
X143680033Y-37494666D01*
X143680033Y-37494666D02*
X143646700Y-37561333D01*
X143646700Y-37561333D02*
X143646700Y-37694666D01*
X143646700Y-37694666D02*
X143680033Y-37761333D01*
X143680033Y-37761333D02*
X143713366Y-37794666D01*
X143713366Y-37794666D02*
X143780033Y-37827999D01*
X143446700Y-37161332D02*
X143413366Y-37127999D01*
X143413366Y-37127999D02*
X143380033Y-37061332D01*
X143380033Y-37061332D02*
X143380033Y-36894666D01*
X143380033Y-36894666D02*
X143413366Y-36827999D01*
X143413366Y-36827999D02*
X143446700Y-36794666D01*
X143446700Y-36794666D02*
X143513366Y-36761332D01*
X143513366Y-36761332D02*
X143580033Y-36761332D01*
X143580033Y-36761332D02*
X143680033Y-36794666D01*
X143680033Y-36794666D02*
X144080033Y-37194666D01*
X144080033Y-37194666D02*
X144080033Y-36761332D01*
X145604033Y-41278000D02*
X144904033Y-41278000D01*
X144904033Y-41278000D02*
X144904033Y-41111333D01*
X144904033Y-41111333D02*
X144937366Y-41011333D01*
X144937366Y-41011333D02*
X145004033Y-40944667D01*
X145004033Y-40944667D02*
X145070700Y-40911333D01*
X145070700Y-40911333D02*
X145204033Y-40878000D01*
X145204033Y-40878000D02*
X145304033Y-40878000D01*
X145304033Y-40878000D02*
X145437366Y-40911333D01*
X145437366Y-40911333D02*
X145504033Y-40944667D01*
X145504033Y-40944667D02*
X145570700Y-41011333D01*
X145570700Y-41011333D02*
X145604033Y-41111333D01*
X145604033Y-41111333D02*
X145604033Y-41278000D01*
X144904033Y-40678000D02*
X145604033Y-40444667D01*
X145604033Y-40444667D02*
X144904033Y-40211333D01*
X145604033Y-39644667D02*
X145604033Y-39978000D01*
X145604033Y-39978000D02*
X144904033Y-39978000D01*
X144904033Y-39111333D02*
X144904033Y-39244666D01*
X144904033Y-39244666D02*
X144937366Y-39311333D01*
X144937366Y-39311333D02*
X144970700Y-39344666D01*
X144970700Y-39344666D02*
X145070700Y-39411333D01*
X145070700Y-39411333D02*
X145204033Y-39444666D01*
X145204033Y-39444666D02*
X145470700Y-39444666D01*
X145470700Y-39444666D02*
X145537366Y-39411333D01*
X145537366Y-39411333D02*
X145570700Y-39378000D01*
X145570700Y-39378000D02*
X145604033Y-39311333D01*
X145604033Y-39311333D02*
X145604033Y-39178000D01*
X145604033Y-39178000D02*
X145570700Y-39111333D01*
X145570700Y-39111333D02*
X145537366Y-39078000D01*
X145537366Y-39078000D02*
X145470700Y-39044666D01*
X145470700Y-39044666D02*
X145304033Y-39044666D01*
X145304033Y-39044666D02*
X145237366Y-39078000D01*
X145237366Y-39078000D02*
X145204033Y-39111333D01*
X145204033Y-39111333D02*
X145170700Y-39178000D01*
X145170700Y-39178000D02*
X145170700Y-39311333D01*
X145170700Y-39311333D02*
X145204033Y-39378000D01*
X145204033Y-39378000D02*
X145237366Y-39411333D01*
X145237366Y-39411333D02*
X145304033Y-39444666D01*
X145404033Y-38777999D02*
X145404033Y-38444666D01*
X145604033Y-38844666D02*
X144904033Y-38611333D01*
X144904033Y-38611333D02*
X145604033Y-38377999D01*
X143403333Y-62203323D02*
X143372857Y-62233800D01*
X143372857Y-62233800D02*
X143281428Y-62264276D01*
X143281428Y-62264276D02*
X143220476Y-62264276D01*
X143220476Y-62264276D02*
X143129047Y-62233800D01*
X143129047Y-62233800D02*
X143068095Y-62172847D01*
X143068095Y-62172847D02*
X143037618Y-62111895D01*
X143037618Y-62111895D02*
X143007142Y-61989990D01*
X143007142Y-61989990D02*
X143007142Y-61898561D01*
X143007142Y-61898561D02*
X143037618Y-61776657D01*
X143037618Y-61776657D02*
X143068095Y-61715704D01*
X143068095Y-61715704D02*
X143129047Y-61654752D01*
X143129047Y-61654752D02*
X143220476Y-61624276D01*
X143220476Y-61624276D02*
X143281428Y-61624276D01*
X143281428Y-61624276D02*
X143372857Y-61654752D01*
X143372857Y-61654752D02*
X143403333Y-61685228D01*
X143647142Y-61685228D02*
X143677618Y-61654752D01*
X143677618Y-61654752D02*
X143738571Y-61624276D01*
X143738571Y-61624276D02*
X143890952Y-61624276D01*
X143890952Y-61624276D02*
X143951904Y-61654752D01*
X143951904Y-61654752D02*
X143982380Y-61685228D01*
X143982380Y-61685228D02*
X144012857Y-61746180D01*
X144012857Y-61746180D02*
X144012857Y-61807133D01*
X144012857Y-61807133D02*
X143982380Y-61898561D01*
X143982380Y-61898561D02*
X143616666Y-62264276D01*
X143616666Y-62264276D02*
X144012857Y-62264276D01*
X171791333Y-51508819D02*
X171458000Y-51032628D01*
X171219905Y-51508819D02*
X171219905Y-50508819D01*
X171219905Y-50508819D02*
X171600857Y-50508819D01*
X171600857Y-50508819D02*
X171696095Y-50556438D01*
X171696095Y-50556438D02*
X171743714Y-50604057D01*
X171743714Y-50604057D02*
X171791333Y-50699295D01*
X171791333Y-50699295D02*
X171791333Y-50842152D01*
X171791333Y-50842152D02*
X171743714Y-50937390D01*
X171743714Y-50937390D02*
X171696095Y-50985009D01*
X171696095Y-50985009D02*
X171600857Y-51032628D01*
X171600857Y-51032628D02*
X171219905Y-51032628D01*
X172648476Y-50842152D02*
X172648476Y-51508819D01*
X172410381Y-50461200D02*
X172172286Y-51175485D01*
X172172286Y-51175485D02*
X172791333Y-51175485D01*
X167473333Y-51508819D02*
X167140000Y-51032628D01*
X166901905Y-51508819D02*
X166901905Y-50508819D01*
X166901905Y-50508819D02*
X167282857Y-50508819D01*
X167282857Y-50508819D02*
X167378095Y-50556438D01*
X167378095Y-50556438D02*
X167425714Y-50604057D01*
X167425714Y-50604057D02*
X167473333Y-50699295D01*
X167473333Y-50699295D02*
X167473333Y-50842152D01*
X167473333Y-50842152D02*
X167425714Y-50937390D01*
X167425714Y-50937390D02*
X167378095Y-50985009D01*
X167378095Y-50985009D02*
X167282857Y-51032628D01*
X167282857Y-51032628D02*
X166901905Y-51032628D01*
X167806667Y-50508819D02*
X168425714Y-50508819D01*
X168425714Y-50508819D02*
X168092381Y-50889771D01*
X168092381Y-50889771D02*
X168235238Y-50889771D01*
X168235238Y-50889771D02*
X168330476Y-50937390D01*
X168330476Y-50937390D02*
X168378095Y-50985009D01*
X168378095Y-50985009D02*
X168425714Y-51080247D01*
X168425714Y-51080247D02*
X168425714Y-51318342D01*
X168425714Y-51318342D02*
X168378095Y-51413580D01*
X168378095Y-51413580D02*
X168330476Y-51461200D01*
X168330476Y-51461200D02*
X168235238Y-51508819D01*
X168235238Y-51508819D02*
X167949524Y-51508819D01*
X167949524Y-51508819D02*
X167854286Y-51461200D01*
X167854286Y-51461200D02*
X167806667Y-51413580D01*
X121158095Y-44968438D02*
X121062857Y-44920819D01*
X121062857Y-44920819D02*
X120920000Y-44920819D01*
X120920000Y-44920819D02*
X120777143Y-44968438D01*
X120777143Y-44968438D02*
X120681905Y-45063676D01*
X120681905Y-45063676D02*
X120634286Y-45158914D01*
X120634286Y-45158914D02*
X120586667Y-45349390D01*
X120586667Y-45349390D02*
X120586667Y-45492247D01*
X120586667Y-45492247D02*
X120634286Y-45682723D01*
X120634286Y-45682723D02*
X120681905Y-45777961D01*
X120681905Y-45777961D02*
X120777143Y-45873200D01*
X120777143Y-45873200D02*
X120920000Y-45920819D01*
X120920000Y-45920819D02*
X121015238Y-45920819D01*
X121015238Y-45920819D02*
X121158095Y-45873200D01*
X121158095Y-45873200D02*
X121205714Y-45825580D01*
X121205714Y-45825580D02*
X121205714Y-45492247D01*
X121205714Y-45492247D02*
X121015238Y-45492247D01*
X121634286Y-45920819D02*
X121634286Y-44920819D01*
X121634286Y-44920819D02*
X122205714Y-45920819D01*
X122205714Y-45920819D02*
X122205714Y-44920819D01*
X122681905Y-45920819D02*
X122681905Y-44920819D01*
X122681905Y-44920819D02*
X122920000Y-44920819D01*
X122920000Y-44920819D02*
X123062857Y-44968438D01*
X123062857Y-44968438D02*
X123158095Y-45063676D01*
X123158095Y-45063676D02*
X123205714Y-45158914D01*
X123205714Y-45158914D02*
X123253333Y-45349390D01*
X123253333Y-45349390D02*
X123253333Y-45492247D01*
X123253333Y-45492247D02*
X123205714Y-45682723D01*
X123205714Y-45682723D02*
X123158095Y-45777961D01*
X123158095Y-45777961D02*
X123062857Y-45873200D01*
X123062857Y-45873200D02*
X122920000Y-45920819D01*
X122920000Y-45920819D02*
X122681905Y-45920819D01*
X121729523Y-29680819D02*
X121253333Y-29680819D01*
X121253333Y-29680819D02*
X121205714Y-30157009D01*
X121205714Y-30157009D02*
X121253333Y-30109390D01*
X121253333Y-30109390D02*
X121348571Y-30061771D01*
X121348571Y-30061771D02*
X121586666Y-30061771D01*
X121586666Y-30061771D02*
X121681904Y-30109390D01*
X121681904Y-30109390D02*
X121729523Y-30157009D01*
X121729523Y-30157009D02*
X121777142Y-30252247D01*
X121777142Y-30252247D02*
X121777142Y-30490342D01*
X121777142Y-30490342D02*
X121729523Y-30585580D01*
X121729523Y-30585580D02*
X121681904Y-30633200D01*
X121681904Y-30633200D02*
X121586666Y-30680819D01*
X121586666Y-30680819D02*
X121348571Y-30680819D01*
X121348571Y-30680819D02*
X121253333Y-30633200D01*
X121253333Y-30633200D02*
X121205714Y-30585580D01*
X122062857Y-29680819D02*
X122396190Y-30680819D01*
X122396190Y-30680819D02*
X122729523Y-29680819D01*
X145943333Y-55853323D02*
X145912857Y-55883800D01*
X145912857Y-55883800D02*
X145821428Y-55914276D01*
X145821428Y-55914276D02*
X145760476Y-55914276D01*
X145760476Y-55914276D02*
X145669047Y-55883800D01*
X145669047Y-55883800D02*
X145608095Y-55822847D01*
X145608095Y-55822847D02*
X145577618Y-55761895D01*
X145577618Y-55761895D02*
X145547142Y-55639990D01*
X145547142Y-55639990D02*
X145547142Y-55548561D01*
X145547142Y-55548561D02*
X145577618Y-55426657D01*
X145577618Y-55426657D02*
X145608095Y-55365704D01*
X145608095Y-55365704D02*
X145669047Y-55304752D01*
X145669047Y-55304752D02*
X145760476Y-55274276D01*
X145760476Y-55274276D02*
X145821428Y-55274276D01*
X145821428Y-55274276D02*
X145912857Y-55304752D01*
X145912857Y-55304752D02*
X145943333Y-55335228D01*
X146156666Y-55274276D02*
X146552857Y-55274276D01*
X146552857Y-55274276D02*
X146339523Y-55518085D01*
X146339523Y-55518085D02*
X146430952Y-55518085D01*
X146430952Y-55518085D02*
X146491904Y-55548561D01*
X146491904Y-55548561D02*
X146522380Y-55579038D01*
X146522380Y-55579038D02*
X146552857Y-55639990D01*
X146552857Y-55639990D02*
X146552857Y-55792371D01*
X146552857Y-55792371D02*
X146522380Y-55853323D01*
X146522380Y-55853323D02*
X146491904Y-55883800D01*
X146491904Y-55883800D02*
X146430952Y-55914276D01*
X146430952Y-55914276D02*
X146248095Y-55914276D01*
X146248095Y-55914276D02*
X146187142Y-55883800D01*
X146187142Y-55883800D02*
X146156666Y-55853323D01*
X176492819Y-40385904D02*
X177302342Y-40385904D01*
X177302342Y-40385904D02*
X177397580Y-40338285D01*
X177397580Y-40338285D02*
X177445200Y-40290666D01*
X177445200Y-40290666D02*
X177492819Y-40195428D01*
X177492819Y-40195428D02*
X177492819Y-40004952D01*
X177492819Y-40004952D02*
X177445200Y-39909714D01*
X177445200Y-39909714D02*
X177397580Y-39862095D01*
X177397580Y-39862095D02*
X177302342Y-39814476D01*
X177302342Y-39814476D02*
X176492819Y-39814476D01*
X176588057Y-39385904D02*
X176540438Y-39338285D01*
X176540438Y-39338285D02*
X176492819Y-39243047D01*
X176492819Y-39243047D02*
X176492819Y-39004952D01*
X176492819Y-39004952D02*
X176540438Y-38909714D01*
X176540438Y-38909714D02*
X176588057Y-38862095D01*
X176588057Y-38862095D02*
X176683295Y-38814476D01*
X176683295Y-38814476D02*
X176778533Y-38814476D01*
X176778533Y-38814476D02*
X176921390Y-38862095D01*
X176921390Y-38862095D02*
X177492819Y-39433523D01*
X177492819Y-39433523D02*
X177492819Y-38814476D01*
X131719333Y-55091323D02*
X131688857Y-55121800D01*
X131688857Y-55121800D02*
X131597428Y-55152276D01*
X131597428Y-55152276D02*
X131536476Y-55152276D01*
X131536476Y-55152276D02*
X131445047Y-55121800D01*
X131445047Y-55121800D02*
X131384095Y-55060847D01*
X131384095Y-55060847D02*
X131353618Y-54999895D01*
X131353618Y-54999895D02*
X131323142Y-54877990D01*
X131323142Y-54877990D02*
X131323142Y-54786561D01*
X131323142Y-54786561D02*
X131353618Y-54664657D01*
X131353618Y-54664657D02*
X131384095Y-54603704D01*
X131384095Y-54603704D02*
X131445047Y-54542752D01*
X131445047Y-54542752D02*
X131536476Y-54512276D01*
X131536476Y-54512276D02*
X131597428Y-54512276D01*
X131597428Y-54512276D02*
X131688857Y-54542752D01*
X131688857Y-54542752D02*
X131719333Y-54573228D01*
X132328857Y-55152276D02*
X131963142Y-55152276D01*
X132145999Y-55152276D02*
X132145999Y-54512276D01*
X132145999Y-54512276D02*
X132085047Y-54603704D01*
X132085047Y-54603704D02*
X132024095Y-54664657D01*
X132024095Y-54664657D02*
X131963142Y-54695133D01*
D12*
%TO.C,J1*%
X202108000Y-51683000D02*
G75*
G02*
X199708000Y-51683000I-1200000J0D01*
G01*
X199708000Y-51683000D02*
G75*
G02*
X202108000Y-51683000I1200000J0D01*
G01*
X201908000Y-41783000D02*
G75*
G02*
X180108000Y-41783000I-10900000J0D01*
G01*
X180108000Y-41783000D02*
G75*
G02*
X201908000Y-41783000I10900000J0D01*
G01*
X182308000Y-31883000D02*
G75*
G02*
X179908000Y-31883000I-1200000J0D01*
G01*
X179908000Y-31883000D02*
G75*
G02*
X182308000Y-31883000I1200000J0D01*
G01*
X203013343Y-50153807D02*
G75*
G02*
X198938000Y-53383000I-2105343J-1529193D01*
G01*
X203013277Y-50155002D02*
G75*
G02*
X201908001Y-46733000I4744723J3422002D01*
G01*
X196877479Y-53383769D02*
G75*
G02*
X195638000Y-53383000I-619479J420769D01*
G01*
X194202232Y-30945322D02*
G75*
G02*
X194408000Y-31233000I-84232J-277678D01*
G01*
X191008000Y-30483000D02*
G75*
G02*
X194198458Y-30942752I0J-11300000D01*
G01*
X189198000Y-49883000D02*
G75*
G02*
X192833209Y-49879586I1810000J8100000D01*
G01*
X186668000Y-30483000D02*
G75*
G02*
X183263549Y-29937695I5J10900029D01*
G01*
X186377479Y-53383769D02*
G75*
G02*
X185138000Y-53383000I-619479J420769D01*
G01*
X179613385Y-34374705D02*
G75*
G02*
X180108000Y-36543000I-4505388J-2168296D01*
G01*
X179609035Y-34368579D02*
G75*
G02*
X183258000Y-29933000I1498965J2485579D01*
G01*
X201908000Y-46733000D02*
X201908000Y-41783000D01*
X196878000Y-53383000D02*
X198938000Y-53383000D01*
X195568000Y-56583000D02*
X194068000Y-56583000D01*
X195568000Y-53383000D02*
X195638000Y-53383000D01*
X195568000Y-53383000D02*
X195568000Y-56583000D01*
X194408000Y-31423000D02*
X194408000Y-31233000D01*
X194068000Y-53383000D02*
X194068000Y-56583000D01*
X191008000Y-30483000D02*
X186668000Y-30483000D01*
X187948000Y-56583000D02*
X186448000Y-56583000D01*
X187948000Y-53383000D02*
X194068000Y-53383000D01*
X187948000Y-53383000D02*
X187948000Y-56583000D01*
X186768000Y-52033000D02*
X186768000Y-51833000D01*
X186768000Y-52033000D02*
X184458000Y-52033000D01*
X186448000Y-53383000D02*
X186448000Y-56583000D01*
X186448000Y-53383000D02*
X186378000Y-53383000D01*
X184958000Y-53383000D02*
X185138000Y-53383000D01*
X184458000Y-53313000D02*
X184958000Y-53383000D01*
X184458000Y-53313000D02*
X184458000Y-52033000D01*
X180108000Y-36543000D02*
X180108000Y-41783000D01*
D13*
%TO.C,PUR1*%
X174599600Y-72809100D02*
X174599600Y-69938900D01*
X174599600Y-69938900D02*
X168046400Y-69938900D01*
X168046400Y-72809100D02*
X174599600Y-72809100D01*
X168046400Y-69938900D02*
X168046400Y-72809100D01*
%TO.C,PUR2*%
X174599600Y-68745100D02*
X174599600Y-65874900D01*
X174599600Y-65874900D02*
X168046400Y-65874900D01*
X168046400Y-68745100D02*
X174599600Y-68745100D01*
X168046400Y-65874900D02*
X168046400Y-68745100D01*
%TO.C,PUR5*%
X123863100Y-60299600D02*
X123863100Y-53746400D01*
X123863100Y-53746400D02*
X120992900Y-53746400D01*
X120992900Y-60299600D02*
X123863100Y-60299600D01*
X120992900Y-53746400D02*
X120992900Y-60299600D01*
D12*
%TO.C,SW1*%
X135416000Y-63246000D02*
G75*
G02*
X128316000Y-63246000I-3550000J0D01*
G01*
X128316000Y-63246000D02*
G75*
G02*
X135416000Y-63246000I3550000J0D01*
G01*
X137976000Y-57136000D02*
X137976000Y-69356000D01*
X135466000Y-69356000D02*
X137976000Y-69356000D01*
X135466000Y-57136000D02*
X137976000Y-57136000D01*
X130566000Y-69356000D02*
X133166000Y-69356000D01*
X130566000Y-57136000D02*
X133166000Y-57136000D01*
X125756000Y-69356000D02*
X128266000Y-69356000D01*
X125756000Y-69356000D02*
X125756000Y-57136000D01*
X125756000Y-57136000D02*
X128266000Y-57136000D01*
%TO.C,SW2*%
X161500000Y-69810000D02*
X156890000Y-69810000D01*
X161500000Y-67050000D02*
X161500000Y-69810000D01*
X161500000Y-64950000D02*
X161500000Y-64350000D01*
X161500000Y-62650000D02*
X161500000Y-61850000D01*
X161500000Y-60150000D02*
X161500000Y-57190000D01*
X156890000Y-57190000D02*
X161500000Y-57190000D01*
X152490000Y-69800000D02*
X147880000Y-69800000D01*
X147880000Y-69800000D02*
X147880000Y-67100000D01*
X147880000Y-64900000D02*
X147880000Y-62100000D01*
X147880000Y-59900000D02*
X147880000Y-57190000D01*
X147880000Y-57190000D02*
X152490000Y-57190000D01*
D14*
%TO.C,C4*%
X139065000Y-52070000D02*
X139065000Y-52361000D01*
X139065000Y-54319000D02*
X139065000Y-54610000D01*
X139065000Y-54610000D02*
X142875000Y-54610000D01*
X142875000Y-52070000D02*
X139065000Y-52070000D01*
X142875000Y-52070000D02*
X142875000Y-52361000D01*
X142875000Y-54610000D02*
X142875000Y-54319000D01*
D11*
%TO.C,U1*%
X124460000Y-36068000D02*
X125730000Y-36068000D01*
X124460000Y-43688000D02*
X124460000Y-36068000D01*
X125730000Y-30988000D02*
X161290000Y-30988000D01*
X125730000Y-43688000D02*
X124460000Y-43688000D01*
X125730000Y-48768000D02*
X125730000Y-30988000D01*
X130810000Y-36068000D02*
X125730000Y-36068000D01*
X130810000Y-43688000D02*
X125730000Y-43688000D01*
X130810000Y-43688000D02*
X130810000Y-36068000D01*
X137795000Y-34798000D02*
X137795000Y-44958000D01*
X147955000Y-34798000D02*
X137795000Y-34798000D01*
X147955000Y-44958000D02*
X137795000Y-44958000D01*
X147955000Y-44958000D02*
X147955000Y-34798000D01*
X148590000Y-34798000D02*
X151130000Y-34798000D01*
X148590000Y-37973000D02*
X148590000Y-34798000D01*
X151130000Y-34798000D02*
X151130000Y-37973000D01*
X151130000Y-37973000D02*
X148590000Y-37973000D01*
X153670000Y-38608000D02*
X158242000Y-38608000D01*
X153670000Y-41148000D02*
X153670000Y-38608000D01*
X158242000Y-38608000D02*
X158242000Y-41148000D01*
X158242000Y-41148000D02*
X153670000Y-41148000D01*
X161290000Y-30988000D02*
X161290000Y-48768000D01*
X161290000Y-48768000D02*
X125730000Y-48768000D01*
D15*
X140081000Y-40132000D02*
X139827000Y-40386000D01*
X139573000Y-40005000D01*
X139827000Y-39751000D01*
X140081000Y-40132000D01*
G36*
X140081000Y-40132000D02*
G01*
X139827000Y-40386000D01*
X139573000Y-40005000D01*
X139827000Y-39751000D01*
X140081000Y-40132000D01*
G37*
X140462000Y-39751000D02*
X140208000Y-40005000D01*
X139954000Y-39624000D01*
X140208000Y-39370000D01*
X140462000Y-39751000D01*
G36*
X140462000Y-39751000D02*
G01*
X140208000Y-40005000D01*
X139954000Y-39624000D01*
X140208000Y-39370000D01*
X140462000Y-39751000D01*
G37*
X140843000Y-39370000D02*
X140589000Y-39624000D01*
X140335000Y-39243000D01*
X140589000Y-38989000D01*
X140843000Y-39370000D01*
G36*
X140843000Y-39370000D02*
G01*
X140589000Y-39624000D01*
X140335000Y-39243000D01*
X140589000Y-38989000D01*
X140843000Y-39370000D01*
G37*
X141224000Y-39878000D02*
X140970000Y-40132000D01*
X140716000Y-39751000D01*
X140970000Y-39497000D01*
X141224000Y-39878000D01*
G36*
X141224000Y-39878000D02*
G01*
X140970000Y-40132000D01*
X140716000Y-39751000D01*
X140970000Y-39497000D01*
X141224000Y-39878000D01*
G37*
X141605000Y-39497000D02*
X141351000Y-39751000D01*
X141097000Y-39370000D01*
X141351000Y-39116000D01*
X141605000Y-39497000D01*
G36*
X141605000Y-39497000D02*
G01*
X141351000Y-39751000D01*
X141097000Y-39370000D01*
X141351000Y-39116000D01*
X141605000Y-39497000D01*
G37*
X141605000Y-40386000D02*
X141351000Y-40640000D01*
X141097000Y-40259000D01*
X141351000Y-40005000D01*
X141605000Y-40386000D01*
G36*
X141605000Y-40386000D02*
G01*
X141351000Y-40640000D01*
X141097000Y-40259000D01*
X141351000Y-40005000D01*
X141605000Y-40386000D01*
G37*
X141986000Y-40005000D02*
X141732000Y-40259000D01*
X141478000Y-39878000D01*
X141732000Y-39624000D01*
X141986000Y-40005000D01*
G36*
X141986000Y-40005000D02*
G01*
X141732000Y-40259000D01*
X141478000Y-39878000D01*
X141732000Y-39624000D01*
X141986000Y-40005000D01*
G37*
X142367000Y-40513000D02*
X142113000Y-40767000D01*
X141859000Y-40386000D01*
X142113000Y-40132000D01*
X142367000Y-40513000D01*
G36*
X142367000Y-40513000D02*
G01*
X142113000Y-40767000D01*
X141859000Y-40386000D01*
X142113000Y-40132000D01*
X142367000Y-40513000D01*
G37*
D14*
%TO.C,C2*%
X142240000Y-57277000D02*
X142240000Y-61087000D01*
X142240000Y-57277000D02*
X142531000Y-57277000D01*
X142240000Y-61087000D02*
X142531000Y-61087000D01*
X144489000Y-61087000D02*
X144780000Y-61087000D01*
X144780000Y-57277000D02*
X144489000Y-57277000D01*
X144780000Y-61087000D02*
X144780000Y-57277000D01*
D13*
%TO.C,R4*%
X170522900Y-55143400D02*
X170522900Y-61696600D01*
X170522900Y-61696600D02*
X173393100Y-61696600D01*
X173393100Y-55143400D02*
X170522900Y-55143400D01*
X173393100Y-61696600D02*
X173393100Y-55143400D01*
D14*
%TO.C,T1*%
X186436000Y-60071000D02*
X186436000Y-68961000D01*
X186436000Y-60071000D02*
X199136000Y-60071000D01*
X186436000Y-68961000D02*
X199136000Y-68961000D01*
X199136000Y-60071000D02*
X199136000Y-68961000D01*
D16*
X185786000Y-67056000D02*
G75*
G02*
X185586000Y-67056000I-100000J0D01*
G01*
X185586000Y-67056000D02*
G75*
G02*
X185786000Y-67056000I100000J0D01*
G01*
D13*
%TO.C,R3*%
X166204900Y-55143400D02*
X166204900Y-61696600D01*
X166204900Y-61696600D02*
X169075100Y-61696600D01*
X169075100Y-55143400D02*
X166204900Y-55143400D01*
X169075100Y-61696600D02*
X169075100Y-55143400D01*
D12*
%TO.C,GND*%
X122870000Y-47498000D02*
G75*
G02*
X120970000Y-47498000I-950000J0D01*
G01*
X120970000Y-47498000D02*
G75*
G02*
X122870000Y-47498000I950000J0D01*
G01*
%TO.C,5V*%
X122870000Y-32258000D02*
G75*
G02*
X120970000Y-32258000I-950000J0D01*
G01*
X120970000Y-32258000D02*
G75*
G02*
X122870000Y-32258000I950000J0D01*
G01*
D14*
%TO.C,C3*%
X144145000Y-52070000D02*
X144145000Y-52361000D01*
X144145000Y-54610000D02*
X144145000Y-54319000D01*
X144145000Y-54610000D02*
X147955000Y-54610000D01*
X147955000Y-52070000D02*
X144145000Y-52070000D01*
X147955000Y-52361000D02*
X147955000Y-52070000D01*
X147955000Y-54610000D02*
X147955000Y-54319000D01*
%TO.C,U2*%
X166365000Y-37487500D02*
X166365000Y-41887500D01*
X176065000Y-37487500D02*
X176065000Y-41887500D01*
D16*
X175950000Y-35247500D02*
G75*
G02*
X175750000Y-35247500I-100000J0D01*
G01*
X175750000Y-35247500D02*
G75*
G02*
X175950000Y-35247500I100000J0D01*
G01*
D14*
%TO.C,C1*%
X130556000Y-50165000D02*
X130556000Y-53975000D01*
X130556000Y-53975000D02*
X130847000Y-53975000D01*
X130847000Y-50165000D02*
X130556000Y-50165000D01*
X133096000Y-50165000D02*
X132805000Y-50165000D01*
X133096000Y-53975000D02*
X132805000Y-53975000D01*
X133096000Y-53975000D02*
X133096000Y-50165000D01*
%TD*%
M02*
