%TF.GenerationSoftware,KiCad,Pcbnew,9.0.3*%
%TF.CreationDate,2025-08-09T15:05:22+10:00*%
%TF.ProjectId,soundrocket,736f756e-6472-46f6-936b-65742e6b6963,rev?*%
%TF.SameCoordinates,Original*%
%TF.FileFunction,Copper,L2,Inr*%
%TF.FilePolarity,Positive*%
%FSLAX46Y46*%
G04 Gerber Fmt 4.6, Leading zero omitted, Abs format (unit mm)*
G04 Created by KiCad (PCBNEW 9.0.3) date 2025-08-09 15:05:22*
%MOMM*%
%LPD*%
G01*
G04 APERTURE LIST*
G04 Aperture macros list*
%AMRoundRect*
0 Rectangle with rounded corners*
0 $1 Rounding radius*
0 $2 $3 $4 $5 $6 $7 $8 $9 X,Y pos of 4 corners*
0 Add a 4 corners polygon primitive as box body*
4,1,4,$2,$3,$4,$5,$6,$7,$8,$9,$2,$3,0*
0 Add four circle primitives for the rounded corners*
1,1,$1+$1,$2,$3*
1,1,$1+$1,$4,$5*
1,1,$1+$1,$6,$7*
1,1,$1+$1,$8,$9*
0 Add four rect primitives between the rounded corners*
20,1,$1+$1,$2,$3,$4,$5,0*
20,1,$1+$1,$4,$5,$6,$7,0*
20,1,$1+$1,$6,$7,$8,$9,0*
20,1,$1+$1,$8,$9,$2,$3,0*%
G04 Aperture macros list end*
%ADD10C,0.300000*%
%TA.AperFunction,NonConductor*%
%ADD11C,0.300000*%
%TD*%
%TA.AperFunction,NonConductor*%
%ADD12C,0.200000*%
%TD*%
%TA.AperFunction,ComponentPad*%
%ADD13R,1.318000X1.318000*%
%TD*%
%TA.AperFunction,ComponentPad*%
%ADD14C,1.318000*%
%TD*%
%TA.AperFunction,ComponentPad*%
%ADD15C,1.600000*%
%TD*%
%TA.AperFunction,ComponentPad*%
%ADD16RoundRect,0.250000X0.550000X0.550000X-0.550000X0.550000X-0.550000X-0.550000X0.550000X-0.550000X0*%
%TD*%
%TA.AperFunction,ComponentPad*%
%ADD17O,4.100000X3.000000*%
%TD*%
%TA.AperFunction,ComponentPad*%
%ADD18C,3.400000*%
%TD*%
%TA.AperFunction,ComponentPad*%
%ADD19C,2.900000*%
%TD*%
%TA.AperFunction,ComponentPad*%
%ADD20R,1.397000X1.397000*%
%TD*%
%TA.AperFunction,ComponentPad*%
%ADD21C,1.397000*%
%TD*%
%TA.AperFunction,ComponentPad*%
%ADD22C,1.500000*%
%TD*%
%TA.AperFunction,ComponentPad*%
%ADD23O,1.900000X3.200000*%
%TD*%
%TA.AperFunction,ViaPad*%
%ADD24C,0.800000*%
%TD*%
G04 APERTURE END LIST*
D10*
D11*
X111162328Y-57014284D02*
X112162328Y-57014284D01*
X110590900Y-57371426D02*
X111662328Y-57728569D01*
X111662328Y-57728569D02*
X111662328Y-56799998D01*
X110662328Y-55514284D02*
X110662328Y-56228570D01*
X110662328Y-56228570D02*
X111376614Y-56299998D01*
X111376614Y-56299998D02*
X111305185Y-56228570D01*
X111305185Y-56228570D02*
X111233757Y-56085713D01*
X111233757Y-56085713D02*
X111233757Y-55728570D01*
X111233757Y-55728570D02*
X111305185Y-55585713D01*
X111305185Y-55585713D02*
X111376614Y-55514284D01*
X111376614Y-55514284D02*
X111519471Y-55442855D01*
X111519471Y-55442855D02*
X111876614Y-55442855D01*
X111876614Y-55442855D02*
X112019471Y-55514284D01*
X112019471Y-55514284D02*
X112090900Y-55585713D01*
X112090900Y-55585713D02*
X112162328Y-55728570D01*
X112162328Y-55728570D02*
X112162328Y-56085713D01*
X112162328Y-56085713D02*
X112090900Y-56228570D01*
X112090900Y-56228570D02*
X112019471Y-56299998D01*
X112019471Y-54799999D02*
X112090900Y-54728570D01*
X112090900Y-54728570D02*
X112162328Y-54799999D01*
X112162328Y-54799999D02*
X112090900Y-54871427D01*
X112090900Y-54871427D02*
X112019471Y-54799999D01*
X112019471Y-54799999D02*
X112162328Y-54799999D01*
X110662328Y-54228570D02*
X110662328Y-53228570D01*
X110662328Y-53228570D02*
X112162328Y-53871427D01*
X110805185Y-52728570D02*
X110733757Y-52657142D01*
X110733757Y-52657142D02*
X110662328Y-52514285D01*
X110662328Y-52514285D02*
X110662328Y-52157142D01*
X110662328Y-52157142D02*
X110733757Y-52014285D01*
X110733757Y-52014285D02*
X110805185Y-51942856D01*
X110805185Y-51942856D02*
X110948042Y-51871427D01*
X110948042Y-51871427D02*
X111090900Y-51871427D01*
X111090900Y-51871427D02*
X111305185Y-51942856D01*
X111305185Y-51942856D02*
X112162328Y-52799999D01*
X112162328Y-52799999D02*
X112162328Y-51871427D01*
X110662328Y-50942856D02*
X110662328Y-50799999D01*
X110662328Y-50799999D02*
X110733757Y-50657142D01*
X110733757Y-50657142D02*
X110805185Y-50585714D01*
X110805185Y-50585714D02*
X110948042Y-50514285D01*
X110948042Y-50514285D02*
X111233757Y-50442856D01*
X111233757Y-50442856D02*
X111590900Y-50442856D01*
X111590900Y-50442856D02*
X111876614Y-50514285D01*
X111876614Y-50514285D02*
X112019471Y-50585714D01*
X112019471Y-50585714D02*
X112090900Y-50657142D01*
X112090900Y-50657142D02*
X112162328Y-50799999D01*
X112162328Y-50799999D02*
X112162328Y-50942856D01*
X112162328Y-50942856D02*
X112090900Y-51085714D01*
X112090900Y-51085714D02*
X112019471Y-51157142D01*
X112019471Y-51157142D02*
X111876614Y-51228571D01*
X111876614Y-51228571D02*
X111590900Y-51299999D01*
X111590900Y-51299999D02*
X111233757Y-51299999D01*
X111233757Y-51299999D02*
X110948042Y-51228571D01*
X110948042Y-51228571D02*
X110805185Y-51157142D01*
X110805185Y-51157142D02*
X110733757Y-51085714D01*
X110733757Y-51085714D02*
X110662328Y-50942856D01*
X110662328Y-49514285D02*
X110662328Y-49371428D01*
X110662328Y-49371428D02*
X110733757Y-49228571D01*
X110733757Y-49228571D02*
X110805185Y-49157143D01*
X110805185Y-49157143D02*
X110948042Y-49085714D01*
X110948042Y-49085714D02*
X111233757Y-49014285D01*
X111233757Y-49014285D02*
X111590900Y-49014285D01*
X111590900Y-49014285D02*
X111876614Y-49085714D01*
X111876614Y-49085714D02*
X112019471Y-49157143D01*
X112019471Y-49157143D02*
X112090900Y-49228571D01*
X112090900Y-49228571D02*
X112162328Y-49371428D01*
X112162328Y-49371428D02*
X112162328Y-49514285D01*
X112162328Y-49514285D02*
X112090900Y-49657143D01*
X112090900Y-49657143D02*
X112019471Y-49728571D01*
X112019471Y-49728571D02*
X111876614Y-49800000D01*
X111876614Y-49800000D02*
X111590900Y-49871428D01*
X111590900Y-49871428D02*
X111233757Y-49871428D01*
X111233757Y-49871428D02*
X110948042Y-49800000D01*
X110948042Y-49800000D02*
X110805185Y-49728571D01*
X110805185Y-49728571D02*
X110733757Y-49657143D01*
X110733757Y-49657143D02*
X110662328Y-49514285D01*
X112162328Y-47228572D02*
X111162328Y-47228572D01*
X111305185Y-47228572D02*
X111233757Y-47157143D01*
X111233757Y-47157143D02*
X111162328Y-47014286D01*
X111162328Y-47014286D02*
X111162328Y-46800000D01*
X111162328Y-46800000D02*
X111233757Y-46657143D01*
X111233757Y-46657143D02*
X111376614Y-46585715D01*
X111376614Y-46585715D02*
X112162328Y-46585715D01*
X111376614Y-46585715D02*
X111233757Y-46514286D01*
X111233757Y-46514286D02*
X111162328Y-46371429D01*
X111162328Y-46371429D02*
X111162328Y-46157143D01*
X111162328Y-46157143D02*
X111233757Y-46014286D01*
X111233757Y-46014286D02*
X111376614Y-45942857D01*
X111376614Y-45942857D02*
X112162328Y-45942857D01*
X112162328Y-45228572D02*
X111162328Y-45228572D01*
X111305185Y-45228572D02*
X111233757Y-45157143D01*
X111233757Y-45157143D02*
X111162328Y-45014286D01*
X111162328Y-45014286D02*
X111162328Y-44800000D01*
X111162328Y-44800000D02*
X111233757Y-44657143D01*
X111233757Y-44657143D02*
X111376614Y-44585715D01*
X111376614Y-44585715D02*
X112162328Y-44585715D01*
X111376614Y-44585715D02*
X111233757Y-44514286D01*
X111233757Y-44514286D02*
X111162328Y-44371429D01*
X111162328Y-44371429D02*
X111162328Y-44157143D01*
X111162328Y-44157143D02*
X111233757Y-44014286D01*
X111233757Y-44014286D02*
X111376614Y-43942857D01*
X111376614Y-43942857D02*
X112162328Y-43942857D01*
D12*
X118880000Y-73660000D02*
X112697580Y-73660000D01*
X112697580Y-27940000D02*
X118880000Y-27940000D01*
X113284000Y-73660000D02*
X113284000Y-27940000D01*
X113284000Y-73660000D02*
X112697579Y-72533496D01*
X113284000Y-73660000D02*
X113870421Y-72533496D01*
X113284000Y-27940000D02*
X113870421Y-29066504D01*
X113284000Y-27940000D02*
X112697579Y-29066504D01*
D10*
D11*
X155409144Y-77777185D02*
X155266287Y-77705757D01*
X155266287Y-77705757D02*
X155194858Y-77634328D01*
X155194858Y-77634328D02*
X155123430Y-77491471D01*
X155123430Y-77491471D02*
X155123430Y-77420042D01*
X155123430Y-77420042D02*
X155194858Y-77277185D01*
X155194858Y-77277185D02*
X155266287Y-77205757D01*
X155266287Y-77205757D02*
X155409144Y-77134328D01*
X155409144Y-77134328D02*
X155694858Y-77134328D01*
X155694858Y-77134328D02*
X155837716Y-77205757D01*
X155837716Y-77205757D02*
X155909144Y-77277185D01*
X155909144Y-77277185D02*
X155980573Y-77420042D01*
X155980573Y-77420042D02*
X155980573Y-77491471D01*
X155980573Y-77491471D02*
X155909144Y-77634328D01*
X155909144Y-77634328D02*
X155837716Y-77705757D01*
X155837716Y-77705757D02*
X155694858Y-77777185D01*
X155694858Y-77777185D02*
X155409144Y-77777185D01*
X155409144Y-77777185D02*
X155266287Y-77848614D01*
X155266287Y-77848614D02*
X155194858Y-77920042D01*
X155194858Y-77920042D02*
X155123430Y-78062900D01*
X155123430Y-78062900D02*
X155123430Y-78348614D01*
X155123430Y-78348614D02*
X155194858Y-78491471D01*
X155194858Y-78491471D02*
X155266287Y-78562900D01*
X155266287Y-78562900D02*
X155409144Y-78634328D01*
X155409144Y-78634328D02*
X155694858Y-78634328D01*
X155694858Y-78634328D02*
X155837716Y-78562900D01*
X155837716Y-78562900D02*
X155909144Y-78491471D01*
X155909144Y-78491471D02*
X155980573Y-78348614D01*
X155980573Y-78348614D02*
X155980573Y-78062900D01*
X155980573Y-78062900D02*
X155909144Y-77920042D01*
X155909144Y-77920042D02*
X155837716Y-77848614D01*
X155837716Y-77848614D02*
X155694858Y-77777185D01*
X157337715Y-77134328D02*
X156623429Y-77134328D01*
X156623429Y-77134328D02*
X156552001Y-77848614D01*
X156552001Y-77848614D02*
X156623429Y-77777185D01*
X156623429Y-77777185D02*
X156766287Y-77705757D01*
X156766287Y-77705757D02*
X157123429Y-77705757D01*
X157123429Y-77705757D02*
X157266287Y-77777185D01*
X157266287Y-77777185D02*
X157337715Y-77848614D01*
X157337715Y-77848614D02*
X157409144Y-77991471D01*
X157409144Y-77991471D02*
X157409144Y-78348614D01*
X157409144Y-78348614D02*
X157337715Y-78491471D01*
X157337715Y-78491471D02*
X157266287Y-78562900D01*
X157266287Y-78562900D02*
X157123429Y-78634328D01*
X157123429Y-78634328D02*
X156766287Y-78634328D01*
X156766287Y-78634328D02*
X156623429Y-78562900D01*
X156623429Y-78562900D02*
X156552001Y-78491471D01*
X158052000Y-78491471D02*
X158123429Y-78562900D01*
X158123429Y-78562900D02*
X158052000Y-78634328D01*
X158052000Y-78634328D02*
X157980572Y-78562900D01*
X157980572Y-78562900D02*
X158052000Y-78491471D01*
X158052000Y-78491471D02*
X158052000Y-78634328D01*
X158623429Y-77134328D02*
X159552001Y-77134328D01*
X159552001Y-77134328D02*
X159052001Y-77705757D01*
X159052001Y-77705757D02*
X159266286Y-77705757D01*
X159266286Y-77705757D02*
X159409144Y-77777185D01*
X159409144Y-77777185D02*
X159480572Y-77848614D01*
X159480572Y-77848614D02*
X159552001Y-77991471D01*
X159552001Y-77991471D02*
X159552001Y-78348614D01*
X159552001Y-78348614D02*
X159480572Y-78491471D01*
X159480572Y-78491471D02*
X159409144Y-78562900D01*
X159409144Y-78562900D02*
X159266286Y-78634328D01*
X159266286Y-78634328D02*
X158837715Y-78634328D01*
X158837715Y-78634328D02*
X158694858Y-78562900D01*
X158694858Y-78562900D02*
X158623429Y-78491471D01*
X160837715Y-77634328D02*
X160837715Y-78634328D01*
X160480572Y-77062900D02*
X160123429Y-78134328D01*
X160123429Y-78134328D02*
X161052000Y-78134328D01*
X162266286Y-77634328D02*
X162266286Y-78634328D01*
X161909143Y-77062900D02*
X161552000Y-78134328D01*
X161552000Y-78134328D02*
X162480571Y-78134328D01*
X163337714Y-77134328D02*
X163480571Y-77134328D01*
X163480571Y-77134328D02*
X163623428Y-77205757D01*
X163623428Y-77205757D02*
X163694857Y-77277185D01*
X163694857Y-77277185D02*
X163766285Y-77420042D01*
X163766285Y-77420042D02*
X163837714Y-77705757D01*
X163837714Y-77705757D02*
X163837714Y-78062900D01*
X163837714Y-78062900D02*
X163766285Y-78348614D01*
X163766285Y-78348614D02*
X163694857Y-78491471D01*
X163694857Y-78491471D02*
X163623428Y-78562900D01*
X163623428Y-78562900D02*
X163480571Y-78634328D01*
X163480571Y-78634328D02*
X163337714Y-78634328D01*
X163337714Y-78634328D02*
X163194857Y-78562900D01*
X163194857Y-78562900D02*
X163123428Y-78491471D01*
X163123428Y-78491471D02*
X163051999Y-78348614D01*
X163051999Y-78348614D02*
X162980571Y-78062900D01*
X162980571Y-78062900D02*
X162980571Y-77705757D01*
X162980571Y-77705757D02*
X163051999Y-77420042D01*
X163051999Y-77420042D02*
X163123428Y-77277185D01*
X163123428Y-77277185D02*
X163194857Y-77205757D01*
X163194857Y-77205757D02*
X163337714Y-77134328D01*
X165623427Y-78634328D02*
X165623427Y-77634328D01*
X165623427Y-77777185D02*
X165694856Y-77705757D01*
X165694856Y-77705757D02*
X165837713Y-77634328D01*
X165837713Y-77634328D02*
X166051999Y-77634328D01*
X166051999Y-77634328D02*
X166194856Y-77705757D01*
X166194856Y-77705757D02*
X166266285Y-77848614D01*
X166266285Y-77848614D02*
X166266285Y-78634328D01*
X166266285Y-77848614D02*
X166337713Y-77705757D01*
X166337713Y-77705757D02*
X166480570Y-77634328D01*
X166480570Y-77634328D02*
X166694856Y-77634328D01*
X166694856Y-77634328D02*
X166837713Y-77705757D01*
X166837713Y-77705757D02*
X166909142Y-77848614D01*
X166909142Y-77848614D02*
X166909142Y-78634328D01*
X167623427Y-78634328D02*
X167623427Y-77634328D01*
X167623427Y-77777185D02*
X167694856Y-77705757D01*
X167694856Y-77705757D02*
X167837713Y-77634328D01*
X167837713Y-77634328D02*
X168051999Y-77634328D01*
X168051999Y-77634328D02*
X168194856Y-77705757D01*
X168194856Y-77705757D02*
X168266285Y-77848614D01*
X168266285Y-77848614D02*
X168266285Y-78634328D01*
X168266285Y-77848614D02*
X168337713Y-77705757D01*
X168337713Y-77705757D02*
X168480570Y-77634328D01*
X168480570Y-77634328D02*
X168694856Y-77634328D01*
X168694856Y-77634328D02*
X168837713Y-77705757D01*
X168837713Y-77705757D02*
X168909142Y-77848614D01*
X168909142Y-77848614D02*
X168909142Y-78634328D01*
D12*
X204724000Y-74160000D02*
X204724000Y-80342420D01*
X119380000Y-80342420D02*
X119380000Y-74160000D01*
X204724000Y-79756000D02*
X119380000Y-79756000D01*
X204724000Y-79756000D02*
X203597496Y-80342421D01*
X204724000Y-79756000D02*
X203597496Y-79169579D01*
X119380000Y-79756000D02*
X120506504Y-79169579D01*
X119380000Y-79756000D02*
X120506504Y-80342421D01*
D13*
%TO.N,Net-(U1-5_IN2)*%
%TO.C,C2*%
X174752000Y-60960000D03*
D14*
%TO.N,GND*%
X174752000Y-63500000D03*
%TD*%
D15*
%TO.N,unconnected-(U1-GND-Pad1)*%
%TO.C,U1*%
X127000000Y-47498000D03*
%TO.N,Net-(U1-0_RX1_CRX2_CS1)*%
X129540000Y-47498000D03*
%TO.N,unconnected-(U1-1_TX1_CTX2_MISO1-Pad3)*%
X132080000Y-47498000D03*
%TO.N,Net-(U1-2_OUT2)*%
X134620000Y-47498000D03*
%TO.N,Net-(U1-3_LRCLK2)*%
X137160000Y-47498000D03*
%TO.N,unconnected-(U1-4_BCLK2-Pad6)*%
X139700000Y-47498000D03*
%TO.N,Net-(U1-5_IN2)*%
X142240000Y-47498000D03*
%TO.N,Net-(U1-6_OUT1D)*%
X144780000Y-47498000D03*
%TO.N,Net-(U1-7_RX2_OUT1A)*%
X147320000Y-47498000D03*
%TO.N,unconnected-(U1-8_TX2_IN1-Pad10)*%
X149860000Y-47498000D03*
%TO.N,unconnected-(U1-9_OUT1C-Pad11)*%
X152400000Y-47498000D03*
%TO.N,Net-(U1-10_CS_MQSR)*%
X154940000Y-47498000D03*
%TO.N,Net-(U1-11_MOSI_CTX1)*%
X157480000Y-47498000D03*
%TO.N,unconnected-(U1-12_MISO_MQSL-Pad14)*%
X160020000Y-47498000D03*
%TO.N,unconnected-(U1-VBAT-Pad15)*%
X160020000Y-44958000D03*
%TO.N,unconnected-(U1-3V3-Pad16)*%
X160020000Y-42418000D03*
%TO.N,unconnected-(U1-GND-Pad17)*%
X160020000Y-39878000D03*
%TO.N,unconnected-(U1-PROGRAM-Pad18)*%
X160020000Y-37338000D03*
%TO.N,unconnected-(U1-ON_OFF-Pad19)*%
X160020000Y-34798000D03*
%TO.N,unconnected-(U1-13_SCK_CRX1_LED-Pad20)*%
X160020000Y-32258000D03*
%TO.N,unconnected-(U1-14_A0_TX3_SPDIF_OUT-Pad21)*%
X157480000Y-32258000D03*
%TO.N,unconnected-(U1-15_A1_RX3_SPDIF_IN-Pad22)*%
X154940000Y-32258000D03*
%TO.N,unconnected-(U1-16_A2_RX4_SCL1-Pad23)*%
X152400000Y-32258000D03*
%TO.N,unconnected-(U1-17_A3_TX4_SDA1-Pad24)*%
X149860000Y-32258000D03*
%TO.N,unconnected-(U1-18_A4_SDA0-Pad25)*%
X147320000Y-32258000D03*
%TO.N,Net-(U1-19_A5_SCL0)*%
X144780000Y-32258000D03*
%TO.N,Net-(U1-20_A6_TX5_LRCLK1)*%
X142240000Y-32258000D03*
%TO.N,Net-(U1-21_A7_RX5_BCLK1)*%
X139700000Y-32258000D03*
%TO.N,unconnected-(U1-22_A8_CTX1-Pad29)*%
X137160000Y-32258000D03*
%TO.N,Net-(U1-23_A9_CRX1_MCLK1)*%
X134620000Y-32258000D03*
%TO.N,Net-(U2-V_IO)*%
X132080000Y-32258000D03*
%TO.N,GND*%
X129540000Y-32258000D03*
%TO.N,5V0*%
X127000000Y-32258000D03*
%TO.N,unconnected-(U1-VUSB-Pad34)*%
X129540000Y-34798000D03*
%TO.N,unconnected-(U1-24_A10_TX6_SCL2-Pad35)*%
X154940000Y-34798000D03*
%TO.N,unconnected-(U1-25_A11_RX6_SDA2-Pad36)*%
X152400000Y-34798000D03*
%TO.N,unconnected-(U1-26_A12_MOSI1-Pad37)*%
X154940000Y-37338000D03*
%TO.N,unconnected-(U1-27_A13_SCK1-Pad38)*%
X152400000Y-37338000D03*
%TO.N,unconnected-(U1-28_RX7-Pad39)*%
X154940000Y-39878000D03*
%TO.N,unconnected-(U1-29_TX7-Pad40)*%
X152400000Y-39878000D03*
%TO.N,unconnected-(U1-30_CRX3-Pad41)*%
X154940000Y-42418000D03*
%TO.N,unconnected-(U1-31_CTX3-Pad42)*%
X152400000Y-42418000D03*
%TO.N,unconnected-(U1-32_OUT1B-Pad43)*%
X154940000Y-44958000D03*
%TO.N,unconnected-(U1-33_MCLK2-Pad44)*%
X152400000Y-44958000D03*
%TD*%
D16*
%TO.N,Net-(U1-6_OUT1D)*%
%TO.C,SW2*%
X168540000Y-66000000D03*
D15*
%TO.N,Net-(U1-5_IN2)*%
X168540000Y-61000000D03*
%TO.N,GND*%
X168540000Y-63500000D03*
%TO.N,Net-(C4-Pad1)*%
X154040000Y-66000000D03*
%TO.N,Net-(U1-3_LRCLK2)*%
X154040000Y-61000000D03*
D17*
%TO.N,N/C*%
X161040000Y-69100000D03*
X161040000Y-57900000D03*
%TD*%
D13*
%TO.N,Net-(C4-Pad1)*%
%TO.C,C4*%
X149860000Y-68580000D03*
D14*
%TO.N,GND*%
X149860000Y-71120000D03*
%TD*%
D18*
%TO.N,/XLR-TX+*%
%TO.C,J1*%
X188468000Y-37592000D03*
%TO.N,/XLR-TX-*%
X187833000Y-45212000D03*
D19*
%TO.N,GND*%
X184018000Y-41402000D03*
%TD*%
D20*
%TO.N,/DIT4192-TX-*%
%TO.C,T1*%
X187706000Y-67056000D03*
D21*
%TO.N,/DIT4192-TX+*%
X187706000Y-61976000D03*
%TO.N,/XLR-TX-*%
X197866000Y-67056000D03*
%TO.N,/XLR-TX+*%
X197866000Y-61976000D03*
%TD*%
D22*
%TO.N,GND*%
%TO.C,GND*%
X121920000Y-47498000D03*
%TD*%
%TO.N,5V0*%
%TO.C,5V*%
X121920000Y-32258000D03*
%TD*%
D13*
%TO.N,Net-(U1-6_OUT1D)*%
%TO.C,C1*%
X174752000Y-66040000D03*
D14*
%TO.N,GND*%
X174752000Y-68580000D03*
%TD*%
D13*
%TO.N,Net-(C3-Pad1)*%
%TO.C,C3*%
X123190000Y-59944000D03*
D14*
%TO.N,GND*%
X123190000Y-62484000D03*
%TD*%
D23*
%TO.N,Net-(C3-Pad1)*%
%TO.C,SW1*%
X133390000Y-56996000D03*
%TO.N,Net-(U1-2_OUT2)*%
X138390000Y-56996000D03*
%TO.N,N/C*%
X133390000Y-69496000D03*
X138390000Y-69496000D03*
%TD*%
D24*
%TO.N,Net-(U1-7_RX2_OUT1A)*%
X161798000Y-47498000D03*
%TO.N,GND*%
X174790000Y-45250000D03*
X170180000Y-33020000D03*
X167640000Y-45212000D03*
%TO.N,Net-(U1-0_RX1_CRX2_CS1)*%
X166785001Y-48260000D03*
%TO.N,Net-(U1-10_CS_MQSR)*%
X159258000Y-49530000D03*
%TO.N,Net-(U1-19_A5_SCL0)*%
X174244000Y-34544000D03*
%TO.N,Net-(U1-23_A9_CRX1_MCLK1)*%
X172212000Y-33020000D03*
%TO.N,5V0*%
X170688000Y-44704000D03*
%TD*%
%TA.AperFunction,Conductor*%
%TO.N,5V0*%
G36*
X204666539Y-27960185D02*
G01*
X204712294Y-28012989D01*
X204723500Y-28064500D01*
X204723500Y-73443302D01*
X204703815Y-73510341D01*
X204651011Y-73556096D01*
X204631595Y-73563076D01*
X204600654Y-73571367D01*
X204492214Y-73600423D01*
X204492213Y-73600424D01*
X204418666Y-73642887D01*
X204356666Y-73659500D01*
X119747334Y-73659500D01*
X119738397Y-73657670D01*
X119732695Y-73658633D01*
X119716013Y-73653086D01*
X119698598Y-73649521D01*
X119691768Y-73646602D01*
X119611784Y-73600423D01*
X119536596Y-73580276D01*
X119528477Y-73576806D01*
X119508056Y-73559968D01*
X119485458Y-73546194D01*
X119480632Y-73537356D01*
X119474569Y-73532357D01*
X119469835Y-73517582D01*
X119457439Y-73494880D01*
X119439577Y-73428216D01*
X119397112Y-73354663D01*
X119380500Y-73292664D01*
X119380500Y-68731837D01*
X131939500Y-68731837D01*
X131939500Y-70260162D01*
X131975215Y-70485660D01*
X132045770Y-70702803D01*
X132145251Y-70898043D01*
X132149421Y-70906228D01*
X132283621Y-71090937D01*
X132445063Y-71252379D01*
X132629772Y-71386579D01*
X132725884Y-71435550D01*
X132833196Y-71490229D01*
X132833198Y-71490229D01*
X132833201Y-71490231D01*
X132949592Y-71528049D01*
X133050339Y-71560784D01*
X133275838Y-71596500D01*
X133275843Y-71596500D01*
X133504162Y-71596500D01*
X133729660Y-71560784D01*
X133946799Y-71490231D01*
X134150228Y-71386579D01*
X134334937Y-71252379D01*
X134496379Y-71090937D01*
X134630579Y-70906228D01*
X134734231Y-70702799D01*
X134804784Y-70485660D01*
X134814889Y-70421860D01*
X134840500Y-70260162D01*
X134840500Y-68731837D01*
X136939500Y-68731837D01*
X136939500Y-70260162D01*
X136975215Y-70485660D01*
X137045770Y-70702803D01*
X137145251Y-70898043D01*
X137149421Y-70906228D01*
X137283621Y-71090937D01*
X137445063Y-71252379D01*
X137629772Y-71386579D01*
X137725884Y-71435550D01*
X137833196Y-71490229D01*
X137833198Y-71490229D01*
X137833201Y-71490231D01*
X137949592Y-71528049D01*
X138050339Y-71560784D01*
X138275838Y-71596500D01*
X138275843Y-71596500D01*
X138504162Y-71596500D01*
X138729660Y-71560784D01*
X138946799Y-71490231D01*
X139150228Y-71386579D01*
X139334937Y-71252379D01*
X139496379Y-71090937D01*
X139630579Y-70906228D01*
X139734231Y-70702799D01*
X139804784Y-70485660D01*
X139814889Y-70421860D01*
X139840500Y-70260162D01*
X139840500Y-68731837D01*
X139804784Y-68506339D01*
X139772049Y-68405592D01*
X139734231Y-68289201D01*
X139734229Y-68289198D01*
X139734229Y-68289196D01*
X139655612Y-68134902D01*
X139630579Y-68085772D01*
X139496379Y-67901063D01*
X139468451Y-67873135D01*
X148700500Y-67873135D01*
X148700500Y-69286870D01*
X148700501Y-69286876D01*
X148706908Y-69346483D01*
X148757202Y-69481328D01*
X148757206Y-69481335D01*
X148843452Y-69596544D01*
X148843455Y-69596547D01*
X148958664Y-69682793D01*
X148958671Y-69682797D01*
X149093517Y-69733091D01*
X149093516Y-69733091D01*
X149100444Y-69733835D01*
X149153127Y-69739500D01*
X149588521Y-69739499D01*
X149655558Y-69759183D01*
X149701313Y-69811987D01*
X149711257Y-69881146D01*
X149682232Y-69944702D01*
X149623454Y-69982476D01*
X149607921Y-69985972D01*
X149588485Y-69989050D01*
X149504711Y-70016270D01*
X149414907Y-70045450D01*
X149414904Y-70045451D01*
X149414902Y-70045452D01*
X149252289Y-70128307D01*
X149104634Y-70235585D01*
X148975585Y-70364634D01*
X148868307Y-70512289D01*
X148785452Y-70674902D01*
X148785451Y-70674904D01*
X148785450Y-70674907D01*
X148729051Y-70848483D01*
X148700500Y-71028745D01*
X148700500Y-71211255D01*
X148729051Y-71391517D01*
X148785450Y-71565093D01*
X148868307Y-71727710D01*
X148975583Y-71875363D01*
X149104637Y-72004417D01*
X149252290Y-72111693D01*
X149414907Y-72194550D01*
X149588483Y-72250949D01*
X149768745Y-72279500D01*
X149768746Y-72279500D01*
X149951254Y-72279500D01*
X149951255Y-72279500D01*
X150131517Y-72250949D01*
X150305093Y-72194550D01*
X150467710Y-72111693D01*
X150615363Y-72004417D01*
X150744417Y-71875363D01*
X150851693Y-71727710D01*
X150934550Y-71565093D01*
X150990949Y-71391517D01*
X151019500Y-71211255D01*
X151019500Y-71028745D01*
X150990949Y-70848483D01*
X150934550Y-70674907D01*
X150851693Y-70512290D01*
X150744417Y-70364637D01*
X150615363Y-70235583D01*
X150467710Y-70128307D01*
X150305093Y-70045450D01*
X150131517Y-69989051D01*
X150131513Y-69989050D01*
X150131512Y-69989050D01*
X150112078Y-69985972D01*
X150048944Y-69956042D01*
X150012013Y-69896730D01*
X150013011Y-69826868D01*
X150051621Y-69768636D01*
X150115585Y-69740522D01*
X150131472Y-69739499D01*
X150566872Y-69739499D01*
X150626483Y-69733091D01*
X150761331Y-69682796D01*
X150876546Y-69596546D01*
X150962796Y-69481331D01*
X151013091Y-69346483D01*
X151019500Y-69286873D01*
X151019500Y-68968872D01*
X158489500Y-68968872D01*
X158489500Y-69231127D01*
X158503224Y-69335363D01*
X158523730Y-69491116D01*
X158590284Y-69739499D01*
X158591602Y-69744418D01*
X158591605Y-69744428D01*
X158691953Y-69986690D01*
X158691958Y-69986700D01*
X158823075Y-70213803D01*
X158982718Y-70421851D01*
X158982726Y-70421860D01*
X159168140Y-70607274D01*
X159168148Y-70607281D01*
X159376196Y-70766924D01*
X159603299Y-70898041D01*
X159603309Y-70898046D01*
X159845571Y-70998394D01*
X159845581Y-70998398D01*
X160098884Y-71066270D01*
X160358880Y-71100500D01*
X160358887Y-71100500D01*
X161721113Y-71100500D01*
X161721120Y-71100500D01*
X161981116Y-71066270D01*
X162234419Y-70998398D01*
X162476697Y-70898043D01*
X162703803Y-70766924D01*
X162911851Y-70607282D01*
X162911855Y-70607277D01*
X162911860Y-70607274D01*
X163097274Y-70421860D01*
X163097277Y-70421855D01*
X163097282Y-70421851D01*
X163256924Y-70213803D01*
X163388043Y-69986697D01*
X163488398Y-69744419D01*
X163556270Y-69491116D01*
X163590500Y-69231120D01*
X163590500Y-68968880D01*
X163556270Y-68708884D01*
X163488398Y-68455581D01*
X163419479Y-68289196D01*
X163388046Y-68213309D01*
X163388041Y-68213299D01*
X163256924Y-67986196D01*
X163124420Y-67813516D01*
X163097282Y-67778149D01*
X163097281Y-67778148D01*
X163097274Y-67778140D01*
X162911860Y-67592726D01*
X162911851Y-67592718D01*
X162703803Y-67433075D01*
X162476700Y-67301958D01*
X162476690Y-67301953D01*
X162234428Y-67201605D01*
X162234421Y-67201603D01*
X162234419Y-67201602D01*
X161981116Y-67133730D01*
X161923339Y-67126123D01*
X161721127Y-67099500D01*
X161721120Y-67099500D01*
X160358880Y-67099500D01*
X160358872Y-67099500D01*
X160127772Y-67129926D01*
X160098884Y-67133730D01*
X159877345Y-67193091D01*
X159845581Y-67201602D01*
X159845571Y-67201605D01*
X159603309Y-67301953D01*
X159603299Y-67301958D01*
X159376196Y-67433075D01*
X159168148Y-67592718D01*
X158982718Y-67778148D01*
X158823075Y-67986196D01*
X158691958Y-68213299D01*
X158691953Y-68213309D01*
X158591605Y-68455571D01*
X158591602Y-68455581D01*
X158523730Y-68708885D01*
X158489500Y-68968872D01*
X151019500Y-68968872D01*
X151019499Y-68506340D01*
X151019499Y-67873129D01*
X151019498Y-67873123D01*
X151019497Y-67873116D01*
X151013091Y-67813517D01*
X151008938Y-67802383D01*
X150962797Y-67678671D01*
X150962793Y-67678664D01*
X150876547Y-67563455D01*
X150876544Y-67563452D01*
X150761335Y-67477206D01*
X150761328Y-67477202D01*
X150626482Y-67426908D01*
X150626483Y-67426908D01*
X150566883Y-67420501D01*
X150566881Y-67420500D01*
X150566873Y-67420500D01*
X150566864Y-67420500D01*
X149153129Y-67420500D01*
X149153123Y-67420501D01*
X149093516Y-67426908D01*
X148958671Y-67477202D01*
X148958664Y-67477206D01*
X148843455Y-67563452D01*
X148843452Y-67563455D01*
X148757206Y-67678664D01*
X148757202Y-67678671D01*
X148706908Y-67813517D01*
X148701698Y-67861982D01*
X148700501Y-67873123D01*
X148700500Y-67873135D01*
X139468451Y-67873135D01*
X139334937Y-67739621D01*
X139150228Y-67605421D01*
X139116640Y-67588307D01*
X138946803Y-67501770D01*
X138729660Y-67431215D01*
X138504162Y-67395500D01*
X138504157Y-67395500D01*
X138275843Y-67395500D01*
X138275838Y-67395500D01*
X138050339Y-67431215D01*
X137833196Y-67501770D01*
X137629771Y-67605421D01*
X137445061Y-67739622D01*
X137283622Y-67901061D01*
X137149421Y-68085771D01*
X137045770Y-68289196D01*
X136975215Y-68506339D01*
X136939500Y-68731837D01*
X134840500Y-68731837D01*
X134804784Y-68506339D01*
X134772049Y-68405592D01*
X134734231Y-68289201D01*
X134734229Y-68289198D01*
X134734229Y-68289196D01*
X134655612Y-68134902D01*
X134630579Y-68085772D01*
X134496379Y-67901063D01*
X134334937Y-67739621D01*
X134150228Y-67605421D01*
X134116640Y-67588307D01*
X133946803Y-67501770D01*
X133729660Y-67431215D01*
X133504162Y-67395500D01*
X133504157Y-67395500D01*
X133275843Y-67395500D01*
X133275838Y-67395500D01*
X133050339Y-67431215D01*
X132833196Y-67501770D01*
X132629771Y-67605421D01*
X132445061Y-67739622D01*
X132283622Y-67901061D01*
X132149421Y-68085771D01*
X132045770Y-68289196D01*
X131975215Y-68506339D01*
X131939500Y-68731837D01*
X119380500Y-68731837D01*
X119380500Y-65897648D01*
X152739500Y-65897648D01*
X152739500Y-66102351D01*
X152771522Y-66304534D01*
X152834781Y-66499223D01*
X152927715Y-66681613D01*
X153048028Y-66847213D01*
X153192786Y-66991971D01*
X153340790Y-67099500D01*
X153358390Y-67112287D01*
X153474607Y-67171503D01*
X153540776Y-67205218D01*
X153540778Y-67205218D01*
X153540781Y-67205220D01*
X153583755Y-67219183D01*
X153735465Y-67268477D01*
X153836557Y-67284488D01*
X153937648Y-67300500D01*
X153937649Y-67300500D01*
X154142351Y-67300500D01*
X154142352Y-67300500D01*
X154344534Y-67268477D01*
X154539219Y-67205220D01*
X154721610Y-67112287D01*
X154850482Y-67018657D01*
X154887213Y-66991971D01*
X154887215Y-66991968D01*
X154887219Y-66991966D01*
X155031966Y-66847219D01*
X155031968Y-66847215D01*
X155031971Y-66847213D01*
X155104873Y-66746870D01*
X155152287Y-66681610D01*
X155245220Y-66499219D01*
X155308477Y-66304534D01*
X155340500Y-66102352D01*
X155340500Y-65897648D01*
X155308477Y-65695466D01*
X155245220Y-65500781D01*
X155245218Y-65500778D01*
X155245218Y-65500776D01*
X155193865Y-65399991D01*
X155152287Y-65318390D01*
X155119685Y-65273517D01*
X155031971Y-65152786D01*
X154887213Y-65008028D01*
X154721613Y-64887715D01*
X154721612Y-64887714D01*
X154721610Y-64887713D01*
X154661898Y-64857288D01*
X154539223Y-64794781D01*
X154344534Y-64731522D01*
X154169995Y-64703878D01*
X154142352Y-64699500D01*
X153937648Y-64699500D01*
X153913329Y-64703351D01*
X153735465Y-64731522D01*
X153540776Y-64794781D01*
X153358386Y-64887715D01*
X153192786Y-65008028D01*
X153048028Y-65152786D01*
X152927715Y-65318386D01*
X152834781Y-65500776D01*
X152771522Y-65695465D01*
X152739500Y-65897648D01*
X119380500Y-65897648D01*
X119380500Y-59237135D01*
X122030500Y-59237135D01*
X122030500Y-60650870D01*
X122030501Y-60650876D01*
X122036908Y-60710483D01*
X122087202Y-60845328D01*
X122087206Y-60845335D01*
X122173452Y-60960544D01*
X122173455Y-60960547D01*
X122288664Y-61046793D01*
X122288671Y-61046797D01*
X122423517Y-61097091D01*
X122423516Y-61097091D01*
X122430444Y-61097835D01*
X122483127Y-61103500D01*
X122918521Y-61103499D01*
X122985558Y-61123183D01*
X123031313Y-61175987D01*
X123041257Y-61245146D01*
X123012232Y-61308702D01*
X122953454Y-61346476D01*
X122937921Y-61349972D01*
X122918485Y-61353050D01*
X122834711Y-61380270D01*
X122744907Y-61409450D01*
X122744904Y-61409451D01*
X122744902Y-61409452D01*
X122582289Y-61492307D01*
X122434634Y-61599585D01*
X122305585Y-61728634D01*
X122198307Y-61876289D01*
X122115452Y-62038902D01*
X122115451Y-62038904D01*
X122115450Y-62038907D01*
X122059051Y-62212483D01*
X122059050Y-62212486D01*
X122059050Y-62212488D01*
X122035294Y-62362476D01*
X122030500Y-62392745D01*
X122030500Y-62575255D01*
X122059051Y-62755517D01*
X122115450Y-62929093D01*
X122115451Y-62929096D01*
X122115452Y-62929097D01*
X122179555Y-63054907D01*
X122198307Y-63091710D01*
X122305583Y-63239363D01*
X122434637Y-63368417D01*
X122582290Y-63475693D01*
X122744907Y-63558550D01*
X122918483Y-63614949D01*
X123098745Y-63643500D01*
X123098746Y-63643500D01*
X123281254Y-63643500D01*
X123281255Y-63643500D01*
X123461517Y-63614949D01*
X123635093Y-63558550D01*
X123797710Y-63475693D01*
X123945363Y-63368417D01*
X124074417Y-63239363D01*
X124181693Y-63091710D01*
X124264550Y-62929093D01*
X124320949Y-62755517D01*
X124349500Y-62575255D01*
X124349500Y-62392745D01*
X124320949Y-62212483D01*
X124264550Y-62038907D01*
X124181693Y-61876290D01*
X124074417Y-61728637D01*
X123945363Y-61599583D01*
X123797710Y-61492307D01*
X123635093Y-61409450D01*
X123461517Y-61353051D01*
X123461513Y-61353050D01*
X123461512Y-61353050D01*
X123442078Y-61349972D01*
X123378944Y-61320042D01*
X123342013Y-61260730D01*
X123343011Y-61190868D01*
X123381621Y-61132636D01*
X123445585Y-61104522D01*
X123461472Y-61103499D01*
X123896872Y-61103499D01*
X123956483Y-61097091D01*
X124091331Y-61046796D01*
X124206546Y-60960546D01*
X124253631Y-60897648D01*
X152739500Y-60897648D01*
X152739500Y-61102351D01*
X152771522Y-61304534D01*
X152834781Y-61499223D01*
X152885918Y-61599583D01*
X152920209Y-61666883D01*
X152927715Y-61681613D01*
X153048028Y-61847213D01*
X153192786Y-61991971D01*
X153347749Y-62104556D01*
X153358390Y-62112287D01*
X153474607Y-62171503D01*
X153540776Y-62205218D01*
X153540778Y-62205218D01*
X153540781Y-62205220D01*
X153645137Y-62239127D01*
X153735465Y-62268477D01*
X153836557Y-62284488D01*
X153937648Y-62300500D01*
X153937649Y-62300500D01*
X154142351Y-62300500D01*
X154142352Y-62300500D01*
X154344534Y-62268477D01*
X154539219Y-62205220D01*
X154721610Y-62112287D01*
X154822617Y-62038902D01*
X154887213Y-61991971D01*
X154887215Y-61991968D01*
X154887219Y-61991966D01*
X155031966Y-61847219D01*
X155031968Y-61847215D01*
X155031971Y-61847213D01*
X155119685Y-61726483D01*
X155152287Y-61681610D01*
X155245220Y-61499219D01*
X155308477Y-61304534D01*
X155340500Y-61102352D01*
X155340500Y-60897648D01*
X167239500Y-60897648D01*
X167239500Y-61102351D01*
X167271522Y-61304534D01*
X167334781Y-61499223D01*
X167385918Y-61599583D01*
X167420209Y-61666883D01*
X167427715Y-61681613D01*
X167548028Y-61847213D01*
X167692786Y-61991971D01*
X167858388Y-62112286D01*
X167911828Y-62139516D01*
X167962623Y-62187490D01*
X167979418Y-62255312D01*
X167956880Y-62321446D01*
X167911828Y-62360484D01*
X167858388Y-62387713D01*
X167692786Y-62508028D01*
X167548028Y-62652786D01*
X167427715Y-62818386D01*
X167334781Y-63000776D01*
X167271522Y-63195465D01*
X167239500Y-63397648D01*
X167239500Y-63602351D01*
X167271522Y-63804534D01*
X167334781Y-63999223D01*
X167427715Y-64181613D01*
X167548028Y-64347213D01*
X167692782Y-64491967D01*
X167692787Y-64491971D01*
X167748640Y-64532551D01*
X167791306Y-64587881D01*
X167797285Y-64657494D01*
X167764679Y-64719289D01*
X167714761Y-64750574D01*
X167670669Y-64765185D01*
X167670666Y-64765186D01*
X167670663Y-64765187D01*
X167521342Y-64857289D01*
X167397289Y-64981342D01*
X167305187Y-65130663D01*
X167305185Y-65130668D01*
X167302534Y-65138669D01*
X167250001Y-65297203D01*
X167250001Y-65297204D01*
X167250000Y-65297204D01*
X167239500Y-65399983D01*
X167239500Y-66600001D01*
X167239501Y-66600018D01*
X167250000Y-66702796D01*
X167250001Y-66702799D01*
X167274004Y-66775233D01*
X167305186Y-66869334D01*
X167397288Y-67018656D01*
X167521344Y-67142712D01*
X167670666Y-67234814D01*
X167837203Y-67289999D01*
X167939991Y-67300500D01*
X169140008Y-67300499D01*
X169242797Y-67289999D01*
X169409334Y-67234814D01*
X169558656Y-67142712D01*
X169682712Y-67018656D01*
X169774814Y-66869334D01*
X169829999Y-66702797D01*
X169840500Y-66600009D01*
X169840499Y-65399992D01*
X169833669Y-65333135D01*
X169829999Y-65297203D01*
X169829998Y-65297200D01*
X169822150Y-65273516D01*
X169774814Y-65130666D01*
X169682712Y-64981344D01*
X169558656Y-64857288D01*
X169409334Y-64765186D01*
X169365239Y-64750574D01*
X169307795Y-64710802D01*
X169280972Y-64646286D01*
X169293287Y-64577510D01*
X169331359Y-64532550D01*
X169387219Y-64491966D01*
X169531966Y-64347219D01*
X169531968Y-64347215D01*
X169531971Y-64347213D01*
X169598703Y-64255363D01*
X169652287Y-64181610D01*
X169745220Y-63999219D01*
X169808477Y-63804534D01*
X169840500Y-63602352D01*
X169840500Y-63397648D01*
X169813707Y-63228488D01*
X169808477Y-63195465D01*
X169773285Y-63087155D01*
X169745220Y-63000781D01*
X169745218Y-63000778D01*
X169745218Y-63000776D01*
X169689052Y-62890546D01*
X169652287Y-62818390D01*
X169644556Y-62807749D01*
X169531971Y-62652786D01*
X169387213Y-62508028D01*
X169221613Y-62387715D01*
X169221612Y-62387714D01*
X169221610Y-62387713D01*
X169168171Y-62360484D01*
X169117376Y-62312510D01*
X169100581Y-62244689D01*
X169123118Y-62178554D01*
X169168172Y-62139515D01*
X169168824Y-62139183D01*
X169221610Y-62112287D01*
X169322617Y-62038902D01*
X169387213Y-61991971D01*
X169387215Y-61991968D01*
X169387219Y-61991966D01*
X169531966Y-61847219D01*
X169531968Y-61847215D01*
X169531971Y-61847213D01*
X169619685Y-61726483D01*
X169652287Y-61681610D01*
X169745220Y-61499219D01*
X169808477Y-61304534D01*
X169840500Y-61102352D01*
X169840500Y-60897648D01*
X169821391Y-60777000D01*
X169808477Y-60695465D01*
X169745218Y-60500776D01*
X169652287Y-60318390D01*
X169652281Y-60318381D01*
X169604878Y-60253135D01*
X173592500Y-60253135D01*
X173592500Y-61666870D01*
X173592501Y-61666876D01*
X173598908Y-61726483D01*
X173649202Y-61861328D01*
X173649206Y-61861335D01*
X173735452Y-61976544D01*
X173735455Y-61976547D01*
X173850664Y-62062793D01*
X173850671Y-62062797D01*
X173985517Y-62113091D01*
X173985516Y-62113091D01*
X173992444Y-62113835D01*
X174045127Y-62119500D01*
X174480521Y-62119499D01*
X174547558Y-62139183D01*
X174593313Y-62191987D01*
X174603257Y-62261146D01*
X174574232Y-62324702D01*
X174515454Y-62362476D01*
X174499921Y-62365972D01*
X174480485Y-62369050D01*
X174423048Y-62387713D01*
X174306907Y-62425450D01*
X174306904Y-62425451D01*
X174306902Y-62425452D01*
X174144289Y-62508307D01*
X173996634Y-62615585D01*
X173867585Y-62744634D01*
X173760307Y-62892289D01*
X173677452Y-63054902D01*
X173677451Y-63054904D01*
X173677450Y-63054907D01*
X173621051Y-63228483D01*
X173592500Y-63408745D01*
X173592500Y-63591255D01*
X173621051Y-63771517D01*
X173677450Y-63945093D01*
X173760307Y-64107710D01*
X173867583Y-64255363D01*
X173996637Y-64384417D01*
X174144290Y-64491693D01*
X174306907Y-64574550D01*
X174480483Y-64630949D01*
X174499920Y-64634027D01*
X174563052Y-64663954D01*
X174599985Y-64723264D01*
X174598989Y-64793127D01*
X174560381Y-64851361D01*
X174496418Y-64879477D01*
X174480522Y-64880500D01*
X174045129Y-64880500D01*
X174045123Y-64880501D01*
X173985516Y-64886908D01*
X173850671Y-64937202D01*
X173850664Y-64937206D01*
X173735455Y-65023452D01*
X173735452Y-65023455D01*
X173649206Y-65138664D01*
X173649202Y-65138671D01*
X173598908Y-65273517D01*
X173596362Y-65297203D01*
X173592501Y-65333123D01*
X173592500Y-65333135D01*
X173592500Y-66746870D01*
X173592501Y-66746876D01*
X173598908Y-66806483D01*
X173649202Y-66941328D01*
X173649206Y-66941335D01*
X173735452Y-67056544D01*
X173735455Y-67056547D01*
X173850664Y-67142793D01*
X173850671Y-67142797D01*
X173985517Y-67193091D01*
X173985516Y-67193091D01*
X173992444Y-67193835D01*
X174045127Y-67199500D01*
X174480521Y-67199499D01*
X174547558Y-67219183D01*
X174593313Y-67271987D01*
X174603257Y-67341146D01*
X174574232Y-67404702D01*
X174515454Y-67442476D01*
X174499921Y-67445972D01*
X174480485Y-67449050D01*
X174396711Y-67476270D01*
X174306907Y-67505450D01*
X174306904Y-67505451D01*
X174306902Y-67505452D01*
X174144289Y-67588307D01*
X173996634Y-67695585D01*
X173867585Y-67824634D01*
X173760307Y-67972289D01*
X173677452Y-68134902D01*
X173677451Y-68134904D01*
X173677450Y-68134907D01*
X173621051Y-68308483D01*
X173592500Y-68488745D01*
X173592500Y-68671255D01*
X173621051Y-68851517D01*
X173677450Y-69025093D01*
X173760307Y-69187710D01*
X173867583Y-69335363D01*
X173996637Y-69464417D01*
X174144290Y-69571693D01*
X174306907Y-69654550D01*
X174480483Y-69710949D01*
X174660745Y-69739500D01*
X174660746Y-69739500D01*
X174843254Y-69739500D01*
X174843255Y-69739500D01*
X175023517Y-69710949D01*
X175197093Y-69654550D01*
X175359710Y-69571693D01*
X175507363Y-69464417D01*
X175636417Y-69335363D01*
X175743693Y-69187710D01*
X175826550Y-69025093D01*
X175882949Y-68851517D01*
X175911500Y-68671255D01*
X175911500Y-68488745D01*
X175882949Y-68308483D01*
X175826550Y-68134907D01*
X175743693Y-67972290D01*
X175636417Y-67824637D01*
X175507363Y-67695583D01*
X175359710Y-67588307D01*
X175197093Y-67505450D01*
X175023517Y-67449051D01*
X175023513Y-67449050D01*
X175023512Y-67449050D01*
X175004078Y-67445972D01*
X174940944Y-67416042D01*
X174904013Y-67356730D01*
X174905011Y-67286868D01*
X174943621Y-67228636D01*
X175007585Y-67200522D01*
X175023472Y-67199499D01*
X175458872Y-67199499D01*
X175518483Y-67193091D01*
X175653331Y-67142796D01*
X175768546Y-67056546D01*
X175854796Y-66941331D01*
X175905091Y-66806483D01*
X175911500Y-66746873D01*
X175911499Y-66309635D01*
X186507000Y-66309635D01*
X186507000Y-67802370D01*
X186507001Y-67802376D01*
X186513408Y-67861983D01*
X186563702Y-67996828D01*
X186563706Y-67996835D01*
X186649952Y-68112044D01*
X186649955Y-68112047D01*
X186765164Y-68198293D01*
X186765171Y-68198297D01*
X186900017Y-68248591D01*
X186900016Y-68248591D01*
X186906944Y-68249335D01*
X186959627Y-68255000D01*
X188452372Y-68254999D01*
X188511983Y-68248591D01*
X188646831Y-68198296D01*
X188762046Y-68112046D01*
X188848296Y-67996831D01*
X188898591Y-67861983D01*
X188905000Y-67802373D01*
X188904999Y-66961631D01*
X196667000Y-66961631D01*
X196667000Y-67150368D01*
X196696522Y-67336763D01*
X196696523Y-67336767D01*
X196750136Y-67501770D01*
X196754844Y-67516258D01*
X196778892Y-67563455D01*
X196840523Y-67684413D01*
X196951454Y-67837096D01*
X197084904Y-67970546D01*
X197237587Y-68081477D01*
X197405744Y-68167157D01*
X197585233Y-68225477D01*
X197655134Y-68236548D01*
X197771632Y-68255000D01*
X197771637Y-68255000D01*
X197960368Y-68255000D01*
X198063920Y-68238598D01*
X198146767Y-68225477D01*
X198326256Y-68167157D01*
X198494413Y-68081477D01*
X198647096Y-67970546D01*
X198780546Y-67837096D01*
X198891477Y-67684413D01*
X198977157Y-67516256D01*
X199035477Y-67336767D01*
X199048598Y-67253920D01*
X199065000Y-67150368D01*
X199065000Y-66961631D01*
X199035477Y-66775236D01*
X199035477Y-66775233D01*
X198977157Y-66595744D01*
X198891477Y-66427587D01*
X198780546Y-66274904D01*
X198647096Y-66141454D01*
X198494413Y-66030523D01*
X198326256Y-65944843D01*
X198146767Y-65886523D01*
X198146765Y-65886522D01*
X198146763Y-65886522D01*
X197960368Y-65857000D01*
X197960363Y-65857000D01*
X197771637Y-65857000D01*
X197771632Y-65857000D01*
X197585236Y-65886522D01*
X197405741Y-65944844D01*
X197237586Y-66030523D01*
X197150475Y-66093813D01*
X197084904Y-66141454D01*
X197084902Y-66141456D01*
X197084901Y-66141456D01*
X196951456Y-66274901D01*
X196951456Y-66274902D01*
X196951454Y-66274904D01*
X196903813Y-66340475D01*
X196840523Y-66427586D01*
X196754844Y-66595741D01*
X196696522Y-66775236D01*
X196667000Y-66961631D01*
X188904999Y-66961631D01*
X188904999Y-66309628D01*
X188898591Y-66250017D01*
X188858100Y-66141456D01*
X188848297Y-66115171D01*
X188848293Y-66115164D01*
X188762047Y-65999955D01*
X188762044Y-65999952D01*
X188646835Y-65913706D01*
X188646828Y-65913702D01*
X188511982Y-65863408D01*
X188511983Y-65863408D01*
X188452383Y-65857001D01*
X188452381Y-65857000D01*
X188452373Y-65857000D01*
X188452364Y-65857000D01*
X186959629Y-65857000D01*
X186959623Y-65857001D01*
X186900016Y-65863408D01*
X186765171Y-65913702D01*
X186765164Y-65913706D01*
X186649955Y-65999952D01*
X186649952Y-65999955D01*
X186563706Y-66115164D01*
X186563702Y-66115171D01*
X186513408Y-66250017D01*
X186507357Y-66306305D01*
X186507001Y-66309623D01*
X186507000Y-66309635D01*
X175911499Y-66309635D01*
X175911499Y-66030523D01*
X175911499Y-65333129D01*
X175911498Y-65333123D01*
X175911497Y-65333116D01*
X175905091Y-65273517D01*
X175860061Y-65152786D01*
X175854797Y-65138671D01*
X175854793Y-65138664D01*
X175768547Y-65023455D01*
X175768544Y-65023452D01*
X175653335Y-64937206D01*
X175653328Y-64937202D01*
X175518482Y-64886908D01*
X175518483Y-64886908D01*
X175458883Y-64880501D01*
X175458881Y-64880500D01*
X175458873Y-64880500D01*
X175458865Y-64880500D01*
X175023480Y-64880500D01*
X174956441Y-64860815D01*
X174910686Y-64808011D01*
X174900742Y-64738853D01*
X174929767Y-64675297D01*
X174988545Y-64637523D01*
X175004070Y-64634029D01*
X175023517Y-64630949D01*
X175197093Y-64574550D01*
X175359710Y-64491693D01*
X175507363Y-64384417D01*
X175636417Y-64255363D01*
X175743693Y-64107710D01*
X175826550Y-63945093D01*
X175882949Y-63771517D01*
X175911500Y-63591255D01*
X175911500Y-63408745D01*
X175882949Y-63228483D01*
X175826550Y-63054907D01*
X175743693Y-62892290D01*
X175636417Y-62744637D01*
X175507363Y-62615583D01*
X175359710Y-62508307D01*
X175197093Y-62425450D01*
X175023517Y-62369051D01*
X175023513Y-62369050D01*
X175023512Y-62369050D01*
X175004078Y-62365972D01*
X174940944Y-62336042D01*
X174904013Y-62276730D01*
X174905011Y-62206868D01*
X174943621Y-62148636D01*
X175007585Y-62120522D01*
X175023472Y-62119499D01*
X175458872Y-62119499D01*
X175518483Y-62113091D01*
X175653331Y-62062796D01*
X175768546Y-61976546D01*
X175839599Y-61881631D01*
X186507000Y-61881631D01*
X186507000Y-62070368D01*
X186536522Y-62256763D01*
X186536523Y-62256767D01*
X186594843Y-62436256D01*
X186680523Y-62604413D01*
X186791454Y-62757096D01*
X186924904Y-62890546D01*
X187077587Y-63001477D01*
X187245744Y-63087157D01*
X187425233Y-63145477D01*
X187495134Y-63156548D01*
X187611632Y-63175000D01*
X187611637Y-63175000D01*
X187800368Y-63175000D01*
X187903920Y-63158598D01*
X187986767Y-63145477D01*
X188166256Y-63087157D01*
X188334413Y-63001477D01*
X188487096Y-62890546D01*
X188620546Y-62757096D01*
X188731477Y-62604413D01*
X188817157Y-62436256D01*
X188875477Y-62256767D01*
X188892603Y-62148636D01*
X188905000Y-62070368D01*
X188905000Y-61881631D01*
X196667000Y-61881631D01*
X196667000Y-62070368D01*
X196696522Y-62256763D01*
X196696523Y-62256767D01*
X196754843Y-62436256D01*
X196840523Y-62604413D01*
X196951454Y-62757096D01*
X197084904Y-62890546D01*
X197237587Y-63001477D01*
X197405744Y-63087157D01*
X197585233Y-63145477D01*
X197655134Y-63156548D01*
X197771632Y-63175000D01*
X197771637Y-63175000D01*
X197960368Y-63175000D01*
X198063920Y-63158598D01*
X198146767Y-63145477D01*
X198326256Y-63087157D01*
X198494413Y-63001477D01*
X198647096Y-62890546D01*
X198780546Y-62757096D01*
X198891477Y-62604413D01*
X198977157Y-62436256D01*
X199035477Y-62256767D01*
X199052603Y-62148636D01*
X199065000Y-62070368D01*
X199065000Y-61881631D01*
X199045318Y-61757367D01*
X199035477Y-61695233D01*
X198977157Y-61515744D01*
X198891477Y-61347587D01*
X198780546Y-61194904D01*
X198647096Y-61061454D01*
X198494413Y-60950523D01*
X198326256Y-60864843D01*
X198146767Y-60806523D01*
X198146765Y-60806522D01*
X198146763Y-60806522D01*
X197960368Y-60777000D01*
X197960363Y-60777000D01*
X197771637Y-60777000D01*
X197771632Y-60777000D01*
X197585236Y-60806522D01*
X197585233Y-60806523D01*
X197465805Y-60845328D01*
X197405741Y-60864844D01*
X197237586Y-60950523D01*
X197150475Y-61013813D01*
X197084904Y-61061454D01*
X197084902Y-61061456D01*
X197084901Y-61061456D01*
X196951456Y-61194901D01*
X196951456Y-61194902D01*
X196951454Y-61194904D01*
X196914951Y-61245146D01*
X196840523Y-61347586D01*
X196754844Y-61515741D01*
X196696522Y-61695236D01*
X196667000Y-61881631D01*
X188905000Y-61881631D01*
X188885318Y-61757367D01*
X188875477Y-61695233D01*
X188817157Y-61515744D01*
X188731477Y-61347587D01*
X188620546Y-61194904D01*
X188487096Y-61061454D01*
X188334413Y-60950523D01*
X188166256Y-60864843D01*
X187986767Y-60806523D01*
X187986765Y-60806522D01*
X187986763Y-60806522D01*
X187800368Y-60777000D01*
X187800363Y-60777000D01*
X187611637Y-60777000D01*
X187611632Y-60777000D01*
X187425236Y-60806522D01*
X187425233Y-60806523D01*
X187305805Y-60845328D01*
X187245741Y-60864844D01*
X187077586Y-60950523D01*
X186990475Y-61013813D01*
X186924904Y-61061454D01*
X186924902Y-61061456D01*
X186924901Y-61061456D01*
X186791456Y-61194901D01*
X186791456Y-61194902D01*
X186791454Y-61194904D01*
X186754951Y-61245146D01*
X186680523Y-61347586D01*
X186594844Y-61515741D01*
X186536522Y-61695236D01*
X186507000Y-61881631D01*
X175839599Y-61881631D01*
X175854796Y-61861331D01*
X175857399Y-61854350D01*
X175865202Y-61833432D01*
X175884698Y-61781159D01*
X175905091Y-61726483D01*
X175911500Y-61666873D01*
X175911499Y-60253128D01*
X175905091Y-60193517D01*
X175889899Y-60152786D01*
X175854797Y-60058671D01*
X175854793Y-60058664D01*
X175768547Y-59943455D01*
X175768544Y-59943452D01*
X175653335Y-59857206D01*
X175653328Y-59857202D01*
X175518482Y-59806908D01*
X175518483Y-59806908D01*
X175458883Y-59800501D01*
X175458881Y-59800500D01*
X175458873Y-59800500D01*
X175458864Y-59800500D01*
X174045129Y-59800500D01*
X174045123Y-59800501D01*
X173985516Y-59806908D01*
X173850671Y-59857202D01*
X173850664Y-59857206D01*
X173735455Y-59943452D01*
X173735452Y-59943455D01*
X173649206Y-60058664D01*
X173649202Y-60058671D01*
X173598908Y-60193517D01*
X173592501Y-60253116D01*
X173592501Y-60253123D01*
X173592500Y-60253135D01*
X169604878Y-60253135D01*
X169531971Y-60152786D01*
X169387213Y-60008028D01*
X169221613Y-59887715D01*
X169221612Y-59887714D01*
X169221610Y-59887713D01*
X169161729Y-59857202D01*
X169039223Y-59794781D01*
X168844534Y-59731522D01*
X168669995Y-59703878D01*
X168642352Y-59699500D01*
X168437648Y-59699500D01*
X168413329Y-59703351D01*
X168235465Y-59731522D01*
X168040776Y-59794781D01*
X167858386Y-59887715D01*
X167692786Y-60008028D01*
X167548028Y-60152786D01*
X167427715Y-60318386D01*
X167334781Y-60500776D01*
X167271522Y-60695465D01*
X167239500Y-60897648D01*
X155340500Y-60897648D01*
X155321391Y-60777000D01*
X155308477Y-60695465D01*
X155245218Y-60500776D01*
X155211503Y-60434607D01*
X155152287Y-60318390D01*
X155104877Y-60253135D01*
X155031971Y-60152786D01*
X154887213Y-60008028D01*
X154721613Y-59887715D01*
X154721612Y-59887714D01*
X154721610Y-59887713D01*
X154661729Y-59857202D01*
X154539223Y-59794781D01*
X154344534Y-59731522D01*
X154169995Y-59703878D01*
X154142352Y-59699500D01*
X153937648Y-59699500D01*
X153913329Y-59703351D01*
X153735465Y-59731522D01*
X153540776Y-59794781D01*
X153358386Y-59887715D01*
X153192786Y-60008028D01*
X153048028Y-60152786D01*
X152927715Y-60318386D01*
X152834781Y-60500776D01*
X152771522Y-60695465D01*
X152739500Y-60897648D01*
X124253631Y-60897648D01*
X124292796Y-60845331D01*
X124343091Y-60710483D01*
X124349500Y-60650873D01*
X124349499Y-59237128D01*
X124343091Y-59177517D01*
X124299552Y-59060784D01*
X124292797Y-59042671D01*
X124292793Y-59042664D01*
X124206547Y-58927455D01*
X124206544Y-58927452D01*
X124091335Y-58841206D01*
X124091328Y-58841202D01*
X123956482Y-58790908D01*
X123956483Y-58790908D01*
X123896883Y-58784501D01*
X123896881Y-58784500D01*
X123896873Y-58784500D01*
X123896864Y-58784500D01*
X122483129Y-58784500D01*
X122483123Y-58784501D01*
X122423516Y-58790908D01*
X122288671Y-58841202D01*
X122288664Y-58841206D01*
X122173455Y-58927452D01*
X122173452Y-58927455D01*
X122087206Y-59042664D01*
X122087202Y-59042671D01*
X122036908Y-59177517D01*
X122032142Y-59221851D01*
X122030501Y-59237123D01*
X122030500Y-59237135D01*
X119380500Y-59237135D01*
X119380500Y-56231837D01*
X131939500Y-56231837D01*
X131939500Y-57760162D01*
X131975215Y-57985660D01*
X132045770Y-58202803D01*
X132139009Y-58385794D01*
X132149421Y-58406228D01*
X132283621Y-58590937D01*
X132445063Y-58752379D01*
X132629772Y-58886579D01*
X132709990Y-58927452D01*
X132833196Y-58990229D01*
X132833198Y-58990229D01*
X132833201Y-58990231D01*
X132905748Y-59013803D01*
X133050339Y-59060784D01*
X133275838Y-59096500D01*
X133275843Y-59096500D01*
X133504162Y-59096500D01*
X133729660Y-59060784D01*
X133946799Y-58990231D01*
X134150228Y-58886579D01*
X134334937Y-58752379D01*
X134496379Y-58590937D01*
X134630579Y-58406228D01*
X134734231Y-58202799D01*
X134804784Y-57985660D01*
X134840500Y-57760162D01*
X134840500Y-56231837D01*
X136939500Y-56231837D01*
X136939500Y-57760162D01*
X136975215Y-57985660D01*
X137045770Y-58202803D01*
X137139009Y-58385794D01*
X137149421Y-58406228D01*
X137283621Y-58590937D01*
X137445063Y-58752379D01*
X137629772Y-58886579D01*
X137709990Y-58927452D01*
X137833196Y-58990229D01*
X137833198Y-58990229D01*
X137833201Y-58990231D01*
X137905748Y-59013803D01*
X138050339Y-59060784D01*
X138275838Y-59096500D01*
X138275843Y-59096500D01*
X138504162Y-59096500D01*
X138729660Y-59060784D01*
X138946799Y-58990231D01*
X139150228Y-58886579D01*
X139334937Y-58752379D01*
X139496379Y-58590937D01*
X139630579Y-58406228D01*
X139734231Y-58202799D01*
X139804784Y-57985660D01*
X139839120Y-57768872D01*
X158489500Y-57768872D01*
X158489500Y-58031127D01*
X158512103Y-58202803D01*
X158523730Y-58291116D01*
X158549099Y-58385794D01*
X158591602Y-58544418D01*
X158591605Y-58544428D01*
X158691953Y-58786690D01*
X158691958Y-58786700D01*
X158823075Y-59013803D01*
X158982718Y-59221851D01*
X158982726Y-59221860D01*
X159168140Y-59407274D01*
X159168148Y-59407281D01*
X159376196Y-59566924D01*
X159603299Y-59698041D01*
X159603309Y-59698046D01*
X159845571Y-59798394D01*
X159845581Y-59798398D01*
X160098884Y-59866270D01*
X160358880Y-59900500D01*
X160358887Y-59900500D01*
X161721113Y-59900500D01*
X161721120Y-59900500D01*
X161981116Y-59866270D01*
X162234419Y-59798398D01*
X162411340Y-59725114D01*
X162476690Y-59698046D01*
X162476691Y-59698045D01*
X162476697Y-59698043D01*
X162703803Y-59566924D01*
X162911851Y-59407282D01*
X162911855Y-59407277D01*
X162911860Y-59407274D01*
X163097274Y-59221860D01*
X163097277Y-59221855D01*
X163097282Y-59221851D01*
X163256924Y-59013803D01*
X163388043Y-58786697D01*
X163488398Y-58544419D01*
X163556270Y-58291116D01*
X163590500Y-58031120D01*
X163590500Y-57768880D01*
X163556270Y-57508884D01*
X163488398Y-57255581D01*
X163488394Y-57255571D01*
X163388046Y-57013309D01*
X163388041Y-57013299D01*
X163256924Y-56786196D01*
X163097281Y-56578148D01*
X163097274Y-56578140D01*
X162911860Y-56392726D01*
X162911851Y-56392718D01*
X162703803Y-56233075D01*
X162476700Y-56101958D01*
X162476690Y-56101953D01*
X162234428Y-56001605D01*
X162234421Y-56001603D01*
X162234419Y-56001602D01*
X161981116Y-55933730D01*
X161923339Y-55926123D01*
X161721127Y-55899500D01*
X161721120Y-55899500D01*
X160358880Y-55899500D01*
X160358872Y-55899500D01*
X160127772Y-55929926D01*
X160098884Y-55933730D01*
X159845581Y-56001602D01*
X159845571Y-56001605D01*
X159603309Y-56101953D01*
X159603299Y-56101958D01*
X159376196Y-56233075D01*
X159168148Y-56392718D01*
X158982718Y-56578148D01*
X158823075Y-56786196D01*
X158691958Y-57013299D01*
X158691953Y-57013309D01*
X158591605Y-57255571D01*
X158591602Y-57255581D01*
X158523730Y-57508885D01*
X158489500Y-57768872D01*
X139839120Y-57768872D01*
X139840500Y-57760162D01*
X139840500Y-56231837D01*
X139804784Y-56006339D01*
X139734229Y-55789196D01*
X139630578Y-55585771D01*
X139496379Y-55401063D01*
X139334937Y-55239621D01*
X139150228Y-55105421D01*
X138946803Y-55001770D01*
X138729660Y-54931215D01*
X138504162Y-54895500D01*
X138504157Y-54895500D01*
X138275843Y-54895500D01*
X138275838Y-54895500D01*
X138050339Y-54931215D01*
X137833196Y-55001770D01*
X137629771Y-55105421D01*
X137445061Y-55239622D01*
X137283622Y-55401061D01*
X137149421Y-55585771D01*
X137045770Y-55789196D01*
X136975215Y-56006339D01*
X136939500Y-56231837D01*
X134840500Y-56231837D01*
X134804784Y-56006339D01*
X134734229Y-55789196D01*
X134630578Y-55585771D01*
X134496379Y-55401063D01*
X134334937Y-55239621D01*
X134150228Y-55105421D01*
X133946803Y-55001770D01*
X133729660Y-54931215D01*
X133504162Y-54895500D01*
X133504157Y-54895500D01*
X133275843Y-54895500D01*
X133275838Y-54895500D01*
X133050339Y-54931215D01*
X132833196Y-55001770D01*
X132629771Y-55105421D01*
X132445061Y-55239622D01*
X132283622Y-55401061D01*
X132149421Y-55585771D01*
X132045770Y-55789196D01*
X131975215Y-56006339D01*
X131939500Y-56231837D01*
X119380500Y-56231837D01*
X119380500Y-47399577D01*
X120669500Y-47399577D01*
X120669500Y-47596422D01*
X120700290Y-47790826D01*
X120761117Y-47978029D01*
X120811819Y-48077536D01*
X120850476Y-48153405D01*
X120966172Y-48312646D01*
X121105354Y-48451828D01*
X121264595Y-48567524D01*
X121347455Y-48609743D01*
X121439970Y-48656882D01*
X121439972Y-48656882D01*
X121439975Y-48656884D01*
X121531246Y-48686540D01*
X121627173Y-48717709D01*
X121821578Y-48748500D01*
X121821583Y-48748500D01*
X122018422Y-48748500D01*
X122212826Y-48717709D01*
X122257424Y-48703218D01*
X122400025Y-48656884D01*
X122575405Y-48567524D01*
X122734646Y-48451828D01*
X122873828Y-48312646D01*
X122989524Y-48153405D01*
X123078884Y-47978025D01*
X123139709Y-47790826D01*
X123144487Y-47760658D01*
X123170500Y-47596422D01*
X123170500Y-47399577D01*
X123169878Y-47395648D01*
X125699500Y-47395648D01*
X125699500Y-47600351D01*
X125731522Y-47802534D01*
X125794781Y-47997223D01*
X125858691Y-48122653D01*
X125883483Y-48171309D01*
X125887715Y-48179613D01*
X126008028Y-48345213D01*
X126152786Y-48489971D01*
X126307749Y-48602556D01*
X126318390Y-48610287D01*
X126409838Y-48656882D01*
X126500776Y-48703218D01*
X126500778Y-48703218D01*
X126500781Y-48703220D01*
X126589317Y-48731987D01*
X126695465Y-48766477D01*
X126722589Y-48770773D01*
X126897648Y-48798500D01*
X126897649Y-48798500D01*
X127102351Y-48798500D01*
X127102352Y-48798500D01*
X127304534Y-48766477D01*
X127499219Y-48703220D01*
X127681610Y-48610287D01*
X127802222Y-48522658D01*
X127847213Y-48489971D01*
X127847215Y-48489968D01*
X127847219Y-48489966D01*
X127991966Y-48345219D01*
X127991968Y-48345215D01*
X127991971Y-48345213D01*
X128112284Y-48179614D01*
X128112285Y-48179613D01*
X128112287Y-48179610D01*
X128159516Y-48086917D01*
X128207489Y-48036123D01*
X128275310Y-48019328D01*
X128341445Y-48041865D01*
X128380485Y-48086919D01*
X128427715Y-48179614D01*
X128548028Y-48345213D01*
X128692786Y-48489971D01*
X128847749Y-48602556D01*
X128858390Y-48610287D01*
X128949838Y-48656882D01*
X129040776Y-48703218D01*
X129040778Y-48703218D01*
X129040781Y-48703220D01*
X129129317Y-48731987D01*
X129235465Y-48766477D01*
X129262589Y-48770773D01*
X129437648Y-48798500D01*
X129437649Y-48798500D01*
X129642351Y-48798500D01*
X129642352Y-48798500D01*
X129844534Y-48766477D01*
X130039219Y-48703220D01*
X130221610Y-48610287D01*
X130342222Y-48522658D01*
X130387213Y-48489971D01*
X130387215Y-48489968D01*
X130387219Y-48489966D01*
X130531966Y-48345219D01*
X130531968Y-48345215D01*
X130531971Y-48345213D01*
X130652284Y-48179614D01*
X130652285Y-48179613D01*
X130652287Y-48179610D01*
X130699516Y-48086917D01*
X130747489Y-48036123D01*
X130815310Y-48019328D01*
X130881445Y-48041865D01*
X130920485Y-48086919D01*
X130967715Y-48179614D01*
X131088028Y-48345213D01*
X131232786Y-48489971D01*
X131387749Y-48602556D01*
X131398390Y-48610287D01*
X131489838Y-48656882D01*
X131580776Y-48703218D01*
X131580778Y-48703218D01*
X131580781Y-48703220D01*
X131669317Y-48731987D01*
X131775465Y-48766477D01*
X131802589Y-48770773D01*
X131977648Y-48798500D01*
X131977649Y-48798500D01*
X132182351Y-48798500D01*
X132182352Y-48798500D01*
X132384534Y-48766477D01*
X132579219Y-48703220D01*
X132761610Y-48610287D01*
X132882222Y-48522658D01*
X132927213Y-48489971D01*
X132927215Y-48489968D01*
X132927219Y-48489966D01*
X133071966Y-48345219D01*
X133071968Y-48345215D01*
X133071971Y-48345213D01*
X133192284Y-48179614D01*
X133192285Y-48179613D01*
X133192287Y-48179610D01*
X133239516Y-48086917D01*
X133287489Y-48036123D01*
X133355310Y-48019328D01*
X133421445Y-48041865D01*
X133460485Y-48086919D01*
X133507715Y-48179614D01*
X133628028Y-48345213D01*
X133772786Y-48489971D01*
X133927749Y-48602556D01*
X133938390Y-48610287D01*
X134029838Y-48656882D01*
X134120776Y-48703218D01*
X134120778Y-48703218D01*
X134120781Y-48703220D01*
X134209317Y-48731987D01*
X134315465Y-48766477D01*
X134342589Y-48770773D01*
X134517648Y-48798500D01*
X134517649Y-48798500D01*
X134722351Y-48798500D01*
X134722352Y-48798500D01*
X134924534Y-48766477D01*
X135119219Y-48703220D01*
X135301610Y-48610287D01*
X135422222Y-48522658D01*
X135467213Y-48489971D01*
X135467215Y-48489968D01*
X135467219Y-48489966D01*
X135611966Y-48345219D01*
X135611968Y-48345215D01*
X135611971Y-48345213D01*
X135732284Y-48179614D01*
X135732285Y-48179613D01*
X135732287Y-48179610D01*
X135779516Y-48086917D01*
X135827489Y-48036123D01*
X135895310Y-48019328D01*
X135961445Y-48041865D01*
X136000485Y-48086919D01*
X136047715Y-48179614D01*
X136168028Y-48345213D01*
X136312786Y-48489971D01*
X136467749Y-48602556D01*
X136478390Y-48610287D01*
X136569838Y-48656882D01*
X136660776Y-48703218D01*
X136660778Y-48703218D01*
X136660781Y-48703220D01*
X136749317Y-48731987D01*
X136855465Y-48766477D01*
X136882589Y-48770773D01*
X137057648Y-48798500D01*
X137057649Y-48798500D01*
X137262351Y-48798500D01*
X137262352Y-48798500D01*
X137464534Y-48766477D01*
X137659219Y-48703220D01*
X137841610Y-48610287D01*
X137962222Y-48522658D01*
X138007213Y-48489971D01*
X138007215Y-48489968D01*
X138007219Y-48489966D01*
X138151966Y-48345219D01*
X138151968Y-48345215D01*
X138151971Y-48345213D01*
X138272284Y-48179614D01*
X138272285Y-48179613D01*
X138272287Y-48179610D01*
X138319516Y-48086917D01*
X138367489Y-48036123D01*
X138435310Y-48019328D01*
X138501445Y-48041865D01*
X138540485Y-48086919D01*
X138587715Y-48179614D01*
X138708028Y-48345213D01*
X138852786Y-48489971D01*
X139007749Y-48602556D01*
X139018390Y-48610287D01*
X139109838Y-48656882D01*
X139200776Y-48703218D01*
X139200778Y-48703218D01*
X139200781Y-48703220D01*
X139289317Y-48731987D01*
X139395465Y-48766477D01*
X139422589Y-48770773D01*
X139597648Y-48798500D01*
X139597649Y-48798500D01*
X139802351Y-48798500D01*
X139802352Y-48798500D01*
X140004534Y-48766477D01*
X140199219Y-48703220D01*
X140381610Y-48610287D01*
X140502222Y-48522658D01*
X140547213Y-48489971D01*
X140547215Y-48489968D01*
X140547219Y-48489966D01*
X140691966Y-48345219D01*
X140691968Y-48345215D01*
X140691971Y-48345213D01*
X140812284Y-48179614D01*
X140812285Y-48179613D01*
X140812287Y-48179610D01*
X140859516Y-48086917D01*
X140907489Y-48036123D01*
X140975310Y-48019328D01*
X141041445Y-48041865D01*
X141080485Y-48086919D01*
X141127715Y-48179614D01*
X141248028Y-48345213D01*
X141392786Y-48489971D01*
X141547749Y-48602556D01*
X141558390Y-48610287D01*
X141649838Y-48656882D01*
X141740776Y-48703218D01*
X141740778Y-48703218D01*
X141740781Y-48703220D01*
X141829317Y-48731987D01*
X141935465Y-48766477D01*
X141962589Y-48770773D01*
X142137648Y-48798500D01*
X142137649Y-48798500D01*
X142342351Y-48798500D01*
X142342352Y-48798500D01*
X142544534Y-48766477D01*
X142739219Y-48703220D01*
X142921610Y-48610287D01*
X143042222Y-48522658D01*
X143087213Y-48489971D01*
X143087215Y-48489968D01*
X143087219Y-48489966D01*
X143231966Y-48345219D01*
X143231968Y-48345215D01*
X143231971Y-48345213D01*
X143352284Y-48179614D01*
X143352285Y-48179613D01*
X143352287Y-48179610D01*
X143399516Y-48086917D01*
X143447489Y-48036123D01*
X143515310Y-48019328D01*
X143581445Y-48041865D01*
X143620485Y-48086919D01*
X143667715Y-48179614D01*
X143788028Y-48345213D01*
X143932786Y-48489971D01*
X144087749Y-48602556D01*
X144098390Y-48610287D01*
X144189838Y-48656882D01*
X144280776Y-48703218D01*
X144280778Y-48703218D01*
X144280781Y-48703220D01*
X144369317Y-48731987D01*
X144475465Y-48766477D01*
X144502589Y-48770773D01*
X144677648Y-48798500D01*
X144677649Y-48798500D01*
X144882351Y-48798500D01*
X144882352Y-48798500D01*
X145084534Y-48766477D01*
X145279219Y-48703220D01*
X145461610Y-48610287D01*
X145582222Y-48522658D01*
X145627213Y-48489971D01*
X145627215Y-48489968D01*
X145627219Y-48489966D01*
X145771966Y-48345219D01*
X145771968Y-48345215D01*
X145771971Y-48345213D01*
X145892284Y-48179614D01*
X145892285Y-48179613D01*
X145892287Y-48179610D01*
X145939516Y-48086917D01*
X145987489Y-48036123D01*
X146055310Y-48019328D01*
X146121445Y-48041865D01*
X146160485Y-48086919D01*
X146207715Y-48179614D01*
X146328028Y-48345213D01*
X146472786Y-48489971D01*
X146627749Y-48602556D01*
X146638390Y-48610287D01*
X146729838Y-48656882D01*
X146820776Y-48703218D01*
X146820778Y-48703218D01*
X146820781Y-48703220D01*
X146909317Y-48731987D01*
X147015465Y-48766477D01*
X147042589Y-48770773D01*
X147217648Y-48798500D01*
X147217649Y-48798500D01*
X147422351Y-48798500D01*
X147422352Y-48798500D01*
X147624534Y-48766477D01*
X147819219Y-48703220D01*
X148001610Y-48610287D01*
X148122222Y-48522658D01*
X148167213Y-48489971D01*
X148167215Y-48489968D01*
X148167219Y-48489966D01*
X148311966Y-48345219D01*
X148311968Y-48345215D01*
X148311971Y-48345213D01*
X148432284Y-48179614D01*
X148432285Y-48179613D01*
X148432287Y-48179610D01*
X148479516Y-48086917D01*
X148527489Y-48036123D01*
X148595310Y-48019328D01*
X148661445Y-48041865D01*
X148700485Y-48086919D01*
X148747715Y-48179614D01*
X148868028Y-48345213D01*
X149012786Y-48489971D01*
X149167749Y-48602556D01*
X149178390Y-48610287D01*
X149269838Y-48656882D01*
X149360776Y-48703218D01*
X149360778Y-48703218D01*
X149360781Y-48703220D01*
X149449317Y-48731987D01*
X149555465Y-48766477D01*
X149582589Y-48770773D01*
X149757648Y-48798500D01*
X149757649Y-48798500D01*
X149962351Y-48798500D01*
X149962352Y-48798500D01*
X150164534Y-48766477D01*
X150359219Y-48703220D01*
X150541610Y-48610287D01*
X150662222Y-48522658D01*
X150707213Y-48489971D01*
X150707215Y-48489968D01*
X150707219Y-48489966D01*
X150851966Y-48345219D01*
X150851968Y-48345215D01*
X150851971Y-48345213D01*
X150972284Y-48179614D01*
X150972285Y-48179613D01*
X150972287Y-48179610D01*
X151019516Y-48086917D01*
X151067489Y-48036123D01*
X151135310Y-48019328D01*
X151201445Y-48041865D01*
X151240485Y-48086919D01*
X151287715Y-48179614D01*
X151408028Y-48345213D01*
X151552786Y-48489971D01*
X151707749Y-48602556D01*
X151718390Y-48610287D01*
X151809838Y-48656882D01*
X151900776Y-48703218D01*
X151900778Y-48703218D01*
X151900781Y-48703220D01*
X151989317Y-48731987D01*
X152095465Y-48766477D01*
X152122589Y-48770773D01*
X152297648Y-48798500D01*
X152297649Y-48798500D01*
X152502351Y-48798500D01*
X152502352Y-48798500D01*
X152704534Y-48766477D01*
X152899219Y-48703220D01*
X153081610Y-48610287D01*
X153202222Y-48522658D01*
X153247213Y-48489971D01*
X153247215Y-48489968D01*
X153247219Y-48489966D01*
X153391966Y-48345219D01*
X153391968Y-48345215D01*
X153391971Y-48345213D01*
X153512284Y-48179614D01*
X153512285Y-48179613D01*
X153512287Y-48179610D01*
X153559516Y-48086917D01*
X153607489Y-48036123D01*
X153675310Y-48019328D01*
X153741445Y-48041865D01*
X153780485Y-48086919D01*
X153827715Y-48179614D01*
X153948028Y-48345213D01*
X154092786Y-48489971D01*
X154247749Y-48602556D01*
X154258390Y-48610287D01*
X154349838Y-48656882D01*
X154440776Y-48703218D01*
X154440778Y-48703218D01*
X154440781Y-48703220D01*
X154529317Y-48731987D01*
X154635465Y-48766477D01*
X154662589Y-48770773D01*
X154837648Y-48798500D01*
X154837649Y-48798500D01*
X155042351Y-48798500D01*
X155042352Y-48798500D01*
X155244534Y-48766477D01*
X155439219Y-48703220D01*
X155621610Y-48610287D01*
X155742222Y-48522658D01*
X155787213Y-48489971D01*
X155787215Y-48489968D01*
X155787219Y-48489966D01*
X155931966Y-48345219D01*
X155931968Y-48345215D01*
X155931971Y-48345213D01*
X156052284Y-48179614D01*
X156052285Y-48179613D01*
X156052287Y-48179610D01*
X156099516Y-48086917D01*
X156147489Y-48036123D01*
X156215310Y-48019328D01*
X156281445Y-48041865D01*
X156320485Y-48086919D01*
X156367715Y-48179614D01*
X156488028Y-48345213D01*
X156632786Y-48489971D01*
X156787749Y-48602556D01*
X156798390Y-48610287D01*
X156889838Y-48656882D01*
X156980776Y-48703218D01*
X156980778Y-48703218D01*
X156980781Y-48703220D01*
X157069317Y-48731987D01*
X157175465Y-48766477D01*
X157202589Y-48770773D01*
X157377648Y-48798500D01*
X157377649Y-48798500D01*
X157582351Y-48798500D01*
X157582352Y-48798500D01*
X157784534Y-48766477D01*
X157979219Y-48703220D01*
X158161610Y-48610287D01*
X158282222Y-48522658D01*
X158327213Y-48489971D01*
X158327215Y-48489968D01*
X158327219Y-48489966D01*
X158471966Y-48345219D01*
X158471968Y-48345215D01*
X158471971Y-48345213D01*
X158592284Y-48179614D01*
X158592285Y-48179613D01*
X158592287Y-48179610D01*
X158639516Y-48086917D01*
X158687489Y-48036123D01*
X158755310Y-48019328D01*
X158821445Y-48041865D01*
X158860485Y-48086919D01*
X158907715Y-48179614D01*
X159028028Y-48345213D01*
X159124548Y-48441733D01*
X159158033Y-48503056D01*
X159153049Y-48572748D01*
X159111177Y-48628681D01*
X159061060Y-48651031D01*
X158995339Y-48664104D01*
X158995332Y-48664106D01*
X158831459Y-48731983D01*
X158831446Y-48731990D01*
X158683965Y-48830535D01*
X158683961Y-48830538D01*
X158558538Y-48955961D01*
X158558535Y-48955965D01*
X158459990Y-49103446D01*
X158459983Y-49103459D01*
X158392106Y-49267332D01*
X158392103Y-49267341D01*
X158357500Y-49441304D01*
X158357500Y-49618695D01*
X158392103Y-49792658D01*
X158392106Y-49792667D01*
X158459983Y-49956540D01*
X158459990Y-49956553D01*
X158558535Y-50104034D01*
X158558538Y-50104038D01*
X158683961Y-50229461D01*
X158683965Y-50229464D01*
X158831446Y-50328009D01*
X158831459Y-50328016D01*
X158954363Y-50378923D01*
X158995334Y-50395894D01*
X158995336Y-50395894D01*
X158995341Y-50395896D01*
X159169304Y-50430499D01*
X159169307Y-50430500D01*
X159169309Y-50430500D01*
X159346693Y-50430500D01*
X159346694Y-50430499D01*
X159404682Y-50418964D01*
X159520658Y-50395896D01*
X159520661Y-50395894D01*
X159520666Y-50395894D01*
X159684547Y-50328013D01*
X159832035Y-50229464D01*
X159957464Y-50104035D01*
X160056013Y-49956547D01*
X160123894Y-49792666D01*
X160158500Y-49618691D01*
X160158500Y-49441309D01*
X160158500Y-49441306D01*
X160158499Y-49441304D01*
X160123896Y-49267341D01*
X160123893Y-49267332D01*
X160056016Y-49103459D01*
X160056014Y-49103455D01*
X160056013Y-49103453D01*
X159981134Y-48991390D01*
X159960257Y-48924714D01*
X159978741Y-48857334D01*
X160030720Y-48810643D01*
X160084237Y-48798500D01*
X160122351Y-48798500D01*
X160122352Y-48798500D01*
X160324534Y-48766477D01*
X160519219Y-48703220D01*
X160701610Y-48610287D01*
X160822222Y-48522658D01*
X160867213Y-48489971D01*
X160867215Y-48489968D01*
X160867219Y-48489966D01*
X161011966Y-48345219D01*
X161083437Y-48246845D01*
X161138765Y-48204180D01*
X161208379Y-48198200D01*
X161252646Y-48216629D01*
X161371446Y-48296009D01*
X161371459Y-48296016D01*
X161490234Y-48345213D01*
X161535334Y-48363894D01*
X161535336Y-48363894D01*
X161535341Y-48363896D01*
X161709304Y-48398499D01*
X161709307Y-48398500D01*
X161709309Y-48398500D01*
X161886693Y-48398500D01*
X161886694Y-48398499D01*
X161944682Y-48386964D01*
X162060658Y-48363896D01*
X162060661Y-48363894D01*
X162060666Y-48363894D01*
X162224547Y-48296013D01*
X162372035Y-48197464D01*
X162398195Y-48171304D01*
X165884501Y-48171304D01*
X165884501Y-48348695D01*
X165919104Y-48522658D01*
X165919107Y-48522667D01*
X165986984Y-48686540D01*
X165986991Y-48686553D01*
X166085536Y-48834034D01*
X166085539Y-48834038D01*
X166210962Y-48959461D01*
X166210966Y-48959464D01*
X166358447Y-49058009D01*
X166358460Y-49058016D01*
X166481364Y-49108923D01*
X166522335Y-49125894D01*
X166522337Y-49125894D01*
X166522342Y-49125896D01*
X166696305Y-49160499D01*
X166696308Y-49160500D01*
X166696310Y-49160500D01*
X166873694Y-49160500D01*
X166873695Y-49160499D01*
X166931683Y-49148964D01*
X167047659Y-49125896D01*
X167047662Y-49125894D01*
X167047667Y-49125894D01*
X167211548Y-49058013D01*
X167359036Y-48959464D01*
X167484465Y-48834035D01*
X167583014Y-48686547D01*
X167650895Y-48522666D01*
X167657399Y-48489971D01*
X167675593Y-48398500D01*
X167685501Y-48348691D01*
X167685501Y-48171309D01*
X167685501Y-48171306D01*
X167685500Y-48171304D01*
X167650897Y-47997341D01*
X167650894Y-47997332D01*
X167583017Y-47833459D01*
X167583010Y-47833446D01*
X167484465Y-47685965D01*
X167484462Y-47685961D01*
X167359039Y-47560538D01*
X167359035Y-47560535D01*
X167211554Y-47461990D01*
X167211541Y-47461983D01*
X167047668Y-47394106D01*
X167047659Y-47394103D01*
X166873695Y-47359500D01*
X166873692Y-47359500D01*
X166696310Y-47359500D01*
X166696307Y-47359500D01*
X166522342Y-47394103D01*
X166522333Y-47394106D01*
X166358460Y-47461983D01*
X166358447Y-47461990D01*
X166210966Y-47560535D01*
X166210962Y-47560538D01*
X166085539Y-47685961D01*
X166085536Y-47685965D01*
X165986991Y-47833446D01*
X165986984Y-47833459D01*
X165919107Y-47997332D01*
X165919104Y-47997341D01*
X165884501Y-48171304D01*
X162398195Y-48171304D01*
X162416094Y-48153405D01*
X162491964Y-48077536D01*
X162497461Y-48072038D01*
X162497464Y-48072035D01*
X162596013Y-47924547D01*
X162663894Y-47760666D01*
X162698500Y-47586691D01*
X162698500Y-47409309D01*
X162698500Y-47409306D01*
X162698499Y-47409304D01*
X162663896Y-47235341D01*
X162663893Y-47235332D01*
X162650534Y-47203081D01*
X162645033Y-47189800D01*
X162596016Y-47071459D01*
X162596009Y-47071446D01*
X162497464Y-46923965D01*
X162497461Y-46923961D01*
X162372038Y-46798538D01*
X162372034Y-46798535D01*
X162224553Y-46699990D01*
X162224540Y-46699983D01*
X162060667Y-46632106D01*
X162060658Y-46632103D01*
X161886694Y-46597500D01*
X161886691Y-46597500D01*
X161709309Y-46597500D01*
X161709306Y-46597500D01*
X161535341Y-46632103D01*
X161535332Y-46632106D01*
X161371459Y-46699983D01*
X161371441Y-46699993D01*
X161252645Y-46779370D01*
X161185968Y-46800248D01*
X161118588Y-46781763D01*
X161083436Y-46749152D01*
X161011969Y-46650784D01*
X160867213Y-46506028D01*
X160701614Y-46385715D01*
X160695006Y-46382348D01*
X160608917Y-46338483D01*
X160558123Y-46290511D01*
X160541328Y-46222690D01*
X160563865Y-46156555D01*
X160608917Y-46117516D01*
X160701610Y-46070287D01*
X160784571Y-46010013D01*
X160867213Y-45949971D01*
X160867215Y-45949968D01*
X160867219Y-45949966D01*
X161011966Y-45805219D01*
X161011968Y-45805215D01*
X161011971Y-45805213D01*
X161081438Y-45709598D01*
X161132287Y-45639610D01*
X161225220Y-45457219D01*
X161288477Y-45262534D01*
X161310529Y-45123304D01*
X166739500Y-45123304D01*
X166739500Y-45300695D01*
X166774103Y-45474658D01*
X166774106Y-45474667D01*
X166841983Y-45638540D01*
X166841990Y-45638553D01*
X166940535Y-45786034D01*
X166940538Y-45786038D01*
X167065961Y-45911461D01*
X167065965Y-45911464D01*
X167213446Y-46010009D01*
X167213459Y-46010016D01*
X167256822Y-46027977D01*
X167377334Y-46077894D01*
X167377336Y-46077894D01*
X167377341Y-46077896D01*
X167551304Y-46112499D01*
X167551307Y-46112500D01*
X167551309Y-46112500D01*
X167728693Y-46112500D01*
X167728694Y-46112499D01*
X167786682Y-46100964D01*
X167902658Y-46077896D01*
X167902661Y-46077894D01*
X167902666Y-46077894D01*
X168066547Y-46010013D01*
X168214035Y-45911464D01*
X168339464Y-45786035D01*
X168438013Y-45638547D01*
X168505894Y-45474666D01*
X168509365Y-45457219D01*
X168540499Y-45300695D01*
X168540500Y-45300693D01*
X168540500Y-45161304D01*
X173889500Y-45161304D01*
X173889500Y-45338695D01*
X173924103Y-45512658D01*
X173924106Y-45512667D01*
X173991983Y-45676540D01*
X173991990Y-45676553D01*
X174090535Y-45824034D01*
X174090538Y-45824038D01*
X174215961Y-45949461D01*
X174215965Y-45949464D01*
X174363446Y-46048009D01*
X174363459Y-46048016D01*
X174486363Y-46098923D01*
X174527334Y-46115894D01*
X174527336Y-46115894D01*
X174527341Y-46115896D01*
X174701304Y-46150499D01*
X174701307Y-46150500D01*
X174701309Y-46150500D01*
X174878693Y-46150500D01*
X174878694Y-46150499D01*
X174936682Y-46138964D01*
X175052658Y-46115896D01*
X175052661Y-46115894D01*
X175052666Y-46115894D01*
X175216547Y-46048013D01*
X175364035Y-45949464D01*
X175489464Y-45824035D01*
X175588013Y-45676547D01*
X175655894Y-45512666D01*
X175658043Y-45501865D01*
X175690499Y-45338695D01*
X175690500Y-45338693D01*
X175690500Y-45161306D01*
X175675899Y-45087905D01*
X175675899Y-45087904D01*
X175671896Y-45067778D01*
X185632500Y-45067778D01*
X185632500Y-45356221D01*
X185632501Y-45356238D01*
X185670149Y-45642206D01*
X185670150Y-45642211D01*
X185670151Y-45642217D01*
X185744809Y-45920844D01*
X185744814Y-45920860D01*
X185855191Y-46187336D01*
X185855199Y-46187352D01*
X185999420Y-46437148D01*
X185999431Y-46437164D01*
X186175024Y-46666002D01*
X186175030Y-46666009D01*
X186378990Y-46869969D01*
X186378997Y-46869975D01*
X186488676Y-46954134D01*
X186607844Y-47045575D01*
X186607851Y-47045579D01*
X186857647Y-47189800D01*
X186857663Y-47189808D01*
X187124139Y-47300185D01*
X187124145Y-47300186D01*
X187124155Y-47300191D01*
X187402783Y-47374849D01*
X187688772Y-47412500D01*
X187688779Y-47412500D01*
X187977221Y-47412500D01*
X187977228Y-47412500D01*
X188263217Y-47374849D01*
X188541845Y-47300191D01*
X188541857Y-47300185D01*
X188541860Y-47300185D01*
X188808336Y-47189808D01*
X188808339Y-47189806D01*
X188808345Y-47189804D01*
X189058156Y-47045575D01*
X189287004Y-46869974D01*
X189490974Y-46666004D01*
X189666575Y-46437156D01*
X189810804Y-46187345D01*
X189839729Y-46117515D01*
X189921185Y-45920860D01*
X189921185Y-45920857D01*
X189921191Y-45920845D01*
X189995849Y-45642217D01*
X190033500Y-45356228D01*
X190033500Y-45108530D01*
X191227500Y-45108530D01*
X191227500Y-45315469D01*
X191267868Y-45518412D01*
X191267870Y-45518420D01*
X191347058Y-45709596D01*
X191462024Y-45881657D01*
X191608342Y-46027975D01*
X191608345Y-46027977D01*
X191780402Y-46142941D01*
X191971580Y-46222130D01*
X192174530Y-46262499D01*
X192174534Y-46262500D01*
X192174535Y-46262500D01*
X192381466Y-46262500D01*
X192381467Y-46262499D01*
X192584420Y-46222130D01*
X192775598Y-46142941D01*
X192947655Y-46027977D01*
X193093977Y-45881655D01*
X193208941Y-45709598D01*
X193288130Y-45518420D01*
X193328500Y-45315465D01*
X193328500Y-45108535D01*
X193288130Y-44905580D01*
X193208941Y-44714402D01*
X193093977Y-44542345D01*
X193093975Y-44542342D01*
X192947657Y-44396024D01*
X192821156Y-44311500D01*
X192775598Y-44281059D01*
X192764316Y-44276386D01*
X192584420Y-44201870D01*
X192584412Y-44201868D01*
X192381469Y-44161500D01*
X192381465Y-44161500D01*
X192174535Y-44161500D01*
X192174530Y-44161500D01*
X191971587Y-44201868D01*
X191971579Y-44201870D01*
X191780403Y-44281058D01*
X191608342Y-44396024D01*
X191462024Y-44542342D01*
X191347058Y-44714403D01*
X191267870Y-44905579D01*
X191267868Y-44905587D01*
X191227500Y-45108530D01*
X190033500Y-45108530D01*
X190033500Y-45067772D01*
X189995849Y-44781783D01*
X189921191Y-44503155D01*
X189921186Y-44503145D01*
X189921185Y-44503139D01*
X189810808Y-44236663D01*
X189810800Y-44236647D01*
X189666579Y-43986851D01*
X189666575Y-43986844D01*
X189490974Y-43757996D01*
X189490969Y-43757990D01*
X189287009Y-43554030D01*
X189287002Y-43554024D01*
X189058164Y-43378431D01*
X189058162Y-43378429D01*
X189058156Y-43378425D01*
X189058151Y-43378422D01*
X189058148Y-43378420D01*
X188808352Y-43234199D01*
X188808336Y-43234191D01*
X188541860Y-43123814D01*
X188541848Y-43123810D01*
X188541845Y-43123809D01*
X188263217Y-43049151D01*
X188263211Y-43049150D01*
X188263206Y-43049149D01*
X187977238Y-43011501D01*
X187977233Y-43011500D01*
X187977228Y-43011500D01*
X187688772Y-43011500D01*
X187688766Y-43011500D01*
X187688761Y-43011501D01*
X187402793Y-43049149D01*
X187402786Y-43049150D01*
X187402783Y-43049151D01*
X187214467Y-43099610D01*
X187124155Y-43123809D01*
X187124139Y-43123814D01*
X186857663Y-43234191D01*
X186857647Y-43234199D01*
X186607851Y-43378420D01*
X186607835Y-43378431D01*
X186378997Y-43554024D01*
X186378990Y-43554030D01*
X186175030Y-43757990D01*
X186175024Y-43757997D01*
X185999431Y-43986835D01*
X185999420Y-43986851D01*
X185855199Y-44236647D01*
X185855191Y-44236663D01*
X185744814Y-44503139D01*
X185744809Y-44503155D01*
X185688206Y-44714403D01*
X185670152Y-44781780D01*
X185670149Y-44781793D01*
X185632501Y-45067761D01*
X185632500Y-45067778D01*
X175671896Y-45067778D01*
X175655896Y-44987341D01*
X175655893Y-44987332D01*
X175588016Y-44823459D01*
X175588009Y-44823446D01*
X175489464Y-44675965D01*
X175489461Y-44675961D01*
X175364038Y-44550538D01*
X175364034Y-44550535D01*
X175216553Y-44451990D01*
X175216540Y-44451983D01*
X175052667Y-44384106D01*
X175052658Y-44384103D01*
X174878694Y-44349500D01*
X174878691Y-44349500D01*
X174701309Y-44349500D01*
X174701306Y-44349500D01*
X174527341Y-44384103D01*
X174527332Y-44384106D01*
X174363459Y-44451983D01*
X174363446Y-44451990D01*
X174215965Y-44550535D01*
X174215961Y-44550538D01*
X174090538Y-44675961D01*
X174090535Y-44675965D01*
X173991990Y-44823446D01*
X173991983Y-44823459D01*
X173924106Y-44987332D01*
X173924103Y-44987341D01*
X173889500Y-45161304D01*
X168540500Y-45161304D01*
X168540500Y-45123306D01*
X168540499Y-45123304D01*
X168505896Y-44949341D01*
X168505893Y-44949332D01*
X168438016Y-44785459D01*
X168438009Y-44785446D01*
X168339464Y-44637965D01*
X168339461Y-44637961D01*
X168214038Y-44512538D01*
X168214034Y-44512535D01*
X168066553Y-44413990D01*
X168066540Y-44413983D01*
X167902667Y-44346106D01*
X167902658Y-44346103D01*
X167728694Y-44311500D01*
X167728691Y-44311500D01*
X167551309Y-44311500D01*
X167551306Y-44311500D01*
X167377341Y-44346103D01*
X167377332Y-44346106D01*
X167213459Y-44413983D01*
X167213446Y-44413990D01*
X167065965Y-44512535D01*
X167065961Y-44512538D01*
X166940538Y-44637961D01*
X166940535Y-44637965D01*
X166841990Y-44785446D01*
X166841983Y-44785459D01*
X166774106Y-44949332D01*
X166774103Y-44949341D01*
X166739500Y-45123304D01*
X161310529Y-45123304D01*
X161320500Y-45060352D01*
X161320500Y-44855648D01*
X161298129Y-44714403D01*
X161288477Y-44653465D01*
X161225218Y-44458776D01*
X161167809Y-44346106D01*
X161132287Y-44276390D01*
X161103418Y-44236655D01*
X161011971Y-44110786D01*
X160867213Y-43966028D01*
X160701614Y-43845715D01*
X160695006Y-43842348D01*
X160608917Y-43798483D01*
X160558123Y-43750511D01*
X160541328Y-43682690D01*
X160563865Y-43616555D01*
X160608917Y-43577516D01*
X160701610Y-43530287D01*
X160722770Y-43514913D01*
X160867213Y-43409971D01*
X160867215Y-43409968D01*
X160867219Y-43409966D01*
X161011966Y-43265219D01*
X161011968Y-43265215D01*
X161011971Y-43265213D01*
X161091968Y-43155105D01*
X161132287Y-43099610D01*
X161225220Y-42917219D01*
X161288477Y-42722534D01*
X161320500Y-42520352D01*
X161320500Y-42315648D01*
X161288477Y-42113466D01*
X161225220Y-41918781D01*
X161225218Y-41918778D01*
X161225218Y-41918776D01*
X161156208Y-41783338D01*
X161132287Y-41736390D01*
X161124556Y-41725749D01*
X161011971Y-41570786D01*
X160867213Y-41426028D01*
X160794508Y-41373206D01*
X160794500Y-41373201D01*
X160701610Y-41305713D01*
X160639662Y-41274149D01*
X182067500Y-41274149D01*
X182067500Y-41529850D01*
X182072890Y-41570786D01*
X182100874Y-41783340D01*
X182167050Y-42030312D01*
X182167053Y-42030322D01*
X182264894Y-42266531D01*
X182264899Y-42266542D01*
X182392734Y-42487957D01*
X182392745Y-42487973D01*
X182548388Y-42690811D01*
X182548394Y-42690818D01*
X182729181Y-42871605D01*
X182729187Y-42871610D01*
X182932035Y-43027261D01*
X182932042Y-43027265D01*
X183153457Y-43155100D01*
X183153462Y-43155102D01*
X183153465Y-43155104D01*
X183302426Y-43216805D01*
X183344398Y-43234191D01*
X183389687Y-43252950D01*
X183636660Y-43319126D01*
X183890157Y-43352500D01*
X183890164Y-43352500D01*
X184145836Y-43352500D01*
X184145843Y-43352500D01*
X184399340Y-43319126D01*
X184646313Y-43252950D01*
X184882535Y-43155104D01*
X185103965Y-43027261D01*
X185306813Y-42871610D01*
X185487610Y-42690813D01*
X185643261Y-42487965D01*
X185771104Y-42266535D01*
X185868950Y-42030313D01*
X185935126Y-41783340D01*
X185968500Y-41529843D01*
X185968500Y-41274157D01*
X185935126Y-41020660D01*
X185868950Y-40773687D01*
X185848871Y-40725213D01*
X185771105Y-40537468D01*
X185771100Y-40537457D01*
X185643265Y-40316042D01*
X185643261Y-40316035D01*
X185487610Y-40113187D01*
X185487605Y-40113181D01*
X185306818Y-39932394D01*
X185306811Y-39932388D01*
X185103973Y-39776745D01*
X185103971Y-39776743D01*
X185103965Y-39776739D01*
X185103960Y-39776736D01*
X185103957Y-39776734D01*
X184882542Y-39648899D01*
X184882531Y-39648894D01*
X184646322Y-39551053D01*
X184646315Y-39551051D01*
X184646313Y-39551050D01*
X184399340Y-39484874D01*
X184343007Y-39477457D01*
X184145850Y-39451500D01*
X184145843Y-39451500D01*
X183890157Y-39451500D01*
X183890149Y-39451500D01*
X183664826Y-39481165D01*
X183636660Y-39484874D01*
X183389687Y-39551050D01*
X183389677Y-39551053D01*
X183153468Y-39648894D01*
X183153457Y-39648899D01*
X182932042Y-39776734D01*
X182932026Y-39776745D01*
X182729188Y-39932388D01*
X182729181Y-39932394D01*
X182548394Y-40113181D01*
X182548388Y-40113188D01*
X182392745Y-40316026D01*
X182392734Y-40316042D01*
X182264899Y-40537457D01*
X182264894Y-40537468D01*
X182167053Y-40773677D01*
X182167050Y-40773687D01*
X182109013Y-40990287D01*
X182100874Y-41020661D01*
X182067500Y-41274149D01*
X160639662Y-41274149D01*
X160604465Y-41256215D01*
X160600209Y-41253595D01*
X160580037Y-41231208D01*
X160558123Y-41210511D01*
X160556885Y-41205512D01*
X160553439Y-41201688D01*
X160548572Y-41171943D01*
X160541328Y-41142690D01*
X160542988Y-41137817D01*
X160542157Y-41132735D01*
X160554143Y-41105081D01*
X160563865Y-41076555D01*
X160568100Y-41072885D01*
X160569945Y-41068629D01*
X160583497Y-41059543D01*
X160608917Y-41037516D01*
X160701610Y-40990287D01*
X160722770Y-40974913D01*
X160867213Y-40869971D01*
X160867215Y-40869968D01*
X160867219Y-40869966D01*
X161011966Y-40725219D01*
X161011968Y-40725215D01*
X161011971Y-40725213D01*
X161064732Y-40652590D01*
X161132287Y-40559610D01*
X161225220Y-40377219D01*
X161288477Y-40182534D01*
X161320500Y-39980352D01*
X161320500Y-39775648D01*
X161288477Y-39573466D01*
X161287288Y-39569808D01*
X161248848Y-39451500D01*
X161225220Y-39378781D01*
X161225218Y-39378778D01*
X161225218Y-39378776D01*
X161179515Y-39289080D01*
X161132287Y-39196390D01*
X161124556Y-39185749D01*
X161011971Y-39030786D01*
X160867213Y-38886028D01*
X160701614Y-38765715D01*
X160695006Y-38762348D01*
X160608917Y-38718483D01*
X160558123Y-38670511D01*
X160541328Y-38602690D01*
X160563865Y-38536555D01*
X160608917Y-38497516D01*
X160701610Y-38450287D01*
X160759848Y-38407975D01*
X160867213Y-38329971D01*
X160867215Y-38329968D01*
X160867219Y-38329966D01*
X161011966Y-38185219D01*
X161011968Y-38185215D01*
X161011971Y-38185213D01*
X161081438Y-38089598D01*
X161132287Y-38019610D01*
X161225220Y-37837219D01*
X161288477Y-37642534D01*
X161319324Y-37447778D01*
X186267500Y-37447778D01*
X186267500Y-37736221D01*
X186267501Y-37736238D01*
X186305149Y-38022206D01*
X186305150Y-38022211D01*
X186305151Y-38022217D01*
X186369308Y-38261655D01*
X186379809Y-38300844D01*
X186379814Y-38300860D01*
X186490191Y-38567336D01*
X186490199Y-38567352D01*
X186634420Y-38817148D01*
X186634431Y-38817164D01*
X186810024Y-39046002D01*
X186810030Y-39046009D01*
X187013990Y-39249969D01*
X187013996Y-39249974D01*
X187242844Y-39425575D01*
X187242851Y-39425579D01*
X187492647Y-39569800D01*
X187492663Y-39569808D01*
X187759139Y-39680185D01*
X187759145Y-39680186D01*
X187759155Y-39680191D01*
X188037783Y-39754849D01*
X188323772Y-39792500D01*
X188323779Y-39792500D01*
X188612221Y-39792500D01*
X188612228Y-39792500D01*
X188898217Y-39754849D01*
X189176845Y-39680191D01*
X189176857Y-39680185D01*
X189176860Y-39680185D01*
X189443336Y-39569808D01*
X189443339Y-39569806D01*
X189443345Y-39569804D01*
X189693156Y-39425575D01*
X189922004Y-39249974D01*
X190125974Y-39046004D01*
X190301575Y-38817156D01*
X190445804Y-38567345D01*
X190474729Y-38497515D01*
X190556185Y-38300860D01*
X190556185Y-38300857D01*
X190556191Y-38300845D01*
X190630849Y-38022217D01*
X190668500Y-37736228D01*
X190668500Y-37488530D01*
X196307500Y-37488530D01*
X196307500Y-37695469D01*
X196347868Y-37898412D01*
X196347870Y-37898420D01*
X196427058Y-38089596D01*
X196542024Y-38261657D01*
X196688342Y-38407975D01*
X196688345Y-38407977D01*
X196860402Y-38522941D01*
X197051580Y-38602130D01*
X197254530Y-38642499D01*
X197254534Y-38642500D01*
X197254535Y-38642500D01*
X197461466Y-38642500D01*
X197461467Y-38642499D01*
X197664420Y-38602130D01*
X197855598Y-38522941D01*
X198027655Y-38407977D01*
X198173977Y-38261655D01*
X198288941Y-38089598D01*
X198368130Y-37898420D01*
X198408500Y-37695465D01*
X198408500Y-37488535D01*
X198368130Y-37285580D01*
X198288941Y-37094402D01*
X198173977Y-36922345D01*
X198173975Y-36922342D01*
X198027657Y-36776024D01*
X197941626Y-36718541D01*
X197855598Y-36661059D01*
X197844316Y-36656386D01*
X197664420Y-36581870D01*
X197664412Y-36581868D01*
X197461469Y-36541500D01*
X197461465Y-36541500D01*
X197254535Y-36541500D01*
X197254530Y-36541500D01*
X197051587Y-36581868D01*
X197051579Y-36581870D01*
X196860403Y-36661058D01*
X196688342Y-36776024D01*
X196542024Y-36922342D01*
X196427058Y-37094403D01*
X196347870Y-37285579D01*
X196347868Y-37285587D01*
X196307500Y-37488530D01*
X190668500Y-37488530D01*
X190668500Y-37447772D01*
X190630849Y-37161783D01*
X190556191Y-36883155D01*
X190556186Y-36883145D01*
X190556185Y-36883139D01*
X190445808Y-36616663D01*
X190445800Y-36616647D01*
X190301579Y-36366851D01*
X190301575Y-36366844D01*
X190125974Y-36137996D01*
X190125969Y-36137990D01*
X189922009Y-35934030D01*
X189922002Y-35934024D01*
X189693164Y-35758431D01*
X189693162Y-35758429D01*
X189693156Y-35758425D01*
X189693151Y-35758422D01*
X189693148Y-35758420D01*
X189443352Y-35614199D01*
X189443336Y-35614191D01*
X189176860Y-35503814D01*
X189176848Y-35503810D01*
X189176845Y-35503809D01*
X188898217Y-35429151D01*
X188898211Y-35429150D01*
X188898206Y-35429149D01*
X188612238Y-35391501D01*
X188612233Y-35391500D01*
X188612228Y-35391500D01*
X188323772Y-35391500D01*
X188323766Y-35391500D01*
X188323761Y-35391501D01*
X188037793Y-35429149D01*
X188037786Y-35429150D01*
X188037783Y-35429151D01*
X187980500Y-35444500D01*
X187759155Y-35503809D01*
X187759139Y-35503814D01*
X187492663Y-35614191D01*
X187492647Y-35614199D01*
X187242851Y-35758420D01*
X187242835Y-35758431D01*
X187013997Y-35934024D01*
X187013990Y-35934030D01*
X186810030Y-36137990D01*
X186810024Y-36137997D01*
X186634431Y-36366835D01*
X186634420Y-36366851D01*
X186490199Y-36616647D01*
X186490191Y-36616663D01*
X186379814Y-36883139D01*
X186379809Y-36883155D01*
X186323206Y-37094403D01*
X186305152Y-37161780D01*
X186305149Y-37161793D01*
X186267501Y-37447761D01*
X186267500Y-37447778D01*
X161319324Y-37447778D01*
X161320500Y-37440352D01*
X161320500Y-37235648D01*
X161298129Y-37094403D01*
X161288477Y-37033465D01*
X161225218Y-36838776D01*
X161179515Y-36749080D01*
X161132287Y-36656390D01*
X161103418Y-36616655D01*
X161011971Y-36490786D01*
X160867213Y-36346028D01*
X160701614Y-36225715D01*
X160695006Y-36222348D01*
X160608917Y-36178483D01*
X160558123Y-36130511D01*
X160541328Y-36062690D01*
X160563865Y-35996555D01*
X160608917Y-35957516D01*
X160701610Y-35910287D01*
X160722770Y-35894913D01*
X160867213Y-35789971D01*
X160867215Y-35789968D01*
X160867219Y-35789966D01*
X161011966Y-35645219D01*
X161011968Y-35645215D01*
X161011971Y-35645213D01*
X161064732Y-35572590D01*
X161132287Y-35479610D01*
X161225220Y-35297219D01*
X161288477Y-35102534D01*
X161320500Y-34900352D01*
X161320500Y-34695648D01*
X161288477Y-34493466D01*
X161276077Y-34455304D01*
X173343500Y-34455304D01*
X173343500Y-34632695D01*
X173378103Y-34806658D01*
X173378106Y-34806667D01*
X173445983Y-34970540D01*
X173445990Y-34970553D01*
X173544535Y-35118034D01*
X173544538Y-35118038D01*
X173669961Y-35243461D01*
X173669965Y-35243464D01*
X173817446Y-35342009D01*
X173817459Y-35342016D01*
X173875602Y-35366099D01*
X173981334Y-35409894D01*
X173981336Y-35409894D01*
X173981341Y-35409896D01*
X174155304Y-35444499D01*
X174155307Y-35444500D01*
X174155309Y-35444500D01*
X174332693Y-35444500D01*
X174332694Y-35444499D01*
X174409855Y-35429151D01*
X174506658Y-35409896D01*
X174506661Y-35409894D01*
X174506666Y-35409894D01*
X174670547Y-35342013D01*
X174670769Y-35341865D01*
X174696224Y-35324856D01*
X174818035Y-35243464D01*
X174943464Y-35118035D01*
X175042013Y-34970547D01*
X175109894Y-34806666D01*
X175144500Y-34632691D01*
X175144500Y-34455309D01*
X175144500Y-34455306D01*
X175144499Y-34455304D01*
X175109896Y-34281341D01*
X175109893Y-34281332D01*
X175107962Y-34276671D01*
X175079966Y-34209080D01*
X175042016Y-34117459D01*
X175042009Y-34117446D01*
X174943464Y-33969965D01*
X174943461Y-33969961D01*
X174818038Y-33844538D01*
X174818034Y-33844535D01*
X174670553Y-33745990D01*
X174670540Y-33745983D01*
X174506667Y-33678106D01*
X174506658Y-33678103D01*
X174332694Y-33643500D01*
X174332691Y-33643500D01*
X174155309Y-33643500D01*
X174155306Y-33643500D01*
X173981341Y-33678103D01*
X173981332Y-33678106D01*
X173817459Y-33745983D01*
X173817446Y-33745990D01*
X173669965Y-33844535D01*
X173669961Y-33844538D01*
X173544538Y-33969961D01*
X173544535Y-33969965D01*
X173445990Y-34117446D01*
X173445983Y-34117459D01*
X173378106Y-34281332D01*
X173378103Y-34281341D01*
X173343500Y-34455304D01*
X161276077Y-34455304D01*
X161225220Y-34298781D01*
X161132287Y-34116390D01*
X161124556Y-34105749D01*
X161011971Y-33950786D01*
X160867213Y-33806028D01*
X160701614Y-33685715D01*
X160686680Y-33678106D01*
X160608917Y-33638483D01*
X160558123Y-33590511D01*
X160541328Y-33522690D01*
X160563865Y-33456555D01*
X160608917Y-33417516D01*
X160701610Y-33370287D01*
X160796043Y-33301678D01*
X160867213Y-33249971D01*
X160867215Y-33249968D01*
X160867219Y-33249966D01*
X161011966Y-33105219D01*
X161011968Y-33105215D01*
X161011971Y-33105213D01*
X161126100Y-32948126D01*
X161132287Y-32939610D01*
X161136519Y-32931304D01*
X169279500Y-32931304D01*
X169279500Y-33108695D01*
X169314103Y-33282658D01*
X169314106Y-33282667D01*
X169381983Y-33446540D01*
X169381990Y-33446553D01*
X169480535Y-33594034D01*
X169480538Y-33594038D01*
X169605961Y-33719461D01*
X169605965Y-33719464D01*
X169753446Y-33818009D01*
X169753459Y-33818016D01*
X169876363Y-33868923D01*
X169917334Y-33885894D01*
X169917336Y-33885894D01*
X169917341Y-33885896D01*
X170091304Y-33920499D01*
X170091307Y-33920500D01*
X170091309Y-33920500D01*
X170268693Y-33920500D01*
X170268694Y-33920499D01*
X170326682Y-33908964D01*
X170442658Y-33885896D01*
X170442661Y-33885894D01*
X170442666Y-33885894D01*
X170606547Y-33818013D01*
X170754035Y-33719464D01*
X170879464Y-33594035D01*
X170978013Y-33446547D01*
X171045894Y-33282666D01*
X171045896Y-33282658D01*
X171074383Y-33139446D01*
X171106768Y-33077535D01*
X171167484Y-33042961D01*
X171237253Y-33046700D01*
X171293925Y-33087567D01*
X171317617Y-33139446D01*
X171346103Y-33282658D01*
X171346106Y-33282667D01*
X171413983Y-33446540D01*
X171413990Y-33446553D01*
X171512535Y-33594034D01*
X171512538Y-33594038D01*
X171637961Y-33719461D01*
X171637965Y-33719464D01*
X171785446Y-33818009D01*
X171785459Y-33818016D01*
X171908363Y-33868923D01*
X171949334Y-33885894D01*
X171949336Y-33885894D01*
X171949341Y-33885896D01*
X172123304Y-33920499D01*
X172123307Y-33920500D01*
X172123309Y-33920500D01*
X172300693Y-33920500D01*
X172300694Y-33920499D01*
X172358682Y-33908964D01*
X172474658Y-33885896D01*
X172474661Y-33885894D01*
X172474666Y-33885894D01*
X172638547Y-33818013D01*
X172786035Y-33719464D01*
X172911464Y-33594035D01*
X173010013Y-33446547D01*
X173077894Y-33282666D01*
X173084398Y-33249971D01*
X173112499Y-33108695D01*
X173112500Y-33108693D01*
X173112500Y-32931306D01*
X173112499Y-32931304D01*
X173077896Y-32757341D01*
X173077893Y-32757332D01*
X173010016Y-32593459D01*
X173010009Y-32593446D01*
X172911464Y-32445965D01*
X172911461Y-32445961D01*
X172786038Y-32320538D01*
X172786034Y-32320535D01*
X172638553Y-32221990D01*
X172638540Y-32221983D01*
X172474667Y-32154106D01*
X172474658Y-32154103D01*
X172300694Y-32119500D01*
X172300691Y-32119500D01*
X172123309Y-32119500D01*
X172123306Y-32119500D01*
X171949341Y-32154103D01*
X171949332Y-32154106D01*
X171785459Y-32221983D01*
X171785446Y-32221990D01*
X171637965Y-32320535D01*
X171637961Y-32320538D01*
X171512538Y-32445961D01*
X171512535Y-32445965D01*
X171413990Y-32593446D01*
X171413983Y-32593459D01*
X171346106Y-32757332D01*
X171346104Y-32757340D01*
X171317617Y-32900554D01*
X171285232Y-32962465D01*
X171224516Y-32997039D01*
X171154747Y-32993299D01*
X171098075Y-32952432D01*
X171074383Y-32900554D01*
X171051565Y-32785842D01*
X171045894Y-32757334D01*
X171021363Y-32698110D01*
X170978016Y-32593459D01*
X170978009Y-32593446D01*
X170879464Y-32445965D01*
X170879461Y-32445961D01*
X170754038Y-32320538D01*
X170754034Y-32320535D01*
X170606553Y-32221990D01*
X170606540Y-32221983D01*
X170442667Y-32154106D01*
X170442658Y-32154103D01*
X170268694Y-32119500D01*
X170268691Y-32119500D01*
X170091309Y-32119500D01*
X170091306Y-32119500D01*
X169917341Y-32154103D01*
X169917332Y-32154106D01*
X169753459Y-32221983D01*
X169753446Y-32221990D01*
X169605965Y-32320535D01*
X169605961Y-32320538D01*
X169480538Y-32445961D01*
X169480535Y-32445965D01*
X169381990Y-32593446D01*
X169381983Y-32593459D01*
X169314106Y-32757332D01*
X169314103Y-32757341D01*
X169279500Y-32931304D01*
X161136519Y-32931304D01*
X161225220Y-32757219D01*
X161288477Y-32562534D01*
X161320500Y-32360352D01*
X161320500Y-32155648D01*
X161292352Y-31977930D01*
X161288477Y-31953465D01*
X161231517Y-31778161D01*
X161225220Y-31758781D01*
X161225218Y-31758778D01*
X161225218Y-31758776D01*
X161179515Y-31669080D01*
X161132287Y-31576390D01*
X161100092Y-31532077D01*
X161011971Y-31410786D01*
X160867213Y-31266028D01*
X160701613Y-31145715D01*
X160701612Y-31145714D01*
X160701610Y-31145713D01*
X160644653Y-31116691D01*
X160519223Y-31052781D01*
X160324534Y-30989522D01*
X160149995Y-30961878D01*
X160122352Y-30957500D01*
X159917648Y-30957500D01*
X159893329Y-30961351D01*
X159715465Y-30989522D01*
X159520776Y-31052781D01*
X159338386Y-31145715D01*
X159172786Y-31266028D01*
X159028028Y-31410786D01*
X158907715Y-31576386D01*
X158860485Y-31669080D01*
X158812510Y-31719876D01*
X158744689Y-31736671D01*
X158678554Y-31714134D01*
X158639515Y-31669080D01*
X158638883Y-31667840D01*
X158592287Y-31576390D01*
X158560092Y-31532077D01*
X158471971Y-31410786D01*
X158327213Y-31266028D01*
X158161613Y-31145715D01*
X158161612Y-31145714D01*
X158161610Y-31145713D01*
X158104653Y-31116691D01*
X157979223Y-31052781D01*
X157784534Y-30989522D01*
X157609995Y-30961878D01*
X157582352Y-30957500D01*
X157377648Y-30957500D01*
X157353329Y-30961351D01*
X157175465Y-30989522D01*
X156980776Y-31052781D01*
X156798386Y-31145715D01*
X156632786Y-31266028D01*
X156488028Y-31410786D01*
X156367715Y-31576386D01*
X156320485Y-31669080D01*
X156272510Y-31719876D01*
X156204689Y-31736671D01*
X156138554Y-31714134D01*
X156099515Y-31669080D01*
X156098883Y-31667840D01*
X156052287Y-31576390D01*
X156020092Y-31532077D01*
X155931971Y-31410786D01*
X155787213Y-31266028D01*
X155621613Y-31145715D01*
X155621612Y-31145714D01*
X155621610Y-31145713D01*
X155564653Y-31116691D01*
X155439223Y-31052781D01*
X155244534Y-30989522D01*
X155069995Y-30961878D01*
X155042352Y-30957500D01*
X154837648Y-30957500D01*
X154813329Y-30961351D01*
X154635465Y-30989522D01*
X154440776Y-31052781D01*
X154258386Y-31145715D01*
X154092786Y-31266028D01*
X153948028Y-31410786D01*
X153827715Y-31576386D01*
X153780485Y-31669080D01*
X153732510Y-31719876D01*
X153664689Y-31736671D01*
X153598554Y-31714134D01*
X153559515Y-31669080D01*
X153558883Y-31667840D01*
X153512287Y-31576390D01*
X153480092Y-31532077D01*
X153391971Y-31410786D01*
X153247213Y-31266028D01*
X153081613Y-31145715D01*
X153081612Y-31145714D01*
X153081610Y-31145713D01*
X153024653Y-31116691D01*
X152899223Y-31052781D01*
X152704534Y-30989522D01*
X152529995Y-30961878D01*
X152502352Y-30957500D01*
X152297648Y-30957500D01*
X152273329Y-30961351D01*
X152095465Y-30989522D01*
X151900776Y-31052781D01*
X151718386Y-31145715D01*
X151552786Y-31266028D01*
X151408028Y-31410786D01*
X151287715Y-31576386D01*
X151240485Y-31669080D01*
X151192510Y-31719876D01*
X151124689Y-31736671D01*
X151058554Y-31714134D01*
X151019515Y-31669080D01*
X151018883Y-31667840D01*
X150972287Y-31576390D01*
X150940092Y-31532077D01*
X150851971Y-31410786D01*
X150707213Y-31266028D01*
X150541613Y-31145715D01*
X150541612Y-31145714D01*
X150541610Y-31145713D01*
X150484653Y-31116691D01*
X150359223Y-31052781D01*
X150164534Y-30989522D01*
X149989995Y-30961878D01*
X149962352Y-30957500D01*
X149757648Y-30957500D01*
X149733329Y-30961351D01*
X149555465Y-30989522D01*
X149360776Y-31052781D01*
X149178386Y-31145715D01*
X149012786Y-31266028D01*
X148868028Y-31410786D01*
X148747715Y-31576386D01*
X148700485Y-31669080D01*
X148652510Y-31719876D01*
X148584689Y-31736671D01*
X148518554Y-31714134D01*
X148479515Y-31669080D01*
X148478883Y-31667840D01*
X148432287Y-31576390D01*
X148400092Y-31532077D01*
X148311971Y-31410786D01*
X148167213Y-31266028D01*
X148001613Y-31145715D01*
X148001612Y-31145714D01*
X148001610Y-31145713D01*
X147944653Y-31116691D01*
X147819223Y-31052781D01*
X147624534Y-30989522D01*
X147449995Y-30961878D01*
X147422352Y-30957500D01*
X147217648Y-30957500D01*
X147193329Y-30961351D01*
X147015465Y-30989522D01*
X146820776Y-31052781D01*
X146638386Y-31145715D01*
X146472786Y-31266028D01*
X146328028Y-31410786D01*
X146207715Y-31576386D01*
X146160485Y-31669080D01*
X146112510Y-31719876D01*
X146044689Y-31736671D01*
X145978554Y-31714134D01*
X145939515Y-31669080D01*
X145938883Y-31667840D01*
X145892287Y-31576390D01*
X145860092Y-31532077D01*
X145771971Y-31410786D01*
X145627213Y-31266028D01*
X145461613Y-31145715D01*
X145461612Y-31145714D01*
X145461610Y-31145713D01*
X145404653Y-31116691D01*
X145279223Y-31052781D01*
X145084534Y-30989522D01*
X144909995Y-30961878D01*
X144882352Y-30957500D01*
X144677648Y-30957500D01*
X144653329Y-30961351D01*
X144475465Y-30989522D01*
X144280776Y-31052781D01*
X144098386Y-31145715D01*
X143932786Y-31266028D01*
X143788028Y-31410786D01*
X143667715Y-31576386D01*
X143620485Y-31669080D01*
X143572510Y-31719876D01*
X143504689Y-31736671D01*
X143438554Y-31714134D01*
X143399515Y-31669080D01*
X143398883Y-31667840D01*
X143352287Y-31576390D01*
X143320092Y-31532077D01*
X143231971Y-31410786D01*
X143087213Y-31266028D01*
X142921613Y-31145715D01*
X142921612Y-31145714D01*
X142921610Y-31145713D01*
X142864653Y-31116691D01*
X142739223Y-31052781D01*
X142544534Y-30989522D01*
X142369995Y-30961878D01*
X142342352Y-30957500D01*
X142137648Y-30957500D01*
X142113329Y-30961351D01*
X141935465Y-30989522D01*
X141740776Y-31052781D01*
X141558386Y-31145715D01*
X141392786Y-31266028D01*
X141248028Y-31410786D01*
X141127715Y-31576386D01*
X141080485Y-31669080D01*
X141032510Y-31719876D01*
X140964689Y-31736671D01*
X140898554Y-31714134D01*
X140859515Y-31669080D01*
X140858883Y-31667840D01*
X140812287Y-31576390D01*
X140780092Y-31532077D01*
X140691971Y-31410786D01*
X140547213Y-31266028D01*
X140381613Y-31145715D01*
X140381612Y-31145714D01*
X140381610Y-31145713D01*
X140324653Y-31116691D01*
X140199223Y-31052781D01*
X140004534Y-30989522D01*
X139829995Y-30961878D01*
X139802352Y-30957500D01*
X139597648Y-30957500D01*
X139573329Y-30961351D01*
X139395465Y-30989522D01*
X139200776Y-31052781D01*
X139018386Y-31145715D01*
X138852786Y-31266028D01*
X138708028Y-31410786D01*
X138587715Y-31576386D01*
X138540485Y-31669080D01*
X138492510Y-31719876D01*
X138424689Y-31736671D01*
X138358554Y-31714134D01*
X138319515Y-31669080D01*
X138318883Y-31667840D01*
X138272287Y-31576390D01*
X138240092Y-31532077D01*
X138151971Y-31410786D01*
X138007213Y-31266028D01*
X137841613Y-31145715D01*
X137841612Y-31145714D01*
X137841610Y-31145713D01*
X137784653Y-31116691D01*
X137659223Y-31052781D01*
X137464534Y-30989522D01*
X137289995Y-30961878D01*
X137262352Y-30957500D01*
X137057648Y-30957500D01*
X137033329Y-30961351D01*
X136855465Y-30989522D01*
X136660776Y-31052781D01*
X136478386Y-31145715D01*
X136312786Y-31266028D01*
X136168028Y-31410786D01*
X136047715Y-31576386D01*
X136000485Y-31669080D01*
X135952510Y-31719876D01*
X135884689Y-31736671D01*
X135818554Y-31714134D01*
X135779515Y-31669080D01*
X135778883Y-31667840D01*
X135732287Y-31576390D01*
X135700092Y-31532077D01*
X135611971Y-31410786D01*
X135467213Y-31266028D01*
X135301613Y-31145715D01*
X135301612Y-31145714D01*
X135301610Y-31145713D01*
X135244653Y-31116691D01*
X135119223Y-31052781D01*
X134924534Y-30989522D01*
X134749995Y-30961878D01*
X134722352Y-30957500D01*
X134517648Y-30957500D01*
X134493329Y-30961351D01*
X134315465Y-30989522D01*
X134120776Y-31052781D01*
X133938386Y-31145715D01*
X133772786Y-31266028D01*
X133628028Y-31410786D01*
X133507715Y-31576386D01*
X133460485Y-31669080D01*
X133412510Y-31719876D01*
X133344689Y-31736671D01*
X133278554Y-31714134D01*
X133239515Y-31669080D01*
X133238883Y-31667840D01*
X133192287Y-31576390D01*
X133160092Y-31532077D01*
X133071971Y-31410786D01*
X132927213Y-31266028D01*
X132761613Y-31145715D01*
X132761612Y-31145714D01*
X132761610Y-31145713D01*
X132704653Y-31116691D01*
X132579223Y-31052781D01*
X132384534Y-30989522D01*
X132209995Y-30961878D01*
X132182352Y-30957500D01*
X131977648Y-30957500D01*
X131953329Y-30961351D01*
X131775465Y-30989522D01*
X131580776Y-31052781D01*
X131398386Y-31145715D01*
X131232786Y-31266028D01*
X131088028Y-31410786D01*
X130967715Y-31576386D01*
X130920485Y-31669080D01*
X130872510Y-31719876D01*
X130804689Y-31736671D01*
X130738554Y-31714134D01*
X130699515Y-31669080D01*
X130698883Y-31667840D01*
X130652287Y-31576390D01*
X130620092Y-31532077D01*
X130531971Y-31410786D01*
X130387213Y-31266028D01*
X130221613Y-31145715D01*
X130221612Y-31145714D01*
X130221610Y-31145713D01*
X130164653Y-31116691D01*
X130039223Y-31052781D01*
X129844534Y-30989522D01*
X129669995Y-30961878D01*
X129642352Y-30957500D01*
X129437648Y-30957500D01*
X129413329Y-30961351D01*
X129235465Y-30989522D01*
X129040776Y-31052781D01*
X128858386Y-31145715D01*
X128692786Y-31266028D01*
X128548028Y-31410786D01*
X128427713Y-31576388D01*
X128380203Y-31669630D01*
X128332228Y-31720426D01*
X128264407Y-31737220D01*
X128198272Y-31714682D01*
X128159234Y-31669628D01*
X128111861Y-31576652D01*
X128079474Y-31532077D01*
X128079474Y-31532076D01*
X127523787Y-32087764D01*
X127512518Y-32045708D01*
X127440110Y-31920292D01*
X127337708Y-31817890D01*
X127212292Y-31745482D01*
X127170233Y-31734212D01*
X127725922Y-31178524D01*
X127725921Y-31178523D01*
X127681359Y-31146147D01*
X127681350Y-31146141D01*
X127499031Y-31053244D01*
X127304417Y-30990009D01*
X127102317Y-30958000D01*
X126897683Y-30958000D01*
X126695582Y-30990009D01*
X126500968Y-31053244D01*
X126318644Y-31146143D01*
X126274077Y-31178523D01*
X126274077Y-31178524D01*
X126829766Y-31734212D01*
X126787708Y-31745482D01*
X126662292Y-31817890D01*
X126559890Y-31920292D01*
X126487482Y-32045708D01*
X126476212Y-32087765D01*
X125920524Y-31532077D01*
X125920523Y-31532077D01*
X125888143Y-31576644D01*
X125795244Y-31758968D01*
X125732009Y-31953582D01*
X125700000Y-32155682D01*
X125700000Y-32360317D01*
X125732009Y-32562417D01*
X125795244Y-32757031D01*
X125888141Y-32939350D01*
X125888147Y-32939359D01*
X125920523Y-32983921D01*
X125920524Y-32983922D01*
X126476212Y-32428234D01*
X126487482Y-32470292D01*
X126559890Y-32595708D01*
X126662292Y-32698110D01*
X126787708Y-32770518D01*
X126829765Y-32781787D01*
X126274076Y-33337474D01*
X126318650Y-33369859D01*
X126500968Y-33462755D01*
X126695582Y-33525990D01*
X126897683Y-33558000D01*
X127102317Y-33558000D01*
X127304417Y-33525990D01*
X127499031Y-33462755D01*
X127681349Y-33369859D01*
X127725921Y-33337474D01*
X127170234Y-32781787D01*
X127212292Y-32770518D01*
X127337708Y-32698110D01*
X127440110Y-32595708D01*
X127512518Y-32470292D01*
X127523787Y-32428234D01*
X128079474Y-32983921D01*
X128111861Y-32939347D01*
X128111861Y-32939346D01*
X128159234Y-32846371D01*
X128207208Y-32795575D01*
X128275028Y-32778779D01*
X128341164Y-32801316D01*
X128380203Y-32846369D01*
X128427713Y-32939611D01*
X128548028Y-33105213D01*
X128692786Y-33249971D01*
X128798942Y-33327096D01*
X128858390Y-33370287D01*
X128948927Y-33416418D01*
X128951080Y-33417515D01*
X129001876Y-33465490D01*
X129018671Y-33533311D01*
X128996134Y-33599446D01*
X128951080Y-33638485D01*
X128858386Y-33685715D01*
X128692786Y-33806028D01*
X128548028Y-33950786D01*
X128427715Y-34116386D01*
X128334781Y-34298776D01*
X128271522Y-34493465D01*
X128239500Y-34695648D01*
X128239500Y-34900351D01*
X128271522Y-35102534D01*
X128334781Y-35297223D01*
X128427715Y-35479613D01*
X128548028Y-35645213D01*
X128692786Y-35789971D01*
X128847749Y-35902556D01*
X128858390Y-35910287D01*
X128951080Y-35957515D01*
X129040776Y-36003218D01*
X129040778Y-36003218D01*
X129040781Y-36003220D01*
X129145137Y-36037127D01*
X129235465Y-36066477D01*
X129254697Y-36069523D01*
X129437648Y-36098500D01*
X129437649Y-36098500D01*
X129642351Y-36098500D01*
X129642352Y-36098500D01*
X129844534Y-36066477D01*
X130039219Y-36003220D01*
X130221610Y-35910287D01*
X130314590Y-35842732D01*
X130387213Y-35789971D01*
X130387215Y-35789968D01*
X130387219Y-35789966D01*
X130531966Y-35645219D01*
X130531968Y-35645215D01*
X130531971Y-35645213D01*
X130584732Y-35572590D01*
X130652287Y-35479610D01*
X130745220Y-35297219D01*
X130808477Y-35102534D01*
X130840500Y-34900352D01*
X130840500Y-34695648D01*
X130808477Y-34493466D01*
X130808476Y-34493464D01*
X130745218Y-34298776D01*
X130699515Y-34209080D01*
X130652287Y-34116390D01*
X130644556Y-34105749D01*
X130531971Y-33950786D01*
X130387213Y-33806028D01*
X130221614Y-33685715D01*
X130206680Y-33678106D01*
X130128917Y-33638483D01*
X130078123Y-33590511D01*
X130061328Y-33522690D01*
X130083865Y-33456555D01*
X130128917Y-33417516D01*
X130221610Y-33370287D01*
X130316043Y-33301678D01*
X130387213Y-33249971D01*
X130387215Y-33249968D01*
X130387219Y-33249966D01*
X130531966Y-33105219D01*
X130531968Y-33105215D01*
X130531971Y-33105213D01*
X130646100Y-32948126D01*
X130652287Y-32939610D01*
X130699516Y-32846917D01*
X130747489Y-32796123D01*
X130815310Y-32779328D01*
X130881445Y-32801865D01*
X130920483Y-32846917D01*
X130963481Y-32931304D01*
X130967715Y-32939614D01*
X131088028Y-33105213D01*
X131232786Y-33249971D01*
X131338942Y-33327096D01*
X131398390Y-33370287D01*
X131488927Y-33416418D01*
X131580776Y-33463218D01*
X131580778Y-33463218D01*
X131580781Y-33463220D01*
X131623872Y-33477221D01*
X131775465Y-33526477D01*
X131794697Y-33529523D01*
X131977648Y-33558500D01*
X131977649Y-33558500D01*
X132182351Y-33558500D01*
X132182352Y-33558500D01*
X132384534Y-33526477D01*
X132579219Y-33463220D01*
X132761610Y-33370287D01*
X132882222Y-33282658D01*
X132927213Y-33249971D01*
X132927215Y-33249968D01*
X132927219Y-33249966D01*
X133071966Y-33105219D01*
X133071968Y-33105215D01*
X133071971Y-33105213D01*
X133186100Y-32948126D01*
X133192287Y-32939610D01*
X133239516Y-32846917D01*
X133287489Y-32796123D01*
X133355310Y-32779328D01*
X133421445Y-32801865D01*
X133460483Y-32846917D01*
X133503481Y-32931304D01*
X133507715Y-32939614D01*
X133628028Y-33105213D01*
X133772786Y-33249971D01*
X133878942Y-33327096D01*
X133938390Y-33370287D01*
X134028927Y-33416418D01*
X134120776Y-33463218D01*
X134120778Y-33463218D01*
X134120781Y-33463220D01*
X134163872Y-33477221D01*
X134315465Y-33526477D01*
X134334697Y-33529523D01*
X134517648Y-33558500D01*
X134517649Y-33558500D01*
X134722351Y-33558500D01*
X134722352Y-33558500D01*
X134924534Y-33526477D01*
X135119219Y-33463220D01*
X135301610Y-33370287D01*
X135422222Y-33282658D01*
X135467213Y-33249971D01*
X135467215Y-33249968D01*
X135467219Y-33249966D01*
X135611966Y-33105219D01*
X135611968Y-33105215D01*
X135611971Y-33105213D01*
X135726100Y-32948126D01*
X135732287Y-32939610D01*
X135779516Y-32846917D01*
X135827489Y-32796123D01*
X135895310Y-32779328D01*
X135961445Y-32801865D01*
X136000483Y-32846917D01*
X136043481Y-32931304D01*
X136047715Y-32939614D01*
X136168028Y-33105213D01*
X136312786Y-33249971D01*
X136418942Y-33327096D01*
X136478390Y-33370287D01*
X136568927Y-33416418D01*
X136660776Y-33463218D01*
X136660778Y-33463218D01*
X136660781Y-33463220D01*
X136703872Y-33477221D01*
X136855465Y-33526477D01*
X136874697Y-33529523D01*
X137057648Y-33558500D01*
X137057649Y-33558500D01*
X137262351Y-33558500D01*
X137262352Y-33558500D01*
X137464534Y-33526477D01*
X137659219Y-33463220D01*
X137841610Y-33370287D01*
X137962222Y-33282658D01*
X138007213Y-33249971D01*
X138007215Y-33249968D01*
X138007219Y-33249966D01*
X138151966Y-33105219D01*
X138151968Y-33105215D01*
X138151971Y-33105213D01*
X138266100Y-32948126D01*
X138272287Y-32939610D01*
X138319516Y-32846917D01*
X138367489Y-32796123D01*
X138435310Y-32779328D01*
X138501445Y-32801865D01*
X138540483Y-32846917D01*
X138583481Y-32931304D01*
X138587715Y-32939614D01*
X138708028Y-33105213D01*
X138852786Y-33249971D01*
X138958942Y-33327096D01*
X139018390Y-33370287D01*
X139108927Y-33416418D01*
X139200776Y-33463218D01*
X139200778Y-33463218D01*
X139200781Y-33463220D01*
X139243872Y-33477221D01*
X139395465Y-33526477D01*
X139414697Y-33529523D01*
X139597648Y-33558500D01*
X139597649Y-33558500D01*
X139802351Y-33558500D01*
X139802352Y-33558500D01*
X140004534Y-33526477D01*
X140199219Y-33463220D01*
X140381610Y-33370287D01*
X140502222Y-33282658D01*
X140547213Y-33249971D01*
X140547215Y-33249968D01*
X140547219Y-33249966D01*
X140691966Y-33105219D01*
X140691968Y-33105215D01*
X140691971Y-33105213D01*
X140806100Y-32948126D01*
X140812287Y-32939610D01*
X140859516Y-32846917D01*
X140907489Y-32796123D01*
X140975310Y-32779328D01*
X141041445Y-32801865D01*
X141080483Y-32846917D01*
X141123481Y-32931304D01*
X141127715Y-32939614D01*
X141248028Y-33105213D01*
X141392786Y-33249971D01*
X141498942Y-33327096D01*
X141558390Y-33370287D01*
X141648927Y-33416418D01*
X141740776Y-33463218D01*
X141740778Y-33463218D01*
X141740781Y-33463220D01*
X141783872Y-33477221D01*
X141935465Y-33526477D01*
X141954697Y-33529523D01*
X142137648Y-33558500D01*
X142137649Y-33558500D01*
X142342351Y-33558500D01*
X142342352Y-33558500D01*
X142544534Y-33526477D01*
X142739219Y-33463220D01*
X142921610Y-33370287D01*
X143042222Y-33282658D01*
X143087213Y-33249971D01*
X143087215Y-33249968D01*
X143087219Y-33249966D01*
X143231966Y-33105219D01*
X143231968Y-33105215D01*
X143231971Y-33105213D01*
X143346100Y-32948126D01*
X143352287Y-32939610D01*
X143399516Y-32846917D01*
X143447489Y-32796123D01*
X143515310Y-32779328D01*
X143581445Y-32801865D01*
X143620483Y-32846917D01*
X143663481Y-32931304D01*
X143667715Y-32939614D01*
X143788028Y-33105213D01*
X143932786Y-33249971D01*
X144038942Y-33327096D01*
X144098390Y-33370287D01*
X144188927Y-33416418D01*
X144280776Y-33463218D01*
X144280778Y-33463218D01*
X144280781Y-33463220D01*
X144323872Y-33477221D01*
X144475465Y-33526477D01*
X144494697Y-33529523D01*
X144677648Y-33558500D01*
X144677649Y-33558500D01*
X144882351Y-33558500D01*
X144882352Y-33558500D01*
X145084534Y-33526477D01*
X145279219Y-33463220D01*
X145461610Y-33370287D01*
X145582222Y-33282658D01*
X145627213Y-33249971D01*
X145627215Y-33249968D01*
X145627219Y-33249966D01*
X145771966Y-33105219D01*
X145771968Y-33105215D01*
X145771971Y-33105213D01*
X145886100Y-32948126D01*
X145892287Y-32939610D01*
X145939516Y-32846917D01*
X145987489Y-32796123D01*
X146055310Y-32779328D01*
X146121445Y-32801865D01*
X146160483Y-32846917D01*
X146203481Y-32931304D01*
X146207715Y-32939614D01*
X146328028Y-33105213D01*
X146472786Y-33249971D01*
X146578942Y-33327096D01*
X146638390Y-33370287D01*
X146728927Y-33416418D01*
X146820776Y-33463218D01*
X146820778Y-33463218D01*
X146820781Y-33463220D01*
X146863872Y-33477221D01*
X147015465Y-33526477D01*
X147034697Y-33529523D01*
X147217648Y-33558500D01*
X147217649Y-33558500D01*
X147422351Y-33558500D01*
X147422352Y-33558500D01*
X147624534Y-33526477D01*
X147819219Y-33463220D01*
X148001610Y-33370287D01*
X148122222Y-33282658D01*
X148167213Y-33249971D01*
X148167215Y-33249968D01*
X148167219Y-33249966D01*
X148311966Y-33105219D01*
X148311968Y-33105215D01*
X148311971Y-33105213D01*
X148426100Y-32948126D01*
X148432287Y-32939610D01*
X148479516Y-32846917D01*
X148527489Y-32796123D01*
X148595310Y-32779328D01*
X148661445Y-32801865D01*
X148700483Y-32846917D01*
X148743481Y-32931304D01*
X148747715Y-32939614D01*
X148868028Y-33105213D01*
X149012786Y-33249971D01*
X149118942Y-33327096D01*
X149178390Y-33370287D01*
X149268927Y-33416418D01*
X149360776Y-33463218D01*
X149360778Y-33463218D01*
X149360781Y-33463220D01*
X149403872Y-33477221D01*
X149555465Y-33526477D01*
X149574697Y-33529523D01*
X149757648Y-33558500D01*
X149757649Y-33558500D01*
X149962351Y-33558500D01*
X149962352Y-33558500D01*
X150164534Y-33526477D01*
X150359219Y-33463220D01*
X150541610Y-33370287D01*
X150662222Y-33282658D01*
X150707213Y-33249971D01*
X150707215Y-33249968D01*
X150707219Y-33249966D01*
X150851966Y-33105219D01*
X150851968Y-33105215D01*
X150851971Y-33105213D01*
X150966100Y-32948126D01*
X150972287Y-32939610D01*
X151019516Y-32846917D01*
X151067489Y-32796123D01*
X151135310Y-32779328D01*
X151201445Y-32801865D01*
X151240483Y-32846917D01*
X151283481Y-32931304D01*
X151287715Y-32939614D01*
X151408028Y-33105213D01*
X151552786Y-33249971D01*
X151658942Y-33327096D01*
X151718390Y-33370287D01*
X151808927Y-33416418D01*
X151811080Y-33417515D01*
X151861876Y-33465490D01*
X151878671Y-33533311D01*
X151856134Y-33599446D01*
X151811080Y-33638485D01*
X151718386Y-33685715D01*
X151552786Y-33806028D01*
X151408028Y-33950786D01*
X151287715Y-34116386D01*
X151194781Y-34298776D01*
X151131522Y-34493465D01*
X151099500Y-34695648D01*
X151099500Y-34900351D01*
X151131522Y-35102534D01*
X151194781Y-35297223D01*
X151287715Y-35479613D01*
X151408028Y-35645213D01*
X151552786Y-35789971D01*
X151707749Y-35902556D01*
X151718390Y-35910287D01*
X151809840Y-35956883D01*
X151811080Y-35957515D01*
X151861876Y-36005490D01*
X151878671Y-36073311D01*
X151856134Y-36139446D01*
X151811080Y-36178485D01*
X151718386Y-36225715D01*
X151552786Y-36346028D01*
X151408028Y-36490786D01*
X151287715Y-36656386D01*
X151194781Y-36838776D01*
X151131522Y-37033465D01*
X151099500Y-37235648D01*
X151099500Y-37440352D01*
X151100675Y-37447772D01*
X151131522Y-37642534D01*
X151194781Y-37837223D01*
X151287715Y-38019613D01*
X151408028Y-38185213D01*
X151552786Y-38329971D01*
X151707749Y-38442556D01*
X151718390Y-38450287D01*
X151809840Y-38496883D01*
X151811080Y-38497515D01*
X151861876Y-38545490D01*
X151878671Y-38613311D01*
X151856134Y-38679446D01*
X151811080Y-38718485D01*
X151718386Y-38765715D01*
X151552786Y-38886028D01*
X151408028Y-39030786D01*
X151287715Y-39196386D01*
X151194781Y-39378776D01*
X151131522Y-39573465D01*
X151099500Y-39775648D01*
X151099500Y-39980351D01*
X151131522Y-40182534D01*
X151194781Y-40377223D01*
X151258691Y-40502653D01*
X151276425Y-40537457D01*
X151287715Y-40559613D01*
X151408028Y-40725213D01*
X151552786Y-40869971D01*
X151707749Y-40982556D01*
X151718390Y-40990287D01*
X151809840Y-41036883D01*
X151811080Y-41037515D01*
X151861876Y-41085490D01*
X151878671Y-41153311D01*
X151856134Y-41219446D01*
X151811080Y-41258485D01*
X151718386Y-41305715D01*
X151552786Y-41426028D01*
X151408028Y-41570786D01*
X151287715Y-41736386D01*
X151194781Y-41918776D01*
X151131522Y-42113465D01*
X151099500Y-42315648D01*
X151099500Y-42520351D01*
X151131522Y-42722534D01*
X151194781Y-42917223D01*
X151287715Y-43099613D01*
X151408028Y-43265213D01*
X151552786Y-43409971D01*
X151707749Y-43522556D01*
X151718390Y-43530287D01*
X151809840Y-43576883D01*
X151811080Y-43577515D01*
X151861876Y-43625490D01*
X151878671Y-43693311D01*
X151856134Y-43759446D01*
X151811080Y-43798485D01*
X151718386Y-43845715D01*
X151552786Y-43966028D01*
X151408028Y-44110786D01*
X151287715Y-44276386D01*
X151194781Y-44458776D01*
X151131522Y-44653465D01*
X151110619Y-44785446D01*
X151099500Y-44855648D01*
X151099500Y-45060352D01*
X151100675Y-45067772D01*
X151131522Y-45262534D01*
X151194781Y-45457223D01*
X151258691Y-45582653D01*
X151287174Y-45638553D01*
X151287715Y-45639613D01*
X151408028Y-45805213D01*
X151552786Y-45949971D01*
X151687732Y-46048013D01*
X151718390Y-46070287D01*
X151801236Y-46112499D01*
X151811080Y-46117515D01*
X151861876Y-46165490D01*
X151878671Y-46233311D01*
X151856134Y-46299446D01*
X151811080Y-46338485D01*
X151718386Y-46385715D01*
X151552786Y-46506028D01*
X151408028Y-46650786D01*
X151287715Y-46816386D01*
X151240485Y-46909080D01*
X151192510Y-46959876D01*
X151124689Y-46976671D01*
X151058554Y-46954134D01*
X151019515Y-46909080D01*
X150997205Y-46865295D01*
X150972287Y-46816390D01*
X150945391Y-46779370D01*
X150851971Y-46650786D01*
X150707213Y-46506028D01*
X150541613Y-46385715D01*
X150541612Y-46385714D01*
X150541610Y-46385713D01*
X150484653Y-46356691D01*
X150359223Y-46292781D01*
X150164534Y-46229522D01*
X149989995Y-46201878D01*
X149962352Y-46197500D01*
X149757648Y-46197500D01*
X149733329Y-46201351D01*
X149555465Y-46229522D01*
X149360776Y-46292781D01*
X149178386Y-46385715D01*
X149012786Y-46506028D01*
X148868028Y-46650786D01*
X148747715Y-46816386D01*
X148700485Y-46909080D01*
X148652510Y-46959876D01*
X148584689Y-46976671D01*
X148518554Y-46954134D01*
X148479515Y-46909080D01*
X148457205Y-46865295D01*
X148432287Y-46816390D01*
X148405391Y-46779370D01*
X148311971Y-46650786D01*
X148167213Y-46506028D01*
X148001613Y-46385715D01*
X148001612Y-46385714D01*
X148001610Y-46385713D01*
X147944653Y-46356691D01*
X147819223Y-46292781D01*
X147624534Y-46229522D01*
X147449995Y-46201878D01*
X147422352Y-46197500D01*
X147217648Y-46197500D01*
X147193329Y-46201351D01*
X147015465Y-46229522D01*
X146820776Y-46292781D01*
X146638386Y-46385715D01*
X146472786Y-46506028D01*
X146328028Y-46650786D01*
X146207715Y-46816386D01*
X146160485Y-46909080D01*
X146112510Y-46959876D01*
X146044689Y-46976671D01*
X145978554Y-46954134D01*
X145939515Y-46909080D01*
X145917205Y-46865295D01*
X145892287Y-46816390D01*
X145865391Y-46779370D01*
X145771971Y-46650786D01*
X145627213Y-46506028D01*
X145461613Y-46385715D01*
X145461612Y-46385714D01*
X145461610Y-46385713D01*
X145404653Y-46356691D01*
X145279223Y-46292781D01*
X145084534Y-46229522D01*
X144909995Y-46201878D01*
X144882352Y-46197500D01*
X144677648Y-46197500D01*
X144653329Y-46201351D01*
X144475465Y-46229522D01*
X144280776Y-46292781D01*
X144098386Y-46385715D01*
X143932786Y-46506028D01*
X143788028Y-46650786D01*
X143667715Y-46816386D01*
X143620485Y-46909080D01*
X143572510Y-46959876D01*
X143504689Y-46976671D01*
X143438554Y-46954134D01*
X143399515Y-46909080D01*
X143377205Y-46865295D01*
X143352287Y-46816390D01*
X143325391Y-46779370D01*
X143231971Y-46650786D01*
X143087213Y-46506028D01*
X142921613Y-46385715D01*
X142921612Y-46385714D01*
X142921610Y-46385713D01*
X142864653Y-46356691D01*
X142739223Y-46292781D01*
X142544534Y-46229522D01*
X142369995Y-46201878D01*
X142342352Y-46197500D01*
X142137648Y-46197500D01*
X142113329Y-46201351D01*
X141935465Y-46229522D01*
X141740776Y-46292781D01*
X141558386Y-46385715D01*
X141392786Y-46506028D01*
X141248028Y-46650786D01*
X141127715Y-46816386D01*
X141080485Y-46909080D01*
X141032510Y-46959876D01*
X140964689Y-46976671D01*
X140898554Y-46954134D01*
X140859515Y-46909080D01*
X140837205Y-46865295D01*
X140812287Y-46816390D01*
X140785391Y-46779370D01*
X140691971Y-46650786D01*
X140547213Y-46506028D01*
X140381613Y-46385715D01*
X140381612Y-46385714D01*
X140381610Y-46385713D01*
X140324653Y-46356691D01*
X140199223Y-46292781D01*
X140004534Y-46229522D01*
X139829995Y-46201878D01*
X139802352Y-46197500D01*
X139597648Y-46197500D01*
X139573329Y-46201351D01*
X139395465Y-46229522D01*
X139200776Y-46292781D01*
X139018386Y-46385715D01*
X138852786Y-46506028D01*
X138708028Y-46650786D01*
X138587715Y-46816386D01*
X138540485Y-46909080D01*
X138492510Y-46959876D01*
X138424689Y-46976671D01*
X138358554Y-46954134D01*
X138319515Y-46909080D01*
X138297205Y-46865295D01*
X138272287Y-46816390D01*
X138245391Y-46779370D01*
X138151971Y-46650786D01*
X138007213Y-46506028D01*
X137841613Y-46385715D01*
X137841612Y-46385714D01*
X137841610Y-46385713D01*
X137784653Y-46356691D01*
X137659223Y-46292781D01*
X137464534Y-46229522D01*
X137289995Y-46201878D01*
X137262352Y-46197500D01*
X137057648Y-46197500D01*
X137033329Y-46201351D01*
X136855465Y-46229522D01*
X136660776Y-46292781D01*
X136478386Y-46385715D01*
X136312786Y-46506028D01*
X136168028Y-46650786D01*
X136047715Y-46816386D01*
X136000485Y-46909080D01*
X135952510Y-46959876D01*
X135884689Y-46976671D01*
X135818554Y-46954134D01*
X135779515Y-46909080D01*
X135757205Y-46865295D01*
X135732287Y-46816390D01*
X135705391Y-46779370D01*
X135611971Y-46650786D01*
X135467213Y-46506028D01*
X135301613Y-46385715D01*
X135301612Y-46385714D01*
X135301610Y-46385713D01*
X135244653Y-46356691D01*
X135119223Y-46292781D01*
X134924534Y-46229522D01*
X134749995Y-46201878D01*
X134722352Y-46197500D01*
X134517648Y-46197500D01*
X134493329Y-46201351D01*
X134315465Y-46229522D01*
X134120776Y-46292781D01*
X133938386Y-46385715D01*
X133772786Y-46506028D01*
X133628028Y-46650786D01*
X133507715Y-46816386D01*
X133460485Y-46909080D01*
X133412510Y-46959876D01*
X133344689Y-46976671D01*
X133278554Y-46954134D01*
X133239515Y-46909080D01*
X133217205Y-46865295D01*
X133192287Y-46816390D01*
X133165391Y-46779370D01*
X133071971Y-46650786D01*
X132927213Y-46506028D01*
X132761613Y-46385715D01*
X132761612Y-46385714D01*
X132761610Y-46385713D01*
X132704653Y-46356691D01*
X132579223Y-46292781D01*
X132384534Y-46229522D01*
X132209995Y-46201878D01*
X132182352Y-46197500D01*
X131977648Y-46197500D01*
X131953329Y-46201351D01*
X131775465Y-46229522D01*
X131580776Y-46292781D01*
X131398386Y-46385715D01*
X131232786Y-46506028D01*
X131088028Y-46650786D01*
X130967715Y-46816386D01*
X130920485Y-46909080D01*
X130872510Y-46959876D01*
X130804689Y-46976671D01*
X130738554Y-46954134D01*
X130699515Y-46909080D01*
X130677205Y-46865295D01*
X130652287Y-46816390D01*
X130625391Y-46779370D01*
X130531971Y-46650786D01*
X130387213Y-46506028D01*
X130221613Y-46385715D01*
X130221612Y-46385714D01*
X130221610Y-46385713D01*
X130164653Y-46356691D01*
X130039223Y-46292781D01*
X129844534Y-46229522D01*
X129669995Y-46201878D01*
X129642352Y-46197500D01*
X129437648Y-46197500D01*
X129413329Y-46201351D01*
X129235465Y-46229522D01*
X129040776Y-46292781D01*
X128858386Y-46385715D01*
X128692786Y-46506028D01*
X128548028Y-46650786D01*
X128427715Y-46816386D01*
X128380485Y-46909080D01*
X128332510Y-46959876D01*
X128264689Y-46976671D01*
X128198554Y-46954134D01*
X128159515Y-46909080D01*
X128137205Y-46865295D01*
X128112287Y-46816390D01*
X128085391Y-46779370D01*
X127991971Y-46650786D01*
X127847213Y-46506028D01*
X127681613Y-46385715D01*
X127681612Y-46385714D01*
X127681610Y-46385713D01*
X127624653Y-46356691D01*
X127499223Y-46292781D01*
X127304534Y-46229522D01*
X127129995Y-46201878D01*
X127102352Y-46197500D01*
X126897648Y-46197500D01*
X126873329Y-46201351D01*
X126695465Y-46229522D01*
X126500776Y-46292781D01*
X126318386Y-46385715D01*
X126152786Y-46506028D01*
X126008028Y-46650786D01*
X125887715Y-46816386D01*
X125794781Y-46998776D01*
X125731522Y-47193465D01*
X125699500Y-47395648D01*
X123169878Y-47395648D01*
X123139709Y-47205173D01*
X123087852Y-47045575D01*
X123078884Y-47017975D01*
X123078882Y-47017972D01*
X123078882Y-47017970D01*
X123030982Y-46923961D01*
X122989524Y-46842595D01*
X122873828Y-46683354D01*
X122734646Y-46544172D01*
X122575405Y-46428476D01*
X122400029Y-46339117D01*
X122212826Y-46278290D01*
X122018422Y-46247500D01*
X122018417Y-46247500D01*
X121821583Y-46247500D01*
X121821578Y-46247500D01*
X121627173Y-46278290D01*
X121439970Y-46339117D01*
X121264594Y-46428476D01*
X121173741Y-46494485D01*
X121105354Y-46544172D01*
X121105352Y-46544174D01*
X121105351Y-46544174D01*
X120966174Y-46683351D01*
X120966174Y-46683352D01*
X120966172Y-46683354D01*
X120954083Y-46699993D01*
X120850476Y-46842594D01*
X120761117Y-47017970D01*
X120700290Y-47205173D01*
X120669500Y-47399577D01*
X119380500Y-47399577D01*
X119380500Y-33301677D01*
X121229873Y-33301677D01*
X121229873Y-33301678D01*
X121264858Y-33327096D01*
X121440164Y-33416418D01*
X121627294Y-33477221D01*
X121821618Y-33508000D01*
X122018382Y-33508000D01*
X122212705Y-33477221D01*
X122399835Y-33416418D01*
X122575143Y-33327095D01*
X122610126Y-33301678D01*
X121920001Y-32611553D01*
X121920000Y-32611553D01*
X121229873Y-33301677D01*
X119380500Y-33301677D01*
X119380500Y-32159617D01*
X120670000Y-32159617D01*
X120670000Y-32356382D01*
X120700778Y-32550705D01*
X120761581Y-32737835D01*
X120850905Y-32913145D01*
X120876319Y-32948125D01*
X120876320Y-32948125D01*
X121566446Y-32258000D01*
X121566446Y-32257999D01*
X121520369Y-32211922D01*
X121570000Y-32211922D01*
X121570000Y-32304078D01*
X121593852Y-32393095D01*
X121639930Y-32472905D01*
X121705095Y-32538070D01*
X121784905Y-32584148D01*
X121873922Y-32608000D01*
X121966078Y-32608000D01*
X122055095Y-32584148D01*
X122134905Y-32538070D01*
X122200070Y-32472905D01*
X122246148Y-32393095D01*
X122270000Y-32304078D01*
X122270000Y-32257999D01*
X122273553Y-32257999D01*
X122273553Y-32258001D01*
X122963678Y-32948126D01*
X122963678Y-32948125D01*
X122989095Y-32913143D01*
X123078418Y-32737835D01*
X123139221Y-32550705D01*
X123170000Y-32356382D01*
X123170000Y-32159617D01*
X123139221Y-31965294D01*
X123078418Y-31778164D01*
X122989096Y-31602858D01*
X122963678Y-31567873D01*
X122963677Y-31567873D01*
X122273553Y-32257999D01*
X122270000Y-32257999D01*
X122270000Y-32211922D01*
X122246148Y-32122905D01*
X122200070Y-32043095D01*
X122134905Y-31977930D01*
X122055095Y-31931852D01*
X121966078Y-31908000D01*
X121873922Y-31908000D01*
X121784905Y-31931852D01*
X121705095Y-31977930D01*
X121639930Y-32043095D01*
X121593852Y-32122905D01*
X121570000Y-32211922D01*
X121520369Y-32211922D01*
X120876320Y-31567872D01*
X120876320Y-31567873D01*
X120850902Y-31602859D01*
X120850899Y-31602863D01*
X120761582Y-31778161D01*
X120700778Y-31965294D01*
X120670000Y-32159617D01*
X119380500Y-32159617D01*
X119380500Y-31214320D01*
X121229872Y-31214320D01*
X121920000Y-31904446D01*
X121920001Y-31904446D01*
X122610125Y-31214320D01*
X122610125Y-31214319D01*
X122575145Y-31188905D01*
X122399835Y-31099581D01*
X122212705Y-31038778D01*
X122018382Y-31008000D01*
X121821618Y-31008000D01*
X121627294Y-31038778D01*
X121440161Y-31099582D01*
X121264863Y-31188899D01*
X121264859Y-31188902D01*
X121229873Y-31214320D01*
X121229872Y-31214320D01*
X119380500Y-31214320D01*
X119380500Y-28307334D01*
X119397113Y-28245334D01*
X119439577Y-28171784D01*
X119476923Y-28032404D01*
X119513287Y-27972746D01*
X119576134Y-27942217D01*
X119596697Y-27940500D01*
X204599500Y-27940500D01*
X204666539Y-27960185D01*
G37*
%TD.AperFunction*%
%TD*%
M02*
