%TF.GenerationSoftware,KiCad,Pcbnew,9.0.3*%
%TF.CreationDate,2025-08-21T23:13:22+10:00*%
%TF.ProjectId,soundrocket,736f756e-6472-46f6-936b-65742e6b6963,rev?*%
%TF.SameCoordinates,Original*%
%TF.FileFunction,Soldermask,Top*%
%TF.FilePolarity,Negative*%
%FSLAX46Y46*%
G04 Gerber Fmt 4.6, Leading zero omitted, Abs format (unit mm)*
G04 Created by KiCad (PCBNEW 9.0.3) date 2025-08-21 23:13:22*
%MOMM*%
%LPD*%
G01*
G04 APERTURE LIST*
G04 Aperture macros list*
%AMRoundRect*
0 Rectangle with rounded corners*
0 $1 Rounding radius*
0 $2 $3 $4 $5 $6 $7 $8 $9 X,Y pos of 4 corners*
0 Add a 4 corners polygon primitive as box body*
4,1,4,$2,$3,$4,$5,$6,$7,$8,$9,$2,$3,0*
0 Add four circle primitives for the rounded corners*
1,1,$1+$1,$2,$3*
1,1,$1+$1,$4,$5*
1,1,$1+$1,$6,$7*
1,1,$1+$1,$8,$9*
0 Add four rect primitives between the rounded corners*
20,1,$1+$1,$2,$3,$4,$5,0*
20,1,$1+$1,$4,$5,$6,$7,0*
20,1,$1+$1,$6,$7,$8,$9,0*
20,1,$1+$1,$8,$9,$2,$3,0*%
G04 Aperture macros list end*
%ADD10RoundRect,0.102000X0.659000X0.659000X-0.659000X0.659000X-0.659000X-0.659000X0.659000X-0.659000X0*%
%ADD11C,1.522000*%
%ADD12C,1.600000*%
%ADD13RoundRect,0.250000X0.550000X0.550000X-0.550000X0.550000X-0.550000X-0.550000X0.550000X-0.550000X0*%
%ADD14O,4.100000X3.000000*%
%ADD15RoundRect,0.102000X-0.659000X0.659000X-0.659000X-0.659000X0.659000X-0.659000X0.659000X0.659000X0*%
%ADD16C,3.400000*%
%ADD17C,2.900000*%
%ADD18R,1.397000X1.397000*%
%ADD19C,1.397000*%
%ADD20RoundRect,0.102000X-0.698500X-0.698500X0.698500X-0.698500X0.698500X0.698500X-0.698500X0.698500X0*%
%ADD21C,1.601000*%
%ADD22C,1.500000*%
%ADD23RoundRect,0.102000X-0.659000X-0.659000X0.659000X-0.659000X0.659000X0.659000X-0.659000X0.659000X0*%
%ADD24RoundRect,0.076750X-0.230250X0.810250X-0.230250X-0.810250X0.230250X-0.810250X0.230250X0.810250X0*%
%ADD25RoundRect,0.102000X0.659000X-0.659000X0.659000X0.659000X-0.659000X0.659000X-0.659000X-0.659000X0*%
%ADD26O,1.900000X3.200000*%
G04 APERTURE END LIST*
D10*
%TO.C,C4*%
X142240000Y-53340000D03*
D11*
X139700000Y-53340000D03*
%TD*%
D12*
%TO.C,U1*%
X127000000Y-47498000D03*
X129540000Y-47498000D03*
X132080000Y-47498000D03*
X134620000Y-47498000D03*
X137160000Y-47498000D03*
X139700000Y-47498000D03*
X142240000Y-47498000D03*
X144780000Y-47498000D03*
X147320000Y-47498000D03*
X149860000Y-47498000D03*
X152400000Y-47498000D03*
X154940000Y-47498000D03*
X157480000Y-47498000D03*
X160020000Y-47498000D03*
X160020000Y-44958000D03*
X160020000Y-42418000D03*
X160020000Y-39878000D03*
X160020000Y-37338000D03*
X160020000Y-34798000D03*
X160020000Y-32258000D03*
X157480000Y-32258000D03*
X154940000Y-32258000D03*
X152400000Y-32258000D03*
X149860000Y-32258000D03*
X147320000Y-32258000D03*
X144780000Y-32258000D03*
X142240000Y-32258000D03*
X139700000Y-32258000D03*
X137160000Y-32258000D03*
X134620000Y-32258000D03*
X132080000Y-32258000D03*
X129540000Y-32258000D03*
X127000000Y-32258000D03*
X129540000Y-34798000D03*
X154940000Y-34798000D03*
X152400000Y-34798000D03*
X154940000Y-37338000D03*
X152400000Y-37338000D03*
X154940000Y-39878000D03*
X152400000Y-39878000D03*
X154940000Y-42418000D03*
X152400000Y-42418000D03*
X154940000Y-44958000D03*
X152400000Y-44958000D03*
%TD*%
D13*
%TO.C,SW2*%
X162190000Y-66000000D03*
D12*
X162190000Y-61000000D03*
X162190000Y-63500000D03*
X147690000Y-66000000D03*
X147690000Y-61000000D03*
D14*
X154690000Y-69100000D03*
X154690000Y-57900000D03*
%TD*%
D15*
%TO.C,C2*%
X143510000Y-57912000D03*
D11*
X143510000Y-60452000D03*
%TD*%
D16*
%TO.C,J1*%
X187198000Y-41783000D03*
X194818000Y-41783000D03*
X191008000Y-45593000D03*
D17*
X191008000Y-50038000D03*
%TD*%
D18*
%TO.C,R4*%
X171958000Y-52705000D03*
D19*
X171958000Y-64135000D03*
%TD*%
D20*
%TO.C,T1*%
X187706000Y-67056000D03*
D21*
X187706000Y-61976000D03*
X197866000Y-67056000D03*
X197866000Y-61976000D03*
%TD*%
D18*
%TO.C,R3*%
X167640000Y-52705000D03*
D19*
X167640000Y-64135000D03*
%TD*%
D22*
%TO.C,GND*%
X121920000Y-47498000D03*
%TD*%
D18*
%TO.C,R5*%
X122428000Y-51308000D03*
D19*
X122428000Y-62738000D03*
%TD*%
D22*
%TO.C,5V*%
X121920000Y-32258000D03*
%TD*%
D23*
%TO.C,C3*%
X144780000Y-53340000D03*
D11*
X147320000Y-53340000D03*
%TD*%
D24*
%TO.C,U2*%
X175440000Y-36817500D03*
X174790000Y-36817500D03*
X174140000Y-36817500D03*
X173490000Y-36817500D03*
X172840000Y-36817500D03*
X172190000Y-36817500D03*
X171540000Y-36817500D03*
X170890000Y-36817500D03*
X170240000Y-36817500D03*
X169590000Y-36817500D03*
X168940000Y-36817500D03*
X168290000Y-36817500D03*
X167640000Y-36817500D03*
X166990000Y-36817500D03*
X166990000Y-42557500D03*
X167640000Y-42557500D03*
X168290000Y-42557500D03*
X168940000Y-42557500D03*
X169590000Y-42557500D03*
X170240000Y-42557500D03*
X170890000Y-42557500D03*
X171540000Y-42557500D03*
X172190000Y-42557500D03*
X172840000Y-42557500D03*
X173490000Y-42557500D03*
X174140000Y-42557500D03*
X174790000Y-42557500D03*
X175440000Y-42557500D03*
%TD*%
D25*
%TO.C,C1*%
X131826000Y-53340000D03*
D11*
X131826000Y-50800000D03*
%TD*%
D18*
%TO.C,R2*%
X165608000Y-67310000D03*
D19*
X177038000Y-67310000D03*
%TD*%
D26*
%TO.C,SW1*%
X129366000Y-56996000D03*
X134366000Y-56996000D03*
X129366000Y-69496000D03*
X134366000Y-69496000D03*
%TD*%
D18*
%TO.C,R1*%
X165608000Y-71374000D03*
D19*
X177038000Y-71374000D03*
%TD*%
M02*
