M48
; DRILL file {KiCad 9.0.3} date 2025-08-09T12:17:51+1000
; FORMAT={-:-/ absolute / metric / decimal}
; #@! TF.CreationDate,2025-08-09T12:17:51+10:00
; #@! TF.GenerationSoftware,Kicad,Pcbnew,9.0.3
; #@! TF.FileFunction,Plated,1,4,PTH
FMAT,2
METRIC
; #@! TA.AperFunction,Plated,PTH,ViaDrill
T1C0.400
; #@! TA.AperFunction,Plated,PTH,ComponentDrill
T2C0.700
; #@! TA.AperFunction,Plated,PTH,ComponentDrill
T3C0.810
; #@! TA.AperFunction,Plated,PTH,ComponentDrill
T4C0.889
; #@! TA.AperFunction,Plated,PTH,ComponentDrill
T5C1.100
%
G90
G05
T1
X159.258Y-49.53
X161.798Y-47.498
X165.354Y-42.926
X168.148Y-41.148
X170.18Y-31.496
X172.212Y-30.226
X172.72Y-41.148
X174.244Y-30.226
X174.752Y-41.148
T2
X123.952Y-32.258
X123.952Y-47.498
X130.81Y-53.34
X135.89Y-53.34
X157.48Y-54.61
X162.052Y-54.61
T3
X125.222Y-53.34
X127.762Y-53.34
X138.938Y-53.34
X141.478Y-53.34
X147.32Y-52.324
X147.32Y-54.864
X152.4Y-52.324
X152.4Y-54.864
T4
X169.672Y-43.688
X169.672Y-53.848
X174.752Y-43.688
X174.752Y-53.848
T5
X127.0Y-32.258
X127.0Y-47.498
X129.54Y-32.258
X129.54Y-34.798
X129.54Y-47.498
X132.08Y-32.258
X132.08Y-47.498
X134.62Y-32.258
X134.62Y-47.498
X137.16Y-32.258
X137.16Y-47.498
X139.7Y-32.258
X139.7Y-47.498
X142.24Y-32.258
X142.24Y-47.498
X144.78Y-32.258
X144.78Y-47.498
X147.32Y-32.258
X147.32Y-47.498
X149.86Y-32.258
X149.86Y-47.498
X152.4Y-32.258
X152.4Y-34.798
X152.4Y-37.338
X152.4Y-39.878
X152.4Y-42.418
X152.4Y-44.958
X152.4Y-47.498
X154.94Y-32.258
X154.94Y-34.798
X154.94Y-37.338
X154.94Y-39.878
X154.94Y-42.418
X154.94Y-44.958
X154.94Y-47.498
X157.48Y-32.258
X157.48Y-47.498
X160.02Y-32.258
X160.02Y-34.798
X160.02Y-37.338
X160.02Y-39.878
X160.02Y-42.418
X160.02Y-44.958
X160.02Y-47.498
M30
