%TF.GenerationSoftware,KiCad,Pcbnew,9.0.3*%
%TF.CreationDate,2025-08-09T12:17:42+10:00*%
%TF.ProjectId,soundrocket,736f756e-6472-46f6-936b-65742e6b6963,rev?*%
%TF.SameCoordinates,Original*%
%TF.FileFunction,Copper,L3,Inr*%
%TF.FilePolarity,Positive*%
%FSLAX46Y46*%
G04 Gerber Fmt 4.6, Leading zero omitted, Abs format (unit mm)*
G04 Created by KiCad (PCBNEW 9.0.3) date 2025-08-09 12:17:42*
%MOMM*%
%LPD*%
G01*
G04 APERTURE LIST*
%TA.AperFunction,ComponentPad*%
%ADD10R,1.318000X1.318000*%
%TD*%
%TA.AperFunction,ComponentPad*%
%ADD11C,1.318000*%
%TD*%
%TA.AperFunction,ComponentPad*%
%ADD12C,1.600000*%
%TD*%
%TA.AperFunction,ComponentPad*%
%ADD13C,1.500000*%
%TD*%
%TA.AperFunction,ComponentPad*%
%ADD14R,1.397000X1.397000*%
%TD*%
%TA.AperFunction,ComponentPad*%
%ADD15C,1.397000*%
%TD*%
%TA.AperFunction,ViaPad*%
%ADD16C,0.800000*%
%TD*%
G04 APERTURE END LIST*
D10*
%TO.N,Net-(U1-5_IN2)*%
%TO.C,C2*%
X147320000Y-52324000D03*
D11*
%TO.N,GND*%
X147320000Y-54864000D03*
%TD*%
D12*
%TO.N,unconnected-(U1-GND-Pad1)*%
%TO.C,U1*%
X127000000Y-47498000D03*
%TO.N,Net-(U1-0_RX1_CRX2_CS1)*%
X129540000Y-47498000D03*
%TO.N,unconnected-(U1-1_TX1_CTX2_MISO1-Pad3)*%
X132080000Y-47498000D03*
%TO.N,Net-(U1-2_OUT2)*%
X134620000Y-47498000D03*
%TO.N,Net-(U1-3_LRCLK2)*%
X137160000Y-47498000D03*
%TO.N,unconnected-(U1-4_BCLK2-Pad6)*%
X139700000Y-47498000D03*
%TO.N,Net-(U1-5_IN2)*%
X142240000Y-47498000D03*
%TO.N,Net-(U1-6_OUT1D)*%
X144780000Y-47498000D03*
%TO.N,Net-(U1-7_RX2_OUT1A)*%
X147320000Y-47498000D03*
%TO.N,unconnected-(U1-8_TX2_IN1-Pad10)*%
X149860000Y-47498000D03*
%TO.N,unconnected-(U1-9_OUT1C-Pad11)*%
X152400000Y-47498000D03*
%TO.N,Net-(U1-10_CS_MQSR)*%
X154940000Y-47498000D03*
%TO.N,Net-(U1-11_MOSI_CTX1)*%
X157480000Y-47498000D03*
%TO.N,unconnected-(U1-12_MISO_MQSL-Pad14)*%
X160020000Y-47498000D03*
%TO.N,unconnected-(U1-VBAT-Pad15)*%
X160020000Y-44958000D03*
%TO.N,unconnected-(U1-3V3-Pad16)*%
X160020000Y-42418000D03*
%TO.N,unconnected-(U1-GND-Pad17)*%
X160020000Y-39878000D03*
%TO.N,unconnected-(U1-PROGRAM-Pad18)*%
X160020000Y-37338000D03*
%TO.N,unconnected-(U1-ON_OFF-Pad19)*%
X160020000Y-34798000D03*
%TO.N,unconnected-(U1-13_SCK_CRX1_LED-Pad20)*%
X160020000Y-32258000D03*
%TO.N,unconnected-(U1-14_A0_TX3_SPDIF_OUT-Pad21)*%
X157480000Y-32258000D03*
%TO.N,unconnected-(U1-15_A1_RX3_SPDIF_IN-Pad22)*%
X154940000Y-32258000D03*
%TO.N,unconnected-(U1-16_A2_RX4_SCL1-Pad23)*%
X152400000Y-32258000D03*
%TO.N,unconnected-(U1-17_A3_TX4_SDA1-Pad24)*%
X149860000Y-32258000D03*
%TO.N,unconnected-(U1-18_A4_SDA0-Pad25)*%
X147320000Y-32258000D03*
%TO.N,Net-(U1-19_A5_SCL0)*%
X144780000Y-32258000D03*
%TO.N,Net-(U1-20_A6_TX5_LRCLK1)*%
X142240000Y-32258000D03*
%TO.N,Net-(U1-21_A7_RX5_BCLK1)*%
X139700000Y-32258000D03*
%TO.N,unconnected-(U1-22_A8_CTX1-Pad29)*%
X137160000Y-32258000D03*
%TO.N,Net-(U1-23_A9_CRX1_MCLK1)*%
X134620000Y-32258000D03*
%TO.N,Net-(U2-V_IO)*%
X132080000Y-32258000D03*
%TO.N,GND*%
X129540000Y-32258000D03*
%TO.N,5V0*%
X127000000Y-32258000D03*
%TO.N,unconnected-(U1-VUSB-Pad34)*%
X129540000Y-34798000D03*
%TO.N,unconnected-(U1-24_A10_TX6_SCL2-Pad35)*%
X154940000Y-34798000D03*
%TO.N,unconnected-(U1-25_A11_RX6_SDA2-Pad36)*%
X152400000Y-34798000D03*
%TO.N,unconnected-(U1-26_A12_MOSI1-Pad37)*%
X154940000Y-37338000D03*
%TO.N,unconnected-(U1-27_A13_SCK1-Pad38)*%
X152400000Y-37338000D03*
%TO.N,unconnected-(U1-28_RX7-Pad39)*%
X154940000Y-39878000D03*
%TO.N,unconnected-(U1-29_TX7-Pad40)*%
X152400000Y-39878000D03*
%TO.N,unconnected-(U1-30_CRX3-Pad41)*%
X154940000Y-42418000D03*
%TO.N,unconnected-(U1-31_CTX3-Pad42)*%
X152400000Y-42418000D03*
%TO.N,unconnected-(U1-32_OUT1B-Pad43)*%
X154940000Y-44958000D03*
%TO.N,unconnected-(U1-33_MCLK2-Pad44)*%
X152400000Y-44958000D03*
%TD*%
D10*
%TO.N,Net-(C4-Pad1)*%
%TO.C,C4*%
X138938000Y-53340000D03*
D11*
%TO.N,GND*%
X141478000Y-53340000D03*
%TD*%
D13*
%TO.N,/XLR-TX-*%
%TO.C,*%
X157480000Y-54610000D03*
%TD*%
%TO.N,Net-(C4-Pad1)*%
%TO.C,SW2-*%
X135890000Y-53340000D03*
%TD*%
D14*
%TO.N,/DIT4192-TX-*%
%TO.C,T1*%
X169672000Y-43688000D03*
D15*
%TO.N,/DIT4192-TX+*%
X174752000Y-43688000D03*
%TO.N,/XLR-TX-*%
X169672000Y-53848000D03*
%TO.N,/XLR-TX+*%
X174752000Y-53848000D03*
%TD*%
D13*
%TO.N,Net-(C3-Pad1)*%
%TO.C,SW1-*%
X130810000Y-53340000D03*
%TD*%
%TO.N,GND*%
%TO.C,GND*%
X123952000Y-47498000D03*
%TD*%
%TO.N,5V0*%
%TO.C,5V*%
X123952000Y-32258000D03*
%TD*%
D10*
%TO.N,Net-(U1-6_OUT1D)*%
%TO.C,C1*%
X152400000Y-52324000D03*
D11*
%TO.N,GND*%
X152400000Y-54864000D03*
%TD*%
D13*
%TO.N,/XLR-TX+*%
%TO.C,*%
X162052000Y-54610000D03*
%TD*%
D10*
%TO.N,Net-(C3-Pad1)*%
%TO.C,C3*%
X127762000Y-53340000D03*
D11*
%TO.N,GND*%
X125222000Y-53340000D03*
%TD*%
D16*
%TO.N,Net-(U1-7_RX2_OUT1A)*%
X161798000Y-47498000D03*
%TO.N,GND*%
X174752000Y-41148000D03*
X170180000Y-31496000D03*
X168148000Y-41148000D03*
%TO.N,Net-(U1-0_RX1_CRX2_CS1)*%
X165354000Y-42926000D03*
%TO.N,Net-(U1-10_CS_MQSR)*%
X159258000Y-49530000D03*
%TO.N,Net-(U1-19_A5_SCL0)*%
X174244000Y-30226000D03*
%TO.N,Net-(U1-23_A9_CRX1_MCLK1)*%
X172212000Y-30226000D03*
%TO.N,5V0*%
X172720000Y-41148000D03*
%TD*%
%TA.AperFunction,Conductor*%
%TO.N,GND*%
G36*
X179266539Y-28976185D02*
G01*
X179312294Y-29028989D01*
X179323500Y-29080500D01*
X179323500Y-57279500D01*
X179303815Y-57346539D01*
X179251011Y-57392294D01*
X179199500Y-57403500D01*
X121282500Y-57403500D01*
X121215461Y-57383815D01*
X121169706Y-57331011D01*
X121158500Y-57279500D01*
X121158500Y-53248779D01*
X124063000Y-53248779D01*
X124063000Y-53431220D01*
X124091538Y-53611400D01*
X124147913Y-53784906D01*
X124230734Y-53947447D01*
X124243468Y-53964976D01*
X124243469Y-53964976D01*
X124817000Y-53391445D01*
X124817000Y-53393319D01*
X124844600Y-53496324D01*
X124897919Y-53588676D01*
X124973324Y-53664081D01*
X125065676Y-53717400D01*
X125168681Y-53745000D01*
X125170553Y-53745000D01*
X124597022Y-54318529D01*
X124597022Y-54318530D01*
X124614551Y-54331265D01*
X124614553Y-54331266D01*
X124777095Y-54414086D01*
X124950599Y-54470461D01*
X125130780Y-54499000D01*
X125313220Y-54499000D01*
X125493400Y-54470461D01*
X125666904Y-54414086D01*
X125829447Y-54331265D01*
X125846976Y-54318530D01*
X125846976Y-54318529D01*
X125273448Y-53745000D01*
X125275319Y-53745000D01*
X125378324Y-53717400D01*
X125470676Y-53664081D01*
X125546081Y-53588676D01*
X125599400Y-53496324D01*
X125627000Y-53393319D01*
X125627000Y-53391447D01*
X126200529Y-53964976D01*
X126200530Y-53964976D01*
X126213265Y-53947447D01*
X126296086Y-53784904D01*
X126352460Y-53611404D01*
X126356026Y-53588891D01*
X126385954Y-53525756D01*
X126445265Y-53488823D01*
X126515127Y-53489819D01*
X126573361Y-53528427D01*
X126601477Y-53592390D01*
X126602500Y-53608286D01*
X126602500Y-54046870D01*
X126602501Y-54046876D01*
X126608908Y-54106483D01*
X126659202Y-54241328D01*
X126659206Y-54241335D01*
X126745452Y-54356544D01*
X126745455Y-54356547D01*
X126860664Y-54442793D01*
X126860671Y-54442797D01*
X126995517Y-54493091D01*
X126995516Y-54493091D01*
X127002444Y-54493835D01*
X127055127Y-54499500D01*
X128468872Y-54499499D01*
X128528483Y-54493091D01*
X128663331Y-54442796D01*
X128778546Y-54356546D01*
X128864796Y-54241331D01*
X128915091Y-54106483D01*
X128921500Y-54046873D01*
X128921499Y-53241577D01*
X129559500Y-53241577D01*
X129559500Y-53438422D01*
X129590290Y-53632826D01*
X129651117Y-53820029D01*
X129684461Y-53885469D01*
X129740476Y-53995405D01*
X129856172Y-54154646D01*
X129995354Y-54293828D01*
X130154595Y-54409524D01*
X130237455Y-54451743D01*
X130329970Y-54498882D01*
X130329972Y-54498882D01*
X130329975Y-54498884D01*
X130430317Y-54531487D01*
X130517173Y-54559709D01*
X130711578Y-54590500D01*
X130711583Y-54590500D01*
X130908422Y-54590500D01*
X131102826Y-54559709D01*
X131148009Y-54545028D01*
X131290025Y-54498884D01*
X131465405Y-54409524D01*
X131624646Y-54293828D01*
X131763828Y-54154646D01*
X131879524Y-53995405D01*
X131968884Y-53820025D01*
X132029709Y-53632826D01*
X132033596Y-53608286D01*
X132060500Y-53438422D01*
X132060500Y-53241577D01*
X134639500Y-53241577D01*
X134639500Y-53438422D01*
X134670290Y-53632826D01*
X134731117Y-53820029D01*
X134764461Y-53885469D01*
X134820476Y-53995405D01*
X134936172Y-54154646D01*
X135075354Y-54293828D01*
X135234595Y-54409524D01*
X135317455Y-54451743D01*
X135409970Y-54498882D01*
X135409972Y-54498882D01*
X135409975Y-54498884D01*
X135510317Y-54531487D01*
X135597173Y-54559709D01*
X135791578Y-54590500D01*
X135791583Y-54590500D01*
X135988422Y-54590500D01*
X136182826Y-54559709D01*
X136228009Y-54545028D01*
X136370025Y-54498884D01*
X136545405Y-54409524D01*
X136704646Y-54293828D01*
X136843828Y-54154646D01*
X136959524Y-53995405D01*
X137048884Y-53820025D01*
X137109709Y-53632826D01*
X137113596Y-53608286D01*
X137140500Y-53438422D01*
X137140500Y-53241577D01*
X137109709Y-53047173D01*
X137073261Y-52935000D01*
X137048884Y-52859975D01*
X137048882Y-52859972D01*
X137048882Y-52859970D01*
X136986146Y-52736844D01*
X136959524Y-52684595D01*
X136922136Y-52633135D01*
X137778500Y-52633135D01*
X137778500Y-54046870D01*
X137778501Y-54046876D01*
X137784908Y-54106483D01*
X137835202Y-54241328D01*
X137835206Y-54241335D01*
X137921452Y-54356544D01*
X137921455Y-54356547D01*
X138036664Y-54442793D01*
X138036671Y-54442797D01*
X138171517Y-54493091D01*
X138171516Y-54493091D01*
X138178444Y-54493835D01*
X138231127Y-54499500D01*
X139644872Y-54499499D01*
X139704483Y-54493091D01*
X139839331Y-54442796D01*
X139954546Y-54356546D01*
X140040796Y-54241331D01*
X140041657Y-54239022D01*
X140045790Y-54227943D01*
X140045792Y-54227938D01*
X140082331Y-54129970D01*
X140091091Y-54106483D01*
X140097500Y-54046873D01*
X140097499Y-53608285D01*
X140117183Y-53541249D01*
X140169987Y-53495494D01*
X140239146Y-53485550D01*
X140302702Y-53514575D01*
X140340476Y-53573353D01*
X140343972Y-53588887D01*
X140347538Y-53611403D01*
X140403913Y-53784906D01*
X140486734Y-53947447D01*
X140499468Y-53964976D01*
X140499469Y-53964976D01*
X141073000Y-53391445D01*
X141073000Y-53393319D01*
X141100600Y-53496324D01*
X141153919Y-53588676D01*
X141229324Y-53664081D01*
X141321676Y-53717400D01*
X141424681Y-53745000D01*
X141426553Y-53745000D01*
X140853022Y-54318529D01*
X140853022Y-54318530D01*
X140870551Y-54331265D01*
X140870553Y-54331266D01*
X141033095Y-54414086D01*
X141206599Y-54470461D01*
X141386780Y-54499000D01*
X141569220Y-54499000D01*
X141749400Y-54470461D01*
X141922904Y-54414086D01*
X142085447Y-54331265D01*
X142102976Y-54318530D01*
X142102976Y-54318529D01*
X141529448Y-53745000D01*
X141531319Y-53745000D01*
X141634324Y-53717400D01*
X141726676Y-53664081D01*
X141802081Y-53588676D01*
X141855400Y-53496324D01*
X141883000Y-53393319D01*
X141883000Y-53391447D01*
X142456529Y-53964976D01*
X142456530Y-53964976D01*
X142469265Y-53947447D01*
X142552086Y-53784904D01*
X142608461Y-53611400D01*
X142637000Y-53431220D01*
X142637000Y-53248779D01*
X142608461Y-53068599D01*
X142552086Y-52895095D01*
X142469266Y-52732553D01*
X142469265Y-52732551D01*
X142456529Y-52715022D01*
X141883000Y-53288551D01*
X141883000Y-53286681D01*
X141855400Y-53183676D01*
X141802081Y-53091324D01*
X141726676Y-53015919D01*
X141634324Y-52962600D01*
X141531319Y-52935000D01*
X141529447Y-52935000D01*
X142102976Y-52361469D01*
X142102976Y-52361468D01*
X142085447Y-52348734D01*
X141922906Y-52265913D01*
X141749400Y-52209538D01*
X141569220Y-52181000D01*
X141386780Y-52181000D01*
X141206599Y-52209538D01*
X141033095Y-52265913D01*
X140870554Y-52348732D01*
X140853022Y-52361468D01*
X140853022Y-52361469D01*
X141426554Y-52935000D01*
X141424681Y-52935000D01*
X141321676Y-52962600D01*
X141229324Y-53015919D01*
X141153919Y-53091324D01*
X141100600Y-53183676D01*
X141073000Y-53286681D01*
X141073000Y-53288553D01*
X140499469Y-52715022D01*
X140499468Y-52715022D01*
X140486732Y-52732554D01*
X140403913Y-52895095D01*
X140347538Y-53068597D01*
X140343972Y-53091113D01*
X140314041Y-53154247D01*
X140254729Y-53191177D01*
X140184867Y-53190179D01*
X140126635Y-53151568D01*
X140098521Y-53087604D01*
X140097499Y-53071713D01*
X140097499Y-52633129D01*
X140097498Y-52633123D01*
X140097497Y-52633116D01*
X140091091Y-52573517D01*
X140091091Y-52573516D01*
X140045791Y-52452060D01*
X140040797Y-52438671D01*
X140040793Y-52438664D01*
X139954547Y-52323455D01*
X139954544Y-52323452D01*
X139839335Y-52237206D01*
X139839328Y-52237202D01*
X139704482Y-52186908D01*
X139704483Y-52186908D01*
X139644883Y-52180501D01*
X139644881Y-52180500D01*
X139644873Y-52180500D01*
X139644864Y-52180500D01*
X138231129Y-52180500D01*
X138231123Y-52180501D01*
X138171516Y-52186908D01*
X138036671Y-52237202D01*
X138036664Y-52237206D01*
X137921455Y-52323452D01*
X137921452Y-52323455D01*
X137835206Y-52438664D01*
X137835202Y-52438671D01*
X137784908Y-52573517D01*
X137778501Y-52633116D01*
X137778501Y-52633123D01*
X137778500Y-52633135D01*
X136922136Y-52633135D01*
X136843828Y-52525354D01*
X136704646Y-52386172D01*
X136545405Y-52270476D01*
X136480101Y-52237202D01*
X136370029Y-52181117D01*
X136182826Y-52120290D01*
X135988422Y-52089500D01*
X135988417Y-52089500D01*
X135791583Y-52089500D01*
X135791578Y-52089500D01*
X135597173Y-52120290D01*
X135409970Y-52181117D01*
X135234594Y-52270476D01*
X135161680Y-52323452D01*
X135075354Y-52386172D01*
X135075352Y-52386174D01*
X135075351Y-52386174D01*
X134936174Y-52525351D01*
X134936174Y-52525352D01*
X134936172Y-52525354D01*
X134901180Y-52573516D01*
X134820476Y-52684594D01*
X134731117Y-52859970D01*
X134670290Y-53047173D01*
X134639500Y-53241577D01*
X132060500Y-53241577D01*
X132029709Y-53047173D01*
X131993261Y-52935000D01*
X131968884Y-52859975D01*
X131968882Y-52859972D01*
X131968882Y-52859970D01*
X131906146Y-52736844D01*
X131879524Y-52684595D01*
X131763828Y-52525354D01*
X131624646Y-52386172D01*
X131465405Y-52270476D01*
X131400101Y-52237202D01*
X131290029Y-52181117D01*
X131102826Y-52120290D01*
X130908422Y-52089500D01*
X130908417Y-52089500D01*
X130711583Y-52089500D01*
X130711578Y-52089500D01*
X130517173Y-52120290D01*
X130329970Y-52181117D01*
X130154594Y-52270476D01*
X130081680Y-52323452D01*
X129995354Y-52386172D01*
X129995352Y-52386174D01*
X129995351Y-52386174D01*
X129856174Y-52525351D01*
X129856174Y-52525352D01*
X129856172Y-52525354D01*
X129821180Y-52573516D01*
X129740476Y-52684594D01*
X129651117Y-52859970D01*
X129590290Y-53047173D01*
X129559500Y-53241577D01*
X128921499Y-53241577D01*
X128921499Y-52633128D01*
X128915091Y-52573517D01*
X128897127Y-52525354D01*
X128864797Y-52438671D01*
X128864793Y-52438664D01*
X128778547Y-52323455D01*
X128778544Y-52323452D01*
X128663335Y-52237206D01*
X128663328Y-52237202D01*
X128528482Y-52186908D01*
X128528483Y-52186908D01*
X128468883Y-52180501D01*
X128468881Y-52180500D01*
X128468873Y-52180500D01*
X128468864Y-52180500D01*
X127055129Y-52180500D01*
X127055123Y-52180501D01*
X126995516Y-52186908D01*
X126860671Y-52237202D01*
X126860664Y-52237206D01*
X126745455Y-52323452D01*
X126745452Y-52323455D01*
X126659206Y-52438664D01*
X126659202Y-52438671D01*
X126608908Y-52573517D01*
X126602501Y-52633116D01*
X126602501Y-52633123D01*
X126602500Y-52633135D01*
X126602500Y-53071711D01*
X126582815Y-53138750D01*
X126530011Y-53184505D01*
X126460853Y-53194449D01*
X126397297Y-53165424D01*
X126359523Y-53106646D01*
X126356026Y-53091108D01*
X126352460Y-53068593D01*
X126296086Y-52895095D01*
X126213266Y-52732553D01*
X126213265Y-52732551D01*
X126200529Y-52715022D01*
X125627000Y-53288551D01*
X125627000Y-53286681D01*
X125599400Y-53183676D01*
X125546081Y-53091324D01*
X125470676Y-53015919D01*
X125378324Y-52962600D01*
X125275319Y-52935000D01*
X125273447Y-52935000D01*
X125846976Y-52361469D01*
X125846976Y-52361468D01*
X125829447Y-52348734D01*
X125666906Y-52265913D01*
X125493400Y-52209538D01*
X125313220Y-52181000D01*
X125130780Y-52181000D01*
X124950599Y-52209538D01*
X124777095Y-52265913D01*
X124614554Y-52348732D01*
X124597022Y-52361468D01*
X124597022Y-52361469D01*
X125170554Y-52935000D01*
X125168681Y-52935000D01*
X125065676Y-52962600D01*
X124973324Y-53015919D01*
X124897919Y-53091324D01*
X124844600Y-53183676D01*
X124817000Y-53286681D01*
X124817000Y-53288553D01*
X124243469Y-52715022D01*
X124243468Y-52715022D01*
X124230732Y-52732554D01*
X124147913Y-52895095D01*
X124091538Y-53068599D01*
X124063000Y-53248779D01*
X121158500Y-53248779D01*
X121158500Y-51617135D01*
X146160500Y-51617135D01*
X146160500Y-53030870D01*
X146160501Y-53030876D01*
X146166908Y-53090483D01*
X146217202Y-53225328D01*
X146217206Y-53225335D01*
X146303452Y-53340544D01*
X146303455Y-53340547D01*
X146418664Y-53426793D01*
X146418671Y-53426797D01*
X146553517Y-53477091D01*
X146553516Y-53477091D01*
X146560444Y-53477835D01*
X146613127Y-53483500D01*
X147051713Y-53483499D01*
X147118750Y-53503183D01*
X147164505Y-53555987D01*
X147174449Y-53625146D01*
X147145424Y-53688702D01*
X147086646Y-53726476D01*
X147071112Y-53729972D01*
X147048596Y-53733538D01*
X146875095Y-53789913D01*
X146712554Y-53872732D01*
X146695022Y-53885468D01*
X146695022Y-53885469D01*
X147268554Y-54459000D01*
X147266681Y-54459000D01*
X147163676Y-54486600D01*
X147071324Y-54539919D01*
X146995919Y-54615324D01*
X146942600Y-54707676D01*
X146915000Y-54810681D01*
X146915000Y-54812553D01*
X146341469Y-54239022D01*
X146341468Y-54239022D01*
X146328732Y-54256554D01*
X146245913Y-54419095D01*
X146189538Y-54592599D01*
X146161000Y-54772779D01*
X146161000Y-54955220D01*
X146189538Y-55135400D01*
X146245913Y-55308906D01*
X146328734Y-55471447D01*
X146341468Y-55488976D01*
X146341469Y-55488976D01*
X146915000Y-54915445D01*
X146915000Y-54917319D01*
X146942600Y-55020324D01*
X146995919Y-55112676D01*
X147071324Y-55188081D01*
X147163676Y-55241400D01*
X147266681Y-55269000D01*
X147268553Y-55269000D01*
X146695022Y-55842529D01*
X146695022Y-55842530D01*
X146712551Y-55855265D01*
X146712553Y-55855266D01*
X146875095Y-55938086D01*
X147048599Y-55994461D01*
X147228780Y-56023000D01*
X147411220Y-56023000D01*
X147591400Y-55994461D01*
X147764904Y-55938086D01*
X147927447Y-55855265D01*
X147944976Y-55842530D01*
X147944976Y-55842529D01*
X147371448Y-55269000D01*
X147373319Y-55269000D01*
X147476324Y-55241400D01*
X147568676Y-55188081D01*
X147644081Y-55112676D01*
X147697400Y-55020324D01*
X147725000Y-54917319D01*
X147725000Y-54915447D01*
X148298529Y-55488976D01*
X148298530Y-55488976D01*
X148311265Y-55471447D01*
X148394086Y-55308904D01*
X148450461Y-55135400D01*
X148479000Y-54955220D01*
X148479000Y-54772779D01*
X148450461Y-54592599D01*
X148394086Y-54419095D01*
X148311266Y-54256553D01*
X148311265Y-54256551D01*
X148298529Y-54239022D01*
X147725000Y-54812551D01*
X147725000Y-54810681D01*
X147697400Y-54707676D01*
X147644081Y-54615324D01*
X147568676Y-54539919D01*
X147476324Y-54486600D01*
X147373319Y-54459000D01*
X147371447Y-54459000D01*
X147944976Y-53885469D01*
X147944976Y-53885468D01*
X147927447Y-53872734D01*
X147764906Y-53789913D01*
X147591401Y-53733538D01*
X147568887Y-53729972D01*
X147505752Y-53700042D01*
X147468822Y-53640730D01*
X147469820Y-53570868D01*
X147508431Y-53512635D01*
X147572395Y-53484521D01*
X147588281Y-53483499D01*
X148026872Y-53483499D01*
X148086483Y-53477091D01*
X148221331Y-53426796D01*
X148336546Y-53340546D01*
X148422796Y-53225331D01*
X148473091Y-53090483D01*
X148479500Y-53030873D01*
X148479499Y-51617135D01*
X151240500Y-51617135D01*
X151240500Y-53030870D01*
X151240501Y-53030876D01*
X151246908Y-53090483D01*
X151297202Y-53225328D01*
X151297206Y-53225335D01*
X151383452Y-53340544D01*
X151383455Y-53340547D01*
X151498664Y-53426793D01*
X151498671Y-53426797D01*
X151633517Y-53477091D01*
X151633516Y-53477091D01*
X151640444Y-53477835D01*
X151693127Y-53483500D01*
X152131713Y-53483499D01*
X152198750Y-53503183D01*
X152244505Y-53555987D01*
X152254449Y-53625146D01*
X152225424Y-53688702D01*
X152166646Y-53726476D01*
X152151112Y-53729972D01*
X152128596Y-53733538D01*
X151955095Y-53789913D01*
X151792554Y-53872732D01*
X151775022Y-53885468D01*
X151775022Y-53885469D01*
X152348554Y-54459000D01*
X152346681Y-54459000D01*
X152243676Y-54486600D01*
X152151324Y-54539919D01*
X152075919Y-54615324D01*
X152022600Y-54707676D01*
X151995000Y-54810681D01*
X151995000Y-54812553D01*
X151421469Y-54239022D01*
X151421468Y-54239022D01*
X151408732Y-54256554D01*
X151325913Y-54419095D01*
X151269538Y-54592599D01*
X151241000Y-54772779D01*
X151241000Y-54955220D01*
X151269538Y-55135400D01*
X151325913Y-55308906D01*
X151408734Y-55471447D01*
X151421468Y-55488976D01*
X151421469Y-55488976D01*
X151995000Y-54915445D01*
X151995000Y-54917319D01*
X152022600Y-55020324D01*
X152075919Y-55112676D01*
X152151324Y-55188081D01*
X152243676Y-55241400D01*
X152346681Y-55269000D01*
X152348553Y-55269000D01*
X151775022Y-55842529D01*
X151775022Y-55842530D01*
X151792551Y-55855265D01*
X151792553Y-55855266D01*
X151955095Y-55938086D01*
X152128599Y-55994461D01*
X152308780Y-56023000D01*
X152491220Y-56023000D01*
X152671400Y-55994461D01*
X152844904Y-55938086D01*
X153007447Y-55855265D01*
X153024976Y-55842530D01*
X153024976Y-55842529D01*
X152451448Y-55269000D01*
X152453319Y-55269000D01*
X152556324Y-55241400D01*
X152648676Y-55188081D01*
X152724081Y-55112676D01*
X152777400Y-55020324D01*
X152805000Y-54917319D01*
X152805000Y-54915447D01*
X153378529Y-55488976D01*
X153378530Y-55488976D01*
X153391265Y-55471447D01*
X153474086Y-55308904D01*
X153530461Y-55135400D01*
X153559000Y-54955220D01*
X153559000Y-54772779D01*
X153530462Y-54592601D01*
X153515005Y-54545030D01*
X153515004Y-54545028D01*
X153504135Y-54511577D01*
X156229500Y-54511577D01*
X156229500Y-54708422D01*
X156260290Y-54902826D01*
X156321117Y-55090029D01*
X156386094Y-55217553D01*
X156410476Y-55265405D01*
X156526172Y-55424646D01*
X156665354Y-55563828D01*
X156824595Y-55679524D01*
X156907455Y-55721743D01*
X156999970Y-55768882D01*
X156999972Y-55768882D01*
X156999975Y-55768884D01*
X157100317Y-55801487D01*
X157187173Y-55829709D01*
X157381578Y-55860500D01*
X157381583Y-55860500D01*
X157578422Y-55860500D01*
X157772826Y-55829709D01*
X157960025Y-55768884D01*
X158135405Y-55679524D01*
X158294646Y-55563828D01*
X158433828Y-55424646D01*
X158549524Y-55265405D01*
X158638884Y-55090025D01*
X158699709Y-54902826D01*
X158704358Y-54873476D01*
X158730500Y-54708422D01*
X158730500Y-54511577D01*
X160801500Y-54511577D01*
X160801500Y-54708422D01*
X160832290Y-54902826D01*
X160893117Y-55090029D01*
X160958094Y-55217553D01*
X160982476Y-55265405D01*
X161098172Y-55424646D01*
X161237354Y-55563828D01*
X161396595Y-55679524D01*
X161479455Y-55721743D01*
X161571970Y-55768882D01*
X161571972Y-55768882D01*
X161571975Y-55768884D01*
X161672317Y-55801487D01*
X161759173Y-55829709D01*
X161953578Y-55860500D01*
X161953583Y-55860500D01*
X162150422Y-55860500D01*
X162344826Y-55829709D01*
X162532025Y-55768884D01*
X162707405Y-55679524D01*
X162866646Y-55563828D01*
X163005828Y-55424646D01*
X163121524Y-55265405D01*
X163210884Y-55090025D01*
X163271709Y-54902826D01*
X163276358Y-54873476D01*
X163302500Y-54708422D01*
X163302500Y-54511577D01*
X163271709Y-54317173D01*
X163210882Y-54129970D01*
X163163743Y-54037455D01*
X163121524Y-53954595D01*
X163005828Y-53795354D01*
X162964105Y-53753631D01*
X168473000Y-53753631D01*
X168473000Y-53942368D01*
X168502522Y-54128763D01*
X168502523Y-54128767D01*
X168560843Y-54308256D01*
X168646523Y-54476413D01*
X168757454Y-54629096D01*
X168890904Y-54762546D01*
X169043587Y-54873477D01*
X169211744Y-54959157D01*
X169391233Y-55017477D01*
X169461134Y-55028548D01*
X169577632Y-55047000D01*
X169577637Y-55047000D01*
X169766368Y-55047000D01*
X169869920Y-55030598D01*
X169952767Y-55017477D01*
X170132256Y-54959157D01*
X170300413Y-54873477D01*
X170453096Y-54762546D01*
X170586546Y-54629096D01*
X170697477Y-54476413D01*
X170783157Y-54308256D01*
X170841477Y-54128767D01*
X170869063Y-53954595D01*
X170871000Y-53942368D01*
X170871000Y-53753631D01*
X173553000Y-53753631D01*
X173553000Y-53942368D01*
X173582522Y-54128763D01*
X173582523Y-54128767D01*
X173640843Y-54308256D01*
X173726523Y-54476413D01*
X173837454Y-54629096D01*
X173970904Y-54762546D01*
X174123587Y-54873477D01*
X174291744Y-54959157D01*
X174471233Y-55017477D01*
X174541134Y-55028548D01*
X174657632Y-55047000D01*
X174657637Y-55047000D01*
X174846368Y-55047000D01*
X174949920Y-55030598D01*
X175032767Y-55017477D01*
X175212256Y-54959157D01*
X175380413Y-54873477D01*
X175533096Y-54762546D01*
X175666546Y-54629096D01*
X175777477Y-54476413D01*
X175863157Y-54308256D01*
X175921477Y-54128767D01*
X175949063Y-53954595D01*
X175951000Y-53942368D01*
X175951000Y-53753631D01*
X175924907Y-53588891D01*
X175921477Y-53567233D01*
X175863157Y-53387744D01*
X175777477Y-53219587D01*
X175666546Y-53066904D01*
X175533096Y-52933454D01*
X175380413Y-52822523D01*
X175212256Y-52736843D01*
X175032767Y-52678523D01*
X175032765Y-52678522D01*
X175032763Y-52678522D01*
X174846368Y-52649000D01*
X174846363Y-52649000D01*
X174657637Y-52649000D01*
X174657632Y-52649000D01*
X174471236Y-52678522D01*
X174291741Y-52736844D01*
X174123586Y-52822523D01*
X174036475Y-52885813D01*
X173970904Y-52933454D01*
X173970902Y-52933456D01*
X173970901Y-52933456D01*
X173837456Y-53066901D01*
X173837456Y-53066902D01*
X173837454Y-53066904D01*
X173822415Y-53087604D01*
X173726523Y-53219586D01*
X173640844Y-53387741D01*
X173582522Y-53567236D01*
X173553000Y-53753631D01*
X170871000Y-53753631D01*
X170844907Y-53588891D01*
X170841477Y-53567233D01*
X170783157Y-53387744D01*
X170697477Y-53219587D01*
X170586546Y-53066904D01*
X170453096Y-52933454D01*
X170300413Y-52822523D01*
X170132256Y-52736843D01*
X169952767Y-52678523D01*
X169952765Y-52678522D01*
X169952763Y-52678522D01*
X169766368Y-52649000D01*
X169766363Y-52649000D01*
X169577637Y-52649000D01*
X169577632Y-52649000D01*
X169391236Y-52678522D01*
X169211741Y-52736844D01*
X169043586Y-52822523D01*
X168956475Y-52885813D01*
X168890904Y-52933454D01*
X168890902Y-52933456D01*
X168890901Y-52933456D01*
X168757456Y-53066901D01*
X168757456Y-53066902D01*
X168757454Y-53066904D01*
X168742415Y-53087604D01*
X168646523Y-53219586D01*
X168560844Y-53387741D01*
X168502522Y-53567236D01*
X168473000Y-53753631D01*
X162964105Y-53753631D01*
X162866646Y-53656172D01*
X162707405Y-53540476D01*
X162532029Y-53451117D01*
X162344826Y-53390290D01*
X162150422Y-53359500D01*
X162150417Y-53359500D01*
X161953583Y-53359500D01*
X161953578Y-53359500D01*
X161759173Y-53390290D01*
X161571970Y-53451117D01*
X161396594Y-53540476D01*
X161329963Y-53588887D01*
X161237354Y-53656172D01*
X161237352Y-53656174D01*
X161237351Y-53656174D01*
X161098174Y-53795351D01*
X161098174Y-53795352D01*
X161098172Y-53795354D01*
X161079066Y-53821651D01*
X160982476Y-53954594D01*
X160893117Y-54129970D01*
X160832290Y-54317173D01*
X160801500Y-54511577D01*
X158730500Y-54511577D01*
X158699709Y-54317173D01*
X158638882Y-54129970D01*
X158591743Y-54037455D01*
X158549524Y-53954595D01*
X158433828Y-53795354D01*
X158294646Y-53656172D01*
X158135405Y-53540476D01*
X157960029Y-53451117D01*
X157772826Y-53390290D01*
X157578422Y-53359500D01*
X157578417Y-53359500D01*
X157381583Y-53359500D01*
X157381578Y-53359500D01*
X157187173Y-53390290D01*
X156999970Y-53451117D01*
X156824594Y-53540476D01*
X156757963Y-53588887D01*
X156665354Y-53656172D01*
X156665352Y-53656174D01*
X156665351Y-53656174D01*
X156526174Y-53795351D01*
X156526174Y-53795352D01*
X156526172Y-53795354D01*
X156507066Y-53821651D01*
X156410476Y-53954594D01*
X156321117Y-54129970D01*
X156260290Y-54317173D01*
X156229500Y-54511577D01*
X153504135Y-54511577D01*
X153474086Y-54419095D01*
X153391266Y-54256553D01*
X153391265Y-54256551D01*
X153378529Y-54239022D01*
X152805000Y-54812551D01*
X152805000Y-54810681D01*
X152777400Y-54707676D01*
X152724081Y-54615324D01*
X152648676Y-54539919D01*
X152556324Y-54486600D01*
X152453319Y-54459000D01*
X152451447Y-54459000D01*
X153024976Y-53885469D01*
X153024976Y-53885468D01*
X153007447Y-53872734D01*
X152844906Y-53789913D01*
X152671401Y-53733538D01*
X152648887Y-53729972D01*
X152585752Y-53700042D01*
X152548822Y-53640730D01*
X152549820Y-53570868D01*
X152588431Y-53512635D01*
X152652395Y-53484521D01*
X152668281Y-53483499D01*
X153106872Y-53483499D01*
X153166483Y-53477091D01*
X153301331Y-53426796D01*
X153416546Y-53340546D01*
X153502796Y-53225331D01*
X153553091Y-53090483D01*
X153559500Y-53030873D01*
X153559499Y-51617128D01*
X153553091Y-51557517D01*
X153502796Y-51422669D01*
X153502795Y-51422668D01*
X153502793Y-51422664D01*
X153416547Y-51307455D01*
X153416544Y-51307452D01*
X153301335Y-51221206D01*
X153301328Y-51221202D01*
X153166482Y-51170908D01*
X153166483Y-51170908D01*
X153106883Y-51164501D01*
X153106881Y-51164500D01*
X153106873Y-51164500D01*
X153106864Y-51164500D01*
X151693129Y-51164500D01*
X151693123Y-51164501D01*
X151633516Y-51170908D01*
X151498671Y-51221202D01*
X151498664Y-51221206D01*
X151383455Y-51307452D01*
X151383452Y-51307455D01*
X151297206Y-51422664D01*
X151297202Y-51422671D01*
X151246908Y-51557517D01*
X151240501Y-51617116D01*
X151240501Y-51617123D01*
X151240500Y-51617135D01*
X148479499Y-51617135D01*
X148479499Y-51617128D01*
X148473091Y-51557517D01*
X148422796Y-51422669D01*
X148422795Y-51422668D01*
X148422793Y-51422664D01*
X148336547Y-51307455D01*
X148336544Y-51307452D01*
X148221335Y-51221206D01*
X148221328Y-51221202D01*
X148086482Y-51170908D01*
X148086483Y-51170908D01*
X148026883Y-51164501D01*
X148026881Y-51164500D01*
X148026873Y-51164500D01*
X148026864Y-51164500D01*
X146613129Y-51164500D01*
X146613123Y-51164501D01*
X146553516Y-51170908D01*
X146418671Y-51221202D01*
X146418664Y-51221206D01*
X146303455Y-51307452D01*
X146303452Y-51307455D01*
X146217206Y-51422664D01*
X146217202Y-51422671D01*
X146166908Y-51557517D01*
X146160501Y-51617116D01*
X146160501Y-51617123D01*
X146160500Y-51617135D01*
X121158500Y-51617135D01*
X121158500Y-48541677D01*
X123261873Y-48541677D01*
X123261873Y-48541678D01*
X123296858Y-48567096D01*
X123472164Y-48656418D01*
X123659294Y-48717221D01*
X123853618Y-48748000D01*
X124050382Y-48748000D01*
X124244705Y-48717221D01*
X124431835Y-48656418D01*
X124607143Y-48567095D01*
X124642125Y-48541678D01*
X124642126Y-48541678D01*
X123952001Y-47851553D01*
X123952000Y-47851553D01*
X123261873Y-48541677D01*
X121158500Y-48541677D01*
X121158500Y-47399617D01*
X122702000Y-47399617D01*
X122702000Y-47596382D01*
X122732778Y-47790705D01*
X122793581Y-47977835D01*
X122882905Y-48153145D01*
X122908319Y-48188125D01*
X122908320Y-48188125D01*
X123598446Y-47498000D01*
X123598446Y-47497999D01*
X123552369Y-47451922D01*
X123602000Y-47451922D01*
X123602000Y-47544078D01*
X123625852Y-47633095D01*
X123671930Y-47712905D01*
X123737095Y-47778070D01*
X123816905Y-47824148D01*
X123905922Y-47848000D01*
X123998078Y-47848000D01*
X124087095Y-47824148D01*
X124166905Y-47778070D01*
X124232070Y-47712905D01*
X124278148Y-47633095D01*
X124302000Y-47544078D01*
X124302000Y-47497999D01*
X124305553Y-47497999D01*
X124305553Y-47498001D01*
X124995678Y-48188126D01*
X124995678Y-48188125D01*
X125021095Y-48153143D01*
X125110418Y-47977835D01*
X125171221Y-47790705D01*
X125202000Y-47596382D01*
X125202000Y-47399625D01*
X125201998Y-47399609D01*
X125171221Y-47205294D01*
X125110418Y-47018164D01*
X125021096Y-46842858D01*
X124995678Y-46807873D01*
X124995677Y-46807873D01*
X124305553Y-47497999D01*
X124302000Y-47497999D01*
X124302000Y-47451922D01*
X124278148Y-47362905D01*
X124232070Y-47283095D01*
X124166905Y-47217930D01*
X124087095Y-47171852D01*
X123998078Y-47148000D01*
X123905922Y-47148000D01*
X123816905Y-47171852D01*
X123737095Y-47217930D01*
X123671930Y-47283095D01*
X123625852Y-47362905D01*
X123602000Y-47451922D01*
X123552369Y-47451922D01*
X122908320Y-46807872D01*
X122908320Y-46807873D01*
X122882902Y-46842859D01*
X122882899Y-46842863D01*
X122793582Y-47018161D01*
X122732778Y-47205294D01*
X122702000Y-47399617D01*
X121158500Y-47399617D01*
X121158500Y-46454320D01*
X123261872Y-46454320D01*
X123952000Y-47144446D01*
X123952001Y-47144446D01*
X124642125Y-46454320D01*
X124642125Y-46454319D01*
X124607145Y-46428905D01*
X124431835Y-46339581D01*
X124244705Y-46278778D01*
X124050382Y-46248000D01*
X123853618Y-46248000D01*
X123659294Y-46278778D01*
X123472161Y-46339582D01*
X123296863Y-46428899D01*
X123296859Y-46428902D01*
X123261873Y-46454320D01*
X123261872Y-46454320D01*
X121158500Y-46454320D01*
X121158500Y-32159577D01*
X122701500Y-32159577D01*
X122701500Y-32356422D01*
X122732290Y-32550826D01*
X122793117Y-32738029D01*
X122848600Y-32846919D01*
X122882476Y-32913405D01*
X122998172Y-33072646D01*
X123137354Y-33211828D01*
X123296595Y-33327524D01*
X123379455Y-33369743D01*
X123471970Y-33416882D01*
X123471972Y-33416882D01*
X123471975Y-33416884D01*
X123572317Y-33449487D01*
X123659173Y-33477709D01*
X123853578Y-33508500D01*
X123853583Y-33508500D01*
X124050422Y-33508500D01*
X124244826Y-33477709D01*
X124282432Y-33465490D01*
X124432025Y-33416884D01*
X124607405Y-33327524D01*
X124766646Y-33211828D01*
X124905828Y-33072646D01*
X125021524Y-32913405D01*
X125110884Y-32738025D01*
X125171709Y-32550826D01*
X125202500Y-32356422D01*
X125202500Y-32159577D01*
X125201878Y-32155648D01*
X125699500Y-32155648D01*
X125699500Y-32360351D01*
X125731522Y-32562534D01*
X125794781Y-32757223D01*
X125858691Y-32882653D01*
X125887585Y-32939359D01*
X125887715Y-32939613D01*
X126008028Y-33105213D01*
X126152786Y-33249971D01*
X126259531Y-33327524D01*
X126318390Y-33370287D01*
X126409838Y-33416882D01*
X126500776Y-33463218D01*
X126500778Y-33463218D01*
X126500781Y-33463220D01*
X126545374Y-33477709D01*
X126695465Y-33526477D01*
X126738613Y-33533311D01*
X126897648Y-33558500D01*
X126897649Y-33558500D01*
X127102351Y-33558500D01*
X127102352Y-33558500D01*
X127304534Y-33526477D01*
X127499219Y-33463220D01*
X127681610Y-33370287D01*
X127774590Y-33302732D01*
X127847213Y-33249971D01*
X127847215Y-33249968D01*
X127847219Y-33249966D01*
X127991966Y-33105219D01*
X127991968Y-33105215D01*
X127991971Y-33105213D01*
X128112286Y-32939611D01*
X128112415Y-32939359D01*
X128159795Y-32846369D01*
X128207769Y-32795573D01*
X128275590Y-32778778D01*
X128341725Y-32801315D01*
X128380765Y-32846369D01*
X128428141Y-32939350D01*
X128428147Y-32939359D01*
X128460523Y-32983921D01*
X128460524Y-32983922D01*
X129016212Y-32428234D01*
X129027482Y-32470292D01*
X129099890Y-32595708D01*
X129202292Y-32698110D01*
X129327708Y-32770518D01*
X129369765Y-32781787D01*
X128814076Y-33337474D01*
X128858652Y-33369861D01*
X128951628Y-33417234D01*
X129002425Y-33465208D01*
X129019220Y-33533029D01*
X128996683Y-33599164D01*
X128951630Y-33638203D01*
X128858388Y-33685713D01*
X128692786Y-33806028D01*
X128548028Y-33950786D01*
X128427715Y-34116386D01*
X128334781Y-34298776D01*
X128271522Y-34493465D01*
X128239500Y-34695648D01*
X128239500Y-34900351D01*
X128271522Y-35102534D01*
X128334781Y-35297223D01*
X128427715Y-35479613D01*
X128548028Y-35645213D01*
X128692786Y-35789971D01*
X128847749Y-35902556D01*
X128858390Y-35910287D01*
X128951080Y-35957515D01*
X129040776Y-36003218D01*
X129040778Y-36003218D01*
X129040781Y-36003220D01*
X129145137Y-36037127D01*
X129235465Y-36066477D01*
X129254697Y-36069523D01*
X129437648Y-36098500D01*
X129437649Y-36098500D01*
X129642351Y-36098500D01*
X129642352Y-36098500D01*
X129844534Y-36066477D01*
X130039219Y-36003220D01*
X130221610Y-35910287D01*
X130314590Y-35842732D01*
X130387213Y-35789971D01*
X130387215Y-35789968D01*
X130387219Y-35789966D01*
X130531966Y-35645219D01*
X130531968Y-35645215D01*
X130531971Y-35645213D01*
X130584732Y-35572590D01*
X130652287Y-35479610D01*
X130745220Y-35297219D01*
X130808477Y-35102534D01*
X130840500Y-34900352D01*
X130840500Y-34695648D01*
X130808477Y-34493466D01*
X130745220Y-34298781D01*
X130745218Y-34298778D01*
X130745218Y-34298776D01*
X130699515Y-34209080D01*
X130652287Y-34116390D01*
X130644556Y-34105749D01*
X130531971Y-33950786D01*
X130387213Y-33806028D01*
X130221611Y-33685713D01*
X130128369Y-33638203D01*
X130077574Y-33590229D01*
X130060779Y-33522407D01*
X130083317Y-33456273D01*
X130128371Y-33417234D01*
X130221346Y-33369861D01*
X130221347Y-33369861D01*
X130265921Y-33337474D01*
X129710234Y-32781787D01*
X129752292Y-32770518D01*
X129877708Y-32698110D01*
X129980110Y-32595708D01*
X130052518Y-32470292D01*
X130063787Y-32428235D01*
X130619474Y-32983922D01*
X130619474Y-32983921D01*
X130651861Y-32939347D01*
X130651861Y-32939346D01*
X130699234Y-32846371D01*
X130747208Y-32795575D01*
X130815028Y-32778779D01*
X130881164Y-32801316D01*
X130920203Y-32846369D01*
X130967713Y-32939611D01*
X131088028Y-33105213D01*
X131232786Y-33249971D01*
X131339531Y-33327524D01*
X131398390Y-33370287D01*
X131489838Y-33416882D01*
X131580776Y-33463218D01*
X131580778Y-33463218D01*
X131580781Y-33463220D01*
X131625374Y-33477709D01*
X131775465Y-33526477D01*
X131818613Y-33533311D01*
X131977648Y-33558500D01*
X131977649Y-33558500D01*
X132182351Y-33558500D01*
X132182352Y-33558500D01*
X132384534Y-33526477D01*
X132579219Y-33463220D01*
X132761610Y-33370287D01*
X132854590Y-33302732D01*
X132927213Y-33249971D01*
X132927215Y-33249968D01*
X132927219Y-33249966D01*
X133071966Y-33105219D01*
X133071968Y-33105215D01*
X133071971Y-33105213D01*
X133192284Y-32939614D01*
X133192286Y-32939611D01*
X133192287Y-32939610D01*
X133239516Y-32846917D01*
X133287489Y-32796123D01*
X133355310Y-32779328D01*
X133421445Y-32801865D01*
X133460485Y-32846919D01*
X133507715Y-32939614D01*
X133628028Y-33105213D01*
X133772786Y-33249971D01*
X133879531Y-33327524D01*
X133938390Y-33370287D01*
X134029838Y-33416882D01*
X134120776Y-33463218D01*
X134120778Y-33463218D01*
X134120781Y-33463220D01*
X134165374Y-33477709D01*
X134315465Y-33526477D01*
X134358613Y-33533311D01*
X134517648Y-33558500D01*
X134517649Y-33558500D01*
X134722351Y-33558500D01*
X134722352Y-33558500D01*
X134924534Y-33526477D01*
X135119219Y-33463220D01*
X135301610Y-33370287D01*
X135394590Y-33302732D01*
X135467213Y-33249971D01*
X135467215Y-33249968D01*
X135467219Y-33249966D01*
X135611966Y-33105219D01*
X135611968Y-33105215D01*
X135611971Y-33105213D01*
X135732284Y-32939614D01*
X135732286Y-32939611D01*
X135732287Y-32939610D01*
X135779516Y-32846917D01*
X135827489Y-32796123D01*
X135895310Y-32779328D01*
X135961445Y-32801865D01*
X136000485Y-32846919D01*
X136047715Y-32939614D01*
X136168028Y-33105213D01*
X136312786Y-33249971D01*
X136419531Y-33327524D01*
X136478390Y-33370287D01*
X136569838Y-33416882D01*
X136660776Y-33463218D01*
X136660778Y-33463218D01*
X136660781Y-33463220D01*
X136705374Y-33477709D01*
X136855465Y-33526477D01*
X136898613Y-33533311D01*
X137057648Y-33558500D01*
X137057649Y-33558500D01*
X137262351Y-33558500D01*
X137262352Y-33558500D01*
X137464534Y-33526477D01*
X137659219Y-33463220D01*
X137841610Y-33370287D01*
X137934590Y-33302732D01*
X138007213Y-33249971D01*
X138007215Y-33249968D01*
X138007219Y-33249966D01*
X138151966Y-33105219D01*
X138151968Y-33105215D01*
X138151971Y-33105213D01*
X138272284Y-32939614D01*
X138272286Y-32939611D01*
X138272287Y-32939610D01*
X138319516Y-32846917D01*
X138367489Y-32796123D01*
X138435310Y-32779328D01*
X138501445Y-32801865D01*
X138540485Y-32846919D01*
X138587715Y-32939614D01*
X138708028Y-33105213D01*
X138852786Y-33249971D01*
X138959531Y-33327524D01*
X139018390Y-33370287D01*
X139109838Y-33416882D01*
X139200776Y-33463218D01*
X139200778Y-33463218D01*
X139200781Y-33463220D01*
X139245374Y-33477709D01*
X139395465Y-33526477D01*
X139438613Y-33533311D01*
X139597648Y-33558500D01*
X139597649Y-33558500D01*
X139802351Y-33558500D01*
X139802352Y-33558500D01*
X140004534Y-33526477D01*
X140199219Y-33463220D01*
X140381610Y-33370287D01*
X140474590Y-33302732D01*
X140547213Y-33249971D01*
X140547215Y-33249968D01*
X140547219Y-33249966D01*
X140691966Y-33105219D01*
X140691968Y-33105215D01*
X140691971Y-33105213D01*
X140812284Y-32939614D01*
X140812286Y-32939611D01*
X140812287Y-32939610D01*
X140859516Y-32846917D01*
X140907489Y-32796123D01*
X140975310Y-32779328D01*
X141041445Y-32801865D01*
X141080485Y-32846919D01*
X141127715Y-32939614D01*
X141248028Y-33105213D01*
X141392786Y-33249971D01*
X141499531Y-33327524D01*
X141558390Y-33370287D01*
X141649838Y-33416882D01*
X141740776Y-33463218D01*
X141740778Y-33463218D01*
X141740781Y-33463220D01*
X141785374Y-33477709D01*
X141935465Y-33526477D01*
X141978613Y-33533311D01*
X142137648Y-33558500D01*
X142137649Y-33558500D01*
X142342351Y-33558500D01*
X142342352Y-33558500D01*
X142544534Y-33526477D01*
X142739219Y-33463220D01*
X142921610Y-33370287D01*
X143014590Y-33302732D01*
X143087213Y-33249971D01*
X143087215Y-33249968D01*
X143087219Y-33249966D01*
X143231966Y-33105219D01*
X143231968Y-33105215D01*
X143231971Y-33105213D01*
X143352284Y-32939614D01*
X143352286Y-32939611D01*
X143352287Y-32939610D01*
X143399516Y-32846917D01*
X143447489Y-32796123D01*
X143515310Y-32779328D01*
X143581445Y-32801865D01*
X143620485Y-32846919D01*
X143667715Y-32939614D01*
X143788028Y-33105213D01*
X143932786Y-33249971D01*
X144039531Y-33327524D01*
X144098390Y-33370287D01*
X144189838Y-33416882D01*
X144280776Y-33463218D01*
X144280778Y-33463218D01*
X144280781Y-33463220D01*
X144325374Y-33477709D01*
X144475465Y-33526477D01*
X144518613Y-33533311D01*
X144677648Y-33558500D01*
X144677649Y-33558500D01*
X144882351Y-33558500D01*
X144882352Y-33558500D01*
X145084534Y-33526477D01*
X145279219Y-33463220D01*
X145461610Y-33370287D01*
X145554590Y-33302732D01*
X145627213Y-33249971D01*
X145627215Y-33249968D01*
X145627219Y-33249966D01*
X145771966Y-33105219D01*
X145771968Y-33105215D01*
X145771971Y-33105213D01*
X145892284Y-32939614D01*
X145892286Y-32939611D01*
X145892287Y-32939610D01*
X145939516Y-32846917D01*
X145987489Y-32796123D01*
X146055310Y-32779328D01*
X146121445Y-32801865D01*
X146160485Y-32846919D01*
X146207715Y-32939614D01*
X146328028Y-33105213D01*
X146472786Y-33249971D01*
X146579531Y-33327524D01*
X146638390Y-33370287D01*
X146729838Y-33416882D01*
X146820776Y-33463218D01*
X146820778Y-33463218D01*
X146820781Y-33463220D01*
X146865374Y-33477709D01*
X147015465Y-33526477D01*
X147058613Y-33533311D01*
X147217648Y-33558500D01*
X147217649Y-33558500D01*
X147422351Y-33558500D01*
X147422352Y-33558500D01*
X147624534Y-33526477D01*
X147819219Y-33463220D01*
X148001610Y-33370287D01*
X148094590Y-33302732D01*
X148167213Y-33249971D01*
X148167215Y-33249968D01*
X148167219Y-33249966D01*
X148311966Y-33105219D01*
X148311968Y-33105215D01*
X148311971Y-33105213D01*
X148432284Y-32939614D01*
X148432286Y-32939611D01*
X148432287Y-32939610D01*
X148479516Y-32846917D01*
X148527489Y-32796123D01*
X148595310Y-32779328D01*
X148661445Y-32801865D01*
X148700485Y-32846919D01*
X148747715Y-32939614D01*
X148868028Y-33105213D01*
X149012786Y-33249971D01*
X149119531Y-33327524D01*
X149178390Y-33370287D01*
X149269838Y-33416882D01*
X149360776Y-33463218D01*
X149360778Y-33463218D01*
X149360781Y-33463220D01*
X149405374Y-33477709D01*
X149555465Y-33526477D01*
X149598613Y-33533311D01*
X149757648Y-33558500D01*
X149757649Y-33558500D01*
X149962351Y-33558500D01*
X149962352Y-33558500D01*
X150164534Y-33526477D01*
X150359219Y-33463220D01*
X150541610Y-33370287D01*
X150634590Y-33302732D01*
X150707213Y-33249971D01*
X150707215Y-33249968D01*
X150707219Y-33249966D01*
X150851966Y-33105219D01*
X150851968Y-33105215D01*
X150851971Y-33105213D01*
X150972284Y-32939614D01*
X150972286Y-32939611D01*
X150972287Y-32939610D01*
X151019516Y-32846917D01*
X151067489Y-32796123D01*
X151135310Y-32779328D01*
X151201445Y-32801865D01*
X151240485Y-32846919D01*
X151287715Y-32939614D01*
X151408028Y-33105213D01*
X151552786Y-33249971D01*
X151659531Y-33327524D01*
X151718390Y-33370287D01*
X151809838Y-33416882D01*
X151811080Y-33417515D01*
X151861876Y-33465490D01*
X151878671Y-33533311D01*
X151856134Y-33599446D01*
X151811080Y-33638485D01*
X151718386Y-33685715D01*
X151552786Y-33806028D01*
X151408028Y-33950786D01*
X151287715Y-34116386D01*
X151194781Y-34298776D01*
X151131522Y-34493465D01*
X151099500Y-34695648D01*
X151099500Y-34900351D01*
X151131522Y-35102534D01*
X151194781Y-35297223D01*
X151287715Y-35479613D01*
X151408028Y-35645213D01*
X151552786Y-35789971D01*
X151707749Y-35902556D01*
X151718390Y-35910287D01*
X151809840Y-35956883D01*
X151811080Y-35957515D01*
X151861876Y-36005490D01*
X151878671Y-36073311D01*
X151856134Y-36139446D01*
X151811080Y-36178485D01*
X151718386Y-36225715D01*
X151552786Y-36346028D01*
X151408028Y-36490786D01*
X151287715Y-36656386D01*
X151194781Y-36838776D01*
X151131522Y-37033465D01*
X151099500Y-37235648D01*
X151099500Y-37440351D01*
X151131522Y-37642534D01*
X151194781Y-37837223D01*
X151287715Y-38019613D01*
X151408028Y-38185213D01*
X151552786Y-38329971D01*
X151707749Y-38442556D01*
X151718390Y-38450287D01*
X151809840Y-38496883D01*
X151811080Y-38497515D01*
X151861876Y-38545490D01*
X151878671Y-38613311D01*
X151856134Y-38679446D01*
X151811080Y-38718485D01*
X151718386Y-38765715D01*
X151552786Y-38886028D01*
X151408028Y-39030786D01*
X151287715Y-39196386D01*
X151194781Y-39378776D01*
X151131522Y-39573465D01*
X151099500Y-39775648D01*
X151099500Y-39980351D01*
X151131522Y-40182534D01*
X151194781Y-40377223D01*
X151287715Y-40559613D01*
X151408028Y-40725213D01*
X151552786Y-40869971D01*
X151662134Y-40949415D01*
X151718390Y-40990287D01*
X151809840Y-41036883D01*
X151811080Y-41037515D01*
X151861876Y-41085490D01*
X151878671Y-41153311D01*
X151856134Y-41219446D01*
X151811080Y-41258485D01*
X151718386Y-41305715D01*
X151552786Y-41426028D01*
X151408028Y-41570786D01*
X151287715Y-41736386D01*
X151194781Y-41918776D01*
X151131522Y-42113465D01*
X151099500Y-42315648D01*
X151099500Y-42520351D01*
X151131522Y-42722534D01*
X151194781Y-42917223D01*
X151287715Y-43099613D01*
X151408028Y-43265213D01*
X151552786Y-43409971D01*
X151676750Y-43500034D01*
X151718390Y-43530287D01*
X151809840Y-43576883D01*
X151811080Y-43577515D01*
X151861876Y-43625490D01*
X151878671Y-43693311D01*
X151856134Y-43759446D01*
X151811080Y-43798485D01*
X151718386Y-43845715D01*
X151552786Y-43966028D01*
X151408028Y-44110786D01*
X151287715Y-44276386D01*
X151194781Y-44458776D01*
X151131522Y-44653465D01*
X151099500Y-44855648D01*
X151099500Y-45060351D01*
X151131522Y-45262534D01*
X151194781Y-45457223D01*
X151287715Y-45639613D01*
X151408028Y-45805213D01*
X151552786Y-45949971D01*
X151707749Y-46062556D01*
X151718390Y-46070287D01*
X151809840Y-46116883D01*
X151811080Y-46117515D01*
X151861876Y-46165490D01*
X151878671Y-46233311D01*
X151856134Y-46299446D01*
X151811080Y-46338485D01*
X151718386Y-46385715D01*
X151552786Y-46506028D01*
X151408028Y-46650786D01*
X151287715Y-46816386D01*
X151240485Y-46909080D01*
X151192510Y-46959876D01*
X151124689Y-46976671D01*
X151058554Y-46954134D01*
X151019515Y-46909080D01*
X150997205Y-46865295D01*
X150972287Y-46816390D01*
X150945391Y-46779370D01*
X150851971Y-46650786D01*
X150707213Y-46506028D01*
X150541613Y-46385715D01*
X150541612Y-46385714D01*
X150541610Y-46385713D01*
X150484653Y-46356691D01*
X150359223Y-46292781D01*
X150164534Y-46229522D01*
X149989995Y-46201878D01*
X149962352Y-46197500D01*
X149757648Y-46197500D01*
X149733329Y-46201351D01*
X149555465Y-46229522D01*
X149360776Y-46292781D01*
X149178386Y-46385715D01*
X149012786Y-46506028D01*
X148868028Y-46650786D01*
X148747715Y-46816386D01*
X148700485Y-46909080D01*
X148652510Y-46959876D01*
X148584689Y-46976671D01*
X148518554Y-46954134D01*
X148479515Y-46909080D01*
X148457205Y-46865295D01*
X148432287Y-46816390D01*
X148405391Y-46779370D01*
X148311971Y-46650786D01*
X148167213Y-46506028D01*
X148001613Y-46385715D01*
X148001612Y-46385714D01*
X148001610Y-46385713D01*
X147944653Y-46356691D01*
X147819223Y-46292781D01*
X147624534Y-46229522D01*
X147449995Y-46201878D01*
X147422352Y-46197500D01*
X147217648Y-46197500D01*
X147193329Y-46201351D01*
X147015465Y-46229522D01*
X146820776Y-46292781D01*
X146638386Y-46385715D01*
X146472786Y-46506028D01*
X146328028Y-46650786D01*
X146207715Y-46816386D01*
X146160485Y-46909080D01*
X146112510Y-46959876D01*
X146044689Y-46976671D01*
X145978554Y-46954134D01*
X145939515Y-46909080D01*
X145917205Y-46865295D01*
X145892287Y-46816390D01*
X145865391Y-46779370D01*
X145771971Y-46650786D01*
X145627213Y-46506028D01*
X145461613Y-46385715D01*
X145461612Y-46385714D01*
X145461610Y-46385713D01*
X145404653Y-46356691D01*
X145279223Y-46292781D01*
X145084534Y-46229522D01*
X144909995Y-46201878D01*
X144882352Y-46197500D01*
X144677648Y-46197500D01*
X144653329Y-46201351D01*
X144475465Y-46229522D01*
X144280776Y-46292781D01*
X144098386Y-46385715D01*
X143932786Y-46506028D01*
X143788028Y-46650786D01*
X143667715Y-46816386D01*
X143620485Y-46909080D01*
X143572510Y-46959876D01*
X143504689Y-46976671D01*
X143438554Y-46954134D01*
X143399515Y-46909080D01*
X143377205Y-46865295D01*
X143352287Y-46816390D01*
X143325391Y-46779370D01*
X143231971Y-46650786D01*
X143087213Y-46506028D01*
X142921613Y-46385715D01*
X142921612Y-46385714D01*
X142921610Y-46385713D01*
X142864653Y-46356691D01*
X142739223Y-46292781D01*
X142544534Y-46229522D01*
X142369995Y-46201878D01*
X142342352Y-46197500D01*
X142137648Y-46197500D01*
X142113329Y-46201351D01*
X141935465Y-46229522D01*
X141740776Y-46292781D01*
X141558386Y-46385715D01*
X141392786Y-46506028D01*
X141248028Y-46650786D01*
X141127715Y-46816386D01*
X141080485Y-46909080D01*
X141032510Y-46959876D01*
X140964689Y-46976671D01*
X140898554Y-46954134D01*
X140859515Y-46909080D01*
X140837205Y-46865295D01*
X140812287Y-46816390D01*
X140785391Y-46779370D01*
X140691971Y-46650786D01*
X140547213Y-46506028D01*
X140381613Y-46385715D01*
X140381612Y-46385714D01*
X140381610Y-46385713D01*
X140324653Y-46356691D01*
X140199223Y-46292781D01*
X140004534Y-46229522D01*
X139829995Y-46201878D01*
X139802352Y-46197500D01*
X139597648Y-46197500D01*
X139573329Y-46201351D01*
X139395465Y-46229522D01*
X139200776Y-46292781D01*
X139018386Y-46385715D01*
X138852786Y-46506028D01*
X138708028Y-46650786D01*
X138587715Y-46816386D01*
X138540485Y-46909080D01*
X138492510Y-46959876D01*
X138424689Y-46976671D01*
X138358554Y-46954134D01*
X138319515Y-46909080D01*
X138297205Y-46865295D01*
X138272287Y-46816390D01*
X138245391Y-46779370D01*
X138151971Y-46650786D01*
X138007213Y-46506028D01*
X137841613Y-46385715D01*
X137841612Y-46385714D01*
X137841610Y-46385713D01*
X137784653Y-46356691D01*
X137659223Y-46292781D01*
X137464534Y-46229522D01*
X137289995Y-46201878D01*
X137262352Y-46197500D01*
X137057648Y-46197500D01*
X137033329Y-46201351D01*
X136855465Y-46229522D01*
X136660776Y-46292781D01*
X136478386Y-46385715D01*
X136312786Y-46506028D01*
X136168028Y-46650786D01*
X136047715Y-46816386D01*
X136000485Y-46909080D01*
X135952510Y-46959876D01*
X135884689Y-46976671D01*
X135818554Y-46954134D01*
X135779515Y-46909080D01*
X135757205Y-46865295D01*
X135732287Y-46816390D01*
X135705391Y-46779370D01*
X135611971Y-46650786D01*
X135467213Y-46506028D01*
X135301613Y-46385715D01*
X135301612Y-46385714D01*
X135301610Y-46385713D01*
X135244653Y-46356691D01*
X135119223Y-46292781D01*
X134924534Y-46229522D01*
X134749995Y-46201878D01*
X134722352Y-46197500D01*
X134517648Y-46197500D01*
X134493329Y-46201351D01*
X134315465Y-46229522D01*
X134120776Y-46292781D01*
X133938386Y-46385715D01*
X133772786Y-46506028D01*
X133628028Y-46650786D01*
X133507715Y-46816386D01*
X133460485Y-46909080D01*
X133412510Y-46959876D01*
X133344689Y-46976671D01*
X133278554Y-46954134D01*
X133239515Y-46909080D01*
X133217205Y-46865295D01*
X133192287Y-46816390D01*
X133165391Y-46779370D01*
X133071971Y-46650786D01*
X132927213Y-46506028D01*
X132761613Y-46385715D01*
X132761612Y-46385714D01*
X132761610Y-46385713D01*
X132704653Y-46356691D01*
X132579223Y-46292781D01*
X132384534Y-46229522D01*
X132209995Y-46201878D01*
X132182352Y-46197500D01*
X131977648Y-46197500D01*
X131953329Y-46201351D01*
X131775465Y-46229522D01*
X131580776Y-46292781D01*
X131398386Y-46385715D01*
X131232786Y-46506028D01*
X131088028Y-46650786D01*
X130967715Y-46816386D01*
X130920485Y-46909080D01*
X130872510Y-46959876D01*
X130804689Y-46976671D01*
X130738554Y-46954134D01*
X130699515Y-46909080D01*
X130677205Y-46865295D01*
X130652287Y-46816390D01*
X130625391Y-46779370D01*
X130531971Y-46650786D01*
X130387213Y-46506028D01*
X130221613Y-46385715D01*
X130221612Y-46385714D01*
X130221610Y-46385713D01*
X130164653Y-46356691D01*
X130039223Y-46292781D01*
X129844534Y-46229522D01*
X129669995Y-46201878D01*
X129642352Y-46197500D01*
X129437648Y-46197500D01*
X129413329Y-46201351D01*
X129235465Y-46229522D01*
X129040776Y-46292781D01*
X128858386Y-46385715D01*
X128692786Y-46506028D01*
X128548028Y-46650786D01*
X128427715Y-46816386D01*
X128380485Y-46909080D01*
X128332510Y-46959876D01*
X128264689Y-46976671D01*
X128198554Y-46954134D01*
X128159515Y-46909080D01*
X128137205Y-46865295D01*
X128112287Y-46816390D01*
X128085391Y-46779370D01*
X127991971Y-46650786D01*
X127847213Y-46506028D01*
X127681613Y-46385715D01*
X127681612Y-46385714D01*
X127681610Y-46385713D01*
X127624653Y-46356691D01*
X127499223Y-46292781D01*
X127304534Y-46229522D01*
X127129995Y-46201878D01*
X127102352Y-46197500D01*
X126897648Y-46197500D01*
X126873329Y-46201351D01*
X126695465Y-46229522D01*
X126500776Y-46292781D01*
X126318386Y-46385715D01*
X126152786Y-46506028D01*
X126008028Y-46650786D01*
X125887715Y-46816386D01*
X125794781Y-46998776D01*
X125731522Y-47193465D01*
X125699500Y-47395648D01*
X125699500Y-47600351D01*
X125731522Y-47802534D01*
X125794781Y-47997223D01*
X125858691Y-48122653D01*
X125874228Y-48153145D01*
X125887715Y-48179613D01*
X126008028Y-48345213D01*
X126152786Y-48489971D01*
X126307749Y-48602556D01*
X126318390Y-48610287D01*
X126408927Y-48656418D01*
X126500776Y-48703218D01*
X126500778Y-48703218D01*
X126500781Y-48703220D01*
X126589317Y-48731987D01*
X126695465Y-48766477D01*
X126722589Y-48770773D01*
X126897648Y-48798500D01*
X126897649Y-48798500D01*
X127102351Y-48798500D01*
X127102352Y-48798500D01*
X127304534Y-48766477D01*
X127499219Y-48703220D01*
X127681610Y-48610287D01*
X127776044Y-48541677D01*
X127847213Y-48489971D01*
X127847215Y-48489968D01*
X127847219Y-48489966D01*
X127991966Y-48345219D01*
X127991968Y-48345215D01*
X127991971Y-48345213D01*
X128106100Y-48188126D01*
X128112287Y-48179610D01*
X128159516Y-48086917D01*
X128207489Y-48036123D01*
X128275310Y-48019328D01*
X128341445Y-48041865D01*
X128380483Y-48086917D01*
X128424348Y-48173006D01*
X128427715Y-48179614D01*
X128548028Y-48345213D01*
X128692786Y-48489971D01*
X128847749Y-48602556D01*
X128858390Y-48610287D01*
X128948927Y-48656418D01*
X129040776Y-48703218D01*
X129040778Y-48703218D01*
X129040781Y-48703220D01*
X129129317Y-48731987D01*
X129235465Y-48766477D01*
X129262589Y-48770773D01*
X129437648Y-48798500D01*
X129437649Y-48798500D01*
X129642351Y-48798500D01*
X129642352Y-48798500D01*
X129844534Y-48766477D01*
X130039219Y-48703220D01*
X130221610Y-48610287D01*
X130316044Y-48541677D01*
X130387213Y-48489971D01*
X130387215Y-48489968D01*
X130387219Y-48489966D01*
X130531966Y-48345219D01*
X130531968Y-48345215D01*
X130531971Y-48345213D01*
X130646100Y-48188126D01*
X130652287Y-48179610D01*
X130699516Y-48086917D01*
X130747489Y-48036123D01*
X130815310Y-48019328D01*
X130881445Y-48041865D01*
X130920483Y-48086917D01*
X130964348Y-48173006D01*
X130967715Y-48179614D01*
X131088028Y-48345213D01*
X131232786Y-48489971D01*
X131387749Y-48602556D01*
X131398390Y-48610287D01*
X131488927Y-48656418D01*
X131580776Y-48703218D01*
X131580778Y-48703218D01*
X131580781Y-48703220D01*
X131669317Y-48731987D01*
X131775465Y-48766477D01*
X131802589Y-48770773D01*
X131977648Y-48798500D01*
X131977649Y-48798500D01*
X132182351Y-48798500D01*
X132182352Y-48798500D01*
X132384534Y-48766477D01*
X132579219Y-48703220D01*
X132761610Y-48610287D01*
X132856044Y-48541677D01*
X132927213Y-48489971D01*
X132927215Y-48489968D01*
X132927219Y-48489966D01*
X133071966Y-48345219D01*
X133071968Y-48345215D01*
X133071971Y-48345213D01*
X133186100Y-48188126D01*
X133192287Y-48179610D01*
X133239516Y-48086917D01*
X133287489Y-48036123D01*
X133355310Y-48019328D01*
X133421445Y-48041865D01*
X133460483Y-48086917D01*
X133504348Y-48173006D01*
X133507715Y-48179614D01*
X133628028Y-48345213D01*
X133772786Y-48489971D01*
X133927749Y-48602556D01*
X133938390Y-48610287D01*
X134028927Y-48656418D01*
X134120776Y-48703218D01*
X134120778Y-48703218D01*
X134120781Y-48703220D01*
X134209317Y-48731987D01*
X134315465Y-48766477D01*
X134342589Y-48770773D01*
X134517648Y-48798500D01*
X134517649Y-48798500D01*
X134722351Y-48798500D01*
X134722352Y-48798500D01*
X134924534Y-48766477D01*
X135119219Y-48703220D01*
X135301610Y-48610287D01*
X135396044Y-48541677D01*
X135467213Y-48489971D01*
X135467215Y-48489968D01*
X135467219Y-48489966D01*
X135611966Y-48345219D01*
X135611968Y-48345215D01*
X135611971Y-48345213D01*
X135726100Y-48188126D01*
X135732287Y-48179610D01*
X135779516Y-48086917D01*
X135827489Y-48036123D01*
X135895310Y-48019328D01*
X135961445Y-48041865D01*
X136000483Y-48086917D01*
X136044348Y-48173006D01*
X136047715Y-48179614D01*
X136168028Y-48345213D01*
X136312786Y-48489971D01*
X136467749Y-48602556D01*
X136478390Y-48610287D01*
X136568927Y-48656418D01*
X136660776Y-48703218D01*
X136660778Y-48703218D01*
X136660781Y-48703220D01*
X136749317Y-48731987D01*
X136855465Y-48766477D01*
X136882589Y-48770773D01*
X137057648Y-48798500D01*
X137057649Y-48798500D01*
X137262351Y-48798500D01*
X137262352Y-48798500D01*
X137464534Y-48766477D01*
X137659219Y-48703220D01*
X137841610Y-48610287D01*
X137936044Y-48541677D01*
X138007213Y-48489971D01*
X138007215Y-48489968D01*
X138007219Y-48489966D01*
X138151966Y-48345219D01*
X138151968Y-48345215D01*
X138151971Y-48345213D01*
X138266100Y-48188126D01*
X138272287Y-48179610D01*
X138319516Y-48086917D01*
X138367489Y-48036123D01*
X138435310Y-48019328D01*
X138501445Y-48041865D01*
X138540483Y-48086917D01*
X138584348Y-48173006D01*
X138587715Y-48179614D01*
X138708028Y-48345213D01*
X138852786Y-48489971D01*
X139007749Y-48602556D01*
X139018390Y-48610287D01*
X139108927Y-48656418D01*
X139200776Y-48703218D01*
X139200778Y-48703218D01*
X139200781Y-48703220D01*
X139289317Y-48731987D01*
X139395465Y-48766477D01*
X139422589Y-48770773D01*
X139597648Y-48798500D01*
X139597649Y-48798500D01*
X139802351Y-48798500D01*
X139802352Y-48798500D01*
X140004534Y-48766477D01*
X140199219Y-48703220D01*
X140381610Y-48610287D01*
X140476044Y-48541677D01*
X140547213Y-48489971D01*
X140547215Y-48489968D01*
X140547219Y-48489966D01*
X140691966Y-48345219D01*
X140691968Y-48345215D01*
X140691971Y-48345213D01*
X140806100Y-48188126D01*
X140812287Y-48179610D01*
X140859516Y-48086917D01*
X140907489Y-48036123D01*
X140975310Y-48019328D01*
X141041445Y-48041865D01*
X141080483Y-48086917D01*
X141124348Y-48173006D01*
X141127715Y-48179614D01*
X141248028Y-48345213D01*
X141392786Y-48489971D01*
X141547749Y-48602556D01*
X141558390Y-48610287D01*
X141648927Y-48656418D01*
X141740776Y-48703218D01*
X141740778Y-48703218D01*
X141740781Y-48703220D01*
X141829317Y-48731987D01*
X141935465Y-48766477D01*
X141962589Y-48770773D01*
X142137648Y-48798500D01*
X142137649Y-48798500D01*
X142342351Y-48798500D01*
X142342352Y-48798500D01*
X142544534Y-48766477D01*
X142739219Y-48703220D01*
X142921610Y-48610287D01*
X143016044Y-48541677D01*
X143087213Y-48489971D01*
X143087215Y-48489968D01*
X143087219Y-48489966D01*
X143231966Y-48345219D01*
X143231968Y-48345215D01*
X143231971Y-48345213D01*
X143346100Y-48188126D01*
X143352287Y-48179610D01*
X143399516Y-48086917D01*
X143447489Y-48036123D01*
X143515310Y-48019328D01*
X143581445Y-48041865D01*
X143620483Y-48086917D01*
X143664348Y-48173006D01*
X143667715Y-48179614D01*
X143788028Y-48345213D01*
X143932786Y-48489971D01*
X144087749Y-48602556D01*
X144098390Y-48610287D01*
X144188927Y-48656418D01*
X144280776Y-48703218D01*
X144280778Y-48703218D01*
X144280781Y-48703220D01*
X144369317Y-48731987D01*
X144475465Y-48766477D01*
X144502589Y-48770773D01*
X144677648Y-48798500D01*
X144677649Y-48798500D01*
X144882351Y-48798500D01*
X144882352Y-48798500D01*
X145084534Y-48766477D01*
X145279219Y-48703220D01*
X145461610Y-48610287D01*
X145556044Y-48541677D01*
X145627213Y-48489971D01*
X145627215Y-48489968D01*
X145627219Y-48489966D01*
X145771966Y-48345219D01*
X145771968Y-48345215D01*
X145771971Y-48345213D01*
X145886100Y-48188126D01*
X145892287Y-48179610D01*
X145939516Y-48086917D01*
X145987489Y-48036123D01*
X146055310Y-48019328D01*
X146121445Y-48041865D01*
X146160483Y-48086917D01*
X146204348Y-48173006D01*
X146207715Y-48179614D01*
X146328028Y-48345213D01*
X146472786Y-48489971D01*
X146627749Y-48602556D01*
X146638390Y-48610287D01*
X146728927Y-48656418D01*
X146820776Y-48703218D01*
X146820778Y-48703218D01*
X146820781Y-48703220D01*
X146909317Y-48731987D01*
X147015465Y-48766477D01*
X147042589Y-48770773D01*
X147217648Y-48798500D01*
X147217649Y-48798500D01*
X147422351Y-48798500D01*
X147422352Y-48798500D01*
X147624534Y-48766477D01*
X147819219Y-48703220D01*
X148001610Y-48610287D01*
X148096044Y-48541677D01*
X148167213Y-48489971D01*
X148167215Y-48489968D01*
X148167219Y-48489966D01*
X148311966Y-48345219D01*
X148311968Y-48345215D01*
X148311971Y-48345213D01*
X148426100Y-48188126D01*
X148432287Y-48179610D01*
X148479516Y-48086917D01*
X148527489Y-48036123D01*
X148595310Y-48019328D01*
X148661445Y-48041865D01*
X148700483Y-48086917D01*
X148744348Y-48173006D01*
X148747715Y-48179614D01*
X148868028Y-48345213D01*
X149012786Y-48489971D01*
X149167749Y-48602556D01*
X149178390Y-48610287D01*
X149268927Y-48656418D01*
X149360776Y-48703218D01*
X149360778Y-48703218D01*
X149360781Y-48703220D01*
X149449317Y-48731987D01*
X149555465Y-48766477D01*
X149582589Y-48770773D01*
X149757648Y-48798500D01*
X149757649Y-48798500D01*
X149962351Y-48798500D01*
X149962352Y-48798500D01*
X150164534Y-48766477D01*
X150359219Y-48703220D01*
X150541610Y-48610287D01*
X150636044Y-48541677D01*
X150707213Y-48489971D01*
X150707215Y-48489968D01*
X150707219Y-48489966D01*
X150851966Y-48345219D01*
X150851968Y-48345215D01*
X150851971Y-48345213D01*
X150966100Y-48188126D01*
X150972287Y-48179610D01*
X151019516Y-48086917D01*
X151067489Y-48036123D01*
X151135310Y-48019328D01*
X151201445Y-48041865D01*
X151240483Y-48086917D01*
X151284348Y-48173006D01*
X151287715Y-48179614D01*
X151408028Y-48345213D01*
X151552786Y-48489971D01*
X151707749Y-48602556D01*
X151718390Y-48610287D01*
X151808927Y-48656418D01*
X151900776Y-48703218D01*
X151900778Y-48703218D01*
X151900781Y-48703220D01*
X151989317Y-48731987D01*
X152095465Y-48766477D01*
X152122589Y-48770773D01*
X152297648Y-48798500D01*
X152297649Y-48798500D01*
X152502351Y-48798500D01*
X152502352Y-48798500D01*
X152704534Y-48766477D01*
X152899219Y-48703220D01*
X153081610Y-48610287D01*
X153176044Y-48541677D01*
X153247213Y-48489971D01*
X153247215Y-48489968D01*
X153247219Y-48489966D01*
X153391966Y-48345219D01*
X153391968Y-48345215D01*
X153391971Y-48345213D01*
X153506100Y-48188126D01*
X153512287Y-48179610D01*
X153559516Y-48086917D01*
X153607489Y-48036123D01*
X153675310Y-48019328D01*
X153741445Y-48041865D01*
X153780483Y-48086917D01*
X153824348Y-48173006D01*
X153827715Y-48179614D01*
X153948028Y-48345213D01*
X154092786Y-48489971D01*
X154247749Y-48602556D01*
X154258390Y-48610287D01*
X154348927Y-48656418D01*
X154440776Y-48703218D01*
X154440778Y-48703218D01*
X154440781Y-48703220D01*
X154529317Y-48731987D01*
X154635465Y-48766477D01*
X154662589Y-48770773D01*
X154837648Y-48798500D01*
X154837649Y-48798500D01*
X155042351Y-48798500D01*
X155042352Y-48798500D01*
X155244534Y-48766477D01*
X155439219Y-48703220D01*
X155621610Y-48610287D01*
X155716044Y-48541677D01*
X155787213Y-48489971D01*
X155787215Y-48489968D01*
X155787219Y-48489966D01*
X155931966Y-48345219D01*
X155931968Y-48345215D01*
X155931971Y-48345213D01*
X156046100Y-48188126D01*
X156052287Y-48179610D01*
X156099516Y-48086917D01*
X156147489Y-48036123D01*
X156215310Y-48019328D01*
X156281445Y-48041865D01*
X156320483Y-48086917D01*
X156364348Y-48173006D01*
X156367715Y-48179614D01*
X156488028Y-48345213D01*
X156632786Y-48489971D01*
X156787749Y-48602556D01*
X156798390Y-48610287D01*
X156888927Y-48656418D01*
X156980776Y-48703218D01*
X156980778Y-48703218D01*
X156980781Y-48703220D01*
X157069317Y-48731987D01*
X157175465Y-48766477D01*
X157202589Y-48770773D01*
X157377648Y-48798500D01*
X157377649Y-48798500D01*
X157582351Y-48798500D01*
X157582352Y-48798500D01*
X157784534Y-48766477D01*
X157979219Y-48703220D01*
X158161610Y-48610287D01*
X158256044Y-48541677D01*
X158327213Y-48489971D01*
X158327215Y-48489968D01*
X158327219Y-48489966D01*
X158471966Y-48345219D01*
X158471968Y-48345215D01*
X158471971Y-48345213D01*
X158586100Y-48188126D01*
X158592287Y-48179610D01*
X158639516Y-48086917D01*
X158687489Y-48036123D01*
X158755310Y-48019328D01*
X158821445Y-48041865D01*
X158860483Y-48086917D01*
X158904348Y-48173006D01*
X158907715Y-48179614D01*
X159028028Y-48345213D01*
X159124548Y-48441733D01*
X159158033Y-48503056D01*
X159153049Y-48572748D01*
X159111177Y-48628681D01*
X159061060Y-48651031D01*
X158995339Y-48664104D01*
X158995332Y-48664106D01*
X158831459Y-48731983D01*
X158831446Y-48731990D01*
X158683965Y-48830535D01*
X158683961Y-48830538D01*
X158558538Y-48955961D01*
X158558535Y-48955965D01*
X158459990Y-49103446D01*
X158459983Y-49103459D01*
X158392106Y-49267332D01*
X158392103Y-49267341D01*
X158357500Y-49441304D01*
X158357500Y-49618695D01*
X158392103Y-49792658D01*
X158392106Y-49792667D01*
X158459983Y-49956540D01*
X158459990Y-49956553D01*
X158558535Y-50104034D01*
X158558538Y-50104038D01*
X158683961Y-50229461D01*
X158683965Y-50229464D01*
X158831446Y-50328009D01*
X158831459Y-50328016D01*
X158954363Y-50378923D01*
X158995334Y-50395894D01*
X158995336Y-50395894D01*
X158995341Y-50395896D01*
X159169304Y-50430499D01*
X159169307Y-50430500D01*
X159169309Y-50430500D01*
X159346693Y-50430500D01*
X159346694Y-50430499D01*
X159404682Y-50418964D01*
X159520658Y-50395896D01*
X159520661Y-50395894D01*
X159520666Y-50395894D01*
X159684547Y-50328013D01*
X159832035Y-50229464D01*
X159957464Y-50104035D01*
X160056013Y-49956547D01*
X160123894Y-49792666D01*
X160158500Y-49618691D01*
X160158500Y-49441309D01*
X160158500Y-49441306D01*
X160158499Y-49441304D01*
X160123896Y-49267341D01*
X160123893Y-49267332D01*
X160056016Y-49103459D01*
X160056014Y-49103455D01*
X160056013Y-49103453D01*
X159981134Y-48991390D01*
X159960257Y-48924714D01*
X159978741Y-48857334D01*
X160030720Y-48810643D01*
X160084237Y-48798500D01*
X160122351Y-48798500D01*
X160122352Y-48798500D01*
X160324534Y-48766477D01*
X160519219Y-48703220D01*
X160701610Y-48610287D01*
X160796044Y-48541677D01*
X160867213Y-48489971D01*
X160867215Y-48489968D01*
X160867219Y-48489966D01*
X161011966Y-48345219D01*
X161083437Y-48246845D01*
X161138765Y-48204180D01*
X161208379Y-48198200D01*
X161252646Y-48216629D01*
X161371446Y-48296009D01*
X161371459Y-48296016D01*
X161490234Y-48345213D01*
X161535334Y-48363894D01*
X161535336Y-48363894D01*
X161535341Y-48363896D01*
X161709304Y-48398499D01*
X161709307Y-48398500D01*
X161709309Y-48398500D01*
X161886693Y-48398500D01*
X161886694Y-48398499D01*
X161944682Y-48386964D01*
X162060658Y-48363896D01*
X162060661Y-48363894D01*
X162060666Y-48363894D01*
X162224547Y-48296013D01*
X162372035Y-48197464D01*
X162497464Y-48072035D01*
X162596013Y-47924547D01*
X162663894Y-47760666D01*
X162673395Y-47712905D01*
X162689270Y-47633095D01*
X162698500Y-47586691D01*
X162698500Y-47409309D01*
X162698500Y-47409306D01*
X162698499Y-47409304D01*
X162663896Y-47235341D01*
X162663893Y-47235332D01*
X162650534Y-47203081D01*
X162637599Y-47171852D01*
X162596016Y-47071459D01*
X162596009Y-47071446D01*
X162497464Y-46923965D01*
X162497461Y-46923961D01*
X162372038Y-46798538D01*
X162372034Y-46798535D01*
X162224553Y-46699990D01*
X162224540Y-46699983D01*
X162060667Y-46632106D01*
X162060658Y-46632103D01*
X161886694Y-46597500D01*
X161886691Y-46597500D01*
X161709309Y-46597500D01*
X161709306Y-46597500D01*
X161535341Y-46632103D01*
X161535332Y-46632106D01*
X161371459Y-46699983D01*
X161371441Y-46699993D01*
X161252645Y-46779370D01*
X161185968Y-46800248D01*
X161118588Y-46781763D01*
X161083436Y-46749152D01*
X161011969Y-46650784D01*
X160867213Y-46506028D01*
X160701614Y-46385715D01*
X160695006Y-46382348D01*
X160608917Y-46338483D01*
X160558123Y-46290511D01*
X160541328Y-46222690D01*
X160563865Y-46156555D01*
X160608917Y-46117516D01*
X160701610Y-46070287D01*
X160722770Y-46054913D01*
X160867213Y-45949971D01*
X160867215Y-45949968D01*
X160867219Y-45949966D01*
X161011966Y-45805219D01*
X161011968Y-45805215D01*
X161011971Y-45805213D01*
X161064732Y-45732590D01*
X161132287Y-45639610D01*
X161225220Y-45457219D01*
X161288477Y-45262534D01*
X161320500Y-45060352D01*
X161320500Y-44855648D01*
X161288477Y-44653466D01*
X161225220Y-44458781D01*
X161225218Y-44458778D01*
X161225218Y-44458776D01*
X161179515Y-44369080D01*
X161132287Y-44276390D01*
X161124556Y-44265749D01*
X161011971Y-44110786D01*
X160867213Y-43966028D01*
X160701614Y-43845715D01*
X160663900Y-43826499D01*
X160608917Y-43798483D01*
X160558123Y-43750511D01*
X160541328Y-43682690D01*
X160563865Y-43616555D01*
X160608917Y-43577516D01*
X160701610Y-43530287D01*
X160743250Y-43500034D01*
X160867213Y-43409971D01*
X160867215Y-43409968D01*
X160867219Y-43409966D01*
X161011966Y-43265219D01*
X161011968Y-43265215D01*
X161011971Y-43265213D01*
X161067590Y-43188658D01*
X161132287Y-43099610D01*
X161225220Y-42917219D01*
X161251186Y-42837304D01*
X164453500Y-42837304D01*
X164453500Y-43014695D01*
X164488103Y-43188658D01*
X164488106Y-43188667D01*
X164555983Y-43352540D01*
X164555990Y-43352553D01*
X164654535Y-43500034D01*
X164654538Y-43500038D01*
X164779961Y-43625461D01*
X164779965Y-43625464D01*
X164927446Y-43724009D01*
X164927459Y-43724016D01*
X165050363Y-43774923D01*
X165091334Y-43791894D01*
X165091336Y-43791894D01*
X165091341Y-43791896D01*
X165265304Y-43826499D01*
X165265307Y-43826500D01*
X165265309Y-43826500D01*
X165442693Y-43826500D01*
X165442694Y-43826499D01*
X165500682Y-43814964D01*
X165616658Y-43791896D01*
X165616661Y-43791894D01*
X165616666Y-43791894D01*
X165780547Y-43724013D01*
X165928035Y-43625464D01*
X166053464Y-43500035D01*
X166152013Y-43352547D01*
X166219894Y-43188666D01*
X166237609Y-43099610D01*
X166254499Y-43014695D01*
X166254500Y-43014693D01*
X166254500Y-42941635D01*
X168473000Y-42941635D01*
X168473000Y-44434370D01*
X168473001Y-44434376D01*
X168479408Y-44493983D01*
X168529702Y-44628828D01*
X168529706Y-44628835D01*
X168615952Y-44744044D01*
X168615955Y-44744047D01*
X168731164Y-44830293D01*
X168731171Y-44830297D01*
X168866017Y-44880591D01*
X168866016Y-44880591D01*
X168872944Y-44881335D01*
X168925627Y-44887000D01*
X170418372Y-44886999D01*
X170477983Y-44880591D01*
X170612831Y-44830296D01*
X170728046Y-44744046D01*
X170814296Y-44628831D01*
X170864591Y-44493983D01*
X170871000Y-44434373D01*
X170870999Y-43593631D01*
X173553000Y-43593631D01*
X173553000Y-43782368D01*
X173582089Y-43966028D01*
X173582523Y-43968767D01*
X173640843Y-44148256D01*
X173726523Y-44316413D01*
X173837454Y-44469096D01*
X173970904Y-44602546D01*
X174123587Y-44713477D01*
X174291744Y-44799157D01*
X174471233Y-44857477D01*
X174541134Y-44868548D01*
X174657632Y-44887000D01*
X174657637Y-44887000D01*
X174846368Y-44887000D01*
X174949920Y-44870598D01*
X175032767Y-44857477D01*
X175212256Y-44799157D01*
X175380413Y-44713477D01*
X175533096Y-44602546D01*
X175666546Y-44469096D01*
X175777477Y-44316413D01*
X175863157Y-44148256D01*
X175921477Y-43968767D01*
X175934598Y-43885920D01*
X175951000Y-43782368D01*
X175951000Y-43593631D01*
X175931318Y-43469367D01*
X175921477Y-43407233D01*
X175863157Y-43227744D01*
X175777477Y-43059587D01*
X175666546Y-42906904D01*
X175533096Y-42773454D01*
X175380413Y-42662523D01*
X175212256Y-42576843D01*
X175032767Y-42518523D01*
X175032765Y-42518522D01*
X175032763Y-42518522D01*
X174846368Y-42489000D01*
X174846363Y-42489000D01*
X174657637Y-42489000D01*
X174657632Y-42489000D01*
X174471236Y-42518522D01*
X174291741Y-42576844D01*
X174123586Y-42662523D01*
X174054224Y-42712918D01*
X173970904Y-42773454D01*
X173970902Y-42773456D01*
X173970901Y-42773456D01*
X173837456Y-42906901D01*
X173837456Y-42906902D01*
X173837454Y-42906904D01*
X173801694Y-42956123D01*
X173726523Y-43059586D01*
X173640844Y-43227741D01*
X173582522Y-43407236D01*
X173553000Y-43593631D01*
X170870999Y-43593631D01*
X170870999Y-42941628D01*
X170864591Y-42882017D01*
X170824100Y-42773456D01*
X170814297Y-42747171D01*
X170814293Y-42747164D01*
X170728047Y-42631955D01*
X170728044Y-42631952D01*
X170612835Y-42545706D01*
X170612828Y-42545702D01*
X170477982Y-42495408D01*
X170477983Y-42495408D01*
X170418383Y-42489001D01*
X170418381Y-42489000D01*
X170418373Y-42489000D01*
X170418364Y-42489000D01*
X168925629Y-42489000D01*
X168925623Y-42489001D01*
X168866016Y-42495408D01*
X168731171Y-42545702D01*
X168731164Y-42545706D01*
X168615955Y-42631952D01*
X168615952Y-42631955D01*
X168529706Y-42747164D01*
X168529702Y-42747171D01*
X168479408Y-42882017D01*
X168473247Y-42939328D01*
X168473001Y-42941623D01*
X168473000Y-42941635D01*
X166254500Y-42941635D01*
X166254500Y-42837306D01*
X166254499Y-42837304D01*
X166219896Y-42663341D01*
X166219893Y-42663332D01*
X166206896Y-42631955D01*
X166184069Y-42576843D01*
X166152016Y-42499459D01*
X166152009Y-42499446D01*
X166053464Y-42351965D01*
X166053461Y-42351961D01*
X165928038Y-42226538D01*
X165928034Y-42226535D01*
X165780553Y-42127990D01*
X165780540Y-42127983D01*
X165616667Y-42060106D01*
X165616658Y-42060103D01*
X165442694Y-42025500D01*
X165442691Y-42025500D01*
X165265309Y-42025500D01*
X165265306Y-42025500D01*
X165091341Y-42060103D01*
X165091332Y-42060106D01*
X164927459Y-42127983D01*
X164927446Y-42127990D01*
X164779965Y-42226535D01*
X164779961Y-42226538D01*
X164654538Y-42351961D01*
X164654535Y-42351965D01*
X164555990Y-42499446D01*
X164555983Y-42499459D01*
X164488106Y-42663332D01*
X164488103Y-42663341D01*
X164453500Y-42837304D01*
X161251186Y-42837304D01*
X161288477Y-42722534D01*
X161320500Y-42520352D01*
X161320500Y-42315648D01*
X161306386Y-42226535D01*
X161288477Y-42113465D01*
X161225218Y-41918776D01*
X161179515Y-41829080D01*
X161132287Y-41736390D01*
X161121857Y-41722034D01*
X161011971Y-41570786D01*
X160867213Y-41426028D01*
X160701614Y-41305715D01*
X160695006Y-41302348D01*
X160608917Y-41258483D01*
X160602536Y-41252457D01*
X160594217Y-41249663D01*
X160577528Y-41228838D01*
X160558123Y-41210511D01*
X160556012Y-41201990D01*
X160550524Y-41195141D01*
X160547743Y-41168596D01*
X160541328Y-41142690D01*
X160544159Y-41134381D01*
X160543245Y-41125652D01*
X160555255Y-41101819D01*
X160563865Y-41076555D01*
X160571565Y-41069456D01*
X160574689Y-41063258D01*
X160579946Y-41059304D01*
X171819500Y-41059304D01*
X171819500Y-41236695D01*
X171854103Y-41410658D01*
X171854106Y-41410667D01*
X171921983Y-41574540D01*
X171921990Y-41574553D01*
X172020535Y-41722034D01*
X172020538Y-41722038D01*
X172145961Y-41847461D01*
X172145965Y-41847464D01*
X172293446Y-41946009D01*
X172293459Y-41946016D01*
X172416363Y-41996923D01*
X172457334Y-42013894D01*
X172457336Y-42013894D01*
X172457341Y-42013896D01*
X172631304Y-42048499D01*
X172631307Y-42048500D01*
X172631309Y-42048500D01*
X172808693Y-42048500D01*
X172808694Y-42048499D01*
X172866682Y-42036964D01*
X172982658Y-42013896D01*
X172982661Y-42013894D01*
X172982666Y-42013894D01*
X173146547Y-41946013D01*
X173294035Y-41847464D01*
X173419464Y-41722035D01*
X173518013Y-41574547D01*
X173585894Y-41410666D01*
X173620500Y-41236691D01*
X173620500Y-41059309D01*
X173620500Y-41059306D01*
X173620499Y-41059304D01*
X173585896Y-40885341D01*
X173585893Y-40885332D01*
X173579530Y-40869971D01*
X173519573Y-40725219D01*
X173518016Y-40721459D01*
X173518009Y-40721446D01*
X173419464Y-40573965D01*
X173419461Y-40573961D01*
X173294038Y-40448538D01*
X173294034Y-40448535D01*
X173146553Y-40349990D01*
X173146540Y-40349983D01*
X172982667Y-40282106D01*
X172982658Y-40282103D01*
X172808694Y-40247500D01*
X172808691Y-40247500D01*
X172631309Y-40247500D01*
X172631306Y-40247500D01*
X172457341Y-40282103D01*
X172457332Y-40282106D01*
X172293459Y-40349983D01*
X172293446Y-40349990D01*
X172145965Y-40448535D01*
X172145961Y-40448538D01*
X172020538Y-40573961D01*
X172020535Y-40573965D01*
X171921990Y-40721446D01*
X171921983Y-40721459D01*
X171854106Y-40885332D01*
X171854103Y-40885341D01*
X171819500Y-41059304D01*
X160579946Y-41059304D01*
X160594234Y-41048558D01*
X160602231Y-41041187D01*
X160605522Y-41039245D01*
X160701610Y-40990287D01*
X160867219Y-40869966D01*
X161011966Y-40725219D01*
X161011968Y-40725215D01*
X161011971Y-40725213D01*
X161064732Y-40652590D01*
X161132287Y-40559610D01*
X161225220Y-40377219D01*
X161288477Y-40182534D01*
X161320500Y-39980352D01*
X161320500Y-39775648D01*
X161288477Y-39573466D01*
X161225220Y-39378781D01*
X161225218Y-39378778D01*
X161225218Y-39378776D01*
X161179515Y-39289080D01*
X161132287Y-39196390D01*
X161124556Y-39185749D01*
X161011971Y-39030786D01*
X160867213Y-38886028D01*
X160701614Y-38765715D01*
X160695006Y-38762348D01*
X160608917Y-38718483D01*
X160558123Y-38670511D01*
X160541328Y-38602690D01*
X160563865Y-38536555D01*
X160608917Y-38497516D01*
X160701610Y-38450287D01*
X160722770Y-38434913D01*
X160867213Y-38329971D01*
X160867215Y-38329968D01*
X160867219Y-38329966D01*
X161011966Y-38185219D01*
X161011968Y-38185215D01*
X161011971Y-38185213D01*
X161064732Y-38112590D01*
X161132287Y-38019610D01*
X161225220Y-37837219D01*
X161288477Y-37642534D01*
X161320500Y-37440352D01*
X161320500Y-37235648D01*
X161288477Y-37033466D01*
X161225220Y-36838781D01*
X161225218Y-36838778D01*
X161225218Y-36838776D01*
X161179515Y-36749080D01*
X161132287Y-36656390D01*
X161124556Y-36645749D01*
X161011971Y-36490786D01*
X160867213Y-36346028D01*
X160701614Y-36225715D01*
X160695006Y-36222348D01*
X160608917Y-36178483D01*
X160558123Y-36130511D01*
X160541328Y-36062690D01*
X160563865Y-35996555D01*
X160608917Y-35957516D01*
X160701610Y-35910287D01*
X160722770Y-35894913D01*
X160867213Y-35789971D01*
X160867215Y-35789968D01*
X160867219Y-35789966D01*
X161011966Y-35645219D01*
X161011968Y-35645215D01*
X161011971Y-35645213D01*
X161064732Y-35572590D01*
X161132287Y-35479610D01*
X161225220Y-35297219D01*
X161288477Y-35102534D01*
X161320500Y-34900352D01*
X161320500Y-34695648D01*
X161288477Y-34493466D01*
X161225220Y-34298781D01*
X161225218Y-34298778D01*
X161225218Y-34298776D01*
X161179515Y-34209080D01*
X161132287Y-34116390D01*
X161124556Y-34105749D01*
X161011971Y-33950786D01*
X160867213Y-33806028D01*
X160701614Y-33685715D01*
X160695006Y-33682348D01*
X160608917Y-33638483D01*
X160558123Y-33590511D01*
X160541328Y-33522690D01*
X160563865Y-33456555D01*
X160608917Y-33417516D01*
X160701610Y-33370287D01*
X160760470Y-33327523D01*
X160867213Y-33249971D01*
X160867215Y-33249968D01*
X160867219Y-33249966D01*
X161011966Y-33105219D01*
X161011968Y-33105215D01*
X161011971Y-33105213D01*
X161064732Y-33032590D01*
X161132287Y-32939610D01*
X161225220Y-32757219D01*
X161288477Y-32562534D01*
X161320500Y-32360352D01*
X161320500Y-32155648D01*
X161303087Y-32045708D01*
X161288477Y-31953465D01*
X161244426Y-31817890D01*
X161225220Y-31758781D01*
X161225218Y-31758778D01*
X161225218Y-31758776D01*
X161179515Y-31669080D01*
X161132287Y-31576390D01*
X161100092Y-31532077D01*
X161011971Y-31410786D01*
X160867213Y-31266028D01*
X160701613Y-31145715D01*
X160701612Y-31145714D01*
X160701610Y-31145713D01*
X160644653Y-31116691D01*
X160519223Y-31052781D01*
X160324534Y-30989522D01*
X160149995Y-30961878D01*
X160122352Y-30957500D01*
X159917648Y-30957500D01*
X159893329Y-30961351D01*
X159715465Y-30989522D01*
X159520776Y-31052781D01*
X159338386Y-31145715D01*
X159172786Y-31266028D01*
X159028028Y-31410786D01*
X158907715Y-31576386D01*
X158860485Y-31669080D01*
X158812510Y-31719876D01*
X158744689Y-31736671D01*
X158678554Y-31714134D01*
X158639515Y-31669080D01*
X158638883Y-31667840D01*
X158592287Y-31576390D01*
X158560092Y-31532077D01*
X158471971Y-31410786D01*
X158327213Y-31266028D01*
X158161613Y-31145715D01*
X158161612Y-31145714D01*
X158161610Y-31145713D01*
X158104653Y-31116691D01*
X157979223Y-31052781D01*
X157784534Y-30989522D01*
X157609995Y-30961878D01*
X157582352Y-30957500D01*
X157377648Y-30957500D01*
X157353329Y-30961351D01*
X157175465Y-30989522D01*
X156980776Y-31052781D01*
X156798386Y-31145715D01*
X156632786Y-31266028D01*
X156488028Y-31410786D01*
X156367715Y-31576386D01*
X156320485Y-31669080D01*
X156272510Y-31719876D01*
X156204689Y-31736671D01*
X156138554Y-31714134D01*
X156099515Y-31669080D01*
X156098883Y-31667840D01*
X156052287Y-31576390D01*
X156020092Y-31532077D01*
X155931971Y-31410786D01*
X155787213Y-31266028D01*
X155621613Y-31145715D01*
X155621612Y-31145714D01*
X155621610Y-31145713D01*
X155564653Y-31116691D01*
X155439223Y-31052781D01*
X155244534Y-30989522D01*
X155069995Y-30961878D01*
X155042352Y-30957500D01*
X154837648Y-30957500D01*
X154813329Y-30961351D01*
X154635465Y-30989522D01*
X154440776Y-31052781D01*
X154258386Y-31145715D01*
X154092786Y-31266028D01*
X153948028Y-31410786D01*
X153827715Y-31576386D01*
X153780485Y-31669080D01*
X153732510Y-31719876D01*
X153664689Y-31736671D01*
X153598554Y-31714134D01*
X153559515Y-31669080D01*
X153558883Y-31667840D01*
X153512287Y-31576390D01*
X153480092Y-31532077D01*
X153391971Y-31410786D01*
X153247213Y-31266028D01*
X153081613Y-31145715D01*
X153081612Y-31145714D01*
X153081610Y-31145713D01*
X153024653Y-31116691D01*
X152899223Y-31052781D01*
X152704534Y-30989522D01*
X152529995Y-30961878D01*
X152502352Y-30957500D01*
X152297648Y-30957500D01*
X152273329Y-30961351D01*
X152095465Y-30989522D01*
X151900776Y-31052781D01*
X151718386Y-31145715D01*
X151552786Y-31266028D01*
X151408028Y-31410786D01*
X151287715Y-31576386D01*
X151240485Y-31669080D01*
X151192510Y-31719876D01*
X151124689Y-31736671D01*
X151058554Y-31714134D01*
X151019515Y-31669080D01*
X151018883Y-31667840D01*
X150972287Y-31576390D01*
X150940092Y-31532077D01*
X150851971Y-31410786D01*
X150707213Y-31266028D01*
X150541613Y-31145715D01*
X150541612Y-31145714D01*
X150541610Y-31145713D01*
X150484653Y-31116691D01*
X150359223Y-31052781D01*
X150164534Y-30989522D01*
X149989995Y-30961878D01*
X149962352Y-30957500D01*
X149757648Y-30957500D01*
X149733329Y-30961351D01*
X149555465Y-30989522D01*
X149360776Y-31052781D01*
X149178386Y-31145715D01*
X149012786Y-31266028D01*
X148868028Y-31410786D01*
X148747715Y-31576386D01*
X148700485Y-31669080D01*
X148652510Y-31719876D01*
X148584689Y-31736671D01*
X148518554Y-31714134D01*
X148479515Y-31669080D01*
X148478883Y-31667840D01*
X148432287Y-31576390D01*
X148400092Y-31532077D01*
X148311971Y-31410786D01*
X148167213Y-31266028D01*
X148001613Y-31145715D01*
X148001612Y-31145714D01*
X148001610Y-31145713D01*
X147944653Y-31116691D01*
X147819223Y-31052781D01*
X147624534Y-30989522D01*
X147449995Y-30961878D01*
X147422352Y-30957500D01*
X147217648Y-30957500D01*
X147193329Y-30961351D01*
X147015465Y-30989522D01*
X146820776Y-31052781D01*
X146638386Y-31145715D01*
X146472786Y-31266028D01*
X146328028Y-31410786D01*
X146207715Y-31576386D01*
X146160485Y-31669080D01*
X146112510Y-31719876D01*
X146044689Y-31736671D01*
X145978554Y-31714134D01*
X145939515Y-31669080D01*
X145938883Y-31667840D01*
X145892287Y-31576390D01*
X145860092Y-31532077D01*
X145771971Y-31410786D01*
X145627213Y-31266028D01*
X145461613Y-31145715D01*
X145461612Y-31145714D01*
X145461610Y-31145713D01*
X145404653Y-31116691D01*
X145279223Y-31052781D01*
X145084534Y-30989522D01*
X144909995Y-30961878D01*
X144882352Y-30957500D01*
X144677648Y-30957500D01*
X144653329Y-30961351D01*
X144475465Y-30989522D01*
X144280776Y-31052781D01*
X144098386Y-31145715D01*
X143932786Y-31266028D01*
X143788028Y-31410786D01*
X143667715Y-31576386D01*
X143620485Y-31669080D01*
X143572510Y-31719876D01*
X143504689Y-31736671D01*
X143438554Y-31714134D01*
X143399515Y-31669080D01*
X143398883Y-31667840D01*
X143352287Y-31576390D01*
X143320092Y-31532077D01*
X143231971Y-31410786D01*
X143087213Y-31266028D01*
X142921613Y-31145715D01*
X142921612Y-31145714D01*
X142921610Y-31145713D01*
X142864653Y-31116691D01*
X142739223Y-31052781D01*
X142544534Y-30989522D01*
X142369995Y-30961878D01*
X142342352Y-30957500D01*
X142137648Y-30957500D01*
X142113329Y-30961351D01*
X141935465Y-30989522D01*
X141740776Y-31052781D01*
X141558386Y-31145715D01*
X141392786Y-31266028D01*
X141248028Y-31410786D01*
X141127715Y-31576386D01*
X141080485Y-31669080D01*
X141032510Y-31719876D01*
X140964689Y-31736671D01*
X140898554Y-31714134D01*
X140859515Y-31669080D01*
X140858883Y-31667840D01*
X140812287Y-31576390D01*
X140780092Y-31532077D01*
X140691971Y-31410786D01*
X140547213Y-31266028D01*
X140381613Y-31145715D01*
X140381612Y-31145714D01*
X140381610Y-31145713D01*
X140324653Y-31116691D01*
X140199223Y-31052781D01*
X140004534Y-30989522D01*
X139829995Y-30961878D01*
X139802352Y-30957500D01*
X139597648Y-30957500D01*
X139573329Y-30961351D01*
X139395465Y-30989522D01*
X139200776Y-31052781D01*
X139018386Y-31145715D01*
X138852786Y-31266028D01*
X138708028Y-31410786D01*
X138587715Y-31576386D01*
X138540485Y-31669080D01*
X138492510Y-31719876D01*
X138424689Y-31736671D01*
X138358554Y-31714134D01*
X138319515Y-31669080D01*
X138318883Y-31667840D01*
X138272287Y-31576390D01*
X138240092Y-31532077D01*
X138151971Y-31410786D01*
X138007213Y-31266028D01*
X137841613Y-31145715D01*
X137841612Y-31145714D01*
X137841610Y-31145713D01*
X137784653Y-31116691D01*
X137659223Y-31052781D01*
X137464534Y-30989522D01*
X137289995Y-30961878D01*
X137262352Y-30957500D01*
X137057648Y-30957500D01*
X137033329Y-30961351D01*
X136855465Y-30989522D01*
X136660776Y-31052781D01*
X136478386Y-31145715D01*
X136312786Y-31266028D01*
X136168028Y-31410786D01*
X136047715Y-31576386D01*
X136000485Y-31669080D01*
X135952510Y-31719876D01*
X135884689Y-31736671D01*
X135818554Y-31714134D01*
X135779515Y-31669080D01*
X135778883Y-31667840D01*
X135732287Y-31576390D01*
X135700092Y-31532077D01*
X135611971Y-31410786D01*
X135467213Y-31266028D01*
X135301613Y-31145715D01*
X135301612Y-31145714D01*
X135301610Y-31145713D01*
X135244653Y-31116691D01*
X135119223Y-31052781D01*
X134924534Y-30989522D01*
X134749995Y-30961878D01*
X134722352Y-30957500D01*
X134517648Y-30957500D01*
X134493329Y-30961351D01*
X134315465Y-30989522D01*
X134120776Y-31052781D01*
X133938386Y-31145715D01*
X133772786Y-31266028D01*
X133628028Y-31410786D01*
X133507715Y-31576386D01*
X133460485Y-31669080D01*
X133412510Y-31719876D01*
X133344689Y-31736671D01*
X133278554Y-31714134D01*
X133239515Y-31669080D01*
X133238883Y-31667840D01*
X133192287Y-31576390D01*
X133160092Y-31532077D01*
X133071971Y-31410786D01*
X132927213Y-31266028D01*
X132761613Y-31145715D01*
X132761612Y-31145714D01*
X132761610Y-31145713D01*
X132704653Y-31116691D01*
X132579223Y-31052781D01*
X132384534Y-30989522D01*
X132209995Y-30961878D01*
X132182352Y-30957500D01*
X131977648Y-30957500D01*
X131953329Y-30961351D01*
X131775465Y-30989522D01*
X131580776Y-31052781D01*
X131398386Y-31145715D01*
X131232786Y-31266028D01*
X131088028Y-31410786D01*
X130967713Y-31576388D01*
X130920203Y-31669630D01*
X130872228Y-31720426D01*
X130804407Y-31737220D01*
X130738272Y-31714682D01*
X130699234Y-31669628D01*
X130651861Y-31576652D01*
X130619474Y-31532077D01*
X130619474Y-31532076D01*
X130063787Y-32087764D01*
X130052518Y-32045708D01*
X129980110Y-31920292D01*
X129877708Y-31817890D01*
X129752292Y-31745482D01*
X129710233Y-31734212D01*
X130265922Y-31178524D01*
X130265921Y-31178523D01*
X130221359Y-31146147D01*
X130221350Y-31146141D01*
X130039031Y-31053244D01*
X129844417Y-30990009D01*
X129642317Y-30958000D01*
X129437683Y-30958000D01*
X129235582Y-30990009D01*
X129040968Y-31053244D01*
X128858644Y-31146143D01*
X128814077Y-31178523D01*
X128814077Y-31178524D01*
X129369766Y-31734212D01*
X129327708Y-31745482D01*
X129202292Y-31817890D01*
X129099890Y-31920292D01*
X129027482Y-32045708D01*
X129016212Y-32087765D01*
X128460524Y-31532077D01*
X128460523Y-31532077D01*
X128428143Y-31576644D01*
X128380765Y-31669630D01*
X128332790Y-31720426D01*
X128264969Y-31737221D01*
X128198834Y-31714683D01*
X128159795Y-31669630D01*
X128125639Y-31602595D01*
X128112287Y-31576390D01*
X128112285Y-31576387D01*
X128112284Y-31576385D01*
X127991971Y-31410786D01*
X127847213Y-31266028D01*
X127681613Y-31145715D01*
X127681612Y-31145714D01*
X127681610Y-31145713D01*
X127624653Y-31116691D01*
X127499223Y-31052781D01*
X127304534Y-30989522D01*
X127129995Y-30961878D01*
X127102352Y-30957500D01*
X126897648Y-30957500D01*
X126873329Y-30961351D01*
X126695465Y-30989522D01*
X126500776Y-31052781D01*
X126318386Y-31145715D01*
X126152786Y-31266028D01*
X126008028Y-31410786D01*
X125887715Y-31576386D01*
X125794781Y-31758776D01*
X125731522Y-31953465D01*
X125699500Y-32155648D01*
X125201878Y-32155648D01*
X125171709Y-31965173D01*
X125110882Y-31777970D01*
X125055679Y-31669628D01*
X125021524Y-31602595D01*
X124905828Y-31443354D01*
X124766646Y-31304172D01*
X124607405Y-31188476D01*
X124587871Y-31178523D01*
X124432029Y-31099117D01*
X124244826Y-31038290D01*
X124050422Y-31007500D01*
X124050417Y-31007500D01*
X123853583Y-31007500D01*
X123853578Y-31007500D01*
X123659173Y-31038290D01*
X123471970Y-31099117D01*
X123296594Y-31188476D01*
X123205741Y-31254485D01*
X123137354Y-31304172D01*
X123137352Y-31304174D01*
X123137351Y-31304174D01*
X122998174Y-31443351D01*
X122998174Y-31443352D01*
X122998172Y-31443354D01*
X122948485Y-31511741D01*
X122882476Y-31602594D01*
X122793117Y-31777970D01*
X122732290Y-31965173D01*
X122701500Y-32159577D01*
X121158500Y-32159577D01*
X121158500Y-30137304D01*
X171311500Y-30137304D01*
X171311500Y-30314695D01*
X171346103Y-30488658D01*
X171346106Y-30488667D01*
X171413983Y-30652540D01*
X171413990Y-30652553D01*
X171512535Y-30800034D01*
X171512538Y-30800038D01*
X171637961Y-30925461D01*
X171637965Y-30925464D01*
X171785446Y-31024009D01*
X171785459Y-31024016D01*
X171908363Y-31074923D01*
X171949334Y-31091894D01*
X171949336Y-31091894D01*
X171949341Y-31091896D01*
X172123304Y-31126499D01*
X172123307Y-31126500D01*
X172123309Y-31126500D01*
X172300693Y-31126500D01*
X172300694Y-31126499D01*
X172358682Y-31114964D01*
X172474658Y-31091896D01*
X172474661Y-31091894D01*
X172474666Y-31091894D01*
X172638547Y-31024013D01*
X172786035Y-30925464D01*
X172911464Y-30800035D01*
X173010013Y-30652547D01*
X173077894Y-30488666D01*
X173077896Y-30488658D01*
X173106383Y-30345446D01*
X173138768Y-30283535D01*
X173199484Y-30248961D01*
X173269253Y-30252700D01*
X173325925Y-30293567D01*
X173349617Y-30345446D01*
X173378103Y-30488658D01*
X173378106Y-30488667D01*
X173445983Y-30652540D01*
X173445990Y-30652553D01*
X173544535Y-30800034D01*
X173544538Y-30800038D01*
X173669961Y-30925461D01*
X173669965Y-30925464D01*
X173817446Y-31024009D01*
X173817459Y-31024016D01*
X173940363Y-31074923D01*
X173981334Y-31091894D01*
X173981336Y-31091894D01*
X173981341Y-31091896D01*
X174155304Y-31126499D01*
X174155307Y-31126500D01*
X174155309Y-31126500D01*
X174332693Y-31126500D01*
X174332694Y-31126499D01*
X174390682Y-31114964D01*
X174506658Y-31091896D01*
X174506661Y-31091894D01*
X174506666Y-31091894D01*
X174670547Y-31024013D01*
X174818035Y-30925464D01*
X174943464Y-30800035D01*
X175042013Y-30652547D01*
X175109894Y-30488666D01*
X175144500Y-30314691D01*
X175144500Y-30137309D01*
X175144500Y-30137306D01*
X175144499Y-30137304D01*
X175109896Y-29963341D01*
X175109893Y-29963332D01*
X175042016Y-29799459D01*
X175042009Y-29799446D01*
X174943464Y-29651965D01*
X174943461Y-29651961D01*
X174818038Y-29526538D01*
X174818034Y-29526535D01*
X174670553Y-29427990D01*
X174670540Y-29427983D01*
X174506667Y-29360106D01*
X174506658Y-29360103D01*
X174332694Y-29325500D01*
X174332691Y-29325500D01*
X174155309Y-29325500D01*
X174155306Y-29325500D01*
X173981341Y-29360103D01*
X173981332Y-29360106D01*
X173817459Y-29427983D01*
X173817446Y-29427990D01*
X173669965Y-29526535D01*
X173669961Y-29526538D01*
X173544538Y-29651961D01*
X173544535Y-29651965D01*
X173445990Y-29799446D01*
X173445983Y-29799459D01*
X173378106Y-29963332D01*
X173378104Y-29963340D01*
X173349617Y-30106554D01*
X173317232Y-30168465D01*
X173256516Y-30203039D01*
X173186747Y-30199299D01*
X173130075Y-30158432D01*
X173106383Y-30106554D01*
X173077895Y-29963340D01*
X173077894Y-29963334D01*
X173060923Y-29922363D01*
X173010016Y-29799459D01*
X173010009Y-29799446D01*
X172911464Y-29651965D01*
X172911461Y-29651961D01*
X172786038Y-29526538D01*
X172786034Y-29526535D01*
X172638553Y-29427990D01*
X172638540Y-29427983D01*
X172474667Y-29360106D01*
X172474658Y-29360103D01*
X172300694Y-29325500D01*
X172300691Y-29325500D01*
X172123309Y-29325500D01*
X172123306Y-29325500D01*
X171949341Y-29360103D01*
X171949332Y-29360106D01*
X171785459Y-29427983D01*
X171785446Y-29427990D01*
X171637965Y-29526535D01*
X171637961Y-29526538D01*
X171512538Y-29651961D01*
X171512535Y-29651965D01*
X171413990Y-29799446D01*
X171413983Y-29799459D01*
X171346106Y-29963332D01*
X171346103Y-29963341D01*
X171311500Y-30137304D01*
X121158500Y-30137304D01*
X121158500Y-29080500D01*
X121178185Y-29013461D01*
X121230989Y-28967706D01*
X121282500Y-28956500D01*
X179199500Y-28956500D01*
X179266539Y-28976185D01*
G37*
%TD.AperFunction*%
%TD*%
M02*
