%TF.GenerationSoftware,KiCad,Pcbnew,9.0.3*%
%TF.CreationDate,2025-08-09T12:17:42+10:00*%
%TF.ProjectId,soundrocket,736f756e-6472-46f6-936b-65742e6b6963,rev?*%
%TF.SameCoordinates,Original*%
%TF.FileFunction,Legend,Top*%
%TF.FilePolarity,Positive*%
%FSLAX46Y46*%
G04 Gerber Fmt 4.6, Leading zero omitted, Abs format (unit mm)*
G04 Created by KiCad (PCBNEW 9.0.3) date 2025-08-09 12:17:42*
%MOMM*%
%LPD*%
G01*
G04 APERTURE LIST*
%ADD10C,0.160000*%
%ADD11C,0.150000*%
%ADD12C,0.127000*%
%ADD13C,0.100000*%
%ADD14C,0.120000*%
%ADD15C,0.200000*%
G04 APERTURE END LIST*
D10*
X178709775Y-56854260D02*
X177909775Y-56854260D01*
X177909775Y-56854260D02*
X177909775Y-56663784D01*
X177909775Y-56663784D02*
X177947870Y-56549498D01*
X177947870Y-56549498D02*
X178024060Y-56473308D01*
X178024060Y-56473308D02*
X178100251Y-56435213D01*
X178100251Y-56435213D02*
X178252632Y-56397117D01*
X178252632Y-56397117D02*
X178366918Y-56397117D01*
X178366918Y-56397117D02*
X178519299Y-56435213D01*
X178519299Y-56435213D02*
X178595489Y-56473308D01*
X178595489Y-56473308D02*
X178671680Y-56549498D01*
X178671680Y-56549498D02*
X178709775Y-56663784D01*
X178709775Y-56663784D02*
X178709775Y-56854260D01*
X178671680Y-55749498D02*
X178709775Y-55825689D01*
X178709775Y-55825689D02*
X178709775Y-55978070D01*
X178709775Y-55978070D02*
X178671680Y-56054260D01*
X178671680Y-56054260D02*
X178595489Y-56092356D01*
X178595489Y-56092356D02*
X178290727Y-56092356D01*
X178290727Y-56092356D02*
X178214537Y-56054260D01*
X178214537Y-56054260D02*
X178176441Y-55978070D01*
X178176441Y-55978070D02*
X178176441Y-55825689D01*
X178176441Y-55825689D02*
X178214537Y-55749498D01*
X178214537Y-55749498D02*
X178290727Y-55711403D01*
X178290727Y-55711403D02*
X178366918Y-55711403D01*
X178366918Y-55711403D02*
X178443108Y-56092356D01*
X178671680Y-55406642D02*
X178709775Y-55330451D01*
X178709775Y-55330451D02*
X178709775Y-55178070D01*
X178709775Y-55178070D02*
X178671680Y-55101880D01*
X178671680Y-55101880D02*
X178595489Y-55063784D01*
X178595489Y-55063784D02*
X178557394Y-55063784D01*
X178557394Y-55063784D02*
X178481203Y-55101880D01*
X178481203Y-55101880D02*
X178443108Y-55178070D01*
X178443108Y-55178070D02*
X178443108Y-55292356D01*
X178443108Y-55292356D02*
X178405013Y-55368546D01*
X178405013Y-55368546D02*
X178328822Y-55406642D01*
X178328822Y-55406642D02*
X178290727Y-55406642D01*
X178290727Y-55406642D02*
X178214537Y-55368546D01*
X178214537Y-55368546D02*
X178176441Y-55292356D01*
X178176441Y-55292356D02*
X178176441Y-55178070D01*
X178176441Y-55178070D02*
X178214537Y-55101880D01*
X178709775Y-54720927D02*
X178176441Y-54720927D01*
X177909775Y-54720927D02*
X177947870Y-54759023D01*
X177947870Y-54759023D02*
X177985965Y-54720927D01*
X177985965Y-54720927D02*
X177947870Y-54682832D01*
X177947870Y-54682832D02*
X177909775Y-54720927D01*
X177909775Y-54720927D02*
X177985965Y-54720927D01*
X178176441Y-53997118D02*
X178824060Y-53997118D01*
X178824060Y-53997118D02*
X178900251Y-54035213D01*
X178900251Y-54035213D02*
X178938346Y-54073309D01*
X178938346Y-54073309D02*
X178976441Y-54149499D01*
X178976441Y-54149499D02*
X178976441Y-54263785D01*
X178976441Y-54263785D02*
X178938346Y-54339975D01*
X178671680Y-53997118D02*
X178709775Y-54073309D01*
X178709775Y-54073309D02*
X178709775Y-54225690D01*
X178709775Y-54225690D02*
X178671680Y-54301880D01*
X178671680Y-54301880D02*
X178633584Y-54339975D01*
X178633584Y-54339975D02*
X178557394Y-54378071D01*
X178557394Y-54378071D02*
X178328822Y-54378071D01*
X178328822Y-54378071D02*
X178252632Y-54339975D01*
X178252632Y-54339975D02*
X178214537Y-54301880D01*
X178214537Y-54301880D02*
X178176441Y-54225690D01*
X178176441Y-54225690D02*
X178176441Y-54073309D01*
X178176441Y-54073309D02*
X178214537Y-53997118D01*
X178176441Y-53616165D02*
X178709775Y-53616165D01*
X178252632Y-53616165D02*
X178214537Y-53578070D01*
X178214537Y-53578070D02*
X178176441Y-53501880D01*
X178176441Y-53501880D02*
X178176441Y-53387594D01*
X178176441Y-53387594D02*
X178214537Y-53311403D01*
X178214537Y-53311403D02*
X178290727Y-53273308D01*
X178290727Y-53273308D02*
X178709775Y-53273308D01*
X178671680Y-52587593D02*
X178709775Y-52663784D01*
X178709775Y-52663784D02*
X178709775Y-52816165D01*
X178709775Y-52816165D02*
X178671680Y-52892355D01*
X178671680Y-52892355D02*
X178595489Y-52930451D01*
X178595489Y-52930451D02*
X178290727Y-52930451D01*
X178290727Y-52930451D02*
X178214537Y-52892355D01*
X178214537Y-52892355D02*
X178176441Y-52816165D01*
X178176441Y-52816165D02*
X178176441Y-52663784D01*
X178176441Y-52663784D02*
X178214537Y-52587593D01*
X178214537Y-52587593D02*
X178290727Y-52549498D01*
X178290727Y-52549498D02*
X178366918Y-52549498D01*
X178366918Y-52549498D02*
X178443108Y-52930451D01*
X178709775Y-51863784D02*
X177909775Y-51863784D01*
X178671680Y-51863784D02*
X178709775Y-51939975D01*
X178709775Y-51939975D02*
X178709775Y-52092356D01*
X178709775Y-52092356D02*
X178671680Y-52168546D01*
X178671680Y-52168546D02*
X178633584Y-52206641D01*
X178633584Y-52206641D02*
X178557394Y-52244737D01*
X178557394Y-52244737D02*
X178328822Y-52244737D01*
X178328822Y-52244737D02*
X178252632Y-52206641D01*
X178252632Y-52206641D02*
X178214537Y-52168546D01*
X178214537Y-52168546D02*
X178176441Y-52092356D01*
X178176441Y-52092356D02*
X178176441Y-51939975D01*
X178176441Y-51939975D02*
X178214537Y-51863784D01*
X178709775Y-50873307D02*
X177909775Y-50873307D01*
X178214537Y-50873307D02*
X178176441Y-50797117D01*
X178176441Y-50797117D02*
X178176441Y-50644736D01*
X178176441Y-50644736D02*
X178214537Y-50568545D01*
X178214537Y-50568545D02*
X178252632Y-50530450D01*
X178252632Y-50530450D02*
X178328822Y-50492355D01*
X178328822Y-50492355D02*
X178557394Y-50492355D01*
X178557394Y-50492355D02*
X178633584Y-50530450D01*
X178633584Y-50530450D02*
X178671680Y-50568545D01*
X178671680Y-50568545D02*
X178709775Y-50644736D01*
X178709775Y-50644736D02*
X178709775Y-50797117D01*
X178709775Y-50797117D02*
X178671680Y-50873307D01*
X178176441Y-50225688D02*
X178709775Y-50035212D01*
X178176441Y-49844735D02*
X178709775Y-50035212D01*
X178709775Y-50035212D02*
X178900251Y-50111402D01*
X178900251Y-50111402D02*
X178938346Y-50149497D01*
X178938346Y-50149497D02*
X178976441Y-50225688D01*
X178709775Y-48930449D02*
X177909775Y-48930449D01*
X177909775Y-48930449D02*
X177909775Y-48739973D01*
X177909775Y-48739973D02*
X177947870Y-48625687D01*
X177947870Y-48625687D02*
X178024060Y-48549497D01*
X178024060Y-48549497D02*
X178100251Y-48511402D01*
X178100251Y-48511402D02*
X178252632Y-48473306D01*
X178252632Y-48473306D02*
X178366918Y-48473306D01*
X178366918Y-48473306D02*
X178519299Y-48511402D01*
X178519299Y-48511402D02*
X178595489Y-48549497D01*
X178595489Y-48549497D02*
X178671680Y-48625687D01*
X178671680Y-48625687D02*
X178709775Y-48739973D01*
X178709775Y-48739973D02*
X178709775Y-48930449D01*
X178709775Y-47787592D02*
X178290727Y-47787592D01*
X178290727Y-47787592D02*
X178214537Y-47825687D01*
X178214537Y-47825687D02*
X178176441Y-47901878D01*
X178176441Y-47901878D02*
X178176441Y-48054259D01*
X178176441Y-48054259D02*
X178214537Y-48130449D01*
X178671680Y-47787592D02*
X178709775Y-47863783D01*
X178709775Y-47863783D02*
X178709775Y-48054259D01*
X178709775Y-48054259D02*
X178671680Y-48130449D01*
X178671680Y-48130449D02*
X178595489Y-48168545D01*
X178595489Y-48168545D02*
X178519299Y-48168545D01*
X178519299Y-48168545D02*
X178443108Y-48130449D01*
X178443108Y-48130449D02*
X178405013Y-48054259D01*
X178405013Y-48054259D02*
X178405013Y-47863783D01*
X178405013Y-47863783D02*
X178366918Y-47787592D01*
X178176441Y-47406639D02*
X178709775Y-47406639D01*
X178252632Y-47406639D02*
X178214537Y-47368544D01*
X178214537Y-47368544D02*
X178176441Y-47292354D01*
X178176441Y-47292354D02*
X178176441Y-47178068D01*
X178176441Y-47178068D02*
X178214537Y-47101877D01*
X178214537Y-47101877D02*
X178290727Y-47063782D01*
X178290727Y-47063782D02*
X178709775Y-47063782D01*
X178481203Y-46111401D02*
X178481203Y-45730448D01*
X178709775Y-46187591D02*
X177909775Y-45920924D01*
X177909775Y-45920924D02*
X178709775Y-45654258D01*
D11*
X156099048Y-52032819D02*
X156670476Y-52032819D01*
X156384762Y-53032819D02*
X156384762Y-52032819D01*
X156908572Y-52032819D02*
X157575238Y-53032819D01*
X157575238Y-52032819D02*
X156908572Y-53032819D01*
X157956191Y-52651866D02*
X158718096Y-52651866D01*
X136306666Y-49780618D02*
X136398095Y-49811094D01*
X136398095Y-49811094D02*
X136550476Y-49811094D01*
X136550476Y-49811094D02*
X136611428Y-49780618D01*
X136611428Y-49780618D02*
X136641904Y-49750141D01*
X136641904Y-49750141D02*
X136672381Y-49689189D01*
X136672381Y-49689189D02*
X136672381Y-49628237D01*
X136672381Y-49628237D02*
X136641904Y-49567284D01*
X136641904Y-49567284D02*
X136611428Y-49536808D01*
X136611428Y-49536808D02*
X136550476Y-49506332D01*
X136550476Y-49506332D02*
X136428571Y-49475856D01*
X136428571Y-49475856D02*
X136367619Y-49445379D01*
X136367619Y-49445379D02*
X136337142Y-49414903D01*
X136337142Y-49414903D02*
X136306666Y-49353951D01*
X136306666Y-49353951D02*
X136306666Y-49292998D01*
X136306666Y-49292998D02*
X136337142Y-49232046D01*
X136337142Y-49232046D02*
X136367619Y-49201570D01*
X136367619Y-49201570D02*
X136428571Y-49171094D01*
X136428571Y-49171094D02*
X136580952Y-49171094D01*
X136580952Y-49171094D02*
X136672381Y-49201570D01*
X136885714Y-49171094D02*
X137038095Y-49811094D01*
X137038095Y-49811094D02*
X137160000Y-49353951D01*
X137160000Y-49353951D02*
X137281905Y-49811094D01*
X137281905Y-49811094D02*
X137434286Y-49171094D01*
X137647619Y-49232046D02*
X137678095Y-49201570D01*
X137678095Y-49201570D02*
X137739048Y-49171094D01*
X137739048Y-49171094D02*
X137891429Y-49171094D01*
X137891429Y-49171094D02*
X137952381Y-49201570D01*
X137952381Y-49201570D02*
X137982857Y-49232046D01*
X137982857Y-49232046D02*
X138013334Y-49292998D01*
X138013334Y-49292998D02*
X138013334Y-49353951D01*
X138013334Y-49353951D02*
X137982857Y-49445379D01*
X137982857Y-49445379D02*
X137617143Y-49811094D01*
X137617143Y-49811094D02*
X138013334Y-49811094D01*
X160671048Y-52286819D02*
X161242476Y-52286819D01*
X160956762Y-53286819D02*
X160956762Y-52286819D01*
X161480572Y-52286819D02*
X162147238Y-53286819D01*
X162147238Y-52286819D02*
X161480572Y-53286819D01*
X162528191Y-52905866D02*
X163290096Y-52905866D01*
X162909143Y-53286819D02*
X162909143Y-52524914D01*
X141828571Y-49483038D02*
X142041905Y-49483038D01*
X142133333Y-49818276D02*
X141828571Y-49818276D01*
X141828571Y-49818276D02*
X141828571Y-49178276D01*
X141828571Y-49178276D02*
X142133333Y-49178276D01*
X142377143Y-49635419D02*
X142681905Y-49635419D01*
X142316191Y-49818276D02*
X142529524Y-49178276D01*
X142529524Y-49178276D02*
X142742858Y-49818276D01*
X133766666Y-49787800D02*
X133858095Y-49818276D01*
X133858095Y-49818276D02*
X134010476Y-49818276D01*
X134010476Y-49818276D02*
X134071428Y-49787800D01*
X134071428Y-49787800D02*
X134101904Y-49757323D01*
X134101904Y-49757323D02*
X134132381Y-49696371D01*
X134132381Y-49696371D02*
X134132381Y-49635419D01*
X134132381Y-49635419D02*
X134101904Y-49574466D01*
X134101904Y-49574466D02*
X134071428Y-49543990D01*
X134071428Y-49543990D02*
X134010476Y-49513514D01*
X134010476Y-49513514D02*
X133888571Y-49483038D01*
X133888571Y-49483038D02*
X133827619Y-49452561D01*
X133827619Y-49452561D02*
X133797142Y-49422085D01*
X133797142Y-49422085D02*
X133766666Y-49361133D01*
X133766666Y-49361133D02*
X133766666Y-49300180D01*
X133766666Y-49300180D02*
X133797142Y-49239228D01*
X133797142Y-49239228D02*
X133827619Y-49208752D01*
X133827619Y-49208752D02*
X133888571Y-49178276D01*
X133888571Y-49178276D02*
X134040952Y-49178276D01*
X134040952Y-49178276D02*
X134132381Y-49208752D01*
X134345714Y-49178276D02*
X134498095Y-49818276D01*
X134498095Y-49818276D02*
X134620000Y-49361133D01*
X134620000Y-49361133D02*
X134741905Y-49818276D01*
X134741905Y-49818276D02*
X134894286Y-49178276D01*
X135473334Y-49818276D02*
X135107619Y-49818276D01*
X135290476Y-49818276D02*
X135290476Y-49178276D01*
X135290476Y-49178276D02*
X135229524Y-49269704D01*
X135229524Y-49269704D02*
X135168572Y-49330657D01*
X135168572Y-49330657D02*
X135107619Y-49361133D01*
X144322856Y-49483038D02*
X144536190Y-49483038D01*
X144627618Y-49818276D02*
X144322856Y-49818276D01*
X144322856Y-49818276D02*
X144322856Y-49178276D01*
X144322856Y-49178276D02*
X144627618Y-49178276D01*
X145115238Y-49483038D02*
X145206666Y-49513514D01*
X145206666Y-49513514D02*
X145237143Y-49543990D01*
X145237143Y-49543990D02*
X145267619Y-49604942D01*
X145267619Y-49604942D02*
X145267619Y-49696371D01*
X145267619Y-49696371D02*
X145237143Y-49757323D01*
X145237143Y-49757323D02*
X145206666Y-49787800D01*
X145206666Y-49787800D02*
X145145714Y-49818276D01*
X145145714Y-49818276D02*
X144901904Y-49818276D01*
X144901904Y-49818276D02*
X144901904Y-49178276D01*
X144901904Y-49178276D02*
X145115238Y-49178276D01*
X145115238Y-49178276D02*
X145176190Y-49208752D01*
X145176190Y-49208752D02*
X145206666Y-49239228D01*
X145206666Y-49239228D02*
X145237143Y-49300180D01*
X145237143Y-49300180D02*
X145237143Y-49361133D01*
X145237143Y-49361133D02*
X145206666Y-49422085D01*
X145206666Y-49422085D02*
X145176190Y-49452561D01*
X145176190Y-49452561D02*
X145115238Y-49483038D01*
X145115238Y-49483038D02*
X144901904Y-49483038D01*
X147213333Y-56615323D02*
X147182857Y-56645800D01*
X147182857Y-56645800D02*
X147091428Y-56676276D01*
X147091428Y-56676276D02*
X147030476Y-56676276D01*
X147030476Y-56676276D02*
X146939047Y-56645800D01*
X146939047Y-56645800D02*
X146878095Y-56584847D01*
X146878095Y-56584847D02*
X146847618Y-56523895D01*
X146847618Y-56523895D02*
X146817142Y-56401990D01*
X146817142Y-56401990D02*
X146817142Y-56310561D01*
X146817142Y-56310561D02*
X146847618Y-56188657D01*
X146847618Y-56188657D02*
X146878095Y-56127704D01*
X146878095Y-56127704D02*
X146939047Y-56066752D01*
X146939047Y-56066752D02*
X147030476Y-56036276D01*
X147030476Y-56036276D02*
X147091428Y-56036276D01*
X147091428Y-56036276D02*
X147182857Y-56066752D01*
X147182857Y-56066752D02*
X147213333Y-56097228D01*
X147457142Y-56097228D02*
X147487618Y-56066752D01*
X147487618Y-56066752D02*
X147548571Y-56036276D01*
X147548571Y-56036276D02*
X147700952Y-56036276D01*
X147700952Y-56036276D02*
X147761904Y-56066752D01*
X147761904Y-56066752D02*
X147792380Y-56097228D01*
X147792380Y-56097228D02*
X147822857Y-56158180D01*
X147822857Y-56158180D02*
X147822857Y-56219133D01*
X147822857Y-56219133D02*
X147792380Y-56310561D01*
X147792380Y-56310561D02*
X147426666Y-56676276D01*
X147426666Y-56676276D02*
X147822857Y-56676276D01*
X142748095Y-29680819D02*
X142748095Y-30490342D01*
X142748095Y-30490342D02*
X142795714Y-30585580D01*
X142795714Y-30585580D02*
X142843333Y-30633200D01*
X142843333Y-30633200D02*
X142938571Y-30680819D01*
X142938571Y-30680819D02*
X143129047Y-30680819D01*
X143129047Y-30680819D02*
X143224285Y-30633200D01*
X143224285Y-30633200D02*
X143271904Y-30585580D01*
X143271904Y-30585580D02*
X143319523Y-30490342D01*
X143319523Y-30490342D02*
X143319523Y-29680819D01*
X144319523Y-30680819D02*
X143748095Y-30680819D01*
X144033809Y-30680819D02*
X144033809Y-29680819D01*
X144033809Y-29680819D02*
X143938571Y-29823676D01*
X143938571Y-29823676D02*
X143843333Y-29918914D01*
X143843333Y-29918914D02*
X143748095Y-29966533D01*
X144080033Y-42961333D02*
X143380033Y-42961333D01*
X143380033Y-42961333D02*
X143880033Y-42728000D01*
X143880033Y-42728000D02*
X143380033Y-42494666D01*
X143380033Y-42494666D02*
X144080033Y-42494666D01*
X144080033Y-42161333D02*
X143380033Y-42161333D01*
X144080033Y-41828000D02*
X143380033Y-41828000D01*
X143380033Y-41828000D02*
X143880033Y-41594667D01*
X143880033Y-41594667D02*
X143380033Y-41361333D01*
X143380033Y-41361333D02*
X144080033Y-41361333D01*
X143380033Y-41094667D02*
X144080033Y-40628000D01*
X143380033Y-40628000D02*
X144080033Y-41094667D01*
X144080033Y-39961333D02*
X143746700Y-40194666D01*
X144080033Y-40361333D02*
X143380033Y-40361333D01*
X143380033Y-40361333D02*
X143380033Y-40094666D01*
X143380033Y-40094666D02*
X143413366Y-40028000D01*
X143413366Y-40028000D02*
X143446700Y-39994666D01*
X143446700Y-39994666D02*
X143513366Y-39961333D01*
X143513366Y-39961333D02*
X143613366Y-39961333D01*
X143613366Y-39961333D02*
X143680033Y-39994666D01*
X143680033Y-39994666D02*
X143713366Y-40028000D01*
X143713366Y-40028000D02*
X143746700Y-40094666D01*
X143746700Y-40094666D02*
X143746700Y-40361333D01*
X143380033Y-39761333D02*
X143380033Y-39361333D01*
X144080033Y-39561333D02*
X143380033Y-39561333D01*
X144080033Y-38761333D02*
X144080033Y-39161333D01*
X144080033Y-38961333D02*
X143380033Y-38961333D01*
X143380033Y-38961333D02*
X143480033Y-39028000D01*
X143480033Y-39028000D02*
X143546700Y-39094667D01*
X143546700Y-39094667D02*
X143580033Y-39161333D01*
X143380033Y-38328000D02*
X143380033Y-38261333D01*
X143380033Y-38261333D02*
X143413366Y-38194666D01*
X143413366Y-38194666D02*
X143446700Y-38161333D01*
X143446700Y-38161333D02*
X143513366Y-38128000D01*
X143513366Y-38128000D02*
X143646700Y-38094666D01*
X143646700Y-38094666D02*
X143813366Y-38094666D01*
X143813366Y-38094666D02*
X143946700Y-38128000D01*
X143946700Y-38128000D02*
X144013366Y-38161333D01*
X144013366Y-38161333D02*
X144046700Y-38194666D01*
X144046700Y-38194666D02*
X144080033Y-38261333D01*
X144080033Y-38261333D02*
X144080033Y-38328000D01*
X144080033Y-38328000D02*
X144046700Y-38394666D01*
X144046700Y-38394666D02*
X144013366Y-38428000D01*
X144013366Y-38428000D02*
X143946700Y-38461333D01*
X143946700Y-38461333D02*
X143813366Y-38494666D01*
X143813366Y-38494666D02*
X143646700Y-38494666D01*
X143646700Y-38494666D02*
X143513366Y-38461333D01*
X143513366Y-38461333D02*
X143446700Y-38428000D01*
X143446700Y-38428000D02*
X143413366Y-38394666D01*
X143413366Y-38394666D02*
X143380033Y-38328000D01*
X143380033Y-37494666D02*
X143380033Y-37627999D01*
X143380033Y-37627999D02*
X143413366Y-37694666D01*
X143413366Y-37694666D02*
X143446700Y-37727999D01*
X143446700Y-37727999D02*
X143546700Y-37794666D01*
X143546700Y-37794666D02*
X143680033Y-37827999D01*
X143680033Y-37827999D02*
X143946700Y-37827999D01*
X143946700Y-37827999D02*
X144013366Y-37794666D01*
X144013366Y-37794666D02*
X144046700Y-37761333D01*
X144046700Y-37761333D02*
X144080033Y-37694666D01*
X144080033Y-37694666D02*
X144080033Y-37561333D01*
X144080033Y-37561333D02*
X144046700Y-37494666D01*
X144046700Y-37494666D02*
X144013366Y-37461333D01*
X144013366Y-37461333D02*
X143946700Y-37427999D01*
X143946700Y-37427999D02*
X143780033Y-37427999D01*
X143780033Y-37427999D02*
X143713366Y-37461333D01*
X143713366Y-37461333D02*
X143680033Y-37494666D01*
X143680033Y-37494666D02*
X143646700Y-37561333D01*
X143646700Y-37561333D02*
X143646700Y-37694666D01*
X143646700Y-37694666D02*
X143680033Y-37761333D01*
X143680033Y-37761333D02*
X143713366Y-37794666D01*
X143713366Y-37794666D02*
X143780033Y-37827999D01*
X143446700Y-37161332D02*
X143413366Y-37127999D01*
X143413366Y-37127999D02*
X143380033Y-37061332D01*
X143380033Y-37061332D02*
X143380033Y-36894666D01*
X143380033Y-36894666D02*
X143413366Y-36827999D01*
X143413366Y-36827999D02*
X143446700Y-36794666D01*
X143446700Y-36794666D02*
X143513366Y-36761332D01*
X143513366Y-36761332D02*
X143580033Y-36761332D01*
X143580033Y-36761332D02*
X143680033Y-36794666D01*
X143680033Y-36794666D02*
X144080033Y-37194666D01*
X144080033Y-37194666D02*
X144080033Y-36761332D01*
X145604033Y-41278000D02*
X144904033Y-41278000D01*
X144904033Y-41278000D02*
X144904033Y-41111333D01*
X144904033Y-41111333D02*
X144937366Y-41011333D01*
X144937366Y-41011333D02*
X145004033Y-40944667D01*
X145004033Y-40944667D02*
X145070700Y-40911333D01*
X145070700Y-40911333D02*
X145204033Y-40878000D01*
X145204033Y-40878000D02*
X145304033Y-40878000D01*
X145304033Y-40878000D02*
X145437366Y-40911333D01*
X145437366Y-40911333D02*
X145504033Y-40944667D01*
X145504033Y-40944667D02*
X145570700Y-41011333D01*
X145570700Y-41011333D02*
X145604033Y-41111333D01*
X145604033Y-41111333D02*
X145604033Y-41278000D01*
X144904033Y-40678000D02*
X145604033Y-40444667D01*
X145604033Y-40444667D02*
X144904033Y-40211333D01*
X145604033Y-39644667D02*
X145604033Y-39978000D01*
X145604033Y-39978000D02*
X144904033Y-39978000D01*
X144904033Y-39111333D02*
X144904033Y-39244666D01*
X144904033Y-39244666D02*
X144937366Y-39311333D01*
X144937366Y-39311333D02*
X144970700Y-39344666D01*
X144970700Y-39344666D02*
X145070700Y-39411333D01*
X145070700Y-39411333D02*
X145204033Y-39444666D01*
X145204033Y-39444666D02*
X145470700Y-39444666D01*
X145470700Y-39444666D02*
X145537366Y-39411333D01*
X145537366Y-39411333D02*
X145570700Y-39378000D01*
X145570700Y-39378000D02*
X145604033Y-39311333D01*
X145604033Y-39311333D02*
X145604033Y-39178000D01*
X145604033Y-39178000D02*
X145570700Y-39111333D01*
X145570700Y-39111333D02*
X145537366Y-39078000D01*
X145537366Y-39078000D02*
X145470700Y-39044666D01*
X145470700Y-39044666D02*
X145304033Y-39044666D01*
X145304033Y-39044666D02*
X145237366Y-39078000D01*
X145237366Y-39078000D02*
X145204033Y-39111333D01*
X145204033Y-39111333D02*
X145170700Y-39178000D01*
X145170700Y-39178000D02*
X145170700Y-39311333D01*
X145170700Y-39311333D02*
X145204033Y-39378000D01*
X145204033Y-39378000D02*
X145237366Y-39411333D01*
X145237366Y-39411333D02*
X145304033Y-39444666D01*
X145404033Y-38777999D02*
X145404033Y-38444666D01*
X145604033Y-38844666D02*
X144904033Y-38611333D01*
X144904033Y-38611333D02*
X145604033Y-38377999D01*
X143229323Y-53446666D02*
X143259800Y-53477142D01*
X143259800Y-53477142D02*
X143290276Y-53568571D01*
X143290276Y-53568571D02*
X143290276Y-53629523D01*
X143290276Y-53629523D02*
X143259800Y-53720952D01*
X143259800Y-53720952D02*
X143198847Y-53781904D01*
X143198847Y-53781904D02*
X143137895Y-53812381D01*
X143137895Y-53812381D02*
X143015990Y-53842857D01*
X143015990Y-53842857D02*
X142924561Y-53842857D01*
X142924561Y-53842857D02*
X142802657Y-53812381D01*
X142802657Y-53812381D02*
X142741704Y-53781904D01*
X142741704Y-53781904D02*
X142680752Y-53720952D01*
X142680752Y-53720952D02*
X142650276Y-53629523D01*
X142650276Y-53629523D02*
X142650276Y-53568571D01*
X142650276Y-53568571D02*
X142680752Y-53477142D01*
X142680752Y-53477142D02*
X142711228Y-53446666D01*
X142863609Y-52898095D02*
X143290276Y-52898095D01*
X142619800Y-53050476D02*
X143076942Y-53202857D01*
X143076942Y-53202857D02*
X143076942Y-52806666D01*
X134445619Y-56033200D02*
X134588476Y-56080819D01*
X134588476Y-56080819D02*
X134826571Y-56080819D01*
X134826571Y-56080819D02*
X134921809Y-56033200D01*
X134921809Y-56033200D02*
X134969428Y-55985580D01*
X134969428Y-55985580D02*
X135017047Y-55890342D01*
X135017047Y-55890342D02*
X135017047Y-55795104D01*
X135017047Y-55795104D02*
X134969428Y-55699866D01*
X134969428Y-55699866D02*
X134921809Y-55652247D01*
X134921809Y-55652247D02*
X134826571Y-55604628D01*
X134826571Y-55604628D02*
X134636095Y-55557009D01*
X134636095Y-55557009D02*
X134540857Y-55509390D01*
X134540857Y-55509390D02*
X134493238Y-55461771D01*
X134493238Y-55461771D02*
X134445619Y-55366533D01*
X134445619Y-55366533D02*
X134445619Y-55271295D01*
X134445619Y-55271295D02*
X134493238Y-55176057D01*
X134493238Y-55176057D02*
X134540857Y-55128438D01*
X134540857Y-55128438D02*
X134636095Y-55080819D01*
X134636095Y-55080819D02*
X134874190Y-55080819D01*
X134874190Y-55080819D02*
X135017047Y-55128438D01*
X135350381Y-55080819D02*
X135588476Y-56080819D01*
X135588476Y-56080819D02*
X135778952Y-55366533D01*
X135778952Y-55366533D02*
X135969428Y-56080819D01*
X135969428Y-56080819D02*
X136207524Y-55080819D01*
X136540857Y-55176057D02*
X136588476Y-55128438D01*
X136588476Y-55128438D02*
X136683714Y-55080819D01*
X136683714Y-55080819D02*
X136921809Y-55080819D01*
X136921809Y-55080819D02*
X137017047Y-55128438D01*
X137017047Y-55128438D02*
X137064666Y-55176057D01*
X137064666Y-55176057D02*
X137112285Y-55271295D01*
X137112285Y-55271295D02*
X137112285Y-55366533D01*
X137112285Y-55366533D02*
X137064666Y-55509390D01*
X137064666Y-55509390D02*
X136493238Y-56080819D01*
X136493238Y-56080819D02*
X137112285Y-56080819D01*
X137540857Y-55699866D02*
X138302762Y-55699866D01*
X128857619Y-56033200D02*
X129000476Y-56080819D01*
X129000476Y-56080819D02*
X129238571Y-56080819D01*
X129238571Y-56080819D02*
X129333809Y-56033200D01*
X129333809Y-56033200D02*
X129381428Y-55985580D01*
X129381428Y-55985580D02*
X129429047Y-55890342D01*
X129429047Y-55890342D02*
X129429047Y-55795104D01*
X129429047Y-55795104D02*
X129381428Y-55699866D01*
X129381428Y-55699866D02*
X129333809Y-55652247D01*
X129333809Y-55652247D02*
X129238571Y-55604628D01*
X129238571Y-55604628D02*
X129048095Y-55557009D01*
X129048095Y-55557009D02*
X128952857Y-55509390D01*
X128952857Y-55509390D02*
X128905238Y-55461771D01*
X128905238Y-55461771D02*
X128857619Y-55366533D01*
X128857619Y-55366533D02*
X128857619Y-55271295D01*
X128857619Y-55271295D02*
X128905238Y-55176057D01*
X128905238Y-55176057D02*
X128952857Y-55128438D01*
X128952857Y-55128438D02*
X129048095Y-55080819D01*
X129048095Y-55080819D02*
X129286190Y-55080819D01*
X129286190Y-55080819D02*
X129429047Y-55128438D01*
X129762381Y-55080819D02*
X130000476Y-56080819D01*
X130000476Y-56080819D02*
X130190952Y-55366533D01*
X130190952Y-55366533D02*
X130381428Y-56080819D01*
X130381428Y-56080819D02*
X130619524Y-55080819D01*
X131524285Y-56080819D02*
X130952857Y-56080819D01*
X131238571Y-56080819D02*
X131238571Y-55080819D01*
X131238571Y-55080819D02*
X131143333Y-55223676D01*
X131143333Y-55223676D02*
X131048095Y-55318914D01*
X131048095Y-55318914D02*
X130952857Y-55366533D01*
X131952857Y-55699866D02*
X132714762Y-55699866D01*
X123190095Y-45352438D02*
X123094857Y-45304819D01*
X123094857Y-45304819D02*
X122952000Y-45304819D01*
X122952000Y-45304819D02*
X122809143Y-45352438D01*
X122809143Y-45352438D02*
X122713905Y-45447676D01*
X122713905Y-45447676D02*
X122666286Y-45542914D01*
X122666286Y-45542914D02*
X122618667Y-45733390D01*
X122618667Y-45733390D02*
X122618667Y-45876247D01*
X122618667Y-45876247D02*
X122666286Y-46066723D01*
X122666286Y-46066723D02*
X122713905Y-46161961D01*
X122713905Y-46161961D02*
X122809143Y-46257200D01*
X122809143Y-46257200D02*
X122952000Y-46304819D01*
X122952000Y-46304819D02*
X123047238Y-46304819D01*
X123047238Y-46304819D02*
X123190095Y-46257200D01*
X123190095Y-46257200D02*
X123237714Y-46209580D01*
X123237714Y-46209580D02*
X123237714Y-45876247D01*
X123237714Y-45876247D02*
X123047238Y-45876247D01*
X123666286Y-46304819D02*
X123666286Y-45304819D01*
X123666286Y-45304819D02*
X124237714Y-46304819D01*
X124237714Y-46304819D02*
X124237714Y-45304819D01*
X124713905Y-46304819D02*
X124713905Y-45304819D01*
X124713905Y-45304819D02*
X124952000Y-45304819D01*
X124952000Y-45304819D02*
X125094857Y-45352438D01*
X125094857Y-45352438D02*
X125190095Y-45447676D01*
X125190095Y-45447676D02*
X125237714Y-45542914D01*
X125237714Y-45542914D02*
X125285333Y-45733390D01*
X125285333Y-45733390D02*
X125285333Y-45876247D01*
X125285333Y-45876247D02*
X125237714Y-46066723D01*
X125237714Y-46066723D02*
X125190095Y-46161961D01*
X125190095Y-46161961D02*
X125094857Y-46257200D01*
X125094857Y-46257200D02*
X124952000Y-46304819D01*
X124952000Y-46304819D02*
X124713905Y-46304819D01*
X123761523Y-30064819D02*
X123285333Y-30064819D01*
X123285333Y-30064819D02*
X123237714Y-30541009D01*
X123237714Y-30541009D02*
X123285333Y-30493390D01*
X123285333Y-30493390D02*
X123380571Y-30445771D01*
X123380571Y-30445771D02*
X123618666Y-30445771D01*
X123618666Y-30445771D02*
X123713904Y-30493390D01*
X123713904Y-30493390D02*
X123761523Y-30541009D01*
X123761523Y-30541009D02*
X123809142Y-30636247D01*
X123809142Y-30636247D02*
X123809142Y-30874342D01*
X123809142Y-30874342D02*
X123761523Y-30969580D01*
X123761523Y-30969580D02*
X123713904Y-31017200D01*
X123713904Y-31017200D02*
X123618666Y-31064819D01*
X123618666Y-31064819D02*
X123380571Y-31064819D01*
X123380571Y-31064819D02*
X123285333Y-31017200D01*
X123285333Y-31017200D02*
X123237714Y-30969580D01*
X124094857Y-30064819D02*
X124428190Y-31064819D01*
X124428190Y-31064819D02*
X124761523Y-30064819D01*
X152293333Y-56615323D02*
X152262857Y-56645800D01*
X152262857Y-56645800D02*
X152171428Y-56676276D01*
X152171428Y-56676276D02*
X152110476Y-56676276D01*
X152110476Y-56676276D02*
X152019047Y-56645800D01*
X152019047Y-56645800D02*
X151958095Y-56584847D01*
X151958095Y-56584847D02*
X151927618Y-56523895D01*
X151927618Y-56523895D02*
X151897142Y-56401990D01*
X151897142Y-56401990D02*
X151897142Y-56310561D01*
X151897142Y-56310561D02*
X151927618Y-56188657D01*
X151927618Y-56188657D02*
X151958095Y-56127704D01*
X151958095Y-56127704D02*
X152019047Y-56066752D01*
X152019047Y-56066752D02*
X152110476Y-56036276D01*
X152110476Y-56036276D02*
X152171428Y-56036276D01*
X152171428Y-56036276D02*
X152262857Y-56066752D01*
X152262857Y-56066752D02*
X152293333Y-56097228D01*
X152902857Y-56676276D02*
X152537142Y-56676276D01*
X152719999Y-56676276D02*
X152719999Y-56036276D01*
X152719999Y-56036276D02*
X152659047Y-56127704D01*
X152659047Y-56127704D02*
X152598095Y-56188657D01*
X152598095Y-56188657D02*
X152537142Y-56219133D01*
X176581819Y-36184904D02*
X177391342Y-36184904D01*
X177391342Y-36184904D02*
X177486580Y-36137285D01*
X177486580Y-36137285D02*
X177534200Y-36089666D01*
X177534200Y-36089666D02*
X177581819Y-35994428D01*
X177581819Y-35994428D02*
X177581819Y-35803952D01*
X177581819Y-35803952D02*
X177534200Y-35708714D01*
X177534200Y-35708714D02*
X177486580Y-35661095D01*
X177486580Y-35661095D02*
X177391342Y-35613476D01*
X177391342Y-35613476D02*
X176581819Y-35613476D01*
X176677057Y-35184904D02*
X176629438Y-35137285D01*
X176629438Y-35137285D02*
X176581819Y-35042047D01*
X176581819Y-35042047D02*
X176581819Y-34803952D01*
X176581819Y-34803952D02*
X176629438Y-34708714D01*
X176629438Y-34708714D02*
X176677057Y-34661095D01*
X176677057Y-34661095D02*
X176772295Y-34613476D01*
X176772295Y-34613476D02*
X176867533Y-34613476D01*
X176867533Y-34613476D02*
X177010390Y-34661095D01*
X177010390Y-34661095D02*
X177581819Y-35232523D01*
X177581819Y-35232523D02*
X177581819Y-34613476D01*
X123925323Y-53446666D02*
X123955800Y-53477142D01*
X123955800Y-53477142D02*
X123986276Y-53568571D01*
X123986276Y-53568571D02*
X123986276Y-53629523D01*
X123986276Y-53629523D02*
X123955800Y-53720952D01*
X123955800Y-53720952D02*
X123894847Y-53781904D01*
X123894847Y-53781904D02*
X123833895Y-53812381D01*
X123833895Y-53812381D02*
X123711990Y-53842857D01*
X123711990Y-53842857D02*
X123620561Y-53842857D01*
X123620561Y-53842857D02*
X123498657Y-53812381D01*
X123498657Y-53812381D02*
X123437704Y-53781904D01*
X123437704Y-53781904D02*
X123376752Y-53720952D01*
X123376752Y-53720952D02*
X123346276Y-53629523D01*
X123346276Y-53629523D02*
X123346276Y-53568571D01*
X123346276Y-53568571D02*
X123376752Y-53477142D01*
X123376752Y-53477142D02*
X123407228Y-53446666D01*
X123346276Y-53233333D02*
X123346276Y-52837142D01*
X123346276Y-52837142D02*
X123590085Y-53050476D01*
X123590085Y-53050476D02*
X123590085Y-52959047D01*
X123590085Y-52959047D02*
X123620561Y-52898095D01*
X123620561Y-52898095D02*
X123651038Y-52867619D01*
X123651038Y-52867619D02*
X123711990Y-52837142D01*
X123711990Y-52837142D02*
X123864371Y-52837142D01*
X123864371Y-52837142D02*
X123925323Y-52867619D01*
X123925323Y-52867619D02*
X123955800Y-52898095D01*
X123955800Y-52898095D02*
X123986276Y-52959047D01*
X123986276Y-52959047D02*
X123986276Y-53141904D01*
X123986276Y-53141904D02*
X123955800Y-53202857D01*
X123955800Y-53202857D02*
X123925323Y-53233333D01*
D12*
%TO.C,C2*%
X146050000Y-51689000D02*
X146050000Y-55499000D01*
X146050000Y-51689000D02*
X146341000Y-51689000D01*
X146050000Y-55499000D02*
X146341000Y-55499000D01*
X148299000Y-55499000D02*
X148590000Y-55499000D01*
X148590000Y-51689000D02*
X148299000Y-51689000D01*
X148590000Y-55499000D02*
X148590000Y-51689000D01*
D11*
%TO.C,U1*%
X124460000Y-36068000D02*
X125730000Y-36068000D01*
X124460000Y-43688000D02*
X124460000Y-36068000D01*
X125730000Y-30988000D02*
X161290000Y-30988000D01*
X125730000Y-43688000D02*
X124460000Y-43688000D01*
X125730000Y-48768000D02*
X125730000Y-30988000D01*
X130810000Y-36068000D02*
X125730000Y-36068000D01*
X130810000Y-43688000D02*
X125730000Y-43688000D01*
X130810000Y-43688000D02*
X130810000Y-36068000D01*
X137795000Y-34798000D02*
X137795000Y-44958000D01*
X147955000Y-34798000D02*
X137795000Y-34798000D01*
X147955000Y-44958000D02*
X137795000Y-44958000D01*
X147955000Y-44958000D02*
X147955000Y-34798000D01*
X148590000Y-34798000D02*
X151130000Y-34798000D01*
X148590000Y-37973000D02*
X148590000Y-34798000D01*
X151130000Y-34798000D02*
X151130000Y-37973000D01*
X151130000Y-37973000D02*
X148590000Y-37973000D01*
X153670000Y-38608000D02*
X158242000Y-38608000D01*
X153670000Y-41148000D02*
X153670000Y-38608000D01*
X158242000Y-38608000D02*
X158242000Y-41148000D01*
X158242000Y-41148000D02*
X153670000Y-41148000D01*
X161290000Y-30988000D02*
X161290000Y-48768000D01*
X161290000Y-48768000D02*
X125730000Y-48768000D01*
D13*
X140081000Y-40132000D02*
X139827000Y-40386000D01*
X139573000Y-40005000D01*
X139827000Y-39751000D01*
X140081000Y-40132000D01*
G36*
X140081000Y-40132000D02*
G01*
X139827000Y-40386000D01*
X139573000Y-40005000D01*
X139827000Y-39751000D01*
X140081000Y-40132000D01*
G37*
X140462000Y-39751000D02*
X140208000Y-40005000D01*
X139954000Y-39624000D01*
X140208000Y-39370000D01*
X140462000Y-39751000D01*
G36*
X140462000Y-39751000D02*
G01*
X140208000Y-40005000D01*
X139954000Y-39624000D01*
X140208000Y-39370000D01*
X140462000Y-39751000D01*
G37*
X140843000Y-39370000D02*
X140589000Y-39624000D01*
X140335000Y-39243000D01*
X140589000Y-38989000D01*
X140843000Y-39370000D01*
G36*
X140843000Y-39370000D02*
G01*
X140589000Y-39624000D01*
X140335000Y-39243000D01*
X140589000Y-38989000D01*
X140843000Y-39370000D01*
G37*
X141224000Y-39878000D02*
X140970000Y-40132000D01*
X140716000Y-39751000D01*
X140970000Y-39497000D01*
X141224000Y-39878000D01*
G36*
X141224000Y-39878000D02*
G01*
X140970000Y-40132000D01*
X140716000Y-39751000D01*
X140970000Y-39497000D01*
X141224000Y-39878000D01*
G37*
X141605000Y-39497000D02*
X141351000Y-39751000D01*
X141097000Y-39370000D01*
X141351000Y-39116000D01*
X141605000Y-39497000D01*
G36*
X141605000Y-39497000D02*
G01*
X141351000Y-39751000D01*
X141097000Y-39370000D01*
X141351000Y-39116000D01*
X141605000Y-39497000D01*
G37*
X141605000Y-40386000D02*
X141351000Y-40640000D01*
X141097000Y-40259000D01*
X141351000Y-40005000D01*
X141605000Y-40386000D01*
G36*
X141605000Y-40386000D02*
G01*
X141351000Y-40640000D01*
X141097000Y-40259000D01*
X141351000Y-40005000D01*
X141605000Y-40386000D01*
G37*
X141986000Y-40005000D02*
X141732000Y-40259000D01*
X141478000Y-39878000D01*
X141732000Y-39624000D01*
X141986000Y-40005000D01*
G36*
X141986000Y-40005000D02*
G01*
X141732000Y-40259000D01*
X141478000Y-39878000D01*
X141732000Y-39624000D01*
X141986000Y-40005000D01*
G37*
X142367000Y-40513000D02*
X142113000Y-40767000D01*
X141859000Y-40386000D01*
X142113000Y-40132000D01*
X142367000Y-40513000D01*
G36*
X142367000Y-40513000D02*
G01*
X142113000Y-40767000D01*
X141859000Y-40386000D01*
X142113000Y-40132000D01*
X142367000Y-40513000D01*
G37*
D12*
%TO.C,C4*%
X138303000Y-52070000D02*
X138303000Y-52361000D01*
X138303000Y-54610000D02*
X138303000Y-54319000D01*
X138303000Y-54610000D02*
X142113000Y-54610000D01*
X142113000Y-52070000D02*
X138303000Y-52070000D01*
X142113000Y-52361000D02*
X142113000Y-52070000D01*
X142113000Y-54610000D02*
X142113000Y-54319000D01*
D14*
%TO.C,SW2-*%
X136840000Y-53340000D02*
G75*
G02*
X134940000Y-53340000I-950000J0D01*
G01*
X134940000Y-53340000D02*
G75*
G02*
X136840000Y-53340000I950000J0D01*
G01*
D12*
%TO.C,T1*%
X167767000Y-42418000D02*
X167767000Y-55118000D01*
X176657000Y-42418000D02*
X167767000Y-42418000D01*
X176657000Y-42418000D02*
X176657000Y-55118000D01*
X176657000Y-55118000D02*
X167767000Y-55118000D01*
D15*
X169772000Y-41668000D02*
G75*
G02*
X169572000Y-41668000I-100000J0D01*
G01*
X169572000Y-41668000D02*
G75*
G02*
X169772000Y-41668000I100000J0D01*
G01*
D14*
%TO.C,SW1-*%
X131760000Y-53340000D02*
G75*
G02*
X129860000Y-53340000I-950000J0D01*
G01*
X129860000Y-53340000D02*
G75*
G02*
X131760000Y-53340000I950000J0D01*
G01*
%TO.C,GND*%
X124902000Y-47498000D02*
G75*
G02*
X123002000Y-47498000I-950000J0D01*
G01*
X123002000Y-47498000D02*
G75*
G02*
X124902000Y-47498000I950000J0D01*
G01*
%TO.C,5V*%
X124902000Y-32258000D02*
G75*
G02*
X123002000Y-32258000I-950000J0D01*
G01*
X123002000Y-32258000D02*
G75*
G02*
X124902000Y-32258000I950000J0D01*
G01*
D12*
%TO.C,C1*%
X151130000Y-51689000D02*
X151130000Y-55499000D01*
X151130000Y-51689000D02*
X151421000Y-51689000D01*
X151130000Y-55499000D02*
X151421000Y-55499000D01*
X153379000Y-55499000D02*
X153670000Y-55499000D01*
X153670000Y-51689000D02*
X153379000Y-51689000D01*
X153670000Y-55499000D02*
X153670000Y-51689000D01*
%TO.C,U2*%
X166365000Y-33868000D02*
X166365000Y-38268000D01*
X176065000Y-33868000D02*
X176065000Y-38268000D01*
D15*
X175950000Y-31628000D02*
G75*
G02*
X175750000Y-31628000I-100000J0D01*
G01*
X175750000Y-31628000D02*
G75*
G02*
X175950000Y-31628000I100000J0D01*
G01*
D12*
%TO.C,C3*%
X124587000Y-52070000D02*
X124587000Y-52361000D01*
X124587000Y-54319000D02*
X124587000Y-54610000D01*
X124587000Y-54610000D02*
X128397000Y-54610000D01*
X128397000Y-52070000D02*
X124587000Y-52070000D01*
X128397000Y-52070000D02*
X128397000Y-52361000D01*
X128397000Y-54610000D02*
X128397000Y-54319000D01*
%TD*%
M02*
