%TF.GenerationSoftware,KiCad,Pcbnew,9.0.3*%
%TF.CreationDate,2025-08-09T12:17:42+10:00*%
%TF.ProjectId,soundrocket,736f756e-6472-46f6-936b-65742e6b6963,rev?*%
%TF.SameCoordinates,Original*%
%TF.FileFunction,Copper,L4,Bot*%
%TF.FilePolarity,Positive*%
%FSLAX46Y46*%
G04 Gerber Fmt 4.6, Leading zero omitted, Abs format (unit mm)*
G04 Created by KiCad (PCBNEW 9.0.3) date 2025-08-09 12:17:42*
%MOMM*%
%LPD*%
G01*
G04 APERTURE LIST*
%TA.AperFunction,ComponentPad*%
%ADD10R,1.318000X1.318000*%
%TD*%
%TA.AperFunction,ComponentPad*%
%ADD11C,1.318000*%
%TD*%
%TA.AperFunction,ComponentPad*%
%ADD12C,1.600000*%
%TD*%
%TA.AperFunction,ComponentPad*%
%ADD13C,1.500000*%
%TD*%
%TA.AperFunction,ComponentPad*%
%ADD14R,1.397000X1.397000*%
%TD*%
%TA.AperFunction,ComponentPad*%
%ADD15C,1.397000*%
%TD*%
%TA.AperFunction,ViaPad*%
%ADD16C,0.800000*%
%TD*%
%TA.AperFunction,Conductor*%
%ADD17C,0.250000*%
%TD*%
G04 APERTURE END LIST*
D10*
%TO.P,C2,1*%
%TO.N,Net-(U1-5_IN2)*%
X147320000Y-52324000D03*
D11*
%TO.P,C2,2*%
%TO.N,GND*%
X147320000Y-54864000D03*
%TD*%
D12*
%TO.P,U1,1,GND*%
%TO.N,unconnected-(U1-GND-Pad1)*%
X127000000Y-47498000D03*
%TO.P,U1,2,0_RX1_CRX2_CS1*%
%TO.N,Net-(U1-0_RX1_CRX2_CS1)*%
X129540000Y-47498000D03*
%TO.P,U1,3,1_TX1_CTX2_MISO1*%
%TO.N,unconnected-(U1-1_TX1_CTX2_MISO1-Pad3)*%
X132080000Y-47498000D03*
%TO.P,U1,4,2_OUT2*%
%TO.N,Net-(U1-2_OUT2)*%
X134620000Y-47498000D03*
%TO.P,U1,5,3_LRCLK2*%
%TO.N,Net-(U1-3_LRCLK2)*%
X137160000Y-47498000D03*
%TO.P,U1,6,4_BCLK2*%
%TO.N,unconnected-(U1-4_BCLK2-Pad6)*%
X139700000Y-47498000D03*
%TO.P,U1,7,5_IN2*%
%TO.N,Net-(U1-5_IN2)*%
X142240000Y-47498000D03*
%TO.P,U1,8,6_OUT1D*%
%TO.N,Net-(U1-6_OUT1D)*%
X144780000Y-47498000D03*
%TO.P,U1,9,7_RX2_OUT1A*%
%TO.N,Net-(U1-7_RX2_OUT1A)*%
X147320000Y-47498000D03*
%TO.P,U1,10,8_TX2_IN1*%
%TO.N,unconnected-(U1-8_TX2_IN1-Pad10)*%
X149860000Y-47498000D03*
%TO.P,U1,11,9_OUT1C*%
%TO.N,unconnected-(U1-9_OUT1C-Pad11)*%
X152400000Y-47498000D03*
%TO.P,U1,12,10_CS_MQSR*%
%TO.N,Net-(U1-10_CS_MQSR)*%
X154940000Y-47498000D03*
%TO.P,U1,13,11_MOSI_CTX1*%
%TO.N,Net-(U1-11_MOSI_CTX1)*%
X157480000Y-47498000D03*
%TO.P,U1,14,12_MISO_MQSL*%
%TO.N,unconnected-(U1-12_MISO_MQSL-Pad14)*%
X160020000Y-47498000D03*
%TO.P,U1,15,VBAT*%
%TO.N,unconnected-(U1-VBAT-Pad15)*%
X160020000Y-44958000D03*
%TO.P,U1,16,3V3*%
%TO.N,unconnected-(U1-3V3-Pad16)*%
X160020000Y-42418000D03*
%TO.P,U1,17,GND*%
%TO.N,unconnected-(U1-GND-Pad17)*%
X160020000Y-39878000D03*
%TO.P,U1,18,PROGRAM*%
%TO.N,unconnected-(U1-PROGRAM-Pad18)*%
X160020000Y-37338000D03*
%TO.P,U1,19,ON_OFF*%
%TO.N,unconnected-(U1-ON_OFF-Pad19)*%
X160020000Y-34798000D03*
%TO.P,U1,20,13_SCK_CRX1_LED*%
%TO.N,unconnected-(U1-13_SCK_CRX1_LED-Pad20)*%
X160020000Y-32258000D03*
%TO.P,U1,21,14_A0_TX3_SPDIF_OUT*%
%TO.N,unconnected-(U1-14_A0_TX3_SPDIF_OUT-Pad21)*%
X157480000Y-32258000D03*
%TO.P,U1,22,15_A1_RX3_SPDIF_IN*%
%TO.N,unconnected-(U1-15_A1_RX3_SPDIF_IN-Pad22)*%
X154940000Y-32258000D03*
%TO.P,U1,23,16_A2_RX4_SCL1*%
%TO.N,unconnected-(U1-16_A2_RX4_SCL1-Pad23)*%
X152400000Y-32258000D03*
%TO.P,U1,24,17_A3_TX4_SDA1*%
%TO.N,unconnected-(U1-17_A3_TX4_SDA1-Pad24)*%
X149860000Y-32258000D03*
%TO.P,U1,25,18_A4_SDA0*%
%TO.N,unconnected-(U1-18_A4_SDA0-Pad25)*%
X147320000Y-32258000D03*
%TO.P,U1,26,19_A5_SCL0*%
%TO.N,Net-(U1-19_A5_SCL0)*%
X144780000Y-32258000D03*
%TO.P,U1,27,20_A6_TX5_LRCLK1*%
%TO.N,Net-(U1-20_A6_TX5_LRCLK1)*%
X142240000Y-32258000D03*
%TO.P,U1,28,21_A7_RX5_BCLK1*%
%TO.N,Net-(U1-21_A7_RX5_BCLK1)*%
X139700000Y-32258000D03*
%TO.P,U1,29,22_A8_CTX1*%
%TO.N,unconnected-(U1-22_A8_CTX1-Pad29)*%
X137160000Y-32258000D03*
%TO.P,U1,30,23_A9_CRX1_MCLK1*%
%TO.N,Net-(U1-23_A9_CRX1_MCLK1)*%
X134620000Y-32258000D03*
%TO.P,U1,31,3V3*%
%TO.N,Net-(U2-V_IO)*%
X132080000Y-32258000D03*
%TO.P,U1,32,GND*%
%TO.N,GND*%
X129540000Y-32258000D03*
%TO.P,U1,33,VIN*%
%TO.N,5V0*%
X127000000Y-32258000D03*
%TO.P,U1,34,VUSB*%
%TO.N,unconnected-(U1-VUSB-Pad34)*%
X129540000Y-34798000D03*
%TO.P,U1,35,24_A10_TX6_SCL2*%
%TO.N,unconnected-(U1-24_A10_TX6_SCL2-Pad35)*%
X154940000Y-34798000D03*
%TO.P,U1,36,25_A11_RX6_SDA2*%
%TO.N,unconnected-(U1-25_A11_RX6_SDA2-Pad36)*%
X152400000Y-34798000D03*
%TO.P,U1,37,26_A12_MOSI1*%
%TO.N,unconnected-(U1-26_A12_MOSI1-Pad37)*%
X154940000Y-37338000D03*
%TO.P,U1,38,27_A13_SCK1*%
%TO.N,unconnected-(U1-27_A13_SCK1-Pad38)*%
X152400000Y-37338000D03*
%TO.P,U1,39,28_RX7*%
%TO.N,unconnected-(U1-28_RX7-Pad39)*%
X154940000Y-39878000D03*
%TO.P,U1,40,29_TX7*%
%TO.N,unconnected-(U1-29_TX7-Pad40)*%
X152400000Y-39878000D03*
%TO.P,U1,41,30_CRX3*%
%TO.N,unconnected-(U1-30_CRX3-Pad41)*%
X154940000Y-42418000D03*
%TO.P,U1,42,31_CTX3*%
%TO.N,unconnected-(U1-31_CTX3-Pad42)*%
X152400000Y-42418000D03*
%TO.P,U1,43,32_OUT1B*%
%TO.N,unconnected-(U1-32_OUT1B-Pad43)*%
X154940000Y-44958000D03*
%TO.P,U1,44,33_MCLK2*%
%TO.N,unconnected-(U1-33_MCLK2-Pad44)*%
X152400000Y-44958000D03*
%TD*%
D10*
%TO.P,C4,1*%
%TO.N,Net-(C4-Pad1)*%
X138938000Y-53340000D03*
D11*
%TO.P,C4,2*%
%TO.N,GND*%
X141478000Y-53340000D03*
%TD*%
D13*
%TO.P,,1*%
%TO.N,/XLR-TX-*%
X157480000Y-54610000D03*
%TD*%
%TO.P,SW2-,1*%
%TO.N,Net-(C4-Pad1)*%
X135890000Y-53340000D03*
%TD*%
D14*
%TO.P,T1,1*%
%TO.N,/DIT4192-TX-*%
X169672000Y-43688000D03*
D15*
%TO.P,T1,2*%
%TO.N,/DIT4192-TX+*%
X174752000Y-43688000D03*
%TO.P,T1,3*%
%TO.N,/XLR-TX-*%
X169672000Y-53848000D03*
%TO.P,T1,4*%
%TO.N,/XLR-TX+*%
X174752000Y-53848000D03*
%TD*%
D13*
%TO.P,SW1-,1*%
%TO.N,Net-(C3-Pad1)*%
X130810000Y-53340000D03*
%TD*%
%TO.P,GND,1*%
%TO.N,GND*%
X123952000Y-47498000D03*
%TD*%
%TO.P,5V,1*%
%TO.N,5V0*%
X123952000Y-32258000D03*
%TD*%
D10*
%TO.P,C1,1*%
%TO.N,Net-(U1-6_OUT1D)*%
X152400000Y-52324000D03*
D11*
%TO.P,C1,2*%
%TO.N,GND*%
X152400000Y-54864000D03*
%TD*%
D13*
%TO.P,,1*%
%TO.N,/XLR-TX+*%
X162052000Y-54610000D03*
%TD*%
D10*
%TO.P,C3,1*%
%TO.N,Net-(C3-Pad1)*%
X127762000Y-53340000D03*
D11*
%TO.P,C3,2*%
%TO.N,GND*%
X125222000Y-53340000D03*
%TD*%
D16*
%TO.N,Net-(U1-7_RX2_OUT1A)*%
X161798000Y-47498000D03*
%TO.N,GND*%
X174752000Y-41148000D03*
X170180000Y-31496000D03*
X168148000Y-41148000D03*
%TO.N,Net-(U1-0_RX1_CRX2_CS1)*%
X165354000Y-42926000D03*
%TO.N,Net-(U1-10_CS_MQSR)*%
X159258000Y-49530000D03*
%TO.N,Net-(U1-19_A5_SCL0)*%
X174244000Y-30226000D03*
%TO.N,Net-(U1-23_A9_CRX1_MCLK1)*%
X172212000Y-30226000D03*
%TO.N,5V0*%
X172720000Y-41148000D03*
%TD*%
D17*
%TO.N,Net-(U1-7_RX2_OUT1A)*%
X147320000Y-47498000D02*
X149098000Y-49276000D01*
X149098000Y-49276000D02*
X155702000Y-49276000D01*
X161798000Y-49784000D02*
X161798000Y-47498000D01*
X155702000Y-49276000D02*
X157226000Y-50800000D01*
X157226000Y-50800000D02*
X160782000Y-50800000D01*
X160782000Y-50800000D02*
X161798000Y-49784000D01*
%TO.N,Net-(U1-0_RX1_CRX2_CS1)*%
X130302000Y-49276000D02*
X129540000Y-48514000D01*
X163830000Y-48768000D02*
X161036000Y-51562000D01*
X148082000Y-49276000D02*
X130302000Y-49276000D01*
X148844000Y-50038000D02*
X148082000Y-49276000D01*
X165354000Y-42926000D02*
X163830000Y-44450000D01*
X155448000Y-50038000D02*
X148844000Y-50038000D01*
X156972000Y-51562000D02*
X155448000Y-50038000D01*
X129540000Y-48514000D02*
X129540000Y-47498000D01*
X161036000Y-51562000D02*
X156972000Y-51562000D01*
X163830000Y-44450000D02*
X163830000Y-48768000D01*
%TO.N,Net-(U1-10_CS_MQSR)*%
X156972000Y-49530000D02*
X159258000Y-49530000D01*
X154940000Y-47498000D02*
X156972000Y-49530000D01*
%TO.N,Net-(U1-19_A5_SCL0)*%
X144780000Y-31496000D02*
X144780000Y-32258000D01*
X173736000Y-30226000D02*
X172720000Y-31242000D01*
X174244000Y-30226000D02*
X173736000Y-30226000D01*
X172720000Y-31242000D02*
X171704000Y-31242000D01*
X171704000Y-31242000D02*
X171196000Y-30734000D01*
X171196000Y-30734000D02*
X145542000Y-30734000D01*
X145542000Y-30734000D02*
X144780000Y-31496000D01*
%TO.N,Net-(U1-23_A9_CRX1_MCLK1)*%
X135636000Y-30226000D02*
X134620000Y-31242000D01*
X134620000Y-31242000D02*
X134620000Y-32258000D01*
X172212000Y-30226000D02*
X135636000Y-30226000D01*
%TD*%
M02*
