M48
; DRILL file {KiCad 9.0.3} date 2025-08-21T23:13:29+1000
; FORMAT={-:-/ absolute / metric / decimal}
; #@! TF.CreationDate,2025-08-21T23:13:29+10:00
; #@! TF.GenerationSoftware,Kicad,Pcbnew,9.0.3
; #@! TF.FileFunction,Plated,1,4,PTH
FMAT,2
METRIC
; #@! TA.AperFunction,Plated,PTH,ViaDrill
T1C0.400
; #@! TA.AperFunction,Plated,PTH,ComponentDrill
T2C0.700
; #@! TA.AperFunction,Plated,PTH,ComponentDrill
T3C0.810
; #@! TA.AperFunction,Plated,PTH,ComponentDrill
T4C0.889
; #@! TA.AperFunction,Plated,PTH,ComponentDrill
T5C1.000
; #@! TA.AperFunction,Plated,PTH,ComponentDrill
T6C1.100
; #@! TA.AperFunction,Plated,PTH,ComponentDrill
T7C1.200
; #@! TA.AperFunction,Plated,PTH,ComponentDrill
T8C1.300
; #@! TA.AperFunction,Plated,PTH,ComponentDrill
T9C1.600
; #@! TA.AperFunction,Plated,PTH,ComponentDrill
T10C2.000
%
G90
G05
T1
X159.258Y-49.53
X161.798Y-47.498
X166.785Y-48.26
X167.64Y-45.212
X170.18Y-33.02
X170.688Y-44.704
X172.593Y-32.893
X174.244Y-34.544
X174.79Y-45.25
T2
X121.92Y-32.258
X121.92Y-47.498
T3
X131.826Y-50.8
X131.826Y-53.34
X139.7Y-53.34
X142.24Y-53.34
X143.51Y-57.912
X143.51Y-60.452
X144.78Y-53.34
X147.32Y-53.34
T4
X122.428Y-51.308
X122.428Y-62.738
X165.608Y-67.31
X165.608Y-71.374
X167.64Y-52.705
X167.64Y-64.135
X171.958Y-52.705
X171.958Y-64.135
X177.038Y-67.31
X177.038Y-71.374
X187.706Y-61.976
X187.706Y-67.056
X197.866Y-61.976
X197.866Y-67.056
T5
X147.69Y-61.0
X147.69Y-66.0
X162.19Y-61.0
X162.19Y-63.5
X162.19Y-66.0
T6
X127.0Y-32.258
X127.0Y-47.498
X129.54Y-32.258
X129.54Y-34.798
X129.54Y-47.498
X132.08Y-32.258
X132.08Y-47.498
X134.62Y-32.258
X134.62Y-47.498
X137.16Y-32.258
X137.16Y-47.498
X139.7Y-32.258
X139.7Y-47.498
X142.24Y-32.258
X142.24Y-47.498
X144.78Y-32.258
X144.78Y-47.498
X147.32Y-32.258
X147.32Y-47.498
X149.86Y-32.258
X149.86Y-47.498
X152.4Y-32.258
X152.4Y-34.798
X152.4Y-37.338
X152.4Y-39.878
X152.4Y-42.418
X152.4Y-44.958
X152.4Y-47.498
X154.94Y-32.258
X154.94Y-34.798
X154.94Y-37.338
X154.94Y-39.878
X154.94Y-42.418
X154.94Y-44.958
X154.94Y-47.498
X157.48Y-32.258
X157.48Y-47.498
X160.02Y-32.258
X160.02Y-34.798
X160.02Y-37.338
X160.02Y-39.878
X160.02Y-42.418
X160.02Y-44.958
X160.02Y-47.498
T7
X191.008Y-50.038
T8
X129.366Y-56.996
X129.366Y-69.496
X134.366Y-56.996
X134.366Y-69.496
T9
X187.198Y-41.783
X191.008Y-45.593
X194.818Y-41.783
T10
G00X155.24Y-57.9
M15
G01X154.14Y-57.9
M16
G05
G00X155.24Y-69.1
M15
G01X154.14Y-69.1
M16
G05
M30
