%TF.GenerationSoftware,KiCad,Pcbnew,9.0.3*%
%TF.CreationDate,2025-08-09T15:05:22+10:00*%
%TF.ProjectId,soundrocket,736f756e-6472-46f6-936b-65742e6b6963,rev?*%
%TF.SameCoordinates,Original*%
%TF.FileFunction,Soldermask,Bot*%
%TF.FilePolarity,Negative*%
%FSLAX46Y46*%
G04 Gerber Fmt 4.6, Leading zero omitted, Abs format (unit mm)*
G04 Created by KiCad (PCBNEW 9.0.3) date 2025-08-09 15:05:22*
%MOMM*%
%LPD*%
G01*
G04 APERTURE LIST*
G04 Aperture macros list*
%AMRoundRect*
0 Rectangle with rounded corners*
0 $1 Rounding radius*
0 $2 $3 $4 $5 $6 $7 $8 $9 X,Y pos of 4 corners*
0 Add a 4 corners polygon primitive as box body*
4,1,4,$2,$3,$4,$5,$6,$7,$8,$9,$2,$3,0*
0 Add four circle primitives for the rounded corners*
1,1,$1+$1,$2,$3*
1,1,$1+$1,$4,$5*
1,1,$1+$1,$6,$7*
1,1,$1+$1,$8,$9*
0 Add four rect primitives between the rounded corners*
20,1,$1+$1,$2,$3,$4,$5,0*
20,1,$1+$1,$4,$5,$6,$7,0*
20,1,$1+$1,$6,$7,$8,$9,0*
20,1,$1+$1,$8,$9,$2,$3,0*%
G04 Aperture macros list end*
%ADD10RoundRect,0.102000X-0.659000X0.659000X-0.659000X-0.659000X0.659000X-0.659000X0.659000X0.659000X0*%
%ADD11C,1.522000*%
%ADD12C,1.600000*%
%ADD13RoundRect,0.250000X0.550000X0.550000X-0.550000X0.550000X-0.550000X-0.550000X0.550000X-0.550000X0*%
%ADD14O,4.100000X3.000000*%
%ADD15C,3.400000*%
%ADD16C,2.900000*%
%ADD17RoundRect,0.102000X-0.698500X-0.698500X0.698500X-0.698500X0.698500X0.698500X-0.698500X0.698500X0*%
%ADD18C,1.601000*%
%ADD19C,1.500000*%
%ADD20O,1.900000X3.200000*%
G04 APERTURE END LIST*
D10*
%TO.C,C2*%
X174752000Y-60960000D03*
D11*
X174752000Y-63500000D03*
%TD*%
D12*
%TO.C,U1*%
X127000000Y-47498000D03*
X129540000Y-47498000D03*
X132080000Y-47498000D03*
X134620000Y-47498000D03*
X137160000Y-47498000D03*
X139700000Y-47498000D03*
X142240000Y-47498000D03*
X144780000Y-47498000D03*
X147320000Y-47498000D03*
X149860000Y-47498000D03*
X152400000Y-47498000D03*
X154940000Y-47498000D03*
X157480000Y-47498000D03*
X160020000Y-47498000D03*
X160020000Y-44958000D03*
X160020000Y-42418000D03*
X160020000Y-39878000D03*
X160020000Y-37338000D03*
X160020000Y-34798000D03*
X160020000Y-32258000D03*
X157480000Y-32258000D03*
X154940000Y-32258000D03*
X152400000Y-32258000D03*
X149860000Y-32258000D03*
X147320000Y-32258000D03*
X144780000Y-32258000D03*
X142240000Y-32258000D03*
X139700000Y-32258000D03*
X137160000Y-32258000D03*
X134620000Y-32258000D03*
X132080000Y-32258000D03*
X129540000Y-32258000D03*
X127000000Y-32258000D03*
X129540000Y-34798000D03*
X154940000Y-34798000D03*
X152400000Y-34798000D03*
X154940000Y-37338000D03*
X152400000Y-37338000D03*
X154940000Y-39878000D03*
X152400000Y-39878000D03*
X154940000Y-42418000D03*
X152400000Y-42418000D03*
X154940000Y-44958000D03*
X152400000Y-44958000D03*
%TD*%
D13*
%TO.C,SW2*%
X168540000Y-66000000D03*
D12*
X168540000Y-61000000D03*
X168540000Y-63500000D03*
X154040000Y-66000000D03*
X154040000Y-61000000D03*
D14*
X161040000Y-69100000D03*
X161040000Y-57900000D03*
%TD*%
D10*
%TO.C,C4*%
X149860000Y-68580000D03*
D11*
X149860000Y-71120000D03*
%TD*%
D12*
%TO.C,J1*%
X192278000Y-45212000D03*
X197358000Y-37592000D03*
D15*
X188468000Y-37592000D03*
X187833000Y-45212000D03*
D16*
X184018000Y-41402000D03*
%TD*%
D17*
%TO.C,T1*%
X187706000Y-67056000D03*
D18*
X187706000Y-61976000D03*
X197866000Y-67056000D03*
X197866000Y-61976000D03*
%TD*%
D19*
%TO.C,GND*%
X121920000Y-47498000D03*
%TD*%
%TO.C,5V*%
X121920000Y-32258000D03*
%TD*%
D10*
%TO.C,C1*%
X174752000Y-66040000D03*
D11*
X174752000Y-68580000D03*
%TD*%
D10*
%TO.C,C3*%
X123190000Y-59944000D03*
D11*
X123190000Y-62484000D03*
%TD*%
D20*
%TO.C,SW1*%
X133390000Y-56996000D03*
X138390000Y-56996000D03*
X133390000Y-69496000D03*
X138390000Y-69496000D03*
%TD*%
M02*
