%TF.GenerationSoftware,KiCad,Pcbnew,9.0.3*%
%TF.CreationDate,2025-08-09T15:05:22+10:00*%
%TF.ProjectId,soundrocket,736f756e-6472-46f6-936b-65742e6b6963,rev?*%
%TF.SameCoordinates,Original*%
%TF.FileFunction,Legend,Top*%
%TF.FilePolarity,Positive*%
%FSLAX46Y46*%
G04 Gerber Fmt 4.6, Leading zero omitted, Abs format (unit mm)*
G04 Created by KiCad (PCBNEW 9.0.3) date 2025-08-09 15:05:22*
%MOMM*%
%LPD*%
G01*
G04 APERTURE LIST*
%ADD10C,0.150000*%
%ADD11C,0.127000*%
%ADD12C,0.100000*%
%ADD13C,0.120000*%
%ADD14C,0.200000*%
G04 APERTURE END LIST*
D10*
X177405723Y-62336666D02*
X177436200Y-62367142D01*
X177436200Y-62367142D02*
X177466676Y-62458571D01*
X177466676Y-62458571D02*
X177466676Y-62519523D01*
X177466676Y-62519523D02*
X177436200Y-62610952D01*
X177436200Y-62610952D02*
X177375247Y-62671904D01*
X177375247Y-62671904D02*
X177314295Y-62702381D01*
X177314295Y-62702381D02*
X177192390Y-62732857D01*
X177192390Y-62732857D02*
X177100961Y-62732857D01*
X177100961Y-62732857D02*
X176979057Y-62702381D01*
X176979057Y-62702381D02*
X176918104Y-62671904D01*
X176918104Y-62671904D02*
X176857152Y-62610952D01*
X176857152Y-62610952D02*
X176826676Y-62519523D01*
X176826676Y-62519523D02*
X176826676Y-62458571D01*
X176826676Y-62458571D02*
X176857152Y-62367142D01*
X176857152Y-62367142D02*
X176887628Y-62336666D01*
X176887628Y-62092857D02*
X176857152Y-62062381D01*
X176857152Y-62062381D02*
X176826676Y-62001428D01*
X176826676Y-62001428D02*
X176826676Y-61849047D01*
X176826676Y-61849047D02*
X176857152Y-61788095D01*
X176857152Y-61788095D02*
X176887628Y-61757619D01*
X176887628Y-61757619D02*
X176948580Y-61727142D01*
X176948580Y-61727142D02*
X177009533Y-61727142D01*
X177009533Y-61727142D02*
X177100961Y-61757619D01*
X177100961Y-61757619D02*
X177466676Y-62123333D01*
X177466676Y-62123333D02*
X177466676Y-61727142D01*
X142748095Y-29172819D02*
X142748095Y-29982342D01*
X142748095Y-29982342D02*
X142795714Y-30077580D01*
X142795714Y-30077580D02*
X142843333Y-30125200D01*
X142843333Y-30125200D02*
X142938571Y-30172819D01*
X142938571Y-30172819D02*
X143129047Y-30172819D01*
X143129047Y-30172819D02*
X143224285Y-30125200D01*
X143224285Y-30125200D02*
X143271904Y-30077580D01*
X143271904Y-30077580D02*
X143319523Y-29982342D01*
X143319523Y-29982342D02*
X143319523Y-29172819D01*
X144319523Y-30172819D02*
X143748095Y-30172819D01*
X144033809Y-30172819D02*
X144033809Y-29172819D01*
X144033809Y-29172819D02*
X143938571Y-29315676D01*
X143938571Y-29315676D02*
X143843333Y-29410914D01*
X143843333Y-29410914D02*
X143748095Y-29458533D01*
X144080033Y-42961333D02*
X143380033Y-42961333D01*
X143380033Y-42961333D02*
X143880033Y-42728000D01*
X143880033Y-42728000D02*
X143380033Y-42494666D01*
X143380033Y-42494666D02*
X144080033Y-42494666D01*
X144080033Y-42161333D02*
X143380033Y-42161333D01*
X144080033Y-41828000D02*
X143380033Y-41828000D01*
X143380033Y-41828000D02*
X143880033Y-41594667D01*
X143880033Y-41594667D02*
X143380033Y-41361333D01*
X143380033Y-41361333D02*
X144080033Y-41361333D01*
X143380033Y-41094667D02*
X144080033Y-40628000D01*
X143380033Y-40628000D02*
X144080033Y-41094667D01*
X144080033Y-39961333D02*
X143746700Y-40194666D01*
X144080033Y-40361333D02*
X143380033Y-40361333D01*
X143380033Y-40361333D02*
X143380033Y-40094666D01*
X143380033Y-40094666D02*
X143413366Y-40028000D01*
X143413366Y-40028000D02*
X143446700Y-39994666D01*
X143446700Y-39994666D02*
X143513366Y-39961333D01*
X143513366Y-39961333D02*
X143613366Y-39961333D01*
X143613366Y-39961333D02*
X143680033Y-39994666D01*
X143680033Y-39994666D02*
X143713366Y-40028000D01*
X143713366Y-40028000D02*
X143746700Y-40094666D01*
X143746700Y-40094666D02*
X143746700Y-40361333D01*
X143380033Y-39761333D02*
X143380033Y-39361333D01*
X144080033Y-39561333D02*
X143380033Y-39561333D01*
X144080033Y-38761333D02*
X144080033Y-39161333D01*
X144080033Y-38961333D02*
X143380033Y-38961333D01*
X143380033Y-38961333D02*
X143480033Y-39028000D01*
X143480033Y-39028000D02*
X143546700Y-39094667D01*
X143546700Y-39094667D02*
X143580033Y-39161333D01*
X143380033Y-38328000D02*
X143380033Y-38261333D01*
X143380033Y-38261333D02*
X143413366Y-38194666D01*
X143413366Y-38194666D02*
X143446700Y-38161333D01*
X143446700Y-38161333D02*
X143513366Y-38128000D01*
X143513366Y-38128000D02*
X143646700Y-38094666D01*
X143646700Y-38094666D02*
X143813366Y-38094666D01*
X143813366Y-38094666D02*
X143946700Y-38128000D01*
X143946700Y-38128000D02*
X144013366Y-38161333D01*
X144013366Y-38161333D02*
X144046700Y-38194666D01*
X144046700Y-38194666D02*
X144080033Y-38261333D01*
X144080033Y-38261333D02*
X144080033Y-38328000D01*
X144080033Y-38328000D02*
X144046700Y-38394666D01*
X144046700Y-38394666D02*
X144013366Y-38428000D01*
X144013366Y-38428000D02*
X143946700Y-38461333D01*
X143946700Y-38461333D02*
X143813366Y-38494666D01*
X143813366Y-38494666D02*
X143646700Y-38494666D01*
X143646700Y-38494666D02*
X143513366Y-38461333D01*
X143513366Y-38461333D02*
X143446700Y-38428000D01*
X143446700Y-38428000D02*
X143413366Y-38394666D01*
X143413366Y-38394666D02*
X143380033Y-38328000D01*
X143380033Y-37494666D02*
X143380033Y-37627999D01*
X143380033Y-37627999D02*
X143413366Y-37694666D01*
X143413366Y-37694666D02*
X143446700Y-37727999D01*
X143446700Y-37727999D02*
X143546700Y-37794666D01*
X143546700Y-37794666D02*
X143680033Y-37827999D01*
X143680033Y-37827999D02*
X143946700Y-37827999D01*
X143946700Y-37827999D02*
X144013366Y-37794666D01*
X144013366Y-37794666D02*
X144046700Y-37761333D01*
X144046700Y-37761333D02*
X144080033Y-37694666D01*
X144080033Y-37694666D02*
X144080033Y-37561333D01*
X144080033Y-37561333D02*
X144046700Y-37494666D01*
X144046700Y-37494666D02*
X144013366Y-37461333D01*
X144013366Y-37461333D02*
X143946700Y-37427999D01*
X143946700Y-37427999D02*
X143780033Y-37427999D01*
X143780033Y-37427999D02*
X143713366Y-37461333D01*
X143713366Y-37461333D02*
X143680033Y-37494666D01*
X143680033Y-37494666D02*
X143646700Y-37561333D01*
X143646700Y-37561333D02*
X143646700Y-37694666D01*
X143646700Y-37694666D02*
X143680033Y-37761333D01*
X143680033Y-37761333D02*
X143713366Y-37794666D01*
X143713366Y-37794666D02*
X143780033Y-37827999D01*
X143446700Y-37161332D02*
X143413366Y-37127999D01*
X143413366Y-37127999D02*
X143380033Y-37061332D01*
X143380033Y-37061332D02*
X143380033Y-36894666D01*
X143380033Y-36894666D02*
X143413366Y-36827999D01*
X143413366Y-36827999D02*
X143446700Y-36794666D01*
X143446700Y-36794666D02*
X143513366Y-36761332D01*
X143513366Y-36761332D02*
X143580033Y-36761332D01*
X143580033Y-36761332D02*
X143680033Y-36794666D01*
X143680033Y-36794666D02*
X144080033Y-37194666D01*
X144080033Y-37194666D02*
X144080033Y-36761332D01*
X145604033Y-41278000D02*
X144904033Y-41278000D01*
X144904033Y-41278000D02*
X144904033Y-41111333D01*
X144904033Y-41111333D02*
X144937366Y-41011333D01*
X144937366Y-41011333D02*
X145004033Y-40944667D01*
X145004033Y-40944667D02*
X145070700Y-40911333D01*
X145070700Y-40911333D02*
X145204033Y-40878000D01*
X145204033Y-40878000D02*
X145304033Y-40878000D01*
X145304033Y-40878000D02*
X145437366Y-40911333D01*
X145437366Y-40911333D02*
X145504033Y-40944667D01*
X145504033Y-40944667D02*
X145570700Y-41011333D01*
X145570700Y-41011333D02*
X145604033Y-41111333D01*
X145604033Y-41111333D02*
X145604033Y-41278000D01*
X144904033Y-40678000D02*
X145604033Y-40444667D01*
X145604033Y-40444667D02*
X144904033Y-40211333D01*
X145604033Y-39644667D02*
X145604033Y-39978000D01*
X145604033Y-39978000D02*
X144904033Y-39978000D01*
X144904033Y-39111333D02*
X144904033Y-39244666D01*
X144904033Y-39244666D02*
X144937366Y-39311333D01*
X144937366Y-39311333D02*
X144970700Y-39344666D01*
X144970700Y-39344666D02*
X145070700Y-39411333D01*
X145070700Y-39411333D02*
X145204033Y-39444666D01*
X145204033Y-39444666D02*
X145470700Y-39444666D01*
X145470700Y-39444666D02*
X145537366Y-39411333D01*
X145537366Y-39411333D02*
X145570700Y-39378000D01*
X145570700Y-39378000D02*
X145604033Y-39311333D01*
X145604033Y-39311333D02*
X145604033Y-39178000D01*
X145604033Y-39178000D02*
X145570700Y-39111333D01*
X145570700Y-39111333D02*
X145537366Y-39078000D01*
X145537366Y-39078000D02*
X145470700Y-39044666D01*
X145470700Y-39044666D02*
X145304033Y-39044666D01*
X145304033Y-39044666D02*
X145237366Y-39078000D01*
X145237366Y-39078000D02*
X145204033Y-39111333D01*
X145204033Y-39111333D02*
X145170700Y-39178000D01*
X145170700Y-39178000D02*
X145170700Y-39311333D01*
X145170700Y-39311333D02*
X145204033Y-39378000D01*
X145204033Y-39378000D02*
X145237366Y-39411333D01*
X145237366Y-39411333D02*
X145304033Y-39444666D01*
X145404033Y-38777999D02*
X145404033Y-38444666D01*
X145604033Y-38844666D02*
X144904033Y-38611333D01*
X144904033Y-38611333D02*
X145604033Y-38377999D01*
X164206667Y-71157200D02*
X164349524Y-71204819D01*
X164349524Y-71204819D02*
X164587619Y-71204819D01*
X164587619Y-71204819D02*
X164682857Y-71157200D01*
X164682857Y-71157200D02*
X164730476Y-71109580D01*
X164730476Y-71109580D02*
X164778095Y-71014342D01*
X164778095Y-71014342D02*
X164778095Y-70919104D01*
X164778095Y-70919104D02*
X164730476Y-70823866D01*
X164730476Y-70823866D02*
X164682857Y-70776247D01*
X164682857Y-70776247D02*
X164587619Y-70728628D01*
X164587619Y-70728628D02*
X164397143Y-70681009D01*
X164397143Y-70681009D02*
X164301905Y-70633390D01*
X164301905Y-70633390D02*
X164254286Y-70585771D01*
X164254286Y-70585771D02*
X164206667Y-70490533D01*
X164206667Y-70490533D02*
X164206667Y-70395295D01*
X164206667Y-70395295D02*
X164254286Y-70300057D01*
X164254286Y-70300057D02*
X164301905Y-70252438D01*
X164301905Y-70252438D02*
X164397143Y-70204819D01*
X164397143Y-70204819D02*
X164635238Y-70204819D01*
X164635238Y-70204819D02*
X164778095Y-70252438D01*
X165111429Y-70204819D02*
X165349524Y-71204819D01*
X165349524Y-71204819D02*
X165540000Y-70490533D01*
X165540000Y-70490533D02*
X165730476Y-71204819D01*
X165730476Y-71204819D02*
X165968572Y-70204819D01*
X166301905Y-70300057D02*
X166349524Y-70252438D01*
X166349524Y-70252438D02*
X166444762Y-70204819D01*
X166444762Y-70204819D02*
X166682857Y-70204819D01*
X166682857Y-70204819D02*
X166778095Y-70252438D01*
X166778095Y-70252438D02*
X166825714Y-70300057D01*
X166825714Y-70300057D02*
X166873333Y-70395295D01*
X166873333Y-70395295D02*
X166873333Y-70490533D01*
X166873333Y-70490533D02*
X166825714Y-70633390D01*
X166825714Y-70633390D02*
X166254286Y-71204819D01*
X166254286Y-71204819D02*
X166873333Y-71204819D01*
X152119323Y-71480666D02*
X152149800Y-71511142D01*
X152149800Y-71511142D02*
X152180276Y-71602571D01*
X152180276Y-71602571D02*
X152180276Y-71663523D01*
X152180276Y-71663523D02*
X152149800Y-71754952D01*
X152149800Y-71754952D02*
X152088847Y-71815904D01*
X152088847Y-71815904D02*
X152027895Y-71846381D01*
X152027895Y-71846381D02*
X151905990Y-71876857D01*
X151905990Y-71876857D02*
X151814561Y-71876857D01*
X151814561Y-71876857D02*
X151692657Y-71846381D01*
X151692657Y-71846381D02*
X151631704Y-71815904D01*
X151631704Y-71815904D02*
X151570752Y-71754952D01*
X151570752Y-71754952D02*
X151540276Y-71663523D01*
X151540276Y-71663523D02*
X151540276Y-71602571D01*
X151540276Y-71602571D02*
X151570752Y-71511142D01*
X151570752Y-71511142D02*
X151601228Y-71480666D01*
X151753609Y-70932095D02*
X152180276Y-70932095D01*
X151509800Y-71084476D02*
X151966942Y-71236857D01*
X151966942Y-71236857D02*
X151966942Y-70840666D01*
X192434666Y-27046819D02*
X192434666Y-27761104D01*
X192434666Y-27761104D02*
X192387047Y-27903961D01*
X192387047Y-27903961D02*
X192291809Y-27999200D01*
X192291809Y-27999200D02*
X192148952Y-28046819D01*
X192148952Y-28046819D02*
X192053714Y-28046819D01*
X193434666Y-28046819D02*
X192863238Y-28046819D01*
X193148952Y-28046819D02*
X193148952Y-27046819D01*
X193148952Y-27046819D02*
X193053714Y-27189676D01*
X193053714Y-27189676D02*
X192958476Y-27284914D01*
X192958476Y-27284914D02*
X192863238Y-27332533D01*
X121158095Y-45352438D02*
X121062857Y-45304819D01*
X121062857Y-45304819D02*
X120920000Y-45304819D01*
X120920000Y-45304819D02*
X120777143Y-45352438D01*
X120777143Y-45352438D02*
X120681905Y-45447676D01*
X120681905Y-45447676D02*
X120634286Y-45542914D01*
X120634286Y-45542914D02*
X120586667Y-45733390D01*
X120586667Y-45733390D02*
X120586667Y-45876247D01*
X120586667Y-45876247D02*
X120634286Y-46066723D01*
X120634286Y-46066723D02*
X120681905Y-46161961D01*
X120681905Y-46161961D02*
X120777143Y-46257200D01*
X120777143Y-46257200D02*
X120920000Y-46304819D01*
X120920000Y-46304819D02*
X121015238Y-46304819D01*
X121015238Y-46304819D02*
X121158095Y-46257200D01*
X121158095Y-46257200D02*
X121205714Y-46209580D01*
X121205714Y-46209580D02*
X121205714Y-45876247D01*
X121205714Y-45876247D02*
X121015238Y-45876247D01*
X121634286Y-46304819D02*
X121634286Y-45304819D01*
X121634286Y-45304819D02*
X122205714Y-46304819D01*
X122205714Y-46304819D02*
X122205714Y-45304819D01*
X122681905Y-46304819D02*
X122681905Y-45304819D01*
X122681905Y-45304819D02*
X122920000Y-45304819D01*
X122920000Y-45304819D02*
X123062857Y-45352438D01*
X123062857Y-45352438D02*
X123158095Y-45447676D01*
X123158095Y-45447676D02*
X123205714Y-45542914D01*
X123205714Y-45542914D02*
X123253333Y-45733390D01*
X123253333Y-45733390D02*
X123253333Y-45876247D01*
X123253333Y-45876247D02*
X123205714Y-46066723D01*
X123205714Y-46066723D02*
X123158095Y-46161961D01*
X123158095Y-46161961D02*
X123062857Y-46257200D01*
X123062857Y-46257200D02*
X122920000Y-46304819D01*
X122920000Y-46304819D02*
X122681905Y-46304819D01*
X121729523Y-30064819D02*
X121253333Y-30064819D01*
X121253333Y-30064819D02*
X121205714Y-30541009D01*
X121205714Y-30541009D02*
X121253333Y-30493390D01*
X121253333Y-30493390D02*
X121348571Y-30445771D01*
X121348571Y-30445771D02*
X121586666Y-30445771D01*
X121586666Y-30445771D02*
X121681904Y-30493390D01*
X121681904Y-30493390D02*
X121729523Y-30541009D01*
X121729523Y-30541009D02*
X121777142Y-30636247D01*
X121777142Y-30636247D02*
X121777142Y-30874342D01*
X121777142Y-30874342D02*
X121729523Y-30969580D01*
X121729523Y-30969580D02*
X121681904Y-31017200D01*
X121681904Y-31017200D02*
X121586666Y-31064819D01*
X121586666Y-31064819D02*
X121348571Y-31064819D01*
X121348571Y-31064819D02*
X121253333Y-31017200D01*
X121253333Y-31017200D02*
X121205714Y-30969580D01*
X122062857Y-30064819D02*
X122396190Y-31064819D01*
X122396190Y-31064819D02*
X122729523Y-30064819D01*
X177405723Y-67416666D02*
X177436200Y-67447142D01*
X177436200Y-67447142D02*
X177466676Y-67538571D01*
X177466676Y-67538571D02*
X177466676Y-67599523D01*
X177466676Y-67599523D02*
X177436200Y-67690952D01*
X177436200Y-67690952D02*
X177375247Y-67751904D01*
X177375247Y-67751904D02*
X177314295Y-67782381D01*
X177314295Y-67782381D02*
X177192390Y-67812857D01*
X177192390Y-67812857D02*
X177100961Y-67812857D01*
X177100961Y-67812857D02*
X176979057Y-67782381D01*
X176979057Y-67782381D02*
X176918104Y-67751904D01*
X176918104Y-67751904D02*
X176857152Y-67690952D01*
X176857152Y-67690952D02*
X176826676Y-67599523D01*
X176826676Y-67599523D02*
X176826676Y-67538571D01*
X176826676Y-67538571D02*
X176857152Y-67447142D01*
X176857152Y-67447142D02*
X176887628Y-67416666D01*
X177466676Y-66807142D02*
X177466676Y-67172857D01*
X177466676Y-66990000D02*
X176826676Y-66990000D01*
X176826676Y-66990000D02*
X176918104Y-67050952D01*
X176918104Y-67050952D02*
X176979057Y-67111904D01*
X176979057Y-67111904D02*
X177009533Y-67172857D01*
X176581819Y-39804404D02*
X177391342Y-39804404D01*
X177391342Y-39804404D02*
X177486580Y-39756785D01*
X177486580Y-39756785D02*
X177534200Y-39709166D01*
X177534200Y-39709166D02*
X177581819Y-39613928D01*
X177581819Y-39613928D02*
X177581819Y-39423452D01*
X177581819Y-39423452D02*
X177534200Y-39328214D01*
X177534200Y-39328214D02*
X177486580Y-39280595D01*
X177486580Y-39280595D02*
X177391342Y-39232976D01*
X177391342Y-39232976D02*
X176581819Y-39232976D01*
X176677057Y-38804404D02*
X176629438Y-38756785D01*
X176629438Y-38756785D02*
X176581819Y-38661547D01*
X176581819Y-38661547D02*
X176581819Y-38423452D01*
X176581819Y-38423452D02*
X176629438Y-38328214D01*
X176629438Y-38328214D02*
X176677057Y-38280595D01*
X176677057Y-38280595D02*
X176772295Y-38232976D01*
X176772295Y-38232976D02*
X176867533Y-38232976D01*
X176867533Y-38232976D02*
X177010390Y-38280595D01*
X177010390Y-38280595D02*
X177581819Y-38852023D01*
X177581819Y-38852023D02*
X177581819Y-38232976D01*
X125703323Y-61320666D02*
X125733800Y-61351142D01*
X125733800Y-61351142D02*
X125764276Y-61442571D01*
X125764276Y-61442571D02*
X125764276Y-61503523D01*
X125764276Y-61503523D02*
X125733800Y-61594952D01*
X125733800Y-61594952D02*
X125672847Y-61655904D01*
X125672847Y-61655904D02*
X125611895Y-61686381D01*
X125611895Y-61686381D02*
X125489990Y-61716857D01*
X125489990Y-61716857D02*
X125398561Y-61716857D01*
X125398561Y-61716857D02*
X125276657Y-61686381D01*
X125276657Y-61686381D02*
X125215704Y-61655904D01*
X125215704Y-61655904D02*
X125154752Y-61594952D01*
X125154752Y-61594952D02*
X125124276Y-61503523D01*
X125124276Y-61503523D02*
X125124276Y-61442571D01*
X125124276Y-61442571D02*
X125154752Y-61351142D01*
X125154752Y-61351142D02*
X125185228Y-61320666D01*
X125124276Y-61107333D02*
X125124276Y-60711142D01*
X125124276Y-60711142D02*
X125368085Y-60924476D01*
X125368085Y-60924476D02*
X125368085Y-60833047D01*
X125368085Y-60833047D02*
X125398561Y-60772095D01*
X125398561Y-60772095D02*
X125429038Y-60741619D01*
X125429038Y-60741619D02*
X125489990Y-60711142D01*
X125489990Y-60711142D02*
X125642371Y-60711142D01*
X125642371Y-60711142D02*
X125703323Y-60741619D01*
X125703323Y-60741619D02*
X125733800Y-60772095D01*
X125733800Y-60772095D02*
X125764276Y-60833047D01*
X125764276Y-60833047D02*
X125764276Y-61015904D01*
X125764276Y-61015904D02*
X125733800Y-61076857D01*
X125733800Y-61076857D02*
X125703323Y-61107333D01*
X128387200Y-64999332D02*
X128434819Y-64856475D01*
X128434819Y-64856475D02*
X128434819Y-64618380D01*
X128434819Y-64618380D02*
X128387200Y-64523142D01*
X128387200Y-64523142D02*
X128339580Y-64475523D01*
X128339580Y-64475523D02*
X128244342Y-64427904D01*
X128244342Y-64427904D02*
X128149104Y-64427904D01*
X128149104Y-64427904D02*
X128053866Y-64475523D01*
X128053866Y-64475523D02*
X128006247Y-64523142D01*
X128006247Y-64523142D02*
X127958628Y-64618380D01*
X127958628Y-64618380D02*
X127911009Y-64808856D01*
X127911009Y-64808856D02*
X127863390Y-64904094D01*
X127863390Y-64904094D02*
X127815771Y-64951713D01*
X127815771Y-64951713D02*
X127720533Y-64999332D01*
X127720533Y-64999332D02*
X127625295Y-64999332D01*
X127625295Y-64999332D02*
X127530057Y-64951713D01*
X127530057Y-64951713D02*
X127482438Y-64904094D01*
X127482438Y-64904094D02*
X127434819Y-64808856D01*
X127434819Y-64808856D02*
X127434819Y-64570761D01*
X127434819Y-64570761D02*
X127482438Y-64427904D01*
X127434819Y-64094570D02*
X128434819Y-63856475D01*
X128434819Y-63856475D02*
X127720533Y-63665999D01*
X127720533Y-63665999D02*
X128434819Y-63475523D01*
X128434819Y-63475523D02*
X127434819Y-63237428D01*
X128434819Y-62332666D02*
X128434819Y-62904094D01*
X128434819Y-62618380D02*
X127434819Y-62618380D01*
X127434819Y-62618380D02*
X127577676Y-62713618D01*
X127577676Y-62713618D02*
X127672914Y-62808856D01*
X127672914Y-62808856D02*
X127720533Y-62904094D01*
D11*
%TO.C,C2*%
X173482000Y-60325000D02*
X173482000Y-64135000D01*
X173482000Y-60325000D02*
X173773000Y-60325000D01*
X173482000Y-64135000D02*
X173773000Y-64135000D01*
X175731000Y-64135000D02*
X176022000Y-64135000D01*
X176022000Y-60325000D02*
X175731000Y-60325000D01*
X176022000Y-64135000D02*
X176022000Y-60325000D01*
D10*
%TO.C,U1*%
X124460000Y-36068000D02*
X125730000Y-36068000D01*
X124460000Y-43688000D02*
X124460000Y-36068000D01*
X125730000Y-30988000D02*
X161290000Y-30988000D01*
X125730000Y-43688000D02*
X124460000Y-43688000D01*
X125730000Y-48768000D02*
X125730000Y-30988000D01*
X130810000Y-36068000D02*
X125730000Y-36068000D01*
X130810000Y-43688000D02*
X125730000Y-43688000D01*
X130810000Y-43688000D02*
X130810000Y-36068000D01*
X137795000Y-34798000D02*
X137795000Y-44958000D01*
X147955000Y-34798000D02*
X137795000Y-34798000D01*
X147955000Y-44958000D02*
X137795000Y-44958000D01*
X147955000Y-44958000D02*
X147955000Y-34798000D01*
X148590000Y-34798000D02*
X151130000Y-34798000D01*
X148590000Y-37973000D02*
X148590000Y-34798000D01*
X151130000Y-34798000D02*
X151130000Y-37973000D01*
X151130000Y-37973000D02*
X148590000Y-37973000D01*
X153670000Y-38608000D02*
X158242000Y-38608000D01*
X153670000Y-41148000D02*
X153670000Y-38608000D01*
X158242000Y-38608000D02*
X158242000Y-41148000D01*
X158242000Y-41148000D02*
X153670000Y-41148000D01*
X161290000Y-30988000D02*
X161290000Y-48768000D01*
X161290000Y-48768000D02*
X125730000Y-48768000D01*
D12*
X140081000Y-40132000D02*
X139827000Y-40386000D01*
X139573000Y-40005000D01*
X139827000Y-39751000D01*
X140081000Y-40132000D01*
G36*
X140081000Y-40132000D02*
G01*
X139827000Y-40386000D01*
X139573000Y-40005000D01*
X139827000Y-39751000D01*
X140081000Y-40132000D01*
G37*
X140462000Y-39751000D02*
X140208000Y-40005000D01*
X139954000Y-39624000D01*
X140208000Y-39370000D01*
X140462000Y-39751000D01*
G36*
X140462000Y-39751000D02*
G01*
X140208000Y-40005000D01*
X139954000Y-39624000D01*
X140208000Y-39370000D01*
X140462000Y-39751000D01*
G37*
X140843000Y-39370000D02*
X140589000Y-39624000D01*
X140335000Y-39243000D01*
X140589000Y-38989000D01*
X140843000Y-39370000D01*
G36*
X140843000Y-39370000D02*
G01*
X140589000Y-39624000D01*
X140335000Y-39243000D01*
X140589000Y-38989000D01*
X140843000Y-39370000D01*
G37*
X141224000Y-39878000D02*
X140970000Y-40132000D01*
X140716000Y-39751000D01*
X140970000Y-39497000D01*
X141224000Y-39878000D01*
G36*
X141224000Y-39878000D02*
G01*
X140970000Y-40132000D01*
X140716000Y-39751000D01*
X140970000Y-39497000D01*
X141224000Y-39878000D01*
G37*
X141605000Y-39497000D02*
X141351000Y-39751000D01*
X141097000Y-39370000D01*
X141351000Y-39116000D01*
X141605000Y-39497000D01*
G36*
X141605000Y-39497000D02*
G01*
X141351000Y-39751000D01*
X141097000Y-39370000D01*
X141351000Y-39116000D01*
X141605000Y-39497000D01*
G37*
X141605000Y-40386000D02*
X141351000Y-40640000D01*
X141097000Y-40259000D01*
X141351000Y-40005000D01*
X141605000Y-40386000D01*
G36*
X141605000Y-40386000D02*
G01*
X141351000Y-40640000D01*
X141097000Y-40259000D01*
X141351000Y-40005000D01*
X141605000Y-40386000D01*
G37*
X141986000Y-40005000D02*
X141732000Y-40259000D01*
X141478000Y-39878000D01*
X141732000Y-39624000D01*
X141986000Y-40005000D01*
G36*
X141986000Y-40005000D02*
G01*
X141732000Y-40259000D01*
X141478000Y-39878000D01*
X141732000Y-39624000D01*
X141986000Y-40005000D01*
G37*
X142367000Y-40513000D02*
X142113000Y-40767000D01*
X141859000Y-40386000D01*
X142113000Y-40132000D01*
X142367000Y-40513000D01*
G36*
X142367000Y-40513000D02*
G01*
X142113000Y-40767000D01*
X141859000Y-40386000D01*
X142113000Y-40132000D01*
X142367000Y-40513000D01*
G37*
D13*
%TO.C,SW2*%
X154230000Y-57190000D02*
X158840000Y-57190000D01*
X154230000Y-59900000D02*
X154230000Y-57190000D01*
X154230000Y-64900000D02*
X154230000Y-62100000D01*
X154230000Y-69800000D02*
X154230000Y-67100000D01*
X158840000Y-69800000D02*
X154230000Y-69800000D01*
X163240000Y-57190000D02*
X167850000Y-57190000D01*
X167850000Y-60150000D02*
X167850000Y-57190000D01*
X167850000Y-62650000D02*
X167850000Y-61850000D01*
X167850000Y-64950000D02*
X167850000Y-64350000D01*
X167850000Y-67050000D02*
X167850000Y-69810000D01*
X167850000Y-69810000D02*
X163240000Y-69810000D01*
D11*
%TO.C,C4*%
X148590000Y-67945000D02*
X148590000Y-71755000D01*
X148590000Y-67945000D02*
X148881000Y-67945000D01*
X148590000Y-71755000D02*
X148881000Y-71755000D01*
X150839000Y-71755000D02*
X151130000Y-71755000D01*
X151130000Y-67945000D02*
X150839000Y-67945000D01*
X151130000Y-71755000D02*
X151130000Y-67945000D01*
D13*
%TO.C,J1*%
X181548000Y-33282000D02*
X181548000Y-49522000D01*
X189048000Y-30532000D02*
X189048000Y-33282000D01*
X189048000Y-33282000D02*
X181548000Y-33282000D01*
X189048000Y-49522000D02*
X181548000Y-49522000D01*
X189048000Y-49522000D02*
X189048000Y-52272000D01*
X194548000Y-30532000D02*
X189048000Y-30532000D01*
X194548000Y-30532000D02*
X194548000Y-28782000D01*
X194548000Y-52272000D02*
X189048000Y-52272000D01*
X194548000Y-54022000D02*
X194548000Y-52272000D01*
X201288000Y-28782000D02*
X194548000Y-28782000D01*
X201288000Y-28782000D02*
X201288000Y-30282000D01*
X201288000Y-30282000D02*
X203988000Y-30282000D01*
X201288000Y-52522000D02*
X201288000Y-54022000D01*
X201288000Y-52522000D02*
X203988000Y-52522000D01*
X201288000Y-54022000D02*
X194548000Y-54022000D01*
X203988000Y-30282000D02*
X203988000Y-52522000D01*
D11*
%TO.C,T1*%
X186436000Y-60071000D02*
X186436000Y-68961000D01*
X186436000Y-60071000D02*
X199136000Y-60071000D01*
X186436000Y-68961000D02*
X199136000Y-68961000D01*
X199136000Y-60071000D02*
X199136000Y-68961000D01*
D14*
X185786000Y-67056000D02*
G75*
G02*
X185586000Y-67056000I-100000J0D01*
G01*
X185586000Y-67056000D02*
G75*
G02*
X185786000Y-67056000I100000J0D01*
G01*
D13*
%TO.C,GND*%
X122870000Y-47498000D02*
G75*
G02*
X120970000Y-47498000I-950000J0D01*
G01*
X120970000Y-47498000D02*
G75*
G02*
X122870000Y-47498000I950000J0D01*
G01*
%TO.C,5V*%
X122870000Y-32258000D02*
G75*
G02*
X120970000Y-32258000I-950000J0D01*
G01*
X120970000Y-32258000D02*
G75*
G02*
X122870000Y-32258000I950000J0D01*
G01*
D11*
%TO.C,C1*%
X173482000Y-65405000D02*
X173482000Y-69215000D01*
X173482000Y-65405000D02*
X173773000Y-65405000D01*
X173482000Y-69215000D02*
X173773000Y-69215000D01*
X175731000Y-69215000D02*
X176022000Y-69215000D01*
X176022000Y-65405000D02*
X175731000Y-65405000D01*
X176022000Y-69215000D02*
X176022000Y-65405000D01*
%TO.C,U2*%
X166365000Y-37487500D02*
X166365000Y-41887500D01*
X176065000Y-37487500D02*
X176065000Y-41887500D01*
D14*
X175950000Y-35247500D02*
G75*
G02*
X175750000Y-35247500I-100000J0D01*
G01*
X175750000Y-35247500D02*
G75*
G02*
X175950000Y-35247500I100000J0D01*
G01*
D11*
%TO.C,C3*%
X121920000Y-59309000D02*
X121920000Y-63119000D01*
X121920000Y-59309000D02*
X122211000Y-59309000D01*
X121920000Y-63119000D02*
X122211000Y-63119000D01*
X124169000Y-63119000D02*
X124460000Y-63119000D01*
X124460000Y-59309000D02*
X124169000Y-59309000D01*
X124460000Y-63119000D02*
X124460000Y-59309000D01*
D13*
%TO.C,SW1*%
X129780000Y-57136000D02*
X132290000Y-57136000D01*
X129780000Y-69356000D02*
X129780000Y-57136000D01*
X129780000Y-69356000D02*
X132290000Y-69356000D01*
X134590000Y-57136000D02*
X137190000Y-57136000D01*
X134590000Y-69356000D02*
X137190000Y-69356000D01*
X139490000Y-57136000D02*
X142000000Y-57136000D01*
X139490000Y-69356000D02*
X142000000Y-69356000D01*
X142000000Y-57136000D02*
X142000000Y-69356000D01*
X139440000Y-63246000D02*
G75*
G02*
X132340000Y-63246000I-3550000J0D01*
G01*
X132340000Y-63246000D02*
G75*
G02*
X139440000Y-63246000I3550000J0D01*
G01*
%TD*%
M02*
